<?xml version="1.0" encoding="utf-8"?>
<!-- Generator: Adobe Illustrator 23.0.4, SVG Export Plug-In . SVG Version: 6.00 Build 0)  -->
<svg version="1.1" id="Layer_1" xmlns="http://www.w3.org/2000/svg" xmlns:xlink="http://www.w3.org/1999/xlink" x="0px" y="0px"
	 viewBox="0 0 2520 2160" style="enable-background:new 0 0 2520 2160;" xml:space="preserve">
<style type="text/css">
	.st0{fill:none;stroke:#FFFFFF;stroke-width:6;stroke-miterlimit:10;}
	.st1{fill:#FFFFFF;}
</style>
<title>Main Library Floor Maps</title>
<path d="M2340.2,297.6c-36.2,0-65.6-29.3-65.6-65.5c0-17.4,6.9-34.1,19.2-46.5l0,0c25.6-25.6,67.2-25.6,92.8,0
	c25.6,25.6,25.6,67.2,0,92.8C2374.3,290.7,2357.6,297.6,2340.2,297.6z M2340.2,179.6c-13.9,0-27.2,5.5-37,15.3l0,0
	c-20.5,20.5-20.5,53.6,0,74.1c20.5,20.5,53.6,20.5,74.1,0s20.5-53.6,0-74.1C2367.5,185.1,2354.1,179.6,2340.2,179.6z"/>
<polygon points="2340.8,240.4 2366.4,256.1 2338.9,195.2 2313.4,256.1 "/>
<path d="M2354.3,121.9v31.7h-4.9l-17.5-21.5v21.5h-5.8v-31.7h4.8l17.5,21.5v-21.5H2354.3z"/>
<polyline class="st0" points="838.3,1949.8 374.2,1949.8 376.9,1464 364.2,1464 364.2,732 374.2,732 374.2,230.9 2142,230.9 
	2142,732.1 2151,732 2153,1460 2142,1460 2142,1949.8 1662,1949.8 1662,2023.6 840.2,2023.6 840.2,1865.5 "/>
<polyline class="st0" points="1625.3,895.6 1668,895.6 1668,369 1434,369 1434,895.6 1477.3,895.6 "/>
<line class="st0" x1="1589.3" y1="895.6" x2="1508.3" y2="895.6"/>
<polyline class="st0" points="1434,819 1548.3,819 1668,819 "/>
<line class="st0" x1="1551" y1="895.6" x2="1551" y2="819"/>
<polyline class="st0" points="1434,369 1077.3,369 1077.3,895.6 997.3,895.6 "/>
<line class="st0" x1="968.3" y1="895.6" x2="968.3" y2="417"/>
<polyline class="st0" points="1077.3,417 958.3,417 958.3,368 "/>
<line class="st0" x1="1953.3" y1="230.9" x2="1953.3" y2="332"/>
<line class="st0" x1="1781.3" y1="230.9" x2="1781.3" y2="332"/>
<line class="st0" x1="1668" y1="230.9" x2="1668" y2="332"/>
<line class="st0" x1="1544.3" y1="230.9" x2="1544.3" y2="332"/>
<line class="st0" x1="1490.3" y1="230.9" x2="1490.3" y2="332"/>
<line class="st0" x1="1434" y1="230.9" x2="1434" y2="332"/>
<line class="st0" x1="1077.3" y1="230.9" x2="1077.3" y2="332"/>
<line class="st0" x1="1023.3" y1="230.9" x2="1023.3" y2="332"/>
<line class="st0" x1="958.3" y1="230.9" x2="958.3" y2="332"/>
<polyline class="st0" points="1077.1,656.3 1252.6,656.3 1436.3,656.3 "/>
<line class="st0" x1="364.2" y1="1065" x2="471.3" y2="1065"/>
<line class="st0" x1="364.2" y1="1133" x2="471.3" y2="1133"/>
<line class="st0" x1="395.2" y1="1099" x2="451.3" y2="1099"/>
<line class="st0" x1="495.3" y1="1133" x2="495.3" y2="1065"/>
<path class="st1" d="M591.1,554.6v5.4h-25.7v-34.2h25v5.3h-18.6v8.9h16.5v5.2h-16.5v9.4L591.1,554.6z"/>
<path class="st1" d="M616.2,536.3c2,1.8,3,4.6,3,8.3V560h-5.8v-3.2c-0.8,1.2-1.9,2.1-3.2,2.6c-3.3,1.2-6.9,1.2-10.1-0.1
	c-1.4-0.6-2.6-1.6-3.4-2.8c-0.8-1.2-1.2-2.6-1.2-4c-0.1-2.2,0.9-4.3,2.6-5.7c1.7-1.4,4.5-2.1,8.2-2.1h6.7v-0.4
	c0.1-1.6-0.5-3.1-1.6-4.2c-1.4-1.1-3.1-1.6-4.9-1.5c-1.5,0-2.9,0.2-4.3,0.7c-1.3,0.4-2.5,1-3.6,1.9l-2.4-4.5
	c1.5-1.1,3.2-1.9,4.9-2.4c2-0.6,4-0.8,6.1-0.8C611.2,533.6,614.2,534.5,616.2,536.3z M610.6,554.8c1.2-0.7,2.1-1.7,2.5-3v-3h-6.3
	c-3.5,0-5.3,1.2-5.3,3.5c0,1,0.5,2,1.3,2.6c1.1,0.7,2.4,1.1,3.7,1C608,555.9,609.4,555.5,610.6,554.8z"/>
<path class="st1" d="M628.9,559.5c-1.7-0.4-3.4-1.1-4.8-2.1l2.3-4.6c1.3,0.8,2.7,1.5,4.2,1.9c1.6,0.5,3.2,0.7,4.9,0.7
	c3.6,0,5.5-1,5.5-2.9c0-0.9-0.6-1.7-1.4-1.9c-1.5-0.5-3-0.8-4.5-1c-1.8-0.2-3.5-0.6-5.2-1.1c-1.3-0.4-2.6-1.2-3.5-2.2
	c-1.1-1.2-1.6-2.8-1.5-4.4c0-2.4,1.1-4.6,3.1-5.9c2.1-1.5,4.9-2.2,8.4-2.2c1.8,0,3.6,0.2,5.4,0.6c1.5,0.3,3,0.9,4.4,1.6l-2.3,4.6
	c-2.3-1.3-4.9-2-7.5-2c-1.4-0.1-2.8,0.2-4.1,0.8c-0.8,0.4-1.4,1.2-1.4,2.1c0,0.9,0.6,1.8,1.5,2.1c1.5,0.5,3,0.9,4.6,1.1
	c1.7,0.3,3.4,0.6,5.1,1.1c1.3,0.4,2.5,1.1,3.5,2.2c1,1.2,1.5,2.7,1.4,4.3c0,2.4-1.2,4.6-3.2,5.9c-2.1,1.5-5,2.2-8.7,2.2
	C633,560.3,631,560,628.9,559.5z"/>
<path class="st1" d="M667.9,558.5c-0.8,0.6-1.7,1.1-2.6,1.3c-1.1,0.3-2.2,0.4-3.2,0.4c-2.4,0.2-4.8-0.7-6.7-2.2
	c-1.6-1.5-2.3-3.7-2.3-6.5V539h-4.3v-4.9h4.3v-6h6.1v6h7v4.9h-7v12.4c-0.1,1.1,0.3,2.1,0.9,2.9c0.7,0.7,1.7,1.1,2.7,1
	c1.2,0,2.4-0.3,3.4-1.1L667.9,558.5z"/>
<path class="st1" d="M709.2,552h-17.1l-3.4,8h-6.6l15.4-34.2h6.3l15.4,34.2h-6.7L709.2,552z M707.1,547l-6.5-15l-6.4,15H707.1z"/>
<path class="st1" d="M724.7,559.5c-1.7-0.4-3.4-1.1-4.8-2.1l2.3-4.6c1.3,0.8,2.7,1.5,4.2,1.9c1.6,0.5,3.2,0.7,4.9,0.7
	c3.7,0,5.5-1,5.5-2.9c0-0.9-0.5-1.7-1.4-1.9c-1.5-0.5-3-0.8-4.5-1c-1.8-0.2-3.5-0.6-5.2-1.1c-1.3-0.4-2.6-1.2-3.5-2.2
	c-1.1-1.2-1.6-2.8-1.5-4.4c0-2.4,1.1-4.6,3.1-5.9c2.5-1.6,5.4-2.4,8.4-2.2c1.8,0,3.6,0.2,5.4,0.6c1.5,0.3,3,0.9,4.4,1.6l-2.3,4.6
	c-2.3-1.3-4.9-2-7.5-2c-1.4-0.1-2.8,0.2-4.1,0.8c-0.8,0.4-1.4,1.2-1.4,2.1c0,0.9,0.6,1.8,1.5,2.1c1.5,0.5,3,0.9,4.6,1.1
	c1.7,0.3,3.4,0.6,5.1,1.1c1.3,0.4,2.5,1.1,3.5,2.2c1,1.2,1.5,2.7,1.4,4.3c0,2.4-1.2,4.6-3.2,5.9c-2.1,1.5-5,2.2-8.7,2.2
	C728.8,560.3,726.7,560,724.7,559.5z"/>
<path class="st1" d="M748.3,528.5c-1.4-1.4-1.5-3.6-0.2-5.1c0.1-0.1,0.1-0.1,0.2-0.2c0.8-0.7,1.8-1,2.8-1c1,0,2,0.3,2.8,1
	c0.7,0.6,1.1,1.6,1.1,2.5c0,1-0.4,2-1.1,2.7c-0.7,0.7-1.8,1.1-2.8,1.1C750.1,529.6,749.1,529.2,748.3,528.5z M748,533.9h6.1V560H748
	L748,533.9z"/>
<path class="st1" d="M780.9,536.3c2,1.8,3.1,4.6,3.1,8.3V560h-5.8v-3.2c-0.8,1.2-1.9,2.1-3.2,2.6c-3.3,1.2-6.9,1.2-10.1-0.1
	c-1.4-0.6-2.6-1.6-3.4-2.8c-0.8-1.2-1.2-2.6-1.2-4c-0.1-2.2,0.9-4.3,2.6-5.7c1.7-1.4,4.5-2.1,8.2-2.1h6.8v-0.4
	c0.1-1.6-0.5-3.1-1.6-4.2c-1.4-1.1-3.1-1.6-4.9-1.5c-1.5,0-2.9,0.2-4.3,0.7c-1.3,0.4-2.5,1-3.6,1.9l-2.4-4.5
	c1.5-1.1,3.2-1.9,4.9-2.4c2-0.6,4-0.8,6.1-0.8C776,533.6,778.9,534.5,780.9,536.3z M775.4,554.8c1.2-0.7,2.1-1.7,2.5-3v-3h-6.3
	c-3.5,0-5.3,1.2-5.3,3.5c0,1,0.5,2,1.3,2.6c1.1,0.7,2.4,1.1,3.7,1C772.7,555.9,774.1,555.5,775.4,554.8z"/>
<path class="st1" d="M814.5,536.5c2,1.9,3,4.8,3,8.6v15h-6.1v-14.2c0.1-1.9-0.4-3.7-1.6-5.2c-1.2-1.2-2.9-1.8-4.6-1.7
	c-2-0.1-3.9,0.6-5.3,2c-1.4,1.6-2.1,3.7-2,5.8V560h-6.1v-26.1h5.8v3.4c1-1.2,2.3-2.1,3.8-2.7c1.7-0.6,3.4-1,5.2-0.9
	C809.5,533.4,812.4,534.5,814.5,536.5z"/>
<path class="st1" d="M575.5,616.8c-2.7-1.4-5-3.6-6.5-6.3c-3.2-5.6-3.2-12.5,0-18.1c1.6-2.7,3.9-4.8,6.6-6.3
	c2.9-1.5,6.1-2.3,9.4-2.3c2.6,0,5.2,0.5,7.7,1.5c2.3,0.9,4.3,2.4,5.9,4.3l-4.1,3.9c-2.3-2.6-5.7-4.1-9.1-4c-2.2,0-4.4,0.5-6.3,1.5
	c-1.8,1-3.3,2.5-4.3,4.3c-2.1,3.9-2.1,8.5,0,12.4c1,1.8,2.5,3.3,4.3,4.3c1.9,1,4.1,1.6,6.3,1.5c3.5,0.1,6.8-1.4,9.1-4.1l4.1,3.9
	c-1.6,1.9-3.6,3.3-5.9,4.2c-2.4,1-5.1,1.5-7.7,1.5C581.6,619.2,578.4,618.4,575.5,616.8z"/>
<path class="st1" d="M607.6,617.3c-2.1-1.1-3.8-2.7-5-4.8c-1.2-2.1-1.8-4.5-1.8-6.9c0-2.4,0.6-4.8,1.8-6.9c1.2-2,2.9-3.7,5-4.7
	c4.5-2.3,9.8-2.3,14.3,0c2.1,1.1,3.8,2.7,5,4.7c1.2,2.1,1.8,4.5,1.8,6.9c0,2.4-0.6,4.8-1.8,6.9c-1.2,2-2.9,3.7-5,4.8
	C617.4,619.5,612.1,619.5,607.6,617.3z M620.3,611.5c2.9-3.4,2.9-8.4,0-11.8c-1.5-1.5-3.5-2.3-5.6-2.2c-2.1-0.1-4.1,0.7-5.5,2.2
	c-2.9,3.4-2.9,8.4,0,11.8c1.4,1.5,3.5,2.3,5.5,2.2C616.8,613.8,618.8,613,620.3,611.5z"/>
<path class="st1" d="M634.5,582.3h6.1v36.3h-6.1V582.3z"/>
<path class="st1" d="M648.6,582.3h6.1v36.3h-6.1V582.3z"/>
<path class="st1" d="M687.2,607.5h-20.5c0.3,1.8,1.3,3.5,2.8,4.6c1.6,1.2,3.6,1.8,5.7,1.7c2.7,0.1,5.2-0.9,7.1-2.8l3.3,3.8
	c-1.2,1.4-2.7,2.5-4.5,3.2c-4.4,1.6-9.4,1.4-13.6-0.6c-2.1-1.1-3.9-2.7-5.1-4.8c-1.2-2.1-1.8-4.5-1.8-6.9c0-2.4,0.6-4.8,1.7-6.9
	c1.1-2,2.8-3.7,4.8-4.8c2.1-1.2,4.5-1.7,6.9-1.7c2.4,0,4.7,0.5,6.8,1.7c2,1.1,3.6,2.7,4.7,4.7c1.2,2.2,1.7,4.6,1.7,7.1
	C687.3,606.1,687.3,606.8,687.2,607.5z M669.1,598.9c-1.4,1.2-2.2,2.8-2.5,4.6h14.8c-0.4-3.7-3.6-6.5-7.4-6.3
	C672.3,597.1,670.5,597.7,669.1,598.9L669.1,598.9z"/>
<path class="st1" d="M697.9,617.3c-2.1-1.1-3.8-2.7-5-4.8c-1.2-2.1-1.8-4.5-1.8-6.9c0-2.4,0.6-4.8,1.8-6.9c1.2-2,2.9-3.7,5-4.7
	c2.3-1.2,4.8-1.8,7.3-1.7c2.4-0.1,4.7,0.5,6.8,1.6c1.9,1,3.4,2.6,4.4,4.5l-4.7,2.7c-0.7-1.1-1.6-2.1-2.8-2.7c-3.1-1.6-6.8-1-9.4,1.3
	c-3,3.4-3,8.5,0,11.9c1.5,1.5,3.6,2.3,5.7,2.2c1.3,0,2.6-0.3,3.7-0.9c1.2-0.6,2.1-1.6,2.8-2.7l4.7,2.7c-1,1.9-2.5,3.5-4.4,4.5
	c-2.1,1.1-4.4,1.6-6.7,1.6C702.6,619,700.1,618.4,697.9,617.3z"/>
<path class="st1" d="M737.6,617.2c-0.8,0.6-1.7,1.1-2.6,1.3c-1.1,0.3-2.2,0.4-3.2,0.4c-2.4,0.2-4.8-0.7-6.7-2.2
	c-1.6-1.5-2.3-3.7-2.3-6.5v-12.6h-4.3v-4.9h4.3v-6h6.1v6h7v4.9h-7V610c-0.1,1.1,0.3,2.1,0.9,2.9c0.7,0.7,1.7,1.1,2.7,1
	c1.2,0,2.4-0.3,3.4-1.1L737.6,617.2z"/>
<path class="st1" d="M742.9,587.2c-1.4-1.4-1.5-3.6-0.2-5.1c0.1-0.1,0.1-0.1,0.2-0.2c0.8-0.7,1.8-1.1,2.8-1c1,0,2,0.3,2.8,1
	c0.7,0.6,1.1,1.6,1.1,2.5c0,1-0.4,2-1.1,2.7c-0.7,0.7-1.8,1.1-2.8,1.1C744.7,588.2,743.7,587.9,742.9,587.2z M742.6,592.5h6.1v26.1
	h-6.1V592.5z"/>
<path class="st1" d="M761.4,617.3c-2.1-1.1-3.8-2.7-5-4.8c-1.2-2.1-1.8-4.5-1.8-6.9c0-2.4,0.6-4.8,1.8-6.9c1.2-2,2.9-3.7,5-4.7
	c2.2-1.2,4.6-1.7,7.1-1.7c2.5,0,5,0.5,7.2,1.7c2.1,1.1,3.8,2.7,5,4.7c1.2,2.1,1.8,4.5,1.8,6.9c0,2.4-0.6,4.8-1.8,6.9
	c-1.2,2-2.9,3.7-5,4.8c-2.2,1.2-4.7,1.7-7.2,1.7C766,619,763.6,618.4,761.4,617.3z M774.1,611.5c2.9-3.4,2.9-8.4,0-11.8
	c-1.5-1.5-3.5-2.3-5.6-2.2c-2.1-0.1-4.1,0.7-5.5,2.2c-2.9,3.4-2.9,8.4,0,11.8c1.4,1.5,3.5,2.3,5.5,2.2
	C770.6,613.8,772.6,613,774.1,611.5z"/>
<path class="st1" d="M811,595.1c2,1.9,3,4.8,3,8.6v15h-6.1v-14.2c0.1-1.9-0.4-3.7-1.6-5.2c-1.2-1.2-2.9-1.8-4.6-1.7
	c-2-0.1-3.9,0.6-5.3,2c-1.4,1.6-2.1,3.7-2,5.8v13.2h-6.1v-26.1h5.8v3.4c1-1.2,2.3-2.1,3.8-2.7c1.7-0.6,3.4-1,5.2-0.9
	C806,592.1,808.8,593.1,811,595.1z"/>
<path class="st1" d="M653.3,1142v-22.7l-11.3,18.8h-2.8l-11.2-18.5v22.4h-6.1v-34.2h5.2l13.6,22.7l13.3-22.7h5.2v34.2L653.3,1142z"
	/>
<path class="st1" d="M693.2,1115.9v26.1h-5.8v-3.3c-1,1.2-2.2,2.1-3.7,2.7c-1.5,0.7-3.1,1-4.7,1c-3.5,0-6.2-1-8.2-2.9s-3-4.8-3-8.6
	v-14.9h6.1v14.1c0,2.3,0.5,4.1,1.6,5.2c1.2,1.2,2.9,1.9,4.5,1.8c1.9,0.1,3.8-0.6,5.2-2c1.4-1.6,2.1-3.7,1.9-5.8V1116L693.2,1115.9z"
	/>
<path class="st1" d="M703.1,1141.5c-1.7-0.4-3.4-1.1-4.8-2.1l2.3-4.6c1.3,0.8,2.7,1.5,4.2,1.9c1.6,0.5,3.2,0.7,4.9,0.7
	c3.6,0,5.5-1,5.5-2.9c0-0.9-0.5-1.7-1.4-1.9c-1.5-0.5-3-0.8-4.5-1c-1.8-0.2-3.5-0.6-5.3-1.1c-1.3-0.4-2.6-1.2-3.5-2.2
	c-1.1-1.2-1.6-2.8-1.5-4.4c-0.1-2.4,1.1-4.6,3.1-5.9c2.1-1.5,4.9-2.2,8.4-2.2c1.8,0,3.6,0.2,5.4,0.6c1.5,0.3,3,0.9,4.4,1.6l-2.3,4.6
	c-2.3-1.3-4.9-2-7.5-2c-1.4-0.1-2.8,0.2-4.1,0.8c-0.8,0.4-1.4,1.2-1.4,2.1c0,0.9,0.6,1.8,1.5,2.1c1.5,0.5,3,0.9,4.6,1.2
	c1.7,0.2,3.5,0.6,5.1,1.1c1.3,0.4,2.5,1.1,3.4,2.2c1,1.2,1.5,2.7,1.5,4.3c0,2.4-1.2,4.6-3.2,5.9c-2.1,1.5-5,2.2-8.7,2.2
	C707.2,1142.4,705.1,1142.1,703.1,1141.5z"/>
<path class="st1" d="M726.7,1110.6c-1.4-1.4-1.5-3.6-0.2-5.1c0.1-0.1,0.1-0.1,0.2-0.2c0.8-0.7,1.8-1,2.8-1c1,0,2,0.3,2.8,1
	c0.7,0.6,1.1,1.6,1.1,2.5c0,1-0.4,2-1.1,2.7c-0.8,0.7-1.8,1.1-2.8,1.1C728.4,1111.7,727.4,1111.3,726.7,1110.6z M726.4,1115.9h6.1
	v26.1h-6.1V1115.9z"/>
<path class="st1" d="M745.2,1140.7c-2.1-1.1-3.8-2.7-5-4.8c-1.2-2.1-1.9-4.5-1.8-6.9c0-2.4,0.6-4.8,1.8-6.9c1.2-2,2.9-3.7,5-4.7
	c2.3-1.2,4.8-1.8,7.3-1.7c2.4-0.1,4.7,0.5,6.8,1.6c1.9,1,3.4,2.6,4.4,4.5l-4.7,2.7c-0.7-1.1-1.7-2.1-2.8-2.7c-3.1-1.6-6.8-1-9.4,1.3
	c-3,3.4-3,8.5,0,11.9c2.5,2.4,6.3,2.9,9.4,1.3c1.2-0.6,2.1-1.6,2.8-2.7l4.7,2.7c-1,1.9-2.5,3.5-4.4,4.5c-2.1,1.1-4.4,1.6-6.7,1.6
	C750,1142.4,747.5,1141.8,745.2,1140.7z"/>
<path class="st1" d="M575.5,1198.9c-2.7-1.5-5-3.6-6.5-6.3c-3.2-5.6-3.2-12.5,0-18.1c1.6-2.7,3.9-4.8,6.6-6.3
	c2.9-1.5,6.1-2.3,9.4-2.3c2.6,0,5.2,0.5,7.7,1.5c2.3,0.9,4.3,2.4,5.9,4.3l-4.1,3.9c-2.3-2.6-5.7-4.1-9.1-4c-2.2,0-4.4,0.5-6.3,1.5
	c-1.8,1-3.3,2.5-4.3,4.3c-2.1,3.9-2.1,8.5,0,12.4c1,1.8,2.5,3.3,4.3,4.3c1.9,1,4.1,1.6,6.3,1.5c3.5,0.1,6.8-1.4,9.1-4.1l4.1,3.9
	c-1.6,1.9-3.6,3.3-5.9,4.3c-2.4,1-5.1,1.5-7.7,1.5C581.6,1201.2,578.4,1200.4,575.5,1198.9z"/>
<path class="st1" d="M607.6,1199.3c-2.1-1.1-3.8-2.7-5-4.8c-1.2-2.1-1.8-4.5-1.8-6.9c0-2.4,0.6-4.8,1.8-6.9c1.2-2,2.9-3.7,5-4.7
	c4.5-2.3,9.8-2.3,14.3,0c2.1,1.1,3.8,2.7,5,4.7c1.2,2.1,1.8,4.5,1.8,6.9c0,2.4-0.6,4.8-1.8,6.9c-1.2,2-2.9,3.7-5,4.8
	C617.4,1201.6,612.1,1201.6,607.6,1199.3z M620.3,1193.5c2.9-3.4,2.9-8.4,0-11.8c-1.5-1.5-3.5-2.3-5.6-2.2c-2.1-0.1-4.1,0.7-5.5,2.2
	c-2.9,3.4-2.9,8.4,0,11.8c1.4,1.5,3.5,2.3,5.5,2.2C616.8,1195.9,618.8,1195,620.3,1193.5z"/>
<path class="st1" d="M634.5,1164.4h6.1v36.3h-6.1V1164.4z"/>
<path class="st1" d="M648.6,1164.4h6.1v36.3h-6.1V1164.4z"/>
<path class="st1" d="M687.2,1189.6h-20.5c0.3,1.8,1.3,3.5,2.8,4.6c1.7,1.2,3.6,1.8,5.7,1.7c2.7,0.1,5.2-0.9,7.1-2.8l3.3,3.8
	c-1.2,1.4-2.7,2.5-4.5,3.2c-4.4,1.6-9.4,1.4-13.6-0.6c-2.1-1.1-3.9-2.7-5.1-4.8c-1.2-2.1-1.8-4.5-1.8-6.9c0-2.4,0.6-4.8,1.7-6.9
	c1.1-2,2.8-3.7,4.8-4.8c2.1-1.2,4.5-1.7,6.9-1.7c2.4,0,4.7,0.5,6.8,1.7c2,1.1,3.6,2.8,4.7,4.8c1.2,2.2,1.7,4.6,1.7,7.1
	C687.3,1188.2,687.3,1188.8,687.2,1189.6z M669.1,1180.9c-1.4,1.2-2.2,2.8-2.5,4.6h14.8c-0.4-3.7-3.6-6.5-7.4-6.3
	C672.3,1179.1,670.5,1179.7,669.1,1180.9L669.1,1180.9z"/>
<path class="st1" d="M697.9,1199.3c-2.1-1.1-3.8-2.7-5-4.8c-1.2-2.1-1.8-4.5-1.8-6.9c0-2.4,0.6-4.8,1.8-6.9c1.2-2,2.9-3.7,5-4.7
	c2.3-1.2,4.8-1.8,7.3-1.7c2.4-0.1,4.7,0.5,6.8,1.6c1.9,1,3.4,2.6,4.4,4.5l-4.7,2.7c-0.7-1.1-1.6-2.1-2.8-2.7c-3.1-1.6-6.8-1-9.4,1.3
	c-3,3.4-3,8.5,0,11.9c2.5,2.4,6.3,2.9,9.4,1.3c1.2-0.6,2.1-1.6,2.8-2.7l4.7,2.7c-1,1.9-2.5,3.5-4.4,4.5c-2.1,1.1-4.4,1.6-6.7,1.6
	C702.6,1201.1,700.1,1200.5,697.9,1199.3z"/>
<path class="st1" d="M737.6,1199.3c-0.8,0.6-1.7,1.1-2.6,1.3c-1.1,0.3-2.2,0.4-3.2,0.4c-2.4,0.2-4.8-0.7-6.7-2.2
	c-1.6-1.5-2.3-3.7-2.3-6.6v-12.6h-4.3v-4.9h4.3v-6h6.1v6h7v4.9h-7v12.4c-0.1,1.1,0.3,2.1,0.9,2.9c0.7,0.7,1.7,1.1,2.7,1
	c1.2,0,2.4-0.3,3.4-1.1L737.6,1199.3z"/>
<path class="st1" d="M742.9,1169.2c-1.4-1.4-1.5-3.6-0.2-5.1c0.1-0.1,0.1-0.1,0.2-0.2c0.8-0.7,1.8-1,2.8-1c1,0,2,0.3,2.8,1
	c0.7,0.6,1.1,1.6,1.1,2.5c0,1-0.4,2-1.1,2.7c-0.7,0.7-1.8,1.1-2.8,1.1C744.7,1170.3,743.7,1169.9,742.9,1169.2z M742.6,1174.6h6.1
	v26.1h-6.1V1174.6z"/>
<path class="st1" d="M761.4,1199.3c-2.1-1.1-3.8-2.7-5-4.8c-1.2-2.1-1.8-4.5-1.8-6.9c0-2.4,0.6-4.8,1.8-6.9c1.2-2,2.9-3.7,5-4.7
	c2.2-1.2,4.6-1.7,7.1-1.7c2.5,0,5,0.5,7.2,1.7c2.1,1.1,3.8,2.7,5,4.7c1.2,2.1,1.8,4.5,1.8,6.9c0,2.4-0.6,4.8-1.8,6.9
	c-1.2,2-2.9,3.7-5,4.8c-2.2,1.2-4.7,1.7-7.2,1.7C766,1201.1,763.6,1200.5,761.4,1199.3z M774.1,1193.5c2.9-3.4,2.9-8.4,0-11.8
	c-1.5-1.5-3.5-2.3-5.6-2.2c-2.1-0.1-4.1,0.7-5.5,2.2c-2.9,3.4-2.9,8.4,0,11.8c1.4,1.5,3.5,2.3,5.5,2.2
	C770.6,1195.9,772.6,1195,774.1,1193.5z"/>
<path class="st1" d="M811,1177.2c2,1.9,3,4.8,3,8.6v15h-6.1v-14.2c0.1-1.9-0.4-3.7-1.6-5.2c-1.2-1.2-2.9-1.8-4.6-1.7
	c-2-0.1-3.9,0.6-5.3,2c-1.4,1.6-2.1,3.7-2,5.8v13.2h-6.1v-26.1h5.8v3.4c1-1.2,2.3-2.2,3.8-2.7c1.7-0.6,3.4-1,5.2-0.9
	C806,1174.1,808.8,1175.2,811,1177.2z"/>
<path class="st1" d="M583.3,1684.5c2.1,0.9,3.8,2.3,5.1,4.2c2.4,4,2.4,9,0,13c-1.2,1.9-3,3.4-5.1,4.2c-2.5,1-5.1,1.5-7.8,1.5h-7.7
	v9.9h-6.4v-34.2h14.1C578.2,1683,580.8,1683.5,583.3,1684.5z M581.6,1700.3c2.8-2.6,2.9-7,0.2-9.8c-0.1-0.1-0.2-0.2-0.2-0.2
	c-1.4-1.2-3.5-1.8-6.3-1.8h-7.4v13.6h7.4C578,1702,580.1,1701.4,581.6,1700.3z"/>
<path class="st1" d="M599.9,1716.7c-2.1-0.6-4.1-1.6-5.8-3l2.2-4.9c1.6,1.2,3.3,2.1,5.2,2.7c2,0.7,4,1,6.1,1c2,0.1,4-0.3,5.7-1.2
	c1.2-0.7,1.9-1.9,1.9-3.2c0-0.9-0.3-1.8-1-2.4c-0.8-0.7-1.7-1.2-2.7-1.5c-1.1-0.4-2.5-0.8-4.4-1.2c-2.1-0.5-4.3-1.1-6.3-1.8
	c-1.6-0.6-3-1.6-4.2-2.9c-1.2-1.5-1.8-3.4-1.7-5.4c0-1.8,0.5-3.6,1.5-5.2c1.2-1.6,2.8-2.8,4.6-3.6c2.4-1,5-1.4,7.6-1.4
	c2.1,0,4.1,0.3,6.2,0.8c1.9,0.5,3.6,1.2,5.2,2.2l-2,4.9c-1.5-0.9-3-1.5-4.7-2c-1.5-0.4-3.1-0.7-4.7-0.7c-2-0.1-3.9,0.3-5.6,1.3
	c-1.2,0.7-1.8,2-1.8,3.4c0,0.9,0.3,1.8,1,2.4c0.8,0.7,1.7,1.2,2.7,1.5c1.1,0.4,2.5,0.8,4.4,1.2c2.1,0.5,4.2,1.1,6.3,1.8
	c1.6,0.6,3,1.6,4.2,2.9c1.2,1.5,1.8,3.4,1.7,5.3c0,1.8-0.5,3.6-1.5,5.1c-1.2,1.6-2.8,2.9-4.7,3.7c-2.4,1-5,1.4-7.6,1.4
	C604.9,1717.8,602.4,1717.4,599.9,1716.7z"/>
<path class="st1" d="M660.6,1700.4c1.7,1.8,2.6,4.2,2.5,6.6c0,1.9-0.5,3.8-1.5,5.4c-1.1,1.7-2.7,3.1-4.6,3.9c-2.4,1-4.9,1.5-7.5,1.4
	c-2.4,0-4.8-0.3-7.1-1c-2.1-0.6-4.1-1.6-5.8-2.9l2.7-4.9c1.3,1.1,2.9,1.9,4.5,2.5c1.8,0.6,3.6,0.9,5.5,0.9c1.9,0.1,3.7-0.4,5.3-1.4
	c2.1-1.5,2.6-4.5,1-6.6c-0.3-0.4-0.6-0.7-0.9-0.9c-1.7-1-3.6-1.5-5.6-1.3h-3.1v-4.3l7.8-9.2h-15.5v-5.3h23.3v4.2l-8.3,9.9
	C656,1697.4,658.6,1698.5,660.6,1700.4z"/>
<path class="st1" d="M688.1,1699.1c2.3,1.9,3.6,4.7,3.5,7.7c0.1,4.1-2.3,7.9-6.1,9.5c-2.4,1-4.9,1.5-7.5,1.5c-2.4,0-4.8-0.3-7.1-1
	c-2.1-0.6-4-1.6-5.8-2.9l2.7-4.9c1.4,1.1,2.9,1.9,4.6,2.5c1.8,0.6,3.6,0.9,5.5,0.9c1.9,0.1,3.7-0.4,5.3-1.4c1.3-0.9,2-2.3,1.9-3.8
	c0.1-1.6-0.7-3.1-2.1-4c-1.4-0.9-3.8-1.3-7.1-1.3h-8.3l1.8-18.6h20.1v5.3h-14.7l-0.7,7.9h3.3
	C682.3,1696.3,685.8,1697.2,688.1,1699.1z"/>
<path class="st1" d="M707.1,1683.1v34.2h-6.4v-28.9h-7.2v-5.3L707.1,1683.1z"/>
<path class="st1" d="M739.7,1683.1v4.2l-13.3,30h-6.8l12.9-28.8H719v5.8h-5.9v-11.2L739.7,1683.1z"/>
<path class="st1" d="M755,1701.7h24.4v4H755V1701.7z"/>
<path class="st1" d="M824.1,1711.9v5.4h-29.2v-4.3l20.1-24.6h-19.8v-5.4h28.2v4.2l-20.1,24.6L824.1,1711.9z"/>
<path class="st1" d="M1219.1,1217h4.5v10.2c-1.4,1.1-2.9,1.9-4.6,2.4c-1.8,0.6-3.6,0.9-5.4,0.8c-2.5,0-4.9-0.6-7.1-1.7
	c-2.1-1.1-3.8-2.7-5-4.7c-2.4-4.2-2.4-9.4,0-13.6c1.2-2,2.9-3.6,5-4.7c2.2-1.2,4.6-1.7,7.1-1.7c2,0,4,0.3,5.9,1.1
	c1.7,0.7,3.2,1.7,4.4,3.1l-3,2.9c-1.9-1.9-4.4-3-7.1-2.9c-1.7,0-3.3,0.4-4.8,1.1c-1.4,0.7-2.5,1.8-3.3,3.2c-0.8,1.4-1.2,3-1.2,4.7
	c0,1.6,0.4,3.2,1.2,4.6c0.8,1.4,1.9,2.5,3.3,3.2c1.5,0.8,3.1,1.2,4.8,1.2c1.8,0,3.7-0.4,5.3-1.3L1219.1,1217z"/>
<path class="st1" d="M1240.8,1210.3v4.4c-0.4-0.1-0.7-0.1-1.1-0.1c-1.5-0.1-3.1,0.5-4.2,1.6c-1.1,1.2-1.6,2.9-1.5,4.5v9.5h-4.6
	v-19.6h4.4v2.9C1235.1,1211.3,1237.5,1210.3,1240.8,1210.3z"/>
<path class="st1" d="M1247.9,1229.1c-1.6-0.8-2.8-2.1-3.7-3.6c-1.8-3.2-1.8-7.1,0-10.4c0.9-1.5,2.2-2.7,3.7-3.6
	c1.6-0.9,3.5-1.3,5.3-1.3c1.9,0,3.7,0.4,5.4,1.3c1.5,0.8,2.8,2,3.7,3.6c1.8,3.2,1.8,7.1,0,10.4c-0.9,1.5-2.2,2.8-3.7,3.6
	c-1.7,0.9-3.5,1.3-5.4,1.3C1251.4,1230.4,1249.6,1229.9,1247.9,1229.1z M1257.5,1224.7c2.2-2.5,2.2-6.3,0-8.9
	c-1.1-1.1-2.6-1.7-4.2-1.7c-1.6-0.1-3.1,0.6-4.2,1.7c-2.2,2.6-2.2,6.3,0,8.9c1.1,1.1,2.6,1.7,4.2,1.7
	C1254.8,1226.5,1256.4,1225.9,1257.5,1224.7L1257.5,1224.7z"/>
<path class="st1" d="M1287.1,1210.5v19.6h-4.4v-2.5c-0.7,0.9-1.7,1.6-2.8,2c-1.1,0.5-2.3,0.7-3.6,0.7c-2.3,0.1-4.5-0.7-6.2-2.2
	c-1.5-1.5-2.2-3.6-2.2-6.5v-11.2h4.6v10.6c-0.1,1.4,0.3,2.8,1.2,3.9c0.9,0.9,2.1,1.4,3.4,1.3c1.5,0.1,2.9-0.5,3.9-1.5
	c1-1.2,1.6-2.8,1.4-4.4v-9.9L1287.1,1210.5z"/>
<path class="st1" d="M1309.1,1211.5c1.5,0.8,2.7,2,3.5,3.5c1.7,3.3,1.7,7.2,0,10.5c-0.8,1.5-2,2.7-3.5,3.5c-1.6,0.8-3.3,1.3-5.1,1.2
	c-2.4,0.1-4.7-0.9-6.3-2.6v9.5h-4.6v-26.7h4.4v2.6c0.7-0.9,1.7-1.6,2.8-2.1c1.2-0.5,2.4-0.7,3.7-0.7
	C1305.7,1210.3,1307.5,1210.7,1309.1,1211.5z M1307.6,1224.7c2.2-2.6,2.2-6.3,0-8.9c-1.1-1.1-2.6-1.7-4.2-1.7c-1,0-2.1,0.2-3,0.8
	c-0.9,0.5-1.6,1.3-2.1,2.2c-0.5,1-0.8,2.1-0.8,3.2c0,1.1,0.2,2.2,0.8,3.2c0.5,0.9,1.2,1.6,2.1,2.1c0.9,0.5,2,0.8,3,0.8
	C1305,1226.5,1306.5,1225.9,1307.6,1224.7L1307.6,1224.7z"/>
<path class="st1" d="M1211.1,1274.1l-5.2-7.5c-0.2,0-0.6,0-1,0h-5.8v7.5h-4.8v-25.7h10.6c2,0,4,0.3,5.8,1.1c1.5,0.7,2.9,1.7,3.8,3.2
	c0.9,1.5,1.4,3.2,1.3,4.9c0,1.8-0.4,3.5-1.4,5c-1,1.4-2.4,2.5-4.1,3.1l5.9,8.4L1211.1,1274.1z M1209.4,1253.8c-1.4-1-3-1.4-4.7-1.3
	h-5.6v10.2h5.6c1.7,0.1,3.4-0.3,4.7-1.3c1.1-0.9,1.7-2.4,1.6-3.8C1211.1,1256.1,1210.5,1254.7,1209.4,1253.8z"/>
<path class="st1" d="M1224.2,1273.1c-1.6-0.8-2.8-2.1-3.7-3.6c-1.8-3.2-1.8-7.1,0-10.3c0.9-1.5,2.2-2.7,3.7-3.6
	c3.4-1.7,7.4-1.7,10.7,0c1.5,0.8,2.8,2,3.7,3.6c1.8,3.2,1.8,7.1,0,10.3c-0.9,1.5-2.2,2.8-3.7,3.6
	C1231.5,1274.8,1227.5,1274.8,1224.2,1273.1z M1233.7,1268.7c2.2-2.5,2.2-6.3,0-8.9c-2.3-2.2-6-2.2-8.3,0c-2.2,2.6-2.2,6.3,0,8.9
	C1227.7,1271,1231.4,1271,1233.7,1268.7z"/>
<path class="st1" d="M1247.8,1273.1c-1.6-0.8-2.8-2.1-3.7-3.6c-1.8-3.2-1.8-7.1,0-10.3c0.9-1.5,2.2-2.7,3.7-3.6
	c1.6-0.9,3.5-1.3,5.3-1.3c1.9,0,3.7,0.4,5.4,1.3c1.5,0.8,2.8,2,3.7,3.6c1.8,3.2,1.8,7.1,0,10.3c-0.9,1.5-2.2,2.8-3.7,3.6
	c-1.7,0.9-3.5,1.3-5.4,1.3C1251.3,1274.4,1249.4,1273.9,1247.8,1273.1z M1257.3,1268.7c2.2-2.5,2.2-6.3,0-8.9
	c-1.1-1.1-2.6-1.7-4.2-1.7c-1.6,0-3.1,0.6-4.2,1.7c-2.2,2.6-2.2,6.3,0,8.9c1.1,1.1,2.6,1.7,4.2,1.7
	C1254.7,1270.5,1256.2,1269.9,1257.3,1268.7L1257.3,1268.7z"/>
<path class="st1" d="M1298.6,1256.4c1.4,1.4,2.2,3.6,2.2,6.4v11.2h-4.6v-10.6c0.1-1.4-0.3-2.8-1.1-3.9c-0.8-0.9-2-1.4-3.3-1.3
	c-1.4-0.1-2.8,0.5-3.7,1.5c-1,1.2-1.5,2.8-1.4,4.3v9.9h-4.6v-10.6c0.1-1.4-0.3-2.8-1.1-3.9c-0.8-0.9-2-1.4-3.3-1.3
	c-1.4-0.1-2.8,0.5-3.7,1.5c-1,1.2-1.5,2.8-1.4,4.4v9.9h-4.6v-19.6h4.4v2.5c0.7-0.9,1.7-1.6,2.8-2c1.2-0.5,2.4-0.7,3.7-0.7
	c1.3,0,2.7,0.3,3.9,0.8c1.1,0.5,2.1,1.4,2.7,2.4c0.8-1,1.9-1.9,3.1-2.4c1.3-0.6,2.8-0.9,4.2-0.9
	C1294.9,1254.2,1297,1255,1298.6,1256.4z"/>
<path class="st1" d="M1308,1273.7c-1.3-0.3-2.5-0.8-3.6-1.6l1.8-3.5c1,0.6,2,1.1,3.2,1.4c1.2,0.3,2.4,0.5,3.7,0.5
	c2.7,0,4.1-0.7,4.1-2.2c0-0.6-0.4-1.2-1-1.4c-1.1-0.4-2.2-0.6-3.4-0.8c-1.3-0.2-2.6-0.5-3.9-0.8c-1-0.3-1.9-0.9-2.6-1.7
	c-0.8-0.9-1.2-2.1-1.1-3.3c0-1.8,0.8-3.5,2.3-4.4c1.9-1.2,4.1-1.8,6.3-1.7c1.3,0,2.7,0.2,4,0.5c1.2,0.2,2.3,0.6,3.3,1.2l-1.8,3.5
	c-1.7-1-3.6-1.5-5.6-1.5c-1.1-0.1-2.1,0.1-3.1,0.6c-0.6,0.3-1,0.9-1,1.6c0,0.7,0.4,1.3,1.1,1.6c1.1,0.4,2.3,0.7,3.5,0.9
	c1.3,0.2,2.6,0.5,3.8,0.8c1,0.3,1.9,0.9,2.6,1.6c0.8,0.9,1.2,2,1.1,3.2c0,1.8-0.9,3.5-2.4,4.4c-1.9,1.2-4.2,1.8-6.5,1.7
	C1311.1,1274.3,1309.5,1274.1,1308,1273.7z"/>
<path class="st1" d="M1124.3,295.6c-1.6-0.4-3.1-1.2-4.4-2.2l1.7-3.7c1.2,0.9,2.5,1.6,3.9,2c1.5,0.5,3,0.8,4.6,0.8
	c1.5,0.1,3-0.2,4.3-0.9c0.9-0.5,1.4-1.4,1.4-2.4c0-0.7-0.3-1.4-0.8-1.8c-0.6-0.5-1.3-0.9-2-1.1c-0.8-0.3-1.9-0.6-3.3-0.9
	c-1.6-0.4-3.2-0.8-4.8-1.4c-1.2-0.5-2.3-1.2-3.1-2.2c-0.9-1.1-1.4-2.6-1.3-4c0-1.4,0.4-2.7,1.2-3.9c0.9-1.2,2.1-2.2,3.5-2.8
	c1.8-0.7,3.8-1.1,5.7-1c1.6,0,3.1,0.2,4.6,0.6c1.4,0.3,2.7,0.9,3.9,1.7l-1.5,3.7c-1.1-0.7-2.3-1.2-3.5-1.5c-1.2-0.3-2.3-0.5-3.6-0.5
	c-1.5-0.1-2.9,0.3-4.2,1c-0.9,0.5-1.4,1.5-1.4,2.5c0,0.7,0.3,1.3,0.8,1.8c0.6,0.5,1.3,0.9,2,1.1c0.8,0.3,1.9,0.6,3.3,0.9
	c1.6,0.3,3.2,0.8,4.7,1.4c1.2,0.5,2.3,1.2,3.1,2.2c0.9,1.1,1.4,2.6,1.3,4c0,1.4-0.4,2.7-1.2,3.9c-0.9,1.2-2.1,2.2-3.5,2.8
	c-1.8,0.7-3.8,1.1-5.7,1C1128.1,296.5,1126.1,296.2,1124.3,295.6z"/>
<path class="st1" d="M1156.4,295c-0.6,0.5-1.3,0.8-2,1c-0.8,0.2-1.6,0.3-2.4,0.3c-1.8,0.1-3.6-0.5-5-1.7c-1.2-1.3-1.9-3.1-1.8-4.9
	v-9.4h-3.2v-3.7h3.2v-4.5h4.6v4.5h5.2v3.7h-5.2v9.3c-0.1,0.8,0.2,1.6,0.7,2.2c0.5,0.5,1.3,0.8,2,0.8c0.9,0,1.8-0.3,2.6-0.8
	L1156.4,295z"/>
<path class="st1" d="M1179.2,276.5v19.6h-4.4v-2.5c-0.7,0.9-1.7,1.6-2.8,2c-1.1,0.5-2.3,0.7-3.6,0.7c-2.3,0.1-4.5-0.7-6.2-2.2
	c-1.5-1.5-2.2-3.6-2.2-6.5v-11.1h4.6v10.6c-0.1,1.4,0.3,2.8,1.2,3.9c0.9,0.9,2.1,1.4,3.4,1.3c1.5,0.1,2.9-0.5,3.9-1.5
	c1-1.2,1.6-2.8,1.4-4.4v-9.9H1179.2z"/>
<path class="st1" d="M1204.4,268.9v27.2h-4.4v-2.5c-0.7,0.9-1.7,1.6-2.8,2.1c-1.2,0.5-2.4,0.7-3.7,0.7c-1.8,0-3.5-0.4-5.1-1.2
	c-1.5-0.8-2.7-2-3.5-3.5c-1.7-3.3-1.7-7.2,0-10.5c0.8-1.5,2.1-2.7,3.5-3.5c1.6-0.8,3.3-1.3,5.1-1.2c1.2,0,2.4,0.2,3.6,0.7
	c1.1,0.4,2,1.1,2.8,2v-10L1204.4,268.9z M1197,291.7c0.9-0.5,1.6-1.2,2.1-2.1c0.5-1,0.8-2.1,0.8-3.2c0-1.1-0.2-2.2-0.8-3.2
	c-0.5-0.9-1.2-1.6-2.1-2.1c-1.9-1-4.1-1-5.9,0c-0.9,0.5-1.6,1.3-2.1,2.1c-0.5,1-0.8,2.1-0.8,3.2c0,1.1,0.2,2.2,0.8,3.2
	c0.5,0.9,1.2,1.6,2.1,2.1C1192.9,292.7,1195.1,292.7,1197,291.7z"/>
<path class="st1" d="M1228.7,276.5l-9.2,21.2c-0.6,1.8-1.7,3.3-3.1,4.5c-1.3,0.9-2.9,1.3-4.4,1.3c-1,0-2-0.2-2.9-0.5
	c-0.9-0.3-1.7-0.7-2.3-1.3l1.8-3.4c0.9,0.9,2.1,1.3,3.4,1.4c0.7,0,1.4-0.2,2-0.6c0.6-0.6,1.1-1.3,1.4-2.1l0.3-0.8l-8.5-19.6h4.8
	l6.2,14.5l6.2-14.5L1228.7,276.5z"/>
<path class="st1" d="M1242.1,270.4h4.8v21.6h13.4v4h-18.2V270.4z"/>
<path class="st1" d="M1266.9,295.1c-1.6-0.8-2.8-2.1-3.7-3.6c-1.8-3.2-1.8-7.1,0-10.4c0.9-1.5,2.2-2.7,3.7-3.5
	c3.4-1.7,7.4-1.7,10.7,0c1.5,0.8,2.8,2,3.7,3.5c1.8,3.2,1.8,7.1,0,10.4c-0.9,1.5-2.2,2.8-3.7,3.6
	C1274.3,296.8,1270.3,296.8,1266.9,295.1z M1276.4,290.7c2.2-2.5,2.2-6.3,0-8.9c-2.3-2.2-6-2.2-8.3,0c-2.2,2.6-2.2,6.3,0,8.9
	C1270.4,293,1274.1,293,1276.4,290.7z"/>
<path class="st1" d="M1306.1,276.5v19.6h-4.4v-2.5c-0.7,0.9-1.7,1.6-2.8,2c-1.1,0.5-2.3,0.7-3.6,0.7c-2.3,0.1-4.5-0.7-6.2-2.2
	c-1.5-1.4-2.2-3.6-2.2-6.5v-11.2h4.6v10.6c-0.1,1.4,0.3,2.8,1.2,3.9c0.9,0.9,2.1,1.4,3.4,1.3c1.5,0.1,2.9-0.5,3.9-1.5
	c1-1.2,1.5-2.8,1.4-4.4v-9.9H1306.1z"/>
<path class="st1" d="M1329.1,278.5c1.5,1.4,2.2,3.6,2.2,6.4v11.2h-4.6v-10.6c0.1-1.4-0.3-2.8-1.2-3.9c-0.9-0.9-2.2-1.4-3.4-1.3
	c-1.5-0.1-2.9,0.5-4,1.5c-1,1.2-1.6,2.8-1.5,4.4v9.9h-4.6v-19.6h4.4v2.5c0.8-0.9,1.8-1.6,2.9-2c1.2-0.5,2.6-0.7,3.9-0.7
	C1325.4,276.2,1327.5,277,1329.1,278.5z"/>
<path class="st1" d="M1356.8,276.5v16.6c0,6.9-3.5,10.3-10.6,10.3c-1.8,0-3.6-0.2-5.3-0.7c-1.5-0.4-2.9-1.1-4.2-2.1l2-3.4
	c1,0.8,2.1,1.3,3.2,1.7c1.3,0.4,2.6,0.6,4,0.6c1.7,0.1,3.4-0.4,4.7-1.5c1.1-1.2,1.6-2.8,1.5-4.5v-1c-0.8,0.9-1.8,1.5-2.9,1.9
	c-1.2,0.5-2.4,0.7-3.7,0.7c-1.7,0-3.5-0.4-5-1.2c-1.5-0.8-2.7-1.9-3.6-3.4c-1.7-3.1-1.7-6.8,0-9.9c0.8-1.4,2.1-2.6,3.6-3.3
	c1.5-0.8,3.3-1.2,5-1.2c1.3,0,2.6,0.2,3.9,0.7c1.1,0.4,2.1,1.2,2.9,2.1v-2.6L1356.8,276.5z M1350.6,289.8c1.1-1,1.7-2.5,1.7-4.1
	c0.1-1.5-0.6-3-1.7-4c-2.5-2.1-6.1-2.1-8.6,0c-1.1,1-1.7,2.5-1.7,4c-0.1,1.5,0.6,3,1.7,4.1C1344.5,291.8,1348.1,291.8,1350.6,289.8z
	"/>
<path class="st1" d="M1381.2,287.8h-15.4c0.2,1.4,1,2.6,2.1,3.4c1.2,0.9,2.7,1.3,4.2,1.3c2,0.1,3.9-0.7,5.3-2.1l2.5,2.8
	c-0.9,1.1-2,1.9-3.3,2.4c-3.3,1.2-7,1.1-10.2-0.5c-1.6-0.8-2.9-2-3.8-3.6c-0.9-1.6-1.4-3.4-1.3-5.2c0-1.8,0.4-3.6,1.3-5.1
	c0.8-1.5,2.1-2.7,3.6-3.6c1.6-0.9,3.4-1.3,5.2-1.3c1.8,0,3.5,0.4,5.1,1.3c1.5,0.8,2.7,2.1,3.5,3.5c0.9,1.6,1.3,3.5,1.3,5.3
	C1381.2,286.7,1381.2,287.2,1381.2,287.8z M1367.6,281.3c-1,0.9-1.7,2.1-1.9,3.5h11.1c-0.1-1.3-0.8-2.6-1.8-3.5
	C1372.9,279.5,1369.8,279.5,1367.6,281.3L1367.6,281.3z"/>
<path class="st1" d="M1228.6,336v4h-18.9v-3.1l10.2-9.7c0.9-0.8,1.7-1.8,2.3-2.9c0.4-0.8,0.6-1.6,0.6-2.4c0.1-1.1-0.4-2.1-1.2-2.8
	c-1-0.7-2.3-1-3.6-1c-2.3-0.1-4.5,0.9-6,2.7l-3.3-2.6c1-1.4,2.4-2.5,4-3.1c1.8-0.8,3.7-1.1,5.7-1.1c2.4-0.1,4.7,0.6,6.7,2
	c1.7,1.3,2.6,3.3,2.5,5.4c0,1.4-0.3,2.7-0.9,3.9c-0.9,1.6-2,3-3.4,4.2l-6.8,6.5L1228.6,336z"/>
<path class="st1" d="M1236.5,338.9c-1.7-1.1-3-2.7-3.8-4.5c-1.9-4.5-1.9-9.6,0-14.2c0.8-1.8,2.1-3.4,3.8-4.5c3.4-2.1,7.6-2.1,11,0
	c1.7,1.1,3,2.7,3.8,4.5c1.9,4.5,1.9,9.6,0,14.2c-0.8,1.9-2.1,3.4-3.8,4.5C1244.1,341,1239.9,341,1236.5,338.9z M1246.3,334
	c1.1-1.5,1.6-3.8,1.6-6.8s-0.5-5.3-1.6-6.8c-1.6-2.4-4.9-3-7.3-1.3c-0.5,0.4-1,0.8-1.3,1.3c-1.1,1.5-1.6,3.8-1.6,6.8
	s0.5,5.3,1.6,6.8c1.6,2.4,4.9,3,7.3,1.3C1245.5,335,1246,334.6,1246.3,334z"/>
<path class="st1" d="M1261.2,338.9c-1.7-1.1-3-2.7-3.8-4.5c-1.9-4.5-1.9-9.6,0-14.2c0.8-1.9,2.1-3.4,3.8-4.5c3.4-2.1,7.6-2.1,11,0
	c1.7,1.1,3,2.7,3.8,4.5c1.9,4.5,1.9,9.6,0,14.2c-0.8,1.9-2.1,3.4-3.8,4.5C1268.8,341,1264.5,341,1261.2,338.9z M1271,334
	c1.1-1.5,1.6-3.8,1.6-6.8c0-3-0.5-5.3-1.6-6.8c-1.7-2.4-4.9-3-7.3-1.3c-0.5,0.4-1,0.8-1.3,1.3c-1.1,1.5-1.6,3.8-1.6,6.8
	s0.5,5.3,1.6,6.8c1.7,2.4,4.9,3,7.3,1.3C1270.2,335,1270.6,334.5,1271,334z"/>
<path class="st1" d="M1289.3,314.4v25.7h-4.8v-21.7h-5.4v-4H1289.3z"/>
<path class="st1" d="M1783.7,619.4h4.5v10.2c-1.4,1.1-2.9,1.9-4.6,2.4c-1.8,0.6-3.6,0.8-5.4,0.8c-2.5,0-4.9-0.6-7.1-1.7
	c-2.1-1.1-3.8-2.7-5-4.7c-2.4-4.2-2.4-9.4,0-13.6c1.2-2,2.9-3.6,5-4.7c2.2-1.2,4.6-1.7,7.1-1.7c2,0,4,0.3,5.9,1.1
	c1.7,0.7,3.2,1.7,4.4,3.1l-3,2.9c-1.9-1.9-4.4-3-7.1-2.9c-1.7,0-3.3,0.4-4.8,1.1c-1.4,0.7-2.5,1.8-3.3,3.2c-0.8,1.4-1.2,3.1-1.2,4.7
	c0,1.6,0.4,3.2,1.2,4.6c0.8,1.4,1.9,2.5,3.3,3.2c1.5,0.8,3.1,1.2,4.8,1.2c1.8,0,3.7-0.4,5.3-1.3L1783.7,619.4z"/>
<path class="st1" d="M1797.5,631.5c-1.5-0.8-2.8-2.1-3.7-3.6c-1.8-3.2-1.8-7.1,0-10.4c0.9-1.5,2.2-2.7,3.7-3.6
	c3.4-1.7,7.4-1.7,10.8,0c1.5,0.8,2.8,2.1,3.7,3.6c1.8,3.2,1.8,7.1,0,10.4c-0.9,1.5-2.2,2.8-3.7,3.6
	C1804.8,633.2,1800.8,633.2,1797.5,631.5z M1807,627.2c2.2-2.6,2.2-6.3,0-8.9c-1.1-1.1-2.6-1.7-4.2-1.7c-1.6-0.1-3.1,0.6-4.2,1.7
	c-2.2,2.6-2.2,6.3,0,8.9c1.1,1.1,2.6,1.7,4.2,1.7C1804.4,628.9,1805.9,628.3,1807,627.2z"/>
<path class="st1" d="M1835.4,613l-8.4,19.6h-4.7l-8.4-19.6h4.8l6.1,14.5l6.3-14.5H1835.4z"/>
<path class="st1" d="M1842.5,605.9c0.6,0.6,0.9,1.4,0.8,2.2c0,0.4-0.1,0.9-0.2,1.3c-0.1,0.4-0.3,1-0.6,1.9l-1.9,5.2h-3l1.5-5.6
	c-0.5-0.2-1-0.5-1.3-1c-0.3-0.5-0.5-1.1-0.5-1.7c0-0.8,0.3-1.6,0.8-2.2c0.6-0.6,1.3-0.9,2.1-0.8
	C1841.1,605,1841.9,605.3,1842.5,605.9z"/>
<path class="st1" d="M1859.8,631.5c-0.6,0.5-1.3,0.8-2,1c-0.8,0.2-1.6,0.3-2.4,0.3c-1.8,0.1-3.6-0.5-5-1.7c-1.3-1.3-1.9-3.1-1.8-4.9
	v-9.4h-3.2v-3.7h3.2v-4.5h4.6v4.5h5.2v3.7h-5.2v9.3c-0.1,0.8,0.2,1.6,0.7,2.2c0.5,0.5,1.3,0.8,2,0.8c0.9,0,1.8-0.3,2.6-0.8
	L1859.8,631.5z"/>
<path class="st1" d="M1778.2,650.9h4.8v25.7h-4.8L1778.2,650.9z"/>
<path class="st1" d="M1806.5,658.9c1.5,1.4,2.2,3.6,2.2,6.4v11.2h-4.6v-10.6c0.1-1.4-0.3-2.8-1.2-3.9c-0.9-0.9-2.2-1.4-3.4-1.3
	c-1.5-0.1-2.9,0.5-4,1.5c-1,1.2-1.6,2.8-1.5,4.4v9.9h-4.6V657h4.4v2.5c0.8-0.9,1.8-1.6,2.9-2.1c1.2-0.5,2.6-0.7,3.9-0.7
	C1802.8,656.7,1804.9,657.4,1806.5,658.9z"/>
<path class="st1" d="M1819.6,655.9v1.2h5.4v3.7h-5.2v15.8h-4.6v-15.8h-3.2v-3.7h3.2v-1.2c-0.1-1.8,0.6-3.7,1.8-5
	c2.7-2.1,6.3-2.4,9.3-0.8l-1.3,3.4c-0.7-0.5-1.6-0.8-2.5-0.8C1820.6,652.8,1819.6,653.8,1819.6,655.9z"/>
<path class="st1" d="M1831.3,675.5c-1.6-0.8-2.8-2.1-3.7-3.6c-1.8-3.2-1.8-7.1,0-10.3c0.9-1.5,2.2-2.7,3.7-3.6
	c1.6-0.9,3.5-1.3,5.3-1.3c1.9,0,3.7,0.4,5.4,1.3c1.5,0.8,2.8,2,3.7,3.6c1.8,3.2,1.8,7.1,0,10.3c-0.9,1.5-2.2,2.8-3.7,3.6
	c-1.7,0.9-3.5,1.3-5.4,1.3C1834.8,676.8,1832.9,676.4,1831.3,675.5z M1840.8,671.2c2.2-2.5,2.2-6.3,0-8.9c-1.1-1.1-2.6-1.7-4.2-1.7
	c-1.6,0-3.1,0.6-4.2,1.7c-2.2,2.6-2.2,6.3,0,8.9c1.1,1.1,2.6,1.7,4.2,1.7C1838.2,672.9,1839.7,672.3,1840.8,671.2z"/>
<path class="st1" d="M1779,719.9c-1.5-6.2-1.5-12.7,0-18.9c0.7-2.7,1.8-5.3,3.3-7.7h4.4c-1.5,2.6-2.6,5.3-3.3,8.2
	c-1.4,5.9-1.4,12.1,0,18c0.7,2.9,1.8,5.6,3.3,8.2h-4.4C1780.8,725.2,1779.7,722.6,1779,719.9z"/>
<path class="st1" d="M1791,694.9h4.8v21.6h13.4v4H1791V694.9z"/>
<path class="st1" d="M1817.3,719.2c-2-1.1-3.7-2.7-4.9-4.7c-2.4-4.2-2.4-9.4,0-13.6c1.2-2,2.9-3.6,4.9-4.7c2.2-1.1,4.6-1.7,7-1.7
	c2,0,3.9,0.4,5.8,1.1c1.7,0.7,3.2,1.8,4.4,3.2l-3.1,2.9c-1.7-1.9-4.2-3-6.9-3c-1.6,0-3.3,0.4-4.7,1.2c-1.4,0.7-2.5,1.9-3.3,3.2
	c-1.6,2.9-1.6,6.4,0,9.3c0.8,1.4,1.9,2.5,3.3,3.2c1.5,0.8,3.1,1.2,4.7,1.2c2.6,0,5.1-1.1,6.9-3l3.1,2.9c-1.2,1.4-2.7,2.5-4.4,3.2
	c-1.8,0.7-3.8,1.1-5.8,1.1C1821.9,720.9,1819.5,720.3,1817.3,719.2z"/>
<path class="st1" d="M1836.5,727.6c1.5-2.6,2.6-5.3,3.3-8.2c1.4-5.9,1.4-12.1,0-18c-0.7-2.9-1.8-5.6-3.3-8.2h4.4
	c1.5,2.4,2.7,5,3.3,7.7c0.8,3.1,1.2,6.3,1.2,9.5c0,3.2-0.4,6.4-1.2,9.4c-0.7,2.7-1.8,5.3-3.3,7.7L1836.5,727.6z"/>
<path class="st1" d="M1978.7,654.5v-17l-8.4,14.1h-2.1l-8.4-13.8v16.8h-4.6v-25.7h3.9l10.2,17l10-17h3.9v25.7L1978.7,654.5z"/>
<path class="st1" d="M2003.8,636.8c1.5,1.4,2.3,3.5,2.3,6.2v11.5h-4.3v-2.4c-0.6,0.9-1.4,1.6-2.4,2c-1.2,0.5-2.5,0.7-3.8,0.7
	c-1.3,0-2.6-0.2-3.8-0.8c-1-0.4-1.9-1.2-2.5-2.1c-0.6-0.9-0.9-1.9-0.9-3c0-1.7,0.7-3.2,2-4.2c1.3-1.1,3.4-1.6,6.2-1.6h5.1v-0.3
	c0.1-1.2-0.4-2.3-1.2-3.2c-1-0.8-2.3-1.2-3.7-1.1c-1.1,0-2.2,0.2-3.2,0.5c-1,0.3-1.9,0.8-2.7,1.4l-1.8-3.3c1.1-0.8,2.4-1.4,3.7-1.8
	c1.5-0.4,3-0.6,4.6-0.6C2000,634.7,2002.2,635.4,2003.8,636.8z M1999.6,650.7c0.9-0.5,1.5-1.3,1.9-2.3v-2.3h-4.7c-2.7,0-4,0.9-4,2.6
	c0,0.8,0.3,1.5,1,2c0.8,0.5,1.8,0.8,2.8,0.7C1997.6,651.5,1998.7,651.2,1999.6,650.7z"/>
<path class="st1" d="M2023.7,653.5c-0.6,0.5-1.3,0.8-2,1c-0.8,0.2-1.6,0.3-2.4,0.3c-1.8,0.1-3.6-0.5-5-1.7c-1.2-1.3-1.9-3.1-1.8-4.9
	v-9.4h-3.2v-3.7h3.2v-4.5h4.6v4.5h5.2v3.7h-5.2v9.3c-0.1,0.8,0.2,1.6,0.7,2.2c0.5,0.5,1.3,0.8,2,0.8c0.9,0,1.8-0.3,2.6-0.8
	L2023.7,653.5z"/>
<path class="st1" d="M2044.5,636.9c1.5,1.4,2.2,3.6,2.2,6.4v11.2h-4.6v-10.6c0.1-1.4-0.3-2.8-1.2-3.9c-0.9-0.9-2.2-1.4-3.4-1.3
	c-1.5-0.1-2.9,0.5-4,1.5c-1.1,1.2-1.6,2.8-1.5,4.4v9.9h-4.6v-27.2h4.6v9.9c0.8-0.8,1.7-1.5,2.8-1.8c1.2-0.4,2.5-0.7,3.7-0.6
	C2040.8,634.6,2042.9,635.4,2044.5,636.9z"/>
<path class="st1" d="M1967.2,687.5c0.9,1.2,1.3,2.6,1.2,4.1c0.1,2-0.9,4-2.6,5.2c-1.7,1.2-4.2,1.8-7.5,1.8h-12.8v-25.7h12
	c3,0,5.4,0.6,7,1.8c1.6,1.1,2.5,2.9,2.4,4.9c0,1.2-0.3,2.4-0.9,3.4c-0.6,1-1.4,1.8-2.4,2.3C1965.2,685.6,1966.4,686.4,1967.2,687.5z
	 M1950.4,676.6v7.1h6.8c1.3,0.1,2.7-0.2,3.8-0.9c1.5-1.1,1.8-3.1,0.7-4.6c-0.2-0.3-0.4-0.5-0.7-0.7c-1.2-0.7-2.5-1-3.8-0.9
	L1950.4,676.6z M1963.7,691.1c0-2.5-1.8-3.7-5.5-3.7h-7.7v7.4h7.7C1961.8,694.8,1963.7,693.5,1963.7,691.1L1963.7,691.1z"/>
<path class="st1" d="M1976.6,697.5c-1.5-0.8-2.8-2.1-3.7-3.6c-1.8-3.2-1.8-7.1,0-10.4c0.9-1.5,2.2-2.7,3.7-3.5
	c3.4-1.7,7.4-1.7,10.8,0c1.5,0.8,2.8,2,3.7,3.5c1.8,3.2,1.8,7.1,0,10.4c-0.9,1.5-2.2,2.8-3.7,3.6
	C1983.9,699.2,1980,699.2,1976.6,697.5z M1986.1,693.2c2.2-2.5,2.2-6.3,0-8.9c-1.1-1.1-2.6-1.7-4.2-1.7c-1.6-0.1-3.1,0.6-4.2,1.7
	c-2.2,2.6-2.2,6.3,0,8.9c1.1,1.1,2.6,1.7,4.2,1.7C1983.5,694.9,1985,694.3,1986.1,693.2z"/>
<path class="st1" d="M2000.2,697.5c-1.6-0.8-2.8-2.1-3.7-3.6c-1.8-3.2-1.8-7.1,0-10.4c0.9-1.5,2.2-2.7,3.7-3.5
	c3.4-1.7,7.4-1.7,10.7,0c1.5,0.8,2.8,2,3.7,3.5c1.8,3.2,1.8,7.1,0,10.4c-0.9,1.5-2.2,2.8-3.7,3.6
	C2007.6,699.2,2003.6,699.2,2000.2,697.5z M2009.8,693.2c2.2-2.5,2.2-6.3,0-8.9c-2.3-2.2-6-2.2-8.3,0c-2.2,2.6-2.2,6.3,0,8.9
	C2003.7,695.4,2007.4,695.4,2009.8,693.2z"/>
<path class="st1" d="M2028.4,690.1l-3.4,3.2v5.2h-4.6v-27.2h4.6v16.4l9.5-8.8h5.5l-8.2,8.2l9,11.4h-5.6L2028.4,690.1z"/>
<path class="st1" d="M2044.5,698.2c-1.3-0.3-2.5-0.9-3.6-1.6l1.8-3.5c1,0.6,2,1.1,3.2,1.4c1.2,0.3,2.4,0.5,3.6,0.5
	c2.7,0,4.1-0.7,4.1-2.2c0-0.6-0.4-1.2-1-1.4c-1.1-0.4-2.2-0.6-3.4-0.8c-1.3-0.2-2.6-0.5-3.9-0.8c-1-0.3-1.9-0.9-2.6-1.7
	c-0.8-0.9-1.2-2.1-1.1-3.3c0-1.8,0.8-3.5,2.3-4.5c1.9-1.2,4.1-1.8,6.3-1.7c1.3,0,2.7,0.2,4,0.5c1.2,0.2,2.3,0.7,3.3,1.2l-1.8,3.5
	c-1.7-1-3.6-1.5-5.6-1.5c-1.1-0.1-2.1,0.1-3.1,0.6c-0.6,0.3-1,0.9-1,1.6c0,0.7,0.4,1.3,1.1,1.6c1.1,0.4,2.3,0.7,3.5,0.9
	c1.3,0.2,2.6,0.5,3.9,0.8c1,0.3,1.9,0.9,2.6,1.6c0.8,0.9,1.2,2.1,1.1,3.2c0,1.8-0.9,3.5-2.4,4.4c-1.9,1.2-4.2,1.8-6.5,1.7
	C2047.6,698.8,2046.1,698.6,2044.5,698.2z"/>
<rect x="1738.3" y="436" class="st0" width="340" height="459.6"/>
<path class="st1" d="M1864.1,1080.3h4.5v10.2c-1.4,1.1-2.9,1.9-4.6,2.4c-1.8,0.6-3.6,0.8-5.4,0.8c-2.5,0-4.9-0.5-7.1-1.7
	c-2.1-1.1-3.8-2.7-5-4.7c-2.4-4.2-2.4-9.4,0-13.6c1.2-2,2.9-3.6,5-4.7c2.2-1.2,4.6-1.7,7.1-1.7c2,0,4,0.3,5.9,1.1
	c1.7,0.7,3.2,1.7,4.4,3.1l-3,2.9c-1.9-1.9-4.4-3-7.1-2.9c-1.7,0-3.3,0.4-4.8,1.1c-1.4,0.7-2.5,1.8-3.3,3.2c-0.8,1.4-1.2,3-1.2,4.7
	c0,1.6,0.4,3.2,1.2,4.6c0.8,1.4,1.9,2.5,3.3,3.2c1.5,0.8,3.1,1.2,4.8,1.2c1.8,0,3.7-0.4,5.3-1.3L1864.1,1080.3z"/>
<path class="st1" d="M1877.9,1092.4c-1.5-0.8-2.8-2.1-3.7-3.6c-0.9-1.6-1.4-3.4-1.3-5.2c0-1.8,0.4-3.6,1.3-5.2
	c0.9-1.5,2.2-2.7,3.7-3.6c3.4-1.7,7.4-1.7,10.7,0c1.5,0.8,2.8,2,3.7,3.6c0.9,1.6,1.4,3.4,1.3,5.2c0,1.8-0.4,3.6-1.3,5.2
	c-0.9,1.5-2.2,2.7-3.7,3.6C1885.3,1094.1,1881.3,1094.1,1877.9,1092.4z M1887.5,1088c2.2-2.5,2.2-6.3,0-8.9
	c-1.1-1.1-2.6-1.7-4.2-1.7c-1.6,0-3.1,0.6-4.2,1.7c-2.2,2.6-2.2,6.3,0,8.9c1.1,1.1,2.6,1.7,4.2,1.7
	C1884.8,1089.8,1886.4,1089.1,1887.5,1088L1887.5,1088z"/>
<path class="st1" d="M1915.9,1073.8l-8.4,19.6h-4.7l-8.4-19.6h4.8l6.1,14.5l6.3-14.5H1915.9z"/>
<path class="st1" d="M1922.9,1066.8c0.6,0.6,0.9,1.4,0.8,2.2c0,0.4-0.1,0.9-0.2,1.3c-0.1,0.4-0.3,1-0.6,1.9l-1.9,5.2h-3l1.5-5.6
	c-0.5-0.2-1-0.5-1.3-1c-0.3-0.5-0.5-1.1-0.5-1.7c0-1.7,1.3-3,3-3C1921.6,1065.9,1922.3,1066.2,1922.9,1066.8L1922.9,1066.8z"/>
<path class="st1" d="M1940.2,1092.3c-0.6,0.5-1.3,0.8-2,1c-0.8,0.2-1.6,0.3-2.4,0.3c-1.8,0.1-3.6-0.5-5-1.7
	c-1.2-1.3-1.9-3.1-1.8-4.9v-9.4h-3.2v-3.6h3.2v-4.5h4.6v4.5h5.2v3.7h-5.2v9.3c-0.1,0.8,0.2,1.6,0.7,2.2c0.5,0.5,1.3,0.8,2,0.8
	c0.9,0,1.8-0.3,2.6-0.8L1940.2,1092.3z"/>
<path class="st1" d="M1858.7,1111.7h4.8v25.7h-4.8V1111.7z"/>
<path class="st1" d="M1887,1119.8c1.5,1.4,2.2,3.6,2.2,6.4v11.2h-4.6v-10.6c0.1-1.4-0.3-2.8-1.2-3.9c-0.9-0.9-2.2-1.4-3.4-1.3
	c-1.5-0.1-2.9,0.5-4,1.5c-1,1.2-1.6,2.8-1.5,4.4v9.9h-4.6v-19.6h4.4v2.5c0.8-0.9,1.8-1.6,2.9-2c1.2-0.5,2.6-0.7,3.9-0.7
	C1883.2,1117.5,1885.4,1118.3,1887,1119.8z"/>
<path class="st1" d="M1900.1,1116.8v1.2h5.4v3.7h-5.2v15.8h-4.6v-15.8h-3.2v-3.7h3.2v-1.2c-0.1-1.9,0.6-3.7,1.8-5
	c1.4-1.3,3.3-1.9,5.2-1.8c1.5-0.1,2.9,0.3,4.2,1.1l-1.3,3.4c-0.7-0.5-1.6-0.8-2.5-0.8C1901.1,1113.6,1900.1,1114.7,1900.1,1116.8z"
	/>
<path class="st1" d="M1911.7,1136.4c-1.6-0.8-2.8-2.1-3.7-3.6c-1.8-3.2-1.8-7.1,0-10.4c0.9-1.5,2.2-2.7,3.7-3.6
	c3.4-1.7,7.4-1.7,10.7,0c1.5,0.8,2.8,2,3.7,3.6c1.8,3.2,1.8,7.1,0,10.4c-0.9,1.5-2.2,2.8-3.7,3.6
	C1919.1,1138.1,1915.1,1138.1,1911.7,1136.4z M1921.2,1132c2.2-2.5,2.2-6.3,0-8.9c-2.3-2.2-6-2.2-8.3,0c-2.2,2.6-2.2,6.3,0,8.9
	C1915.2,1134.3,1918.9,1134.3,1921.2,1132z"/>
<path class="st1" d="M1859.5,1180.8c-1.5-6.2-1.5-12.7,0-18.9c0.7-2.7,1.8-5.3,3.3-7.7h4.4c-1.5,2.6-2.6,5.3-3.3,8.2
	c-1.4,5.9-1.4,12.1,0,18c0.7,2.9,1.8,5.6,3.3,8.2h-4.4C1861.3,1186.1,1860.2,1183.5,1859.5,1180.8z"/>
<path class="st1" d="M1871.4,1155.7h4.8v21.6h13.4v4h-18.2V1155.7z"/>
<path class="st1" d="M1897.8,1180c-2-1.1-3.7-2.7-4.9-4.7c-2.4-4.2-2.4-9.4,0-13.6c1.2-2,2.9-3.6,4.9-4.7c4-2,8.6-2.3,12.8-0.6
	c1.7,0.7,3.2,1.8,4.4,3.2l-3.1,2.9c-1.7-1.9-4.2-3-6.8-3c-1.6,0-3.3,0.4-4.7,1.2c-1.4,0.7-2.5,1.9-3.3,3.2c-1.6,2.9-1.6,6.4,0,9.3
	c0.8,1.4,1.9,2.5,3.3,3.2c1.5,0.8,3.1,1.2,4.7,1.2c2.6,0.1,5.1-1,6.8-3l3.1,2.9c-1.2,1.4-2.7,2.5-4.4,3.2c-1.8,0.8-3.8,1.1-5.8,1.1
	C1902.3,1181.8,1899.9,1181.2,1897.8,1180z"/>
<path class="st1" d="M1916.9,1188.5c1.5-2.6,2.6-5.3,3.3-8.2c1.4-5.9,1.4-12.1,0-18c-0.7-2.9-1.8-5.6-3.3-8.2h4.4
	c1.5,2.4,2.6,5,3.3,7.7c0.8,3.1,1.2,6.3,1.2,9.5c0,3.2-0.4,6.4-1.2,9.4c-0.7,2.7-1.8,5.3-3.3,7.7L1916.9,1188.5z"/>
<rect x="1800.4" y="979" class="st0" width="183.2" height="295.3"/>
<polyline class="st0" points="1192.3,979 1077.3,979 1077.3,1471.4 1200.3,1471.4 "/>
<polyline class="st0" points="1311,1471.4 1434,1471.4 1434,979 1319,979 1319,1008 "/>
<polyline class="st0" points="1318,1029 1318,1054 1773.4,1054 1773.4,1216.1 1434,1216.1 "/>
<path class="st1" d="M1725.8,1538.8h6.4v34.2h-6.4V1538.8z"/>
<path class="st1" d="M1748.4,1544.2H1737v-5.4h29v5.4h-11.3v28.8h-6.3L1748.4,1544.2z"/>
<path class="st1" d="M1776.8,1571.2c-2.7-1.5-5-3.6-6.6-6.3c-1.6-2.7-2.4-5.8-2.4-9c0-3.2,0.8-6.3,2.4-9c1.6-2.7,3.8-4.8,6.6-6.3
	c2.9-1.5,6.1-2.3,9.4-2.3c2.6,0,5.2,0.5,7.7,1.5c2.3,0.9,4.3,2.4,5.9,4.3l-4.1,3.9c-2.3-2.6-5.7-4.1-9.2-4c-2.2,0-4.4,0.5-6.3,1.5
	c-1.8,1-3.3,2.5-4.3,4.3c-2.1,3.9-2.1,8.5,0,12.4c1,1.8,2.5,3.3,4.3,4.3c1.9,1,4.1,1.6,6.3,1.5c3.5,0.1,6.8-1.4,9.2-4.1l4.1,3.9
	c-1.6,1.9-3.6,3.3-5.9,4.3c-2.4,1-5.1,1.5-7.7,1.5C1782.9,1573.6,1779.7,1572.8,1776.8,1571.2z"/>
<path class="st1" d="M1621,1630.8c-2.1-8.3-2.1-16.9,0-25.2c0.9-3.6,2.4-7.1,4.4-10.3h5.8c-1.9,3.4-3.4,7.1-4.4,10.9
	c-1.9,7.9-1.9,16.1,0,24c1,3.8,2.4,7.5,4.4,10.9h-5.8C1623.4,1638,1621.9,1634.5,1621,1630.8z"/>
<path class="st1" d="M1659.1,1623.8H1642l-3.4,7.9h-6.6l15.4-34.2h6.2l15.4,34.2h-6.7L1659.1,1623.8z M1657,1618.8l-6.4-15l-6.4,15
	H1657z"/>
<path class="st1" d="M1698.3,1595.4v36.3h-5.9v-3.4c-1,1.2-2.3,2.2-3.7,2.8c-1.6,0.6-3.2,1-4.9,0.9c-2.4,0-4.7-0.5-6.8-1.7
	c-2-1.1-3.6-2.7-4.7-4.7c-1.2-2.1-1.8-4.6-1.7-7c-0.1-2.4,0.5-4.9,1.7-7c1.1-2,2.7-3.6,4.7-4.7c2.1-1.1,4.4-1.7,6.8-1.7
	c1.6,0,3.2,0.3,4.7,0.9c1.4,0.6,2.7,1.5,3.7,2.6v-13.4L1698.3,1595.4z M1688.5,1625.8c1.2-0.7,2.1-1.7,2.8-2.9
	c1.4-2.7,1.4-5.9,0-8.6c-0.6-1.2-1.6-2.2-2.8-2.9c-2.5-1.3-5.4-1.3-7.9,0c-1.2,0.7-2.1,1.7-2.8,2.9c-1.4,2.7-1.4,5.9,0,8.6
	c0.6,1.2,1.6,2.2,2.8,2.9C1683,1627.1,1686,1627.1,1688.5,1625.8z"/>
<path class="st1" d="M1731.9,1595.4v36.3h-5.9v-3.4c-1,1.2-2.3,2.2-3.7,2.8c-1.6,0.6-3.2,1-4.9,0.9c-2.4,0-4.7-0.5-6.8-1.7
	c-2-1.1-3.6-2.7-4.7-4.7c-1.2-2.1-1.8-4.6-1.7-7c-0.1-2.4,0.5-4.9,1.7-7c1.1-2,2.7-3.6,4.7-4.7c2.1-1.1,4.4-1.7,6.8-1.7
	c1.6,0,3.2,0.3,4.7,0.9c1.4,0.6,2.7,1.5,3.7,2.6v-13.4L1731.9,1595.4z M1722,1625.8c1.2-0.7,2.2-1.7,2.8-2.9c1.4-2.7,1.4-5.9,0-8.6
	c-0.6-1.2-1.6-2.2-2.8-2.9c-2.5-1.3-5.4-1.3-7.9,0c-1.2,0.7-2.1,1.7-2.8,2.9c-1.4,2.7-1.4,5.9,0,8.6c0.6,1.2,1.6,2.2,2.8,2.9
	C1716.6,1627.1,1719.6,1627.1,1722,1625.8z"/>
<path class="st1" d="M1740.2,1600.2c-1.4-1.4-1.5-3.7-0.1-5.1c0,0,0.1-0.1,0.1-0.1c0.8-0.7,1.8-1,2.8-1c1,0,2,0.3,2.8,1
	c0.7,0.6,1.1,1.6,1.1,2.5c0,1-0.4,2-1.1,2.7c-0.7,0.7-1.8,1.1-2.8,1.1C1741.9,1601.3,1740.9,1600.9,1740.2,1600.2z M1739.9,1605.6
	h6.1v26.1h-6.1V1605.6z"/>
<path class="st1" d="M1769.7,1630.3c-0.8,0.6-1.7,1.1-2.6,1.3c-1.1,0.3-2.2,0.4-3.2,0.4c-2.4,0.2-4.8-0.7-6.7-2.2
	c-1.6-1.5-2.3-3.7-2.3-6.6v-12.6h-4.3v-4.9h4.3v-6h6.2v6h7v4.9h-7v12.4c-0.1,1.1,0.3,2.1,0.9,2.9c0.7,0.7,1.7,1.1,2.7,1
	c1.2,0,2.4-0.3,3.4-1.1L1769.7,1630.3z"/>
<path class="st1" d="M1775,1600.2c-1.4-1.4-1.5-3.7-0.1-5.1c0,0,0.1-0.1,0.1-0.1c0.8-0.7,1.8-1,2.8-1c1,0,2,0.3,2.8,1
	c0.7,0.6,1.1,1.6,1.1,2.5c0,1-0.4,2-1.1,2.7c-0.7,0.7-1.8,1.1-2.8,1.1C1776.8,1601.3,1775.7,1600.9,1775,1600.2z M1774.7,1605.6h6.1
	v26.1h-6.1V1605.6z"/>
<path class="st1" d="M1793.5,1630.3c-2.1-1.1-3.8-2.7-5-4.8c-1.2-2.1-1.8-4.5-1.8-6.9c0-2.4,0.6-4.8,1.8-6.9c1.2-2,2.9-3.7,5-4.7
	c4.5-2.3,9.8-2.3,14.3,0c2.1,1.1,3.8,2.7,5,4.7c1.2,2.1,1.8,4.5,1.8,6.9c0,2.4-0.6,4.8-1.8,6.9c-1.2,2-2.9,3.7-5,4.8
	C1803.3,1632.6,1798,1632.6,1793.5,1630.3z M1806.2,1624.5c2.9-3.4,2.9-8.4,0-11.8c-3.1-3-8-3-11.1,0c-2.9,3.4-2.9,8.4,0,11.8
	C1798.2,1627.5,1803.1,1627.5,1806.2,1624.5z"/>
<path class="st1" d="M1843.1,1608.2c2,1.9,3,4.8,3,8.6v15h-6.1v-14.2c0.1-1.9-0.4-3.7-1.6-5.2c-1.2-1.2-2.9-1.8-4.6-1.7
	c-2-0.1-3.9,0.6-5.3,2c-1.4,1.6-2.1,3.7-2,5.8v13.2h-6.1v-26.1h5.8v3.4c1-1.2,2.3-2.2,3.8-2.7c1.7-0.6,3.4-1,5.2-0.9
	C1838.1,1605.1,1841,1606.2,1843.1,1608.2z"/>
<path class="st1" d="M1872.7,1608c2,1.8,3,4.6,3,8.3v15.3h-5.7v-3.2c-0.8,1.2-1.9,2.1-3.2,2.6c-1.6,0.6-3.3,1-5,0.9
	c-1.8,0-3.5-0.3-5.1-1c-1.4-0.6-2.6-1.5-3.4-2.8c-0.8-1.2-1.2-2.6-1.2-4c-0.1-2.2,0.9-4.3,2.6-5.6c1.7-1.4,4.5-2.1,8.2-2.1h6.7v-0.4
	c0.1-1.6-0.5-3.1-1.6-4.2c-1.4-1.1-3.1-1.6-4.9-1.5c-1.5,0-2.9,0.2-4.3,0.7c-1.3,0.4-2.5,1.1-3.6,1.9l-2.4-4.4
	c1.5-1.1,3.2-1.9,4.9-2.4c2-0.6,4-0.8,6.1-0.8C1867.7,1605.3,1870.6,1606.2,1872.7,1608z M1867.1,1626.5c1.2-0.7,2.1-1.7,2.5-3v-3
	h-6.3c-3.5,0-5.3,1.2-5.3,3.5c0,1,0.5,2,1.3,2.6c1.1,0.7,2.4,1.1,3.7,1C1864.5,1627.6,1865.9,1627.2,1867.1,1626.5L1867.1,1626.5z"
	/>
<path class="st1" d="M1883.6,1595.4h6.1v36.3h-6.1V1595.4z"/>
<path class="st1" d="M1623.7,1688.6c-2.7-1.5-5-3.6-6.6-6.3c-3.2-5.6-3.2-12.5,0-18.1c1.6-2.7,3.9-4.8,6.6-6.3
	c2.9-1.5,6.1-2.3,9.4-2.3c2.6,0,5.2,0.5,7.7,1.5c2.3,0.9,4.3,2.4,5.9,4.3l-4.1,3.9c-2.3-2.6-5.7-4.1-9.1-4c-2.2,0-4.4,0.5-6.3,1.5
	c-1.8,1-3.3,2.5-4.3,4.3c-2.1,3.9-2.1,8.5,0,12.4c1,1.8,2.5,3.3,4.3,4.3c1.9,1,4.1,1.6,6.3,1.5c3.5,0.1,6.8-1.4,9.1-4.1l4.1,3.9
	c-1.6,1.9-3.6,3.3-5.9,4.3c-2.4,1-5.1,1.5-7.7,1.5C1629.8,1690.9,1626.6,1690.1,1623.7,1688.6z"/>
<path class="st1" d="M1655.8,1689c-2.1-1.1-3.8-2.7-5-4.8c-1.2-2.1-1.8-4.5-1.8-6.9c0-2.4,0.6-4.8,1.8-6.9c1.2-2,2.9-3.7,5-4.7
	c4.5-2.3,9.8-2.3,14.3,0c2.1,1.1,3.8,2.7,5,4.7c1.2,2.1,1.8,4.5,1.8,6.9c0,2.4-0.6,4.8-1.8,6.9c-1.2,2-2.9,3.7-5,4.8
	C1665.6,1691.3,1660.3,1691.3,1655.8,1689z M1668.5,1683.2c2.9-3.4,2.9-8.4,0-11.8c-1.5-1.5-3.5-2.3-5.6-2.2
	c-2.1-0.1-4.1,0.7-5.6,2.2c-2.9,3.4-2.9,8.4,0,11.8c1.4,1.5,3.5,2.3,5.6,2.2C1665.1,1685.5,1667.1,1684.7,1668.5,1683.2
	L1668.5,1683.2z"/>
<path class="st1" d="M1723.5,1666.8c1.9,1.9,2.9,4.8,2.9,8.6v14.9h-6.1v-14.2c0.1-1.8-0.4-3.7-1.5-5.2c-1.1-1.2-2.7-1.8-4.3-1.7
	c-1.9-0.1-3.7,0.6-4.9,2c-1.3,1.6-2,3.7-1.8,5.8v13.2h-6.1v-14.2c0.1-1.8-0.4-3.7-1.5-5.1c-1.1-1.2-2.7-1.8-4.3-1.7
	c-1.9-0.1-3.7,0.6-5,2c-1.3,1.6-2,3.7-1.8,5.8v13.2h-6.1v-26.1h5.8v3.3c1-1.2,2.2-2.1,3.7-2.7c1.6-0.6,3.2-1,4.9-0.9
	c1.8,0,3.6,0.3,5.2,1.1c1.5,0.7,2.7,1.8,3.6,3.2c1.1-1.4,2.5-2.5,4.2-3.2c1.8-0.8,3.7-1.2,5.6-1.2
	C1718.6,1663.8,1721.4,1664.8,1723.5,1666.8z"/>
<path class="st1" d="M1755.5,1665.6c2,1.1,3.6,2.7,4.7,4.7c1.2,2.1,1.8,4.6,1.7,7c0,2.4-0.5,4.9-1.7,7c-1.1,2-2.7,3.6-4.7,4.7
	c-2.1,1.1-4.4,1.7-6.8,1.7c-3.2,0.1-6.2-1.1-8.4-3.5v12.7h-6.1v-35.6h5.8v3.4c1-1.2,2.3-2.2,3.7-2.8c1.6-0.6,3.2-1,4.9-0.9
	C1751.1,1663.9,1753.4,1664.5,1755.5,1665.6z M1753.5,1683.2c2.9-3.4,2.9-8.4,0-11.8c-1.4-1.5-3.5-2.3-5.6-2.2c-1.4,0-2.8,0.3-4,1
	c-1.2,0.7-2.1,1.7-2.8,2.9c-1.4,2.7-1.4,5.9,0,8.6c0.6,1.2,1.6,2.2,2.8,2.9c1.2,0.7,2.6,1,4,1
	C1750.1,1685.5,1752.1,1684.7,1753.5,1683.2L1753.5,1683.2z"/>
<path class="st1" d="M1793.1,1664.2v26.1h-5.8v-3.3c-1,1.2-2.2,2.1-3.7,2.7c-1.5,0.7-3.1,1-4.7,1c-3.5,0-6.2-1-8.2-2.9s-3-4.8-3-8.6
	v-14.9h6.1v14.1c-0.1,1.9,0.4,3.8,1.6,5.2c1.2,1.2,2.8,1.8,4.5,1.7c1.9,0.1,3.8-0.6,5.2-2c1.4-1.6,2.1-3.7,1.9-5.8v-13.2
	L1793.1,1664.2z"/>
<path class="st1" d="M1816.8,1688.9c-0.8,0.6-1.7,1.1-2.6,1.3c-1.1,0.3-2.2,0.4-3.2,0.4c-2.4,0.2-4.8-0.7-6.7-2.2
	c-1.6-1.5-2.3-3.7-2.3-6.6v-12.6h-4.3v-4.9h4.3v-6h6.1v6h7v4.9h-7v12.4c-0.1,1.1,0.3,2.1,0.9,2.9c0.7,0.7,1.7,1.1,2.7,1
	c1.2,0,2.4-0.3,3.4-1.1L1816.8,1688.9z"/>
<path class="st1" d="M1845.3,1679.2h-20.5c0.3,1.8,1.3,3.5,2.8,4.6c1.7,1.2,3.6,1.8,5.7,1.7c2.7,0.1,5.2-0.9,7.1-2.8l3.3,3.8
	c-1.2,1.4-2.7,2.5-4.4,3.2c-4.4,1.6-9.4,1.4-13.6-0.6c-2.1-1.1-3.9-2.7-5.1-4.8c-1.2-2.1-1.8-4.5-1.8-6.9c0-2.4,0.6-4.8,1.7-6.9
	c1.1-2,2.8-3.7,4.8-4.8c2.1-1.2,4.5-1.7,6.9-1.7c2.4,0,4.7,0.5,6.8,1.7c2,1.1,3.6,2.8,4.7,4.8c1.2,2.2,1.7,4.6,1.7,7.1
	C1845.4,1677.8,1845.4,1678.5,1845.3,1679.2z M1827.3,1670.6c-1.4,1.2-2.2,2.8-2.5,4.6h14.8c-0.4-3.7-3.6-6.5-7.4-6.3
	C1830.4,1668.8,1828.7,1669.4,1827.3,1670.6L1827.3,1670.6z"/>
<path class="st1" d="M1866.4,1663.9v5.8c-0.5-0.1-0.9-0.1-1.4-0.1c-2.1-0.1-4.1,0.6-5.6,2.1c-1.4,1.7-2.2,3.8-2,6v12.7h-6.1v-26.1
	h5.8v3.8C1858.9,1665.3,1862,1663.9,1866.4,1663.9z"/>
<path class="st1" d="M1873.6,1689.8c-1.7-0.4-3.4-1.1-4.8-2.1l2.3-4.6c1.3,0.8,2.7,1.5,4.2,1.9c1.6,0.5,3.2,0.7,4.9,0.7
	c3.6,0,5.5-1,5.5-2.9c0-0.9-0.5-1.7-1.4-1.9c-1.5-0.5-3-0.8-4.5-1c-1.8-0.2-3.5-0.6-5.3-1.1c-1.3-0.4-2.6-1.2-3.5-2.2
	c-1.1-1.2-1.6-2.8-1.5-4.4c-0.1-2.4,1.1-4.6,3.1-5.9c2.1-1.5,4.9-2.2,8.4-2.2c1.8,0,3.6,0.2,5.4,0.6c1.5,0.3,3,0.9,4.4,1.6l-2.3,4.6
	c-2.3-1.3-4.9-2-7.5-2c-1.4-0.1-2.8,0.2-4.1,0.8c-0.8,0.4-1.4,1.2-1.4,2.1c0,0.9,0.6,1.8,1.5,2.1c1.5,0.5,3,0.9,4.6,1.2
	c1.7,0.2,3.5,0.6,5.1,1.1c1.3,0.4,2.5,1.1,3.4,2.2c1,1.2,1.5,2.7,1.4,4.3c0,2.4-1.2,4.6-3.2,5.9c-2.1,1.5-5,2.2-8.7,2.2
	C1877.7,1690.7,1875.6,1690.4,1873.6,1689.8z"/>
<path class="st1" d="M1893.9,1699.8c1.9-3.4,3.4-7.1,4.4-10.9c1.9-7.9,1.9-16.1,0-24c-1-3.8-2.5-7.5-4.4-10.9h5.8
	c2,3.1,3.5,6.6,4.4,10.2c1.1,4.1,1.6,8.4,1.5,12.6c0,4.2-0.5,8.5-1.5,12.6c-0.9,3.6-2.4,7.1-4.4,10.3L1893.9,1699.8z"/>
<path class="st1" d="M1112.5,845.2v3h-14.2v-19h13.9v3h-10.3v4.8h9.2v2.9h-9.2v5.2L1112.5,845.2z"/>
<path class="st1" d="M1116.1,828h3.4v20.2h-3.4V828z"/>
<path class="st1" d="M1137.5,842h-11.4c0.2,1,0.7,1.9,1.6,2.5c0.9,0.6,2,1,3.1,0.9c1.5,0.1,2.9-0.5,3.9-1.6l1.8,2.1
	c-0.7,0.8-1.5,1.4-2.5,1.8c-1.1,0.4-2.2,0.6-3.4,0.6c-1.5,0-2.9-0.3-4.2-1c-1.2-0.6-2.2-1.5-2.8-2.7c-0.7-1.2-1-2.5-1-3.8
	c0-1.3,0.3-2.7,1-3.8c0.6-1.1,1.6-2,2.7-2.7c1.2-0.6,2.5-1,3.8-1c1.3,0,2.6,0.3,3.8,0.9c1.1,0.6,2,1.5,2.6,2.6
	c0.6,1.2,1,2.6,0.9,3.9C1137.6,841.2,1137.6,841.5,1137.5,842z M1127.5,837.2c-0.8,0.7-1.3,1.6-1.4,2.6h8.2c-0.1-1-0.6-1.9-1.3-2.5
	c-0.8-0.7-1.8-1-2.8-1C1129.3,836.2,1128.3,836.5,1127.5,837.2L1127.5,837.2z"/>
<path class="st1" d="M1154.1,833.6l-6.2,14.5h-3.5l-6.2-14.5h3.5l4.5,10.8l4.6-10.8H1154.1z"/>
<path class="st1" d="M1176.4,843.7h-9.5l-1.9,4.4h-3.6l8.6-19h3.5l8.6,19h-3.7L1176.4,843.7z M1175.2,841l-3.6-8.3l-3.6,8.3
	L1175.2,841z"/>
<polyline class="st0" points="1077.3,872.5 1196.8,872.5 1196.8,849.6 "/>
<polyline class="st0" points="1077.3,732 1196.8,732 1196.8,782.8 "/>
<polyline class="st0" points="1077.3,807.2 1196.8,807.2 1196.8,824.4 "/>
<line class="st0" x1="1196.8" y1="678.6" x2="1196.8" y2="707.6"/>
<line class="st0" x1="1317.3" y1="678.6" x2="1317.3" y2="707.6"/>
<polyline class="st0" points="1434,732 1317.3,732 1317.3,789.5 "/>
<polyline class="st0" points="1434,872 1317.3,872 1317.3,814.5 "/>
<circle class="st1" cx="1411.7" cy="801.5" r="7.4"/>
<path class="st1" d="M1373,784.9l26.5,5.6c1.5,0.3,2.4,1.8,2.1,3.2c-0.1,0.3-0.2,0.7-0.4,1l-3.4,5.2c-0.6,0.9-0.6,2.1,0,3l3.4,5.2
	c0.8,1.3,0.4,3-0.9,3.9c-0.3,0.2-0.6,0.3-0.9,0.4L1373,818c-1.5,0.3-2.9-0.6-3.3-2c-0.4-1.4-1.7-2.3-3.1-2.1l-6.4,0.9
	c-1.5,0.2-2.9-0.9-3.1-2.4l-0.3-1.9c-0.2-1.3-1.3-2.3-2.6-2.4l-20.4-1.2c-2.2-0.1-3.8-1.9-3.8-4.1V800c0-2.2,1.7-4,3.8-4.1l20.4-1.2
	c1.3-0.1,2.4-1.1,2.6-2.4l0.3-1.9c0.2-1.5,1.6-2.6,3.1-2.4l6.4,0.9c1.4,0.2,2.7-0.7,3.1-2.1C1370.1,785.4,1371.6,784.6,1373,784.9z"
	/>
<path class="st1" d="M1110.3,760.5l-0.4,2c-0.3,1.4,0.1,2.8,1.1,3.8l2.8,2.8c1.6,1.5,1.6,4.1,0.1,5.7c0,0-0.1,0.1-0.1,0.1l-2.8,2.8
	c-1,1-1.4,2.4-1.1,3.8l0.4,2c0.4,2,2.3,3.3,4.3,3.2l24.6-2c1.6-0.1,2.9-1.1,3.5-2.6l0,0c0.6-1.5,2-2.5,3.6-2.6l31.9-1.9
	c2.1-0.1,3.8-1.9,3.8-4v-2.8c0-2.1-1.7-3.9-3.8-4l-31.9-1.9c-1.6-0.1-3-1.1-3.6-2.6c-0.5-1.5-1.9-2.5-3.5-2.6l-24.6-2
	C1112.6,757.3,1110.8,758.6,1110.3,760.5z"/>
<circle class="st1" cx="1100.9" cy="772" r="7.4"/>
<path class="st1" d="M1348.3,1021.7v3h-14.3v-19h13.9v3h-10.3v5h9.2v2.9h-9.2v5.2L1348.3,1021.7z"/>
<path class="st1" d="M1351.9,1004.5h3.4v20.2h-3.4V1004.5z"/>
<path class="st1" d="M1373.4,1018.5H1362c0.2,1,0.7,1.9,1.6,2.5c0.9,0.6,2,1,3.1,0.9c1.5,0,2.9-0.5,3.9-1.6l1.8,2.1
	c-0.7,0.8-1.5,1.4-2.5,1.8c-2.5,0.9-5.2,0.8-7.6-0.4c-1.2-0.6-2.1-1.5-2.8-2.6c-1.3-2.4-1.3-5.3,0-7.7c0.6-1.1,1.5-2,2.7-2.7
	c1.2-0.6,2.5-1,3.9-1c1.3,0,2.6,0.3,3.8,0.9c1.1,0.6,2,1.5,2.6,2.6c0.6,1.2,1,2.6,0.9,3.9C1373.4,1017.7,1373.4,1018,1373.4,1018.5z
	 M1363.4,1013.6c-0.8,0.7-1.2,1.6-1.4,2.6h8.2c-0.2-2.1-2-3.6-4.1-3.5C1365.1,1012.7,1364.1,1013,1363.4,1013.6L1363.4,1013.6z"/>
<path class="st1" d="M1390,1010.1l-6.2,14.5h-3.5l-6.2-14.5h3.5l4.5,10.8l4.6-10.8H1390z"/>
<path class="st1" d="M1415.9,1016.5c0.6,0.9,1,1.9,0.9,3c0.1,1.5-0.7,3-1.9,3.8c-1.7,1-3.6,1.5-5.5,1.3h-9.4v-19h8.9
	c1.8-0.1,3.6,0.3,5.2,1.3c1.2,0.8,1.9,2.2,1.8,3.6c0,0.9-0.2,1.7-0.7,2.5c-0.4,0.7-1,1.3-1.8,1.7
	C1414.4,1015.1,1415.3,1015.7,1415.9,1016.5z M1403.5,1008.4v5.2h5c1,0.1,2-0.2,2.8-0.7c0.7-0.4,1-1.2,1-1.9c0.1-0.8-0.3-1.6-1-2
	c-0.9-0.5-1.8-0.7-2.8-0.7L1403.5,1008.4z M1413.3,1019.1c0-1.8-1.4-2.7-4.1-2.7h-5.7v5.5h5.7
	C1411.9,1021.9,1413.2,1021,1413.3,1019.1L1413.3,1019.1z"/>
<path class="st1" d="M1109.8,1677.7v3h-14.3v-19h13.9v3h-10.3v4.9h9.2v2.9h-9.2v5.2L1109.8,1677.7z"/>
<path class="st1" d="M1113.4,1660.5h3.4v20.2h-3.4V1660.5z"/>
<path class="st1" d="M1134.8,1674.5h-11.4c0.2,1,0.7,1.9,1.6,2.5c0.9,0.6,2,1,3.1,0.9c1.5,0,2.9-0.5,3.9-1.6l1.8,2.1
	c-0.7,0.8-1.5,1.4-2.5,1.8c-2.5,0.9-5.2,0.8-7.6-0.3c-1.2-0.6-2.1-1.5-2.8-2.7c-0.7-1.2-1-2.5-1-3.8c0-1.3,0.3-2.7,1-3.8
	c0.6-1.1,1.6-2,2.7-2.7c1.2-0.7,2.5-1,3.8-1c1.3,0,2.6,0.3,3.8,0.9c1.1,0.6,2,1.5,2.6,2.6c0.6,1.2,1,2.6,0.9,3.9
	C1134.9,1673.7,1134.9,1674,1134.8,1674.5z M1124.8,1669.6c-0.8,0.7-1.3,1.6-1.4,2.6h8.2c-0.1-1-0.6-1.9-1.3-2.6
	c-0.8-0.7-1.8-1-2.8-1C1126.6,1668.6,1125.6,1669,1124.8,1669.6L1124.8,1669.6z"/>
<path class="st1" d="M1151.4,1666.1l-6.2,14.5h-3.5l-6.2-14.5h3.5l4.5,10.8l4.6-10.8H1151.4z"/>
<path class="st1" d="M1165,1679.6c-1.5-0.8-2.8-2-3.6-3.5c-1.8-3.1-1.8-6.9,0-10.1c0.9-1.5,2.1-2.7,3.7-3.5c1.6-0.9,3.4-1.3,5.2-1.3
	c1.5,0,2.9,0.3,4.3,0.8c1.3,0.5,2.4,1.3,3.3,2.4l-2.3,2.2c-1.3-1.4-3.1-2.3-5.1-2.2c-1.2,0-2.4,0.3-3.5,0.9c-1,0.5-1.9,1.4-2.4,2.4
	c-1.2,2.2-1.2,4.7,0,6.9c0.6,1,1.4,1.8,2.4,2.4c1.1,0.6,2.3,0.9,3.5,0.8c1.9,0,3.8-0.8,5.1-2.2l2.3,2.2c-0.9,1-2,1.8-3.3,2.4
	c-1.4,0.6-2.8,0.8-4.3,0.8C1168.4,1680.9,1166.6,1680.5,1165,1679.6z"/>
<path class="st1" d="M1348.3,1677.7v3H1334v-19h13.9v3h-10.3v4.9h9.2v2.9h-9.2v5.2L1348.3,1677.7z"/>
<path class="st1" d="M1351.9,1660.5h3.4v20.2h-3.4V1660.5z"/>
<path class="st1" d="M1373.3,1674.5h-11.4c0.2,1,0.7,1.9,1.6,2.5c0.9,0.7,2,1,3.1,0.9c1.5,0,2.9-0.5,3.9-1.6l1.8,2.1
	c-0.7,0.8-1.5,1.4-2.5,1.8c-2.5,0.9-5.2,0.8-7.6-0.3c-1.2-0.6-2.1-1.5-2.8-2.7c-0.7-1.2-1-2.5-1-3.8c0-1.3,0.3-2.7,1-3.8
	c0.6-1.1,1.6-2,2.7-2.7c1.2-0.7,2.5-1,3.8-1c1.3,0,2.6,0.3,3.8,0.9c1.1,0.6,2,1.5,2.6,2.6c0.6,1.2,1,2.6,0.9,3.9
	C1373.4,1673.7,1373.4,1674,1373.3,1674.5z M1363.3,1669.6c-0.8,0.7-1.3,1.6-1.4,2.6h8.2c-0.2-2.1-2-3.6-4.1-3.5
	C1365.1,1668.6,1364.1,1669,1363.3,1669.6L1363.3,1669.6z"/>
<path class="st1" d="M1389.9,1666.1l-6.2,14.5h-3.5l-6.2-14.5h3.5l4.5,10.8l4.6-10.8H1389.9z"/>
<path class="st1" d="M1399.9,1661.6h8.3c1.9,0,3.7,0.4,5.4,1.2c1.5,0.7,2.8,1.9,3.7,3.3c1.7,3.1,1.7,6.9,0,10
	c-0.9,1.4-2.1,2.6-3.7,3.3c-1.7,0.8-3.5,1.2-5.4,1.2h-8.3V1661.6z M1408,1677.6c1.3,0,2.5-0.2,3.7-0.8c1-0.5,1.9-1.3,2.4-2.3
	c1.1-2.1,1.1-4.7,0-6.9c-0.6-1-1.4-1.8-2.4-2.3c-1.1-0.6-2.4-0.8-3.7-0.8h-4.6v13L1408,1677.6z"/>
<polyline class="st0" points="1317.3,1607.6 1317.3,1517.6 1434,1517.6 1434,1777 1318,1777 1318,1681.8 "/>
<line class="st0" x1="1317.3" y1="1638.7" x2="1434" y2="1638.7"/>
<line class="st0" x1="1317.3" y1="1628" x2="1317.3" y2="1649.3"/>
<circle class="st1" cx="1411.7" cy="1578.9" r="7.4"/>
<path class="st1" d="M1373,1562.4l26.5,5.6c1.5,0.3,2.4,1.8,2.1,3.2c-0.1,0.3-0.2,0.7-0.4,1l-3.4,5.2c-0.6,0.9-0.6,2.1,0,3l3.4,5.2
	c0.8,1.3,0.4,3-0.8,3.8c-0.3,0.2-0.6,0.3-0.9,0.4l-26.5,5.6c-1.5,0.3-2.9-0.6-3.3-2.1c-0.4-1.4-1.7-2.3-3.1-2.1l-6.4,0.9
	c-1.5,0.2-2.9-0.9-3.1-2.4l-0.3-1.9c-0.2-1.3-1.3-2.3-2.6-2.4l-20.4-1.2c-2.2-0.1-3.8-1.9-3.8-4.1v-2.8c0-2.2,1.7-4,3.8-4.1
	l20.4-1.2c1.3-0.1,2.4-1.1,2.6-2.4l0.3-1.9c0.2-1.5,1.6-2.6,3.1-2.4l6.4,0.9c1.4,0.2,2.7-0.7,3.1-2.1
	C1370.2,1562.9,1371.6,1562.1,1373,1562.4z"/>
<path class="st1" d="M1110.3,1565l-0.4,2c-0.3,1.4,0.1,2.8,1.1,3.8l2.8,2.8c1.6,1.5,1.6,4.1,0.1,5.7c0,0-0.1,0.1-0.1,0.1l-2.8,2.8
	c-1,1-1.4,2.4-1.1,3.8l0.4,2c0.4,2,2.3,3.3,4.3,3.2l24.6-2c1.6-0.1,2.9-1.1,3.5-2.6l0,0c0.6-1.5,2-2.5,3.6-2.6l31.9-1.9
	c2.1-0.1,3.8-1.9,3.8-4v-2.8c0-2.1-1.7-3.9-3.8-4l-31.9-1.9c-1.6-0.1-3-1.1-3.6-2.6c-0.5-1.5-1.9-2.5-3.5-2.6l-24.6-2
	C1112.6,1561.8,1110.8,1563.1,1110.3,1565z"/>
<circle class="st1" cx="1100.9" cy="1576.5" r="7.4"/>
<polyline class="st0" points="1194,1607.6 1194,1517.6 1077.3,1517.6 1077.3,1777 1193.3,1777 1193.3,1681.8 "/>
<line class="st0" x1="1194" y1="1638.7" x2="1077.3" y2="1638.7"/>
<line class="st0" x1="1194" y1="1628" x2="1194" y2="1649.3"/>
<line class="st0" x1="1317.3" y1="1699.9" x2="1434" y2="1699.9"/>
<line class="st0" x1="1078.7" y1="1699.9" x2="1195.4" y2="1699.9"/>
<polyline class="st0" points="1426.9,2023.6 1426.9,1835.5 1078.7,1835.5 1078.7,2023.6 "/>
<line class="st0" x1="1453.9" y1="1865.5" x2="1639.9" y2="1865.5"/>
<line class="st0" x1="1662" y1="1949.8" x2="1662" y2="1865.5"/>
<line class="st0" x1="869.3" y1="1865.5" x2="1055.3" y2="1865.5"/>
<line class="st0" x1="2150.8" y1="1065" x2="2048.7" y2="1065"/>
<line class="st0" x1="2149.8" y1="1133" x2="2048.7" y2="1133"/>
<line class="st0" x1="2124.8" y1="1099" x2="2068.7" y2="1099"/>
<line class="st0" x1="2024.7" y1="1133" x2="2024.7" y2="1065"/>
<path class="st1" d="M981.7,260.6l1.6-0.4c1.1-0.3,2.3,0.1,3.1,0.9l2.3,2.3c1.3,1.3,3.4,1.3,4.7,0c0,0,0,0,0,0l2.3-2.3
	c0.8-0.8,2-1.1,3.1-0.9l1.7,0.4c1.6,0.4,2.7,1.9,2.6,3.5l-1.7,20.2c-0.1,1.3-0.9,2.4-2.1,2.8l0,0c-1.2,0.5-2.1,1.6-2.2,2.9
	l-1.6,26.2c-0.1,1.8-1.6,3.1-3.3,3.1H990c-1.8,0-3.2-1.4-3.3-3.1l-1.6-26.2c-0.1-1.3-0.9-2.5-2.2-2.9c-1.2-0.4-2-1.6-2.1-2.8
	l-1.7-20.2C978.9,262.5,980.1,260.9,981.7,260.6z"/>
<circle class="st1" cx="991.1" cy="252.9" r="6"/>
<circle class="st1" cx="1517.2" cy="252.9" r="6.1"/>
<path class="st1" d="M1530.8,284.8l-4.6-21.8c-0.3-1.2-1.4-2-2.7-1.8c-0.3,0.1-0.6,0.2-0.8,0.3l-4.3,2.8c-0.7,0.5-1.7,0.5-2.5,0
	l-4.3-2.8c-1.1-0.7-2.5-0.4-3.2,0.7c-0.1,0.2-0.2,0.5-0.3,0.7l-4.6,21.8c-0.2,1.2,0.5,2.4,1.7,2.7c1.1,0.3,1.8,1.4,1.7,2.5l-0.7,5.2
	c-0.2,1.2,0.7,2.4,1.9,2.6l1.5,0.2c1.1,0.1,1.9,1,2,2.1l1,16.7c0.1,1.8,1.6,3.2,3.4,3.1h2.3c1.8,0,3.2-1.4,3.4-3.1l1-16.7
	c0.1-1.1,0.9-2,1.9-2.1l1.6-0.2c1.2-0.2,2.1-1.3,1.9-2.6l-0.7-5.2c-0.2-1.2,0.6-2.2,1.7-2.5C1530.4,287.1,1531.1,285.9,1530.8,284.8
	z"/>
<path class="st1" d="M1473.7,1938.2c-1.5-0.8-2.8-2-3.6-3.5c-1.7-3.1-1.7-6.9,0-10c0.9-1.5,2.1-2.7,3.7-3.5c1.6-0.9,3.4-1.3,5.2-1.3
	c1.5,0,2.9,0.3,4.3,0.8c1.3,0.5,2.4,1.3,3.3,2.4l-2.3,2.1c-1.3-1.4-3.1-2.3-5.1-2.2c-1.2,0-2.4,0.3-3.5,0.8c-1,0.5-1.9,1.4-2.4,2.4
	c-1.2,2.2-1.2,4.7,0,6.9c0.6,1,1.4,1.8,2.4,2.4c1.1,0.6,2.3,0.9,3.5,0.9c1.9,0,3.8-0.8,5.1-2.3l2.3,2.2c-0.9,1-2,1.8-3.3,2.4
	c-1.4,0.6-2.8,0.8-4.3,0.8C1477.1,1939.6,1475.3,1939.1,1473.7,1938.2z"/>
<path class="st1" d="M1491.5,1938.5c-1.2-0.6-2.1-1.5-2.8-2.7c-1.3-2.4-1.3-5.3,0-7.7c0.7-1.1,1.6-2,2.8-2.6c2.5-1.3,5.5-1.3,8,0
	c1.1,0.6,2.1,1.5,2.8,2.6c1.3,2.4,1.3,5.3,0,7.7c-0.6,1.1-1.6,2-2.8,2.7C1497,1939.8,1494,1939.8,1491.5,1938.5z M1498.6,1935.3
	c1.6-1.9,1.6-4.7,0-6.6c-0.8-0.8-1.9-1.3-3.1-1.2c-1.2,0-2.3,0.4-3.1,1.2c-1.6,1.9-1.6,4.7,0,6.6c0.8,0.8,1.9,1.3,3.1,1.2
	C1496.6,1936.6,1497.8,1936.1,1498.6,1935.3L1498.6,1935.3z"/>
<path class="st1" d="M1519.1,1926.2c1.2,1.3,1.8,3,1.7,4.8v8.3h-3.4v-7.9c0.1-1-0.2-2.1-0.9-2.9c-0.7-0.7-1.6-1.1-2.6-1
	c-1.1-0.1-2.2,0.3-3,1.1c-0.8,0.9-1.2,2.1-1.1,3.2v7.3h-3.4v-14.5h3.2v1.9c0.6-0.7,1.3-1.2,2.1-1.5c0.9-0.4,1.9-0.5,2.9-0.5
	C1516.3,1924.5,1517.9,1925.1,1519.1,1926.2z"/>
<path class="st1" d="M1528.8,1924v0.9h4v2.7h-3.9v11.7h-3.4v-11.7h-2.4v-2.7h2.4v-0.9c-0.1-1.4,0.4-2.7,1.4-3.7
	c2-1.6,4.7-1.8,6.9-0.6l-1,2.6c-0.5-0.4-1.2-0.6-1.9-0.6C1529.5,1921.6,1528.8,1922.4,1528.8,1924z"/>
<path class="st1" d="M1555.3,1939.2l-3.9-5.6c-0.2,0-0.5,0-0.7,0h-4.3v5.5h-3.5v-19h7.8c1.5,0,2.9,0.2,4.3,0.8
	c1.1,0.5,2.1,1.3,2.8,2.3c0.7,1.1,1,2.3,1,3.6c0,1.3-0.3,2.6-1,3.7c-0.7,1.1-1.8,1.9-3,2.3l4.4,6.2L1555.3,1939.2z M1554.1,1924.2
	c-1-0.7-2.3-1.1-3.5-1h-4.1v7.6h4.1c1.3,0.1,2.5-0.3,3.5-1c0.8-0.7,1.2-1.7,1.2-2.8C1555.3,1925.9,1554.9,1924.9,1554.1,1924.2
	L1554.1,1924.2z"/>
<path class="st1" d="M1565,1938.5c-1.1-0.6-2.1-1.5-2.8-2.7c-1.3-2.4-1.3-5.3,0-7.7c0.7-1.1,1.6-2,2.8-2.6c2.5-1.3,5.5-1.3,8,0
	c1.1,0.6,2.1,1.5,2.8,2.6c1.3,2.4,1.3,5.3,0,7.7c-0.6,1.1-1.6,2-2.8,2.7C1570.5,1939.8,1567.5,1939.8,1565,1938.5z M1572.1,1935.3
	c1.6-1.9,1.6-4.7,0-6.6c-1.7-1.7-4.5-1.7-6.2,0c-1.6,1.9-1.6,4.7,0,6.6C1567.6,1936.9,1570.3,1936.9,1572.1,1935.3z"/>
<path class="st1" d="M1582.5,1938.5c-1.2-0.6-2.1-1.5-2.8-2.7c-1.3-2.4-1.3-5.3,0-7.7c0.7-1.1,1.6-2,2.8-2.6c2.5-1.3,5.5-1.3,8,0
	c1.1,0.6,2.1,1.5,2.8,2.6c1.3,2.4,1.3,5.3,0,7.7c-0.6,1.1-1.6,2-2.8,2.7C1588,1939.8,1585,1939.8,1582.5,1938.5z M1589.6,1935.3
	c1.6-1.9,1.6-4.7,0-6.6c-1.7-1.7-4.5-1.7-6.2,0c-1.6,1.9-1.6,4.7,0,6.6C1585.1,1936.9,1587.8,1936.9,1589.6,1935.3z"/>
<path class="st1" d="M1620.1,1926.2c1.2,1.3,1.7,3,1.6,4.8v8.3h-3.4v-7.9c0.1-1-0.2-2-0.8-2.9c-0.6-0.7-1.5-1.1-2.4-1
	c-1,0-2,0.4-2.7,1.1c-0.7,0.9-1.1,2.1-1,3.2v7.4h-3.4v-7.9c0.1-1-0.2-2-0.8-2.9c-0.6-0.7-1.5-1.1-2.4-1c-1-0.1-2,0.4-2.8,1.1
	c-0.7,0.9-1.1,2.1-1,3.2v7.4h-3.4v-14.5h3.2v1.8c0.5-0.7,1.2-1.2,2-1.5c0.9-0.3,1.8-0.5,2.7-0.5c1,0,2,0.2,2.9,0.6
	c0.8,0.4,1.5,1,2,1.8c0.6-0.8,1.4-1.4,2.3-1.8c1-0.4,2.1-0.7,3.1-0.6C1617.4,1924.4,1619,1925,1620.1,1926.2z"/>
<path class="st1" d="M1528.1,1968.8v3h-14v-2.4l7.6-7.2c0.7-0.6,1.3-1.3,1.7-2.1c0.3-0.6,0.4-1.2,0.4-1.8c0-0.8-0.3-1.5-0.9-2
	c-0.8-0.5-1.7-0.8-2.6-0.7c-1.7-0.1-3.4,0.6-4.5,2l-2.5-1.9c0.8-1,1.8-1.8,3-2.3c1.3-0.6,2.8-0.8,4.2-0.8c1.8-0.1,3.6,0.4,5,1.5
	c1.2,1,1.9,2.4,1.8,4c0,1-0.2,2-0.7,2.9c-0.6,1.2-1.5,2.2-2.5,3.1l-5.1,4.8L1528.1,1968.8z"/>
<path class="st1" d="M1533.9,1971c-1.2-0.8-2.2-2-2.8-3.4c-1.4-3.4-1.4-7.1,0-10.5c0.6-1.4,1.6-2.5,2.8-3.4c1.2-0.8,2.6-1.2,4.1-1.2
	c1.4,0,2.9,0.4,4.1,1.2c1.2,0.8,2.2,2,2.8,3.4c1.4,3.4,1.4,7.1,0,10.5c-0.6,1.4-1.6,2.5-2.9,3.4c-1.2,0.8-2.6,1.2-4.1,1.2
	C1536.5,1972.2,1535.1,1971.8,1533.9,1971z M1541.2,1967.4c1.6-3.2,1.6-6.8,0-10c-1.2-1.8-3.7-2.2-5.4-1c-0.4,0.3-0.7,0.6-1,1
	c-1.6,3.2-1.6,6.8,0,10c1.2,1.8,3.7,2.2,5.4,1C1540.6,1968.1,1540.9,1967.8,1541.2,1967.4z"/>
<path class="st1" d="M1560.1,1962.5c0.9,1,1.4,2.3,1.4,3.7c0,1.1-0.3,2.1-0.8,3c-0.6,1-1.5,1.7-2.5,2.2c-1.3,0.6-2.7,0.8-4.1,0.8
	c-1.3,0-2.7-0.2-3.9-0.6c-1.2-0.3-2.3-0.9-3.2-1.6l1.5-2.7c0.7,0.6,1.6,1.1,2.5,1.4c1,0.3,2,0.5,3.1,0.5c1,0.1,2.1-0.2,2.9-0.8
	c0.7-0.5,1.1-1.3,1.1-2.1c0-0.8-0.3-1.6-1-2.1c-0.9-0.6-2-0.8-3.1-0.8h-1.7v-2.4l4.3-5.1h-8.6v-3h13v2.4l-4.6,5.5
	C1557.7,1960.7,1559.1,1961.4,1560.1,1962.5z"/>
<path class="st1" d="M1577.4,1968.8v3h-14v-2.4l7.6-7.2c0.7-0.6,1.3-1.3,1.7-2.1c0.3-0.6,0.4-1.2,0.4-1.8c0-0.8-0.3-1.5-0.9-2
	c-0.8-0.5-1.7-0.8-2.6-0.7c-1.7-0.1-3.4,0.7-4.4,2l-2.5-1.9c0.8-1,1.8-1.8,3-2.3c1.3-0.6,2.8-0.8,4.2-0.8c1.8-0.1,3.5,0.4,4.9,1.5
	c1.2,1,1.9,2.4,1.8,4c0,1-0.2,2-0.7,2.9c-0.6,1.2-1.5,2.2-2.5,3.1l-5.1,4.8L1577.4,1968.8z"/>
<path class="st1" d="M902.1,1992.8v3h-14v-2.4l7.5-7.2c0.7-0.6,1.3-1.3,1.7-2.1c0.3-0.6,0.4-1.2,0.5-1.8c0-0.8-0.3-1.5-0.9-2
	c-0.8-0.5-1.7-0.8-2.6-0.7c-1.7-0.1-3.4,0.6-4.5,2l-2.5-1.9c0.8-1,1.8-1.8,3-2.3c1.3-0.6,2.8-0.8,4.2-0.8c1.8-0.1,3.5,0.4,4.9,1.5
	c1.2,1,1.9,2.4,1.8,4c0,1-0.2,2-0.7,2.9c-0.6,1.2-1.5,2.2-2.5,3.1l-5.1,4.8L902.1,1992.8z"/>
<path class="st1" d="M907.9,1994.8c-1.2-0.8-2.2-2-2.8-3.4c-1.4-3.4-1.4-7.1,0-10.5c0.6-1.4,1.6-2.5,2.8-3.4c2.5-1.5,5.7-1.5,8.2,0
	c1.3,0.8,2.2,2,2.8,3.4c1.4,3.4,1.4,7.1,0,10.5c-0.6,1.4-1.6,2.5-2.8,3.4C913.5,1996.4,910.4,1996.4,907.9,1994.8z M915.2,1991.2
	c1.6-3.2,1.6-6.8,0-10c-0.7-1.1-1.9-1.7-3.2-1.7c-1.3,0-2.5,0.6-3.2,1.7c-1.6,3.2-1.6,6.8,0,10c0.7,1.1,1.9,1.7,3.2,1.7
	C913.3,1993,914.5,1992.3,915.2,1991.2z"/>
<path class="st1" d="M928.7,1976.7v19h-3.5v-16h-4v-3H928.7z"/>
<path class="st1" d="M946.3,1992.8v3h-14v-2.4l7.5-7.2c0.7-0.6,1.3-1.3,1.7-2.1c0.3-0.6,0.4-1.2,0.4-1.8c0-0.8-0.3-1.5-0.9-2
	c-0.8-0.5-1.7-0.8-2.6-0.7c-1.7-0.1-3.4,0.7-4.5,2l-2.5-1.9c0.8-1,1.8-1.8,3-2.3c1.3-0.6,2.8-0.8,4.2-0.8c1.8-0.1,3.6,0.4,5,1.5
	c1.2,1,1.9,2.4,1.8,4c0,1-0.2,2-0.7,2.9c-0.6,1.2-1.5,2.2-2.5,3.1l-5.1,4.8L946.3,1992.8z"/>
<path class="st1" d="M1021.9,1992.8v3h-14v-2.4l7.5-7.2c0.7-0.6,1.3-1.3,1.7-2.1c0.3-0.6,0.4-1.2,0.5-1.8c0-0.8-0.3-1.5-0.9-2
	c-0.8-0.5-1.7-0.8-2.6-0.7c-1.7-0.1-3.4,0.6-4.5,2l-2.5-1.9c0.8-1,1.8-1.8,3-2.3c1.3-0.6,2.8-0.8,4.2-0.8c1.8-0.1,3.5,0.4,4.9,1.5
	c1.2,1,1.9,2.4,1.8,4c0,1-0.2,2-0.7,2.9c-0.6,1.2-1.5,2.2-2.5,3.1l-5.1,4.8L1021.9,1992.8z"/>
<path class="st1" d="M1027.7,1994.8c-1.2-0.8-2.2-2-2.8-3.4c-1.4-3.4-1.4-7.1,0-10.5c0.6-1.4,1.6-2.5,2.8-3.4c2.5-1.5,5.7-1.5,8.2,0
	c1.2,0.8,2.2,2,2.8,3.4c1.4,3.4,1.4,7.1,0,10.5c-0.6,1.4-1.6,2.5-2.8,3.4C1033.4,1996.4,1030.2,1996.4,1027.7,1994.8z M1035,1991.2
	c1.6-3.2,1.6-6.8,0-10c-1.2-1.8-3.6-2.2-5.4-1c-0.4,0.3-0.7,0.6-1,1c-1.6,3.2-1.6,6.8,0,10c1.2,1.8,3.6,2.2,5.4,1
	C1034.4,1992,1034.7,1991.6,1035,1991.2z"/>
<path class="st1" d="M1048.6,1976.7v19h-3.6v-16h-4v-3H1048.6z"/>
<path class="st1" d="M1064.5,1986.4c0.9,1,1.4,2.3,1.4,3.7c0,1.1-0.3,2.1-0.8,3c-0.6,1-1.5,1.7-2.5,2.2c-1.3,0.6-2.7,0.8-4.1,0.8
	c-1.3,0-2.7-0.2-3.9-0.6c-1.2-0.3-2.3-0.9-3.2-1.6l1.5-2.8c0.7,0.6,1.6,1.1,2.5,1.4c1,0.3,2,0.5,3.1,0.5c1,0.1,2.1-0.2,2.9-0.8
	c1.2-0.8,1.4-2.5,0.6-3.6c-0.1-0.2-0.3-0.4-0.5-0.5c-0.9-0.6-2-0.8-3.1-0.8h-1.7v-2.4l4.3-5.1h-8.6v-3h13v2.4l-4.6,5.5
	C1062,1984.6,1063.4,1985.3,1064.5,1986.4z"/>
<path class="st1" d="M1002.1,868.3v3h-14V869l7.5-7.2c0.7-0.6,1.3-1.3,1.7-2.1c0.3-0.6,0.4-1.2,0.5-1.8c0-0.8-0.3-1.5-0.9-2
	c-0.8-0.5-1.7-0.8-2.6-0.7c-1.7-0.1-3.4,0.7-4.5,2l-2.5-1.9c0.8-1,1.8-1.8,3-2.3c1.3-0.6,2.8-0.8,4.2-0.8c1.8-0.1,3.5,0.4,4.9,1.5
	c1.2,1,1.9,2.4,1.8,4c0,1-0.2,2-0.7,2.9c-0.6,1.2-1.5,2.2-2.5,3.1l-5.1,4.8L1002.1,868.3z"/>
<path class="st1" d="M1007.9,870.4c-1.2-0.8-2.2-2-2.8-3.4c-1.4-3.4-1.4-7.1,0-10.5c0.6-1.4,1.6-2.5,2.8-3.4c2.5-1.5,5.7-1.5,8.2,0
	c1.3,0.8,2.2,2,2.8,3.4c1.4,3.4,1.4,7.1,0,10.5c-0.6,1.4-1.6,2.5-2.8,3.4C1013.6,872,1010.4,872,1007.9,870.4z M1015.2,866.8
	c1.6-3.2,1.6-6.9,0-10c-0.7-1.1-1.9-1.7-3.2-1.7c-1.3,0-2.5,0.6-3.2,1.7c-1.6,3.2-1.6,6.9,0,10c0.7,1.1,1.9,1.7,3.2,1.7
	C1013.3,868.6,1014.5,867.9,1015.2,866.8z"/>
<path class="st1" d="M1026.2,870.4c-1.2-0.8-2.2-2-2.8-3.4c-1.4-3.4-1.4-7.1,0-10.5c0.6-1.4,1.6-2.5,2.8-3.4c2.5-1.5,5.7-1.5,8.2,0
	c1.3,0.8,2.2,2,2.8,3.4c1.4,3.4,1.4,7.1,0,10.5c-0.6,1.4-1.6,2.5-2.8,3.4C1031.8,872,1028.7,872,1026.2,870.4z M1033.5,866.8
	c1.6-3.2,1.6-6.9,0-10c-1.2-1.8-3.6-2.2-5.4-1c-0.4,0.3-0.7,0.6-1,1c-1.6,3.2-1.6,6.9,0,10c1.2,1.8,3.7,2.2,5.4,1
	C1032.9,867.6,1033.2,867.2,1033.5,866.8z"/>
<path class="st1" d="M1052.6,860.3c2,0.9,3.2,2.9,3.2,5.1c0,1.2-0.3,2.3-0.9,3.2c-0.6,0.9-1.5,1.7-2.5,2.2c-1.1,0.5-2.3,0.8-3.5,0.8
	c-2.3,0.1-4.5-0.8-6.1-2.5c-1.4-1.6-2.2-4-2.2-7c-0.1-1.9,0.3-3.8,1.2-5.5c0.7-1.5,1.9-2.7,3.3-3.5c1.5-0.8,3.2-1.2,4.9-1.2
	c0.9,0,1.8,0.1,2.8,0.3c0.8,0.2,1.5,0.5,2.2,0.9l-1.3,2.7c-1.1-0.7-2.3-1-3.6-0.9c-1.6-0.1-3.2,0.5-4.3,1.7
	c-1.1,1.4-1.7,3.1-1.6,4.9l0,0c0.6-0.7,1.3-1.2,2.1-1.5c0.9-0.3,1.9-0.5,2.9-0.5C1050.4,859.6,1051.5,859.8,1052.6,860.3z
	 M1051.3,868c1.3-1.2,1.4-3.2,0.2-4.6c-0.1-0.1-0.1-0.1-0.2-0.2c-0.8-0.6-1.8-0.9-2.8-0.9c-1,0-2,0.3-2.8,0.9
	c-1.3,1.1-1.5,2.9-0.4,4.2c0.1,0.1,0.3,0.3,0.4,0.4c0.8,0.6,1.8,1,2.9,0.9C1049.6,868.9,1050.6,868.6,1051.3,868L1051.3,868z"/>
<path class="st1" d="M1027.5,777.3h-12.6l10.4,6.2v1.6l-10.3,6.3h12.4v3.4h-19v-2.9l12.6-7.5l-12.6-7.4V774h19L1027.5,777.3z"/>
<path class="st1" d="M1013,755.1h14.5v3.2h-1.8c0.7,0.5,1.2,1.2,1.5,2c0.4,0.8,0.5,1.7,0.5,2.6c0.3,3.1-2,5.9-5.1,6.3
	c-0.4,0-0.9,0-1.3,0h-8.3v-3.4h7.8c1,0.1,2.1-0.2,2.9-0.9c0.7-0.7,1-1.6,1-2.5c0.1-1.1-0.4-2.1-1.1-2.9c-0.9-0.8-2.1-1.2-3.2-1.1
	h-7.4V755.1z"/>
<path class="st1" d="M1027.2,749.7c-0.2,1-0.6,1.9-1.2,2.7l-2.6-1.3c0.5-0.7,0.8-1.5,1-2.3c0.3-0.9,0.4-1.8,0.4-2.7c0-2-0.5-3-1.6-3
	c-0.5,0-0.9,0.3-1.1,0.8c-0.3,0.8-0.5,1.6-0.6,2.5c-0.1,1-0.3,2-0.6,2.9c-0.2,0.8-0.6,1.5-1.2,2c-0.7,0.6-1.6,0.9-2.5,0.8
	c-1.3,0-2.6-0.6-3.3-1.7c-0.9-1.4-1.3-3-1.2-4.7c0-1,0.1-2,0.3-3c0.2-0.9,0.5-1.7,0.9-2.5l2.6,1.3c-0.7,1.3-1.1,2.7-1.1,4.2
	c0,0.8,0.1,1.6,0.5,2.3c0.2,0.5,0.7,0.8,1.2,0.8c0.5,0,1-0.3,1.2-0.8c0.3-0.8,0.5-1.7,0.6-2.6c0.1-1,0.3-1.9,0.6-2.8
	c0.2-0.7,0.6-1.4,1.2-1.9c0.7-0.6,1.5-0.9,2.4-0.8c1.3,0,2.6,0.7,3.3,1.8c0.9,1.4,1.3,3.1,1.2,4.8
	C1027.6,747.4,1027.5,748.5,1027.2,749.7z"/>
<path class="st1" d="M1010,736.5c-0.8,0.8-2,0.8-2.8,0.1c0,0,0,0-0.1-0.1c-0.4-0.4-0.6-1-0.6-1.5c0-0.6,0.2-1.1,0.5-1.5
	c0.3-0.4,0.9-0.6,1.4-0.6c0.6,0,1.1,0.2,1.5,0.6c0.4,0.4,0.6,1,0.6,1.6C1010.6,735.6,1010.4,736.1,1010,736.5z M1013,736.7v-3.4
	h14.5v3.4H1013z"/>
<path class="st1" d="M1026.7,726.2c-0.6,1.2-1.5,2.1-2.7,2.8c-2.4,1.3-5.3,1.3-7.7,0c-1.1-0.7-2-1.6-2.6-2.8c-0.7-1.3-1-2.6-1-4.1
	c0-1.3,0.3-2.6,0.9-3.8c0.6-1.1,1.4-1.9,2.5-2.4l1.5,2.6c-0.6,0.4-1.1,0.9-1.5,1.6c-0.3,0.6-0.5,1.3-0.5,2c0,1.2,0.4,2.3,1.2,3.2
	c0.9,0.9,2.1,1.3,3.3,1.2c1.2,0.1,2.4-0.4,3.3-1.2c0.8-0.8,1.3-2,1.2-3.2c0-0.7-0.2-1.4-0.5-2c-0.4-0.6-0.9-1.2-1.5-1.6l1.5-2.6
	c1.1,0.6,1.9,1.4,2.5,2.5c0.6,1.2,0.9,2.4,0.9,3.7C1027.7,723.6,1027.4,725,1026.7,726.2z"/>
<path class="st1" d="M1027.5,692.8l-5.6,3.9c0,0.2,0,0.5,0,0.7v4.3h5.5v3.5h-19v-7.8c0-1.5,0.2-2.9,0.8-4.3c0.5-1.2,1.3-2.1,2.3-2.8
	c2.3-1.3,5.1-1.3,7.3,0.1c1.1,0.7,1.9,1.8,2.3,3l6.2-4.4L1027.5,692.8z M1012.5,694.1c-0.7,1-1.1,2.3-1,3.5v4.1h7.5v-4.1
	c0.1-1.2-0.3-2.5-1-3.5c-0.7-0.8-1.7-1.3-2.8-1.2C1014.1,692.8,1013.1,693.3,1012.5,694.1L1012.5,694.1z"/>
<path class="st1" d="M1021.3,672.2v11.4c1-0.2,1.9-0.7,2.5-1.6c0.6-0.9,1-2,0.9-3.1c0.1-1.5-0.5-2.9-1.6-3.9l2.1-1.8
	c0.8,0.7,1.4,1.5,1.8,2.5c0.9,2.5,0.8,5.2-0.3,7.6c-0.6,1.2-1.5,2.1-2.7,2.8c-1.2,0.7-2.5,1-3.8,1c-1.3,0-2.7-0.3-3.8-1
	c-1.1-0.6-2-1.6-2.6-2.7c-0.6-1.2-1-2.5-1-3.9c0-1.3,0.3-2.6,0.9-3.8c0.6-1.1,1.5-2,2.6-2.6c1.2-0.6,2.6-1,3.9-0.9
	C1020.5,672.1,1020.9,672.1,1021.3,672.2z M1016.5,682.2c0.7,0.8,1.6,1.3,2.6,1.4v-8.2c-1,0.1-1.9,0.6-2.5,1.3
	C1015.2,678.2,1015.2,680.5,1016.5,682.2L1016.5,682.2z"/>
<path class="st1" d="M1012.2,665.1h0.9v-4h2.7v3.9h11.7v3.4h-11.7v2.4h-2.7v-2.4h-0.9c-1.4,0.1-2.7-0.4-3.7-1.4
	c-1.6-2-1.8-4.7-0.5-6.9l2.5,1c-0.4,0.5-0.6,1.2-0.6,1.9C1009.9,664.4,1010.7,665.1,1012.2,665.1z"/>
<path class="st1" d="M1027.8,636.7l-2.3,2.4c1.5,1.8,2.3,4.1,2.3,6.4c0,1.2-0.2,2.4-0.7,3.5c-0.4,1-1,1.8-1.8,2.5
	c-0.7,0.6-1.7,0.9-2.6,0.9c-1.1,0-2.2-0.3-3.1-1c-1.1-0.9-2-2.1-2.6-3.4c-0.6,0.7-1.3,1.2-2.1,1.6c-0.6,0.3-1.3,0.5-2,0.5
	c-1.3,0-2.5-0.5-3.2-1.5c-0.9-1.1-1.3-2.6-1.2-4c-0.1-1.3,0.3-2.6,1.1-3.7c0.7-0.9,1.9-1.4,3.1-1.4c0.9,0,1.9,0.3,2.6,0.9
	c0.9,0.8,1.7,1.9,2.3,3l3.9-4.1c-1-0.5-2.1-0.8-3.2-1.1l0.9-2.7c1.5,0.3,3,0.9,4.3,1.7l2.3-2.4L1027.8,636.7z M1011.2,646.4
	c0.4,0.4,0.9,0.7,1.5,0.7c0.4,0,0.9-0.1,1.2-0.3c0.6-0.4,1.1-0.8,1.6-1.4c-0.4-0.8-0.9-1.6-1.6-2.3c-0.4-0.4-0.9-0.6-1.5-0.6
	c-0.5,0-1,0.2-1.3,0.6c-0.4,0.5-0.5,1-0.5,1.6C1010.6,645.3,1010.8,645.9,1011.2,646.4L1011.2,646.4z M1023.5,641.1l-4.8,5
	c0.4,0.9,1,1.6,1.7,2.3c0.5,0.4,1.2,0.7,1.9,0.7c0.8,0,1.5-0.4,1.9-1.1c0.5-0.8,0.8-1.8,0.7-2.8
	C1025,643.7,1024.5,642.3,1023.5,641.1L1023.5,641.1z"/>
<path class="st1" d="M1027.5,611.9l-5.6,3.9c0,0.2,0,0.5,0,0.7v4.3h5.5v3.5h-19v-7.8c0-1.5,0.2-2.9,0.8-4.3c0.5-1.1,1.3-2.1,2.3-2.8
	c2.3-1.3,5.1-1.3,7.3,0.1c1.1,0.7,1.9,1.8,2.3,3l6.2-4.4L1027.5,611.9z M1012.5,613.2c-0.7,1-1.1,2.3-1,3.5v4.1h7.5v-4.1
	c0.1-1.2-0.3-2.5-1-3.5c-0.7-0.8-1.7-1.3-2.8-1.2C1014.1,611.9,1013.1,612.4,1012.5,613.2L1012.5,613.2z"/>
<path class="st1" d="M1021.3,591.2v11.4c1-0.2,1.9-0.7,2.5-1.6c0.6-0.9,1-2,0.9-3.1c0-1.5-0.5-2.9-1.6-3.9l2.1-1.8
	c0.8,0.7,1.4,1.5,1.8,2.5c0.9,2.5,0.8,5.2-0.3,7.6c-0.6,1.2-1.5,2.1-2.7,2.8c-1.2,0.7-2.5,1-3.8,1c-1.3,0-2.7-0.3-3.8-1
	c-1.1-0.6-2-1.6-2.6-2.7c-0.6-1.2-1-2.5-1-3.8c0-1.3,0.3-2.6,0.9-3.8c0.6-1.1,1.5-2,2.6-2.6c1.2-0.6,2.6-1,3.9-0.9
	C1020.5,591.2,1020.9,591.2,1021.3,591.2z M1016.5,601.2c0.7,0.8,1.6,1.3,2.6,1.4v-8.2c-1,0.1-1.9,0.6-2.5,1.3
	C1015.2,597.3,1015.2,599.6,1016.5,601.2L1016.5,601.2z"/>
<path class="st1" d="M1027.2,586.9c-0.2,1-0.6,1.9-1.2,2.7l-2.6-1.3c0.5-0.7,0.8-1.5,1-2.3c0.3-0.9,0.4-1.8,0.4-2.7c0-2-0.5-3-1.6-3
	c-0.5,0-0.9,0.3-1.1,0.8c-0.3,0.8-0.5,1.6-0.6,2.5c-0.1,1-0.3,2-0.6,2.9c-0.2,0.8-0.6,1.5-1.2,2c-0.7,0.6-1.6,0.9-2.5,0.8
	c-1.3,0-2.6-0.6-3.3-1.7c-0.9-1.4-1.3-3-1.2-4.7c0-1,0.1-2,0.3-3c0.2-0.9,0.5-1.7,0.9-2.5l2.6,1.3c-0.7,1.3-1.1,2.7-1.1,4.2
	c0,0.7,0.2,1.5,0.5,2.2c0.2,0.5,0.7,0.8,1.2,0.8c0.5,0,1-0.3,1.2-0.8c0.3-0.8,0.5-1.7,0.6-2.6c0.1-1,0.3-1.9,0.6-2.8
	c0.2-0.7,0.6-1.4,1.2-1.9c0.7-0.6,1.5-0.9,2.4-0.8c1.3,0,2.6,0.7,3.3,1.8c0.9,1.4,1.3,3.1,1.2,4.8
	C1027.7,584.6,1027.5,585.7,1027.2,586.9z"/>
<path class="st1" d="M1021.3,560.3v11.4c1-0.2,1.9-0.7,2.5-1.6c0.6-0.9,1-2,0.9-3.1c0-1.5-0.5-2.9-1.6-3.9l2.1-1.8
	c0.8,0.7,1.4,1.5,1.8,2.5c0.9,2.5,0.8,5.2-0.3,7.6c-0.6,1.2-1.5,2.1-2.7,2.8c-1.2,0.7-2.5,1-3.8,1c-1.3,0-2.7-0.3-3.8-1
	c-1.1-0.6-2-1.5-2.6-2.7c-0.6-1.2-1-2.5-1-3.9c0-1.3,0.3-2.6,0.9-3.8c0.6-1.1,1.5-2,2.6-2.6c1.2-0.6,2.6-1,3.9-0.9
	C1020.5,560.3,1020.9,560.3,1021.3,560.3z M1016.5,570.3c0.7,0.8,1.6,1.2,2.6,1.4v-8.2c-1,0.1-1.9,0.6-2.5,1.3
	C1015.2,566.4,1015.2,568.7,1016.5,570.3L1016.5,570.3z"/>
<path class="st1" d="M1012.8,548.6h3.2c-0.1,0.3-0.1,0.5-0.1,0.8c-0.1,1.1,0.3,2.3,1.2,3.1c0.9,0.8,2.1,1.2,3.3,1.1h7v3.4H1013v-3.2
	h2.1C1013.6,552.8,1012.8,551.1,1012.8,548.6z"/>
<path class="st1" d="M1013,531.6l14.5,6.2v3.5l-14.5,6.2V544l10.8-4.5l-10.8-4.6V531.6z"/>
<path class="st1" d="M1021.3,516.3v11.4c1-0.2,1.9-0.7,2.5-1.6c0.6-0.9,1-2,0.9-3.1c0.1-1.5-0.5-2.9-1.6-3.9l2.1-1.8
	c0.8,0.7,1.4,1.5,1.8,2.5c0.9,2.5,0.8,5.2-0.3,7.6c-0.6,1.2-1.5,2.1-2.7,2.8c-1.2,0.7-2.5,1-3.8,1c-1.3,0-2.7-0.3-3.8-1
	c-1.1-0.6-2-1.6-2.6-2.7c-0.6-1.2-1-2.5-1-3.9c0-1.3,0.3-2.6,0.9-3.8c0.6-1.1,1.5-2,2.6-2.6c1.2-0.6,2.6-1,3.9-0.9
	C1020.5,516.3,1020.9,516.3,1021.3,516.3z M1016.5,526.3c0.7,0.8,1.6,1.3,2.6,1.4v-8.2c-1,0.1-1.9,0.6-2.5,1.3
	C1015.2,522.4,1015.2,524.7,1016.5,526.3L1016.5,526.3z"/>
<path class="st1" d="M1579.6,297.1v4h-18.9V298l10.2-9.7c0.9-0.8,1.7-1.8,2.3-2.9c0.4-0.8,0.6-1.6,0.6-2.4c0.1-1.1-0.4-2.1-1.2-2.8
	c-1-0.7-2.3-1.1-3.6-1c-2.3-0.1-4.6,0.9-6,2.7l-3.3-2.6c1-1.4,2.4-2.5,4-3.1c1.8-0.8,3.7-1.1,5.7-1.1c2.4-0.1,4.7,0.6,6.7,2
	c1.7,1.3,2.6,3.3,2.5,5.4c0,1.4-0.3,2.7-0.9,3.9c-0.9,1.6-2,3-3.4,4.2l-6.8,6.5L1579.6,297.1z"/>
<path class="st1" d="M1587.4,300c-1.7-1.1-3-2.7-3.8-4.5c-1.9-4.5-1.9-9.6,0-14.2c0.8-1.8,2.1-3.4,3.8-4.5c3.4-2.1,7.6-2.1,11,0
	c1.7,1.1,3,2.7,3.8,4.5c1.9,4.5,1.9,9.6,0,14.2c-0.8,1.9-2.1,3.4-3.8,4.5C1595,302.1,1590.8,302.1,1587.4,300z M1597.2,295.1
	c1.1-1.5,1.6-3.8,1.6-6.8s-0.5-5.3-1.6-6.8c-1.6-2.4-4.9-3-7.3-1.3c-0.5,0.4-1,0.8-1.3,1.3c-1.1,1.5-1.6,3.8-1.6,6.8
	c0,3,0.5,5.3,1.6,6.8c1.6,2.4,4.9,3,7.3,1.3C1596.4,296.1,1596.9,295.7,1597.2,295.1z"/>
<path class="st1" d="M1623.1,286.3c1.3,0.6,2.4,1.6,3.2,2.8c0.8,1.2,1.2,2.7,1.1,4.1c0,1.6-0.4,3.1-1.2,4.4c-0.8,1.3-2,2.3-3.4,2.9
	c-1.5,0.7-3.1,1-4.8,1c-3.5,0-6.3-1.1-8.2-3.3c-1.9-2.2-2.9-5.4-2.9-9.5c-0.1-2.6,0.5-5.1,1.6-7.4c1-2,2.5-3.6,4.4-4.7
	c2-1.1,4.3-1.6,6.6-1.6c1.3,0,2.5,0.1,3.7,0.4c1.1,0.2,2.1,0.7,3,1.2l-1.8,3.6c-1.5-0.9-3.2-1.3-4.9-1.2c-2.2-0.1-4.3,0.7-5.8,2.3
	c-1.4,1.5-2.1,3.7-2.1,6.6l0,0c0.8-0.9,1.8-1.6,2.9-2c1.3-0.5,2.6-0.7,4-0.7C1620.1,285.3,1621.7,285.6,1623.1,286.3z M1621.3,296.6
	c1.8-1.6,1.9-4.4,0.2-6.1c-0.1-0.1-0.2-0.2-0.2-0.2c-2.3-1.6-5.3-1.6-7.5,0.1c-0.9,0.8-1.5,1.9-1.4,3.1c0,1.2,0.5,2.3,1.4,3.1
	c1.1,0.9,2.5,1.3,3.9,1.2C1619,297.9,1620.3,297.4,1621.3,296.6L1621.3,296.6z"/>
<path class="st1" d="M1635.1,300c-1.7-1.1-3-2.7-3.8-4.5c-1.9-4.5-1.9-9.6,0-14.2c0.8-1.8,2.1-3.4,3.8-4.5c3.4-2.1,7.6-2.1,11,0
	c1.7,1.1,3,2.7,3.8,4.5c1.9,4.5,1.9,9.6,0,14.2c-0.8,1.9-2.1,3.4-3.8,4.5C1642.7,302.1,1638.4,302.1,1635.1,300z M1644.9,295.1
	c1.1-1.5,1.6-3.8,1.6-6.8c0-3-0.5-5.3-1.6-6.8c-1-1.5-2.6-2.3-4.3-2.3c-1.7,0-3.4,0.8-4.3,2.3c-1.1,1.5-1.6,3.8-1.6,6.8
	c0,3,0.5,5.3,1.6,6.8c0.9,1.4,2.6,2.3,4.3,2.3C1642.3,297.5,1644,296.6,1644.9,295.1L1644.9,295.1z"/>
<path class="st1" d="M1699.7,297.1v4h-18.9V298l10.2-9.7c0.9-0.8,1.7-1.8,2.3-2.9c0.4-0.8,0.6-1.6,0.6-2.4c0.1-1.1-0.4-2.1-1.2-2.8
	c-1-0.7-2.3-1.1-3.6-1c-2.3-0.1-4.6,0.9-6,2.7l-3.3-2.6c1-1.4,2.4-2.5,4-3.1c1.8-0.8,3.7-1.1,5.7-1.1c2.4-0.1,4.7,0.6,6.7,2
	c1.6,1.3,2.6,3.3,2.5,5.4c0,1.4-0.3,2.7-0.9,3.9c-0.9,1.6-2,3-3.4,4.2l-6.9,6.5L1699.7,297.1z"/>
<path class="st1" d="M1707.5,300c-1.7-1.1-3-2.7-3.8-4.5c-1.9-4.5-1.9-9.6,0-14.2c0.8-1.8,2.1-3.4,3.8-4.5c3.4-2.1,7.6-2.1,11,0
	c1.7,1.1,3,2.7,3.8,4.5c1.9,4.5,1.9,9.6,0,14.2c-0.8,1.9-2.1,3.4-3.8,4.5C1715.1,302.1,1710.9,302.1,1707.5,300z M1717.4,295.1
	c1.1-1.5,1.6-3.8,1.6-6.8s-0.5-5.3-1.6-6.8c-1-1.5-2.6-2.3-4.3-2.3c-1.7,0-3.4,0.8-4.3,2.3c-1.1,1.5-1.6,3.8-1.6,6.8
	c0,3,0.5,5.3,1.6,6.8c0.9,1.4,2.6,2.3,4.3,2.3C1714.8,297.5,1716.4,296.6,1717.4,295.1L1717.4,295.1z"/>
<path class="st1" d="M1743.1,287.5c1.7,1.4,2.7,3.5,2.6,5.7c0.1,3.1-1.7,5.9-4.5,7.1c-1.8,0.8-3.7,1.2-5.6,1.1
	c-1.8,0-3.6-0.3-5.3-0.8c-1.6-0.5-3-1.2-4.3-2.2l2-3.7c1,0.8,2.2,1.4,3.4,1.9c1.3,0.5,2.7,0.7,4.1,0.7c1.4,0.1,2.8-0.3,4-1
	c1.6-1.2,1.9-3.5,0.7-5.1c-0.2-0.3-0.5-0.6-0.8-0.8c-1-0.7-2.8-1-5.3-1h-6.2l1.3-14h15.1v4h-11l-0.6,5.9h2.4
	C1738.6,285.4,1741.3,286.1,1743.1,287.5z"/>
<path class="st1" d="M1765.2,278.4c1.9,2.2,2.9,5.4,2.9,9.5c0.1,2.5-0.5,5.1-1.6,7.4c-1,2-2.5,3.6-4.4,4.7c-2,1.1-4.3,1.6-6.6,1.6
	c-1.3,0-2.5-0.1-3.7-0.4c-1.1-0.2-2.1-0.7-3-1.2l1.8-3.6c1.5,0.9,3.2,1.3,4.9,1.2c2.2,0.1,4.3-0.7,5.8-2.3c1.4-1.5,2.1-3.7,2.1-6.6
	l0,0c-0.8,0.9-1.8,1.6-2.9,2c-1.3,0.5-2.6,0.7-4,0.7c-1.6,0-3.1-0.3-4.5-1c-1.3-0.6-2.4-1.6-3.2-2.8c-0.8-1.2-1.2-2.7-1.1-4.1
	c0-1.6,0.4-3.1,1.2-4.4c0.8-1.3,2-2.3,3.4-2.9c1.5-0.7,3.1-1,4.8-1C1760.6,275.1,1763.3,276.2,1765.2,278.4z M1761.2,286.4
	c0.9-0.8,1.5-1.9,1.4-3.2c0-1.2-0.5-2.3-1.4-3.1c-1.1-0.9-2.5-1.3-3.9-1.2c-1.3-0.1-2.6,0.4-3.6,1.2c-1.8,1.6-1.9,4.4-0.2,6.1
	c0.1,0.1,0.2,0.2,0.2,0.2c1.1,0.8,2.4,1.2,3.7,1.2C1758.8,287.7,1760.1,287.2,1761.2,286.4L1761.2,286.4z"/>
<path class="st1" d="M1840.9,297.1v4H1822V298l10.2-9.7c0.9-0.8,1.7-1.8,2.3-2.9c0.4-0.8,0.6-1.6,0.6-2.4c0.1-1.1-0.4-2.1-1.2-2.8
	c-1-0.7-2.3-1.1-3.6-1c-2.3-0.1-4.6,0.9-6,2.7l-3.3-2.6c1-1.4,2.4-2.5,4-3.1c1.8-0.8,3.7-1.1,5.7-1.1c2.4-0.1,4.7,0.6,6.7,2
	c1.7,1.3,2.6,3.3,2.5,5.4c0,1.4-0.3,2.7-0.9,3.9c-0.9,1.6-2,3-3.4,4.2l-6.8,6.5L1840.9,297.1z"/>
<path class="st1" d="M1848.7,300c-1.7-1.1-3-2.7-3.8-4.5c-1.9-4.5-1.9-9.6,0-14.2c0.8-1.8,2.1-3.4,3.8-4.5c1.6-1,3.6-1.6,5.5-1.6
	c2,0,3.9,0.5,5.5,1.6c1.7,1.1,3,2.7,3.8,4.5c1.9,4.5,1.9,9.6,0,14.2c-0.8,1.9-2.1,3.4-3.8,4.5c-1.6,1-3.6,1.6-5.5,1.6
	C1852.3,301.6,1850.4,301,1848.7,300z M1858.5,295.1c1.1-1.5,1.6-3.8,1.6-6.8s-0.5-5.3-1.6-6.8c-1.7-2.4-4.9-3-7.3-1.3
	c-0.5,0.4-1,0.8-1.3,1.3c-1.1,1.5-1.6,3.8-1.6,6.8c0,3,0.5,5.3,1.6,6.8c1.7,2.4,4.9,3,7.3,1.3
	C1857.7,296.1,1858.2,295.7,1858.5,295.1z"/>
<path class="st1" d="M1884.2,287.5c1.7,1.4,2.7,3.5,2.6,5.7c0.1,3.1-1.7,5.9-4.6,7.1c-1.8,0.8-3.7,1.2-5.6,1.1
	c-1.8,0-3.6-0.3-5.3-0.8c-1.6-0.5-3-1.2-4.3-2.2l2-3.7c1,0.8,2.2,1.5,3.4,1.9c1.3,0.5,2.7,0.7,4.1,0.7c1.4,0.1,2.8-0.3,4-1
	c0.9-0.7,1.5-1.7,1.4-2.9c0.1-1.2-0.5-2.4-1.6-3c-1-0.7-2.8-1-5.3-1h-6.1l1.3-14h15.1v4h-11l-0.6,5.9h2.5
	C1879.9,285.4,1882.5,286.1,1884.2,287.5z"/>
<path class="st1" d="M1909.3,290.1c0.7,1.1,1.1,2.4,1.1,3.6c0,1.5-0.4,2.9-1.3,4.1c-0.9,1.2-2.2,2.2-3.7,2.7
	c-3.6,1.3-7.5,1.3-11.1,0c-1.4-0.5-2.7-1.5-3.6-2.7c-0.9-1.2-1.3-2.6-1.3-4.1c0-1.3,0.3-2.6,1.1-3.6c0.8-1.1,1.8-1.9,3-2.5
	c-2-1-3.3-3.1-3.2-5.4c0-1.4,0.4-2.7,1.2-3.8c0.9-1.1,2-2,3.4-2.5c3.2-1.2,6.8-1.2,10,0c1.3,0.5,2.5,1.4,3.4,2.5
	c0.8,1.1,1.2,2.4,1.2,3.8c0,1.1-0.3,2.2-0.8,3.1c-0.6,0.9-1.4,1.7-2.4,2.2C1907.4,288.2,1908.5,289.1,1909.3,290.1z M1904.1,296.7
	c1-0.7,1.6-1.8,1.5-3c0-1.2-0.5-2.3-1.5-3c-1.2-0.8-2.7-1.2-4.2-1.1c-1.5-0.1-2.9,0.3-4.1,1.1c-1,0.7-1.5,1.8-1.5,3
	c0,1.2,0.5,2.4,1.5,3c1.2,0.8,2.7,1.2,4.1,1.1C1901.4,297.9,1902.8,297.5,1904.1,296.7L1904.1,296.7z M1896.3,279.8
	c-0.9,0.6-1.3,1.6-1.3,2.7c0,1,0.5,2,1.3,2.6c1,0.7,2.3,1.1,3.5,1c1.3,0.1,2.5-0.3,3.6-1c1.5-1.1,1.8-3.2,0.7-4.6
	c-0.2-0.3-0.4-0.5-0.7-0.7c-1.1-0.7-2.3-1-3.6-1C1898.6,278.8,1897.4,279.1,1896.3,279.8z"/>
<path class="st1" d="M2022.3,297.1v4h-18.9V298l10.2-9.7c0.9-0.8,1.7-1.8,2.3-2.9c0.4-0.8,0.6-1.6,0.6-2.4c0.1-1.1-0.4-2.1-1.2-2.8
	c-1-0.7-2.3-1.1-3.6-1c-2.3-0.1-4.6,0.9-6,2.7l-3.3-2.6c1-1.4,2.4-2.5,4-3.1c1.8-0.8,3.7-1.1,5.7-1.1c2.4-0.1,4.7,0.6,6.7,2
	c1.7,1.3,2.6,3.3,2.5,5.4c0,1.4-0.3,2.7-0.9,3.9c-0.9,1.6-2,3-3.4,4.2l-6.8,6.5L2022.3,297.1z"/>
<path class="st1" d="M2030.2,300c-1.7-1.1-3-2.7-3.8-4.5c-1.9-4.5-1.9-9.6,0-14.2c0.8-1.8,2.1-3.4,3.8-4.5c1.6-1,3.6-1.6,5.5-1.6
	c2,0,3.9,0.5,5.5,1.6c1.7,1.1,3,2.7,3.8,4.5c1.9,4.5,1.9,9.6,0,14.2c-0.8,1.9-2.1,3.4-3.8,4.5c-1.6,1-3.6,1.6-5.5,1.6
	C2033.7,301.6,2031.8,301,2030.2,300z M2040,295.1c1.1-1.5,1.6-3.8,1.6-6.8s-0.5-5.3-1.6-6.8c-1.7-2.4-4.9-3-7.3-1.3
	c-0.5,0.4-1,0.8-1.3,1.3c-1.1,1.5-1.6,3.8-1.6,6.8c0,3,0.5,5.3,1.6,6.8c1.7,2.4,4.9,3,7.3,1.3C2039.2,296.1,2039.6,295.7,2040,295.1
	z"/>
<path class="st1" d="M2065.7,287.5c1.7,1.4,2.7,3.5,2.6,5.7c0.1,3.1-1.7,5.9-4.6,7.1c-1.8,0.8-3.7,1.2-5.6,1.1
	c-1.8,0-3.6-0.3-5.3-0.8c-1.6-0.5-3-1.2-4.3-2.2l2-3.7c1,0.8,2.2,1.5,3.4,1.9c1.3,0.5,2.7,0.7,4.1,0.7c1.4,0.1,2.8-0.3,4-1
	c0.9-0.7,1.5-1.7,1.4-2.9c0.1-1.2-0.5-2.4-1.6-3c-1-0.7-2.8-1-5.3-1h-6.2l1.3-14h15.1v4h-11l-0.6,5.9h2.5
	C2061.3,285.4,2063.9,286.1,2065.7,287.5z"/>
<path class="st1" d="M2089.9,275.5v3.2l-10,22.5h-5.1l9.6-21.6h-10v4.4h-4.4v-8.4H2089.9z"/>
<g>
	<path class="st1" d="M895,1904.7h-6v-2.9h15.4v2.9h-6v15.3H895V1904.7z"/>
	<path class="st1" d="M920.3,1912v8h-3.2v-7.5c0-2.5-1.2-3.7-3.3-3.7c-2.3,0-3.9,1.4-3.9,4.2v7h-3.2v-19.3h3.2v7
		c1.1-1.1,2.7-1.8,4.6-1.8C917.9,1906,920.3,1907.9,920.3,1912z"/>
	<path class="st1" d="M937.6,1914.1h-10.9c0.4,2,2.1,3.3,4.5,3.3c1.6,0,2.8-0.5,3.8-1.5l1.7,2c-1.2,1.5-3.2,2.3-5.6,2.3
		c-4.7,0-7.7-3-7.7-7.1c0-4.1,3-7.1,7.2-7.1c4.1,0,7,2.8,7,7.2C937.7,1913.4,937.6,1913.8,937.6,1914.1z M926.7,1911.9h7.9
		c-0.3-2-1.8-3.4-3.9-3.4C928.5,1908.6,927,1909.9,926.7,1911.9z"/>
	<path class="st1" d="M879.2,1949.3l1.2-2.6c1.5,1.2,3.8,2,6,2c2.8,0,4-1,4-2.4c0-3.9-10.8-1.4-10.8-8.1c0-2.9,2.3-5.4,7.3-5.4
		c2.2,0,4.5,0.6,6.1,1.6l-1.1,2.6c-1.6-1-3.4-1.4-5-1.4c-2.8,0-4,1.1-4,2.5c0,3.9,10.8,1.4,10.8,8c0,2.9-2.4,5.4-7.4,5.4
		C883.6,1951.5,880.7,1950.6,879.2,1949.3z"/>
	<path class="st1" d="M910.8,1948.4v2.8h-13.7V1933h13.3v2.8h-9.9v4.7h8.8v2.8h-8.8v5H910.8z"/>
	<path class="st1" d="M926.3,1947h-9.1l-1.8,4.2H912l8.2-18.2h3.3l8.2,18.2h-3.5L926.3,1947z M925.2,1944.3l-3.4-8l-3.4,8H925.2z"/>
	<path class="st1" d="M950.7,1951.2l0-12.1l-6,10h-1.5l-6-9.8v11.9H934V1933h2.8l7.2,12.1l7.1-12.1h2.8l0,18.2H950.7z"/>
</g>
</svg>
