<svg id="Layer_1" data-name="Layer 1" xmlns="http://www.w3.org/2000/svg" viewBox="0 0 2520 2160"><defs><style>.cls-1{fill:#fff;}.cls-2{fill:none;stroke:#fff;stroke-miterlimit:10;stroke-width:6px;}</style></defs><title>Main Library Floor Maps</title><path d="M2340.22,297.58a65.59,65.59,0,0,1-46.4-112h0a65.61,65.61,0,1,1,46.4,112Zm0-118a52,52,0,0,0-37,15.34h0a52.39,52.39,0,1,0,37-15.34Zm-41.72,10.66Z"/><polygon points="2340.77 240.45 2366.38 256.15 2338.87 195.17 2313.37 256.14 2340.77 240.45"/><path d="M2354.31,121.94v31.73h-4.85L2332,132.18v21.49h-5.84V121.94H2331l17.49,21.48V121.94Z"/><path class="cls-1" d="M1075.63,1707.69a9.33,9.33,0,0,1-3.64-3.49,9.78,9.78,0,0,1-1.31-5,9.56,9.56,0,0,1,1.33-5,9.29,9.29,0,0,1,3.65-3.49,10.73,10.73,0,0,1,5.2-1.26,10.85,10.85,0,0,1,4.26.81,8.59,8.59,0,0,1,3.26,2.36l-2.28,2.15a6.63,6.63,0,0,0-5.08-2.23,7.12,7.12,0,0,0-3.5.86,6.2,6.2,0,0,0-2.42,2.37,7.28,7.28,0,0,0,0,6.9,6.15,6.15,0,0,0,2.42,2.38,7.11,7.11,0,0,0,3.5.85,6.62,6.62,0,0,0,5.08-2.25l2.28,2.17a8.68,8.68,0,0,1-3.27,2.37,11,11,0,0,1-4.28.81A10.73,10.73,0,0,1,1075.63,1707.69Z"/><path class="cls-1" d="M1093.46,1707.92a7,7,0,0,1-2.75-2.65,7.85,7.85,0,0,1,0-7.67,7,7,0,0,1,2.75-2.64,8.81,8.81,0,0,1,8,0,7,7,0,0,1,2.75,2.64,7.85,7.85,0,0,1,0,7.67,7,7,0,0,1-2.75,2.65,8.81,8.81,0,0,1-8,0Zm7.06-3.21a5,5,0,0,0,0-6.57,4.44,4.44,0,0,0-6.18,0,5.1,5.1,0,0,0,0,6.57,4.44,4.44,0,0,0,6.18,0Z"/><path class="cls-1" d="M1121.05,1695.62a6.28,6.28,0,0,1,1.66,4.75v8.31h-3.39v-7.88a4.05,4.05,0,0,0-.9-2.86,3.29,3.29,0,0,0-2.55-1,3.92,3.92,0,0,0-3,1.13,4.47,4.47,0,0,0-1.09,3.25v7.33h-3.39v-14.5h3.23v1.87a5.2,5.2,0,0,1,2.12-1.52,7.68,7.68,0,0,1,2.87-.52A6,6,0,0,1,1121.05,1695.62Z"/><path class="cls-1" d="M1130.78,1693.42v.86h4V1697h-3.89v11.68h-3.39V1697h-2.39v-2.72h2.39v-.92a4.93,4.93,0,0,1,1.36-3.68,6.24,6.24,0,0,1,6.9-.55l-1,2.55a3.25,3.25,0,0,0-1.88-.6C1131.49,1691.08,1130.78,1691.86,1130.78,1693.42Z"/><path class="cls-1" d="M1081.27,1731.18a5.2,5.2,0,0,1,1.93,4.25,5.83,5.83,0,0,1-.85,3.09,5.75,5.75,0,0,1-2.52,2.2,9.4,9.4,0,0,1-4.16.82,13.27,13.27,0,0,1-3.93-.59,9.48,9.48,0,0,1-3.21-1.61l1.49-2.74a8.23,8.23,0,0,0,2.54,1.37,9.62,9.62,0,0,0,3.06.5,5,5,0,0,0,3-.77,2.51,2.51,0,0,0,1.07-2.14,2.47,2.47,0,0,0-1.16-2.21,7.61,7.61,0,0,0-4-.75h-4.59l1-10.34h11.16v3h-8.17l-.41,4.4h1.82Q1079.34,1729.62,1081.27,1731.18Z"/><path class="cls-1" d="M1089.09,1740.38a7.74,7.74,0,0,1-2.83-3.36,13.92,13.92,0,0,1,0-10.51,7.77,7.77,0,0,1,2.83-3.37,7.33,7.33,0,0,1,4.07-1.15,7.42,7.42,0,0,1,4.09,1.15,7.79,7.79,0,0,1,2.84,3.37,13.92,13.92,0,0,1,0,10.51,7.76,7.76,0,0,1-2.84,3.36,7.43,7.43,0,0,1-4.09,1.16A7.34,7.34,0,0,1,1089.09,1740.38Zm7.29-3.59a11.29,11.29,0,0,0,0-10,3.88,3.88,0,0,0-6.41,0,11.29,11.29,0,0,0,0,10,3.9,3.9,0,0,0,6.41,0Z"/><path class="cls-1" d="M1115.35,1731.9a5.15,5.15,0,0,1,1.39,3.66,5.64,5.64,0,0,1-.85,3,5.81,5.81,0,0,1-2.54,2.16,9.7,9.7,0,0,1-4.14.8,13.15,13.15,0,0,1-3.92-.59,9.83,9.83,0,0,1-3.22-1.61l1.52-2.74a7.85,7.85,0,0,0,2.51,1.37,9.62,9.62,0,0,0,3.06.5,5,5,0,0,0,2.95-.77,2.48,2.48,0,0,0,1.07-2.11,2.43,2.43,0,0,0-1-2.08,5.34,5.34,0,0,0-3.11-.74h-1.74v-2.42l4.32-5.13H1103v-3h13v2.36l-4.62,5.49A6.34,6.34,0,0,1,1115.35,1731.9Z"/><path class="cls-1" d="M1122.9,1740.38a7.66,7.66,0,0,1-2.82-3.36,13.8,13.8,0,0,1,0-10.51,7.68,7.68,0,0,1,2.82-3.37A7.33,7.33,0,0,1,1127,1722a7.42,7.42,0,0,1,4.09,1.15,7.79,7.79,0,0,1,2.84,3.37,13.92,13.92,0,0,1,0,10.51,7.76,7.76,0,0,1-2.84,3.36,7.43,7.43,0,0,1-4.09,1.16A7.34,7.34,0,0,1,1122.9,1740.38Zm7.29-3.59a11.29,11.29,0,0,0,0-10,3.88,3.88,0,0,0-6.41,0,11.29,11.29,0,0,0,0,10,3.9,3.9,0,0,0,6.41,0Z"/><polyline class="cls-2" points="100.15 425.59 100.15 1241.43 264.75 1241.43 265.16 1319.43 718.21 1319.43 718.21 1927.98 820.76 1927.98 820.75 2045.5 1498.29 2045.5"/><polyline class="cls-2" points="2255.29 428.35 2255.29 361.59 1496.22 361.59 1496.22 254.59 1023.2 254.59 1024.24 361.59 265.16 361.59 265.75 428.35"/><line class="cls-2" x1="1181.21" y1="254.59" x2="1181.21" y2="333.98"/><line class="cls-2" x1="1338.03" y1="333.98" x2="1338.03" y2="254.59"/><line class="cls-2" x1="1496.22" y1="361.59" x2="1338.03" y2="361.59"/><line class="cls-2" x1="1023.03" y1="1804.15" x2="1023.03" y2="2045.5"/><line class="cls-2" x1="685.75" y1="787.2" x2="1181.21" y2="787.2"/><polyline class="cls-2" points="1181.21 575.71 1023.03 575.71 1023.03 461.71 1023.03 361.59 1181.21 361.59 1181.21 428.35"/><polyline class="cls-2" points="1181.21 692.65 1181.21 461.71 1023.03 461.71"/><line class="cls-2" x1="1181.21" y1="739.98" x2="1181.21" y2="1201.93"/><polyline class="cls-2" points="1338.03 1428.42 1338.03 956.69 1338.03 929.69 1338.03 856.19 1434.03 856.19"/><line class="cls-2" x1="1338.03" y1="1503.42" x2="1338.03" y2="1458.42"/><line class="cls-2" x1="1338.03" y1="1599.41" x2="1338.03" y2="1531.91"/><line class="cls-2" x1="1338.03" y1="1681.98" x2="1338.03" y2="1635.41"/><polyline class="cls-2" points="1338.03 1270.7 1496.22 1270.7 1496.22 1774.65 1338.03 1774.65 1338.03 1698.65"/><line class="cls-2" x1="1338.03" y1="790.28" x2="1338.03" y2="747.26"/><line class="cls-2" x1="1496.22" y1="787.2" x2="1338.03" y2="787.2"/><polyline class="cls-2" points="1338.03 713.26 1338.03 461.71 1496.22 461.71 1496.22 361.59 1338.03 361.59 1338.03 428.35"/><polyline class="cls-2" points="1338.03 671.92 1496.22 671.92 1496.22 806.19"/><polyline class="cls-2" points="2240.75 871.59 2240.75 892.94 2421.75 892.94"/><polyline class="cls-2" points="2240.75 814.92 2240.75 793.57 2421.75 793.57"/><line class="cls-2" x1="2240.75" y1="831.92" x2="2240.75" y2="854.59"/><polyline class="cls-2" points="316.54 821.9 316.54 871.59 102.25 871.59"/><line class="cls-2" x1="280.75" y1="772.22" x2="102.25" y2="772.22"/><polyline class="cls-2" points="316.54 821.9 316.54 772.22 303.25 772.22"/><polyline class="cls-2" points="1802.25 1319.43 1802.25 1239.8 2418.53 1239.8 2420.31 425.59"/><line class="cls-2" x1="2383.75" y1="843.26" x2="2287.75" y2="843.26"/><line class="cls-2" x1="257.4" y1="821.91" x2="161.4" y2="821.91"/><line class="cls-2" x1="2421.75" y1="428.35" x2="1496.22" y2="428.35"/><line class="cls-2" x1="1025.68" y1="428.35" x2="100.15" y2="428.35"/><path class="cls-1" d="M1678,881.28h-17.11l-3.38,7.92h-6.55l15.4-34.22h6.26L1688,889.2h-6.65Zm-2.11-5-6.45-14.95-6.4,14.95Z"/><polygon class="cls-1" points="1685.65 967.69 1669.47 983.86 1653.3 967.69 1653.3 957.03 1665.6 969.33 1665.6 922.16 1673.44 922.16 1673.44 969.24 1685.67 957 1685.65 967.69"/><path class="cls-1" d="M1653.89,1020h15a21.46,21.46,0,0,1,9.73,2.13,15.76,15.76,0,0,1,6.6,6,18.36,18.36,0,0,1,0,17.94,15.76,15.76,0,0,1-6.6,6,21.46,21.46,0,0,1-9.73,2.13h-15Zm14.67,28.84a14.53,14.53,0,0,0,6.62-1.44,10.29,10.29,0,0,0,4.4-4.11,13.17,13.17,0,0,0,0-12.36,10.29,10.29,0,0,0-4.4-4.11,14.53,14.53,0,0,0-6.62-1.44h-8.31v23.46Z"/><circle class="cls-1" cx="1463.4" cy="413.45" r="8.64"/><path class="cls-1" d="M1418.22,394.14l30.9,6.53a3.2,3.2,0,0,1,2,4.91l-3.93,6.08a3.2,3.2,0,0,0,0,3.49l3.93,6.08a3.24,3.24,0,0,1-2,4.91l-30.9,6.53a3.25,3.25,0,0,1-3.82-2.39,3.27,3.27,0,0,0-3.57-2.43l-7.42,1a3.27,3.27,0,0,1-3.65-2.76l-.32-2.19a3.21,3.21,0,0,0-3-2.76l-23.77-1.42a4.75,4.75,0,0,1-4.46-4.78V411.7a4.78,4.78,0,0,1,4.46-4.78l23.77-1.42a3.21,3.21,0,0,0,3-2.76l.32-2.19a3.29,3.29,0,0,1,3.65-2.76l7.42,1a3.25,3.25,0,0,0,3.57-2.44A3.29,3.29,0,0,1,1418.22,394.14Z"/><path class="cls-1" d="M1068.73,400l-.53,2.34a4.71,4.71,0,0,0,1.29,4.39l3.3,3.3a4.71,4.71,0,0,1,0,6.69l-3.3,3.3a4.86,4.86,0,0,0-1.29,4.39l.53,2.34a4.75,4.75,0,0,0,5,3.71l28.72-2.38a4.74,4.74,0,0,0,4-3h0a4.77,4.77,0,0,1,4.15-3.06l37.23-2.26a4.73,4.73,0,0,0,4.43-4.71V411.8a4.7,4.7,0,0,0-4.43-4.71l-37.23-2.26a4.77,4.77,0,0,1-4.15-3.06,4.67,4.67,0,0,0-4-3l-28.72-2.38A4.58,4.58,0,0,0,1068.73,400Z"/><circle class="cls-1" cx="1057.81" cy="413.33" r="8.58"/><circle class="cls-1" cx="1449.22" cy="1319.47" r="8.64"/><path class="cls-1" d="M1404,1300.16l30.91,6.53a3.21,3.21,0,0,1,2,4.91l-3.94,6.09a3.18,3.18,0,0,0,0,3.48l3.94,6.09a3.25,3.25,0,0,1-2,4.91L1404,1338.7a3.25,3.25,0,0,1-3.81-2.4,3.29,3.29,0,0,0-3.57-2.43l-7.42,1a3.25,3.25,0,0,1-3.65-2.75l-.33-2.19a3.19,3.19,0,0,0-3-2.76l-23.77-1.42A4.76,4.76,0,0,1,1354,1321v-3.24a4.79,4.79,0,0,1,4.46-4.79l23.77-1.42a3.2,3.2,0,0,0,3-2.76l.33-2.19a3.26,3.26,0,0,1,3.65-2.75l7.42,1a3.25,3.25,0,0,0,3.57-2.43A3.28,3.28,0,0,1,1404,1300.16Z"/><path class="cls-1" d="M1065.59,1308.3l-.53,2.33a4.71,4.71,0,0,0,1.29,4.39l3.31,3.31a4.71,4.71,0,0,1,0,6.68l-3.31,3.31a4.86,4.86,0,0,0-1.29,4.39l.53,2.33a4.75,4.75,0,0,0,5,3.71l28.73-2.38a4.74,4.74,0,0,0,4-3h0a4.79,4.79,0,0,1,4.15-3.06l37.23-2.25a4.73,4.73,0,0,0,4.43-4.72v-3.22a4.68,4.68,0,0,0-4.43-4.71l-37.23-2.26a4.77,4.77,0,0,1-4.15-3.06,4.67,4.67,0,0,0-4-3l-28.73-2.38A4.58,4.58,0,0,0,1065.59,1308.3Z"/><circle class="cls-1" cx="1054.67" cy="1321.63" r="8.58"/><path class="cls-1" d="M1390.67,738.34v3h-14.26v-19h13.88v3h-10.35v4.94h9.18v2.9h-9.18v5.25Z"/><path class="cls-1" d="M1394.28,721.15h3.4V741.3h-3.4Z"/><path class="cls-1" d="M1415.71,735.13h-11.38a3.94,3.94,0,0,0,1.56,2.54,5.11,5.11,0,0,0,3.14.94A5.3,5.3,0,0,0,1413,737l1.82,2.09a6.17,6.17,0,0,1-2.47,1.77,9.79,9.79,0,0,1-7.58-.35,6.91,6.91,0,0,1-2.81-2.65,7.47,7.47,0,0,1-1-3.84,7.61,7.61,0,0,1,1-3.82,6.83,6.83,0,0,1,2.68-2.65,7.82,7.82,0,0,1,3.85-1,7.56,7.56,0,0,1,3.79.94,6.67,6.67,0,0,1,2.61,2.63,8,8,0,0,1,.93,3.93C1415.76,734.36,1415.75,734.7,1415.71,735.13Zm-10-4.82a4.06,4.06,0,0,0-1.38,2.57h8.23a3.95,3.95,0,0,0-4.1-3.53A4.1,4.1,0,0,0,1405.68,730.31Z"/><path class="cls-1" d="M1432.33,726.79l-6.22,14.51h-3.5l-6.22-14.51h3.53l4.51,10.76,4.64-10.76Z"/><path class="cls-1" d="M1458.24,733.14a4.81,4.81,0,0,1,.92,3,4.38,4.38,0,0,1-1.9,3.81,9.52,9.52,0,0,1-5.54,1.35h-9.45v-19h8.91a8.79,8.79,0,0,1,5.18,1.31,4.22,4.22,0,0,1,1.82,3.63,4.73,4.73,0,0,1-.65,2.5,4.46,4.46,0,0,1-1.79,1.68A5.06,5.06,0,0,1,1458.24,733.14Zm-12.44-8.08v5.24h5a5.05,5.05,0,0,0,2.84-.67,2.19,2.19,0,0,0,1-1.94,2.23,2.23,0,0,0-1-2,5.14,5.14,0,0,0-2.84-.66Zm9.8,10.72c0-1.82-1.36-2.74-4.1-2.74h-5.7v5.49h5.7C1454.24,738.53,1455.6,737.61,1455.6,735.78Z"/><path class="cls-1" d="M391.07,407.45l-5.25-7.51q-.33,0-1,0H379v7.48h-4.76V381.79h10.55a14.12,14.12,0,0,1,5.82,1.1,8.46,8.46,0,0,1,3.79,3.15,8.84,8.84,0,0,1,1.32,4.88,8.68,8.68,0,0,1-1.41,5A8.33,8.33,0,0,1,390.3,399l5.9,8.43Zm-1.73-20.31a7.31,7.31,0,0,0-4.73-1.32H379v10.23h5.57a7.25,7.25,0,0,0,4.73-1.34,4.64,4.64,0,0,0,1.62-3.79A4.6,4.6,0,0,0,389.34,387.14Z"/><path class="cls-1" d="M419,399.13H403.6a5.38,5.38,0,0,0,2.11,3.43,7,7,0,0,0,4.24,1.26,7.14,7.14,0,0,0,5.31-2.12l2.46,2.82a8.28,8.28,0,0,1-3.34,2.38,13.19,13.19,0,0,1-10.22-.47,9.25,9.25,0,0,1-3.8-3.58,10.13,10.13,0,0,1-1.34-5.19,10.34,10.34,0,0,1,1.3-5.15,9.25,9.25,0,0,1,3.61-3.57,10.51,10.51,0,0,1,5.21-1.29,10.27,10.27,0,0,1,5.11,1.27,8.87,8.87,0,0,1,3.52,3.56,10.67,10.67,0,0,1,1.27,5.29C419,398.09,419,398.54,419,399.13Zm-13.55-6.51a5.49,5.49,0,0,0-1.85,3.47h11.11a5.36,5.36,0,0,0-5.54-4.77A5.5,5.5,0,0,0,405.42,392.62Z"/><path class="cls-1" d="M424.83,407.08a11.84,11.84,0,0,1-3.63-1.57L423,402a11.72,11.72,0,0,0,3.17,1.41,13.37,13.37,0,0,0,3.65.53q4.11,0,4.11-2.16a1.44,1.44,0,0,0-1.05-1.43,17.4,17.4,0,0,0-3.35-.77,27.5,27.5,0,0,1-3.94-.85,5.88,5.88,0,0,1-2.64-1.67,4.62,4.62,0,0,1-1.12-3.31,5.23,5.23,0,0,1,2.33-4.46,10.61,10.61,0,0,1,6.29-1.67,18.52,18.52,0,0,1,4,.46,11.64,11.64,0,0,1,3.3,1.23L436,392.82a10.92,10.92,0,0,0-5.61-1.46,6.22,6.22,0,0,0-3.06.6,1.81,1.81,0,0,0-1.05,1.6,1.58,1.58,0,0,0,1.12,1.55,17.52,17.52,0,0,0,3.46.87,25.69,25.69,0,0,1,3.85.84,6.08,6.08,0,0,1,2.59,1.61,4.52,4.52,0,0,1,1.08,3.23,5.1,5.1,0,0,1-2.38,4.4,11.24,11.24,0,0,1-6.49,1.65A17.4,17.4,0,0,1,424.83,407.08Z"/><path class="cls-1" d="M460.65,399.13H445.29a5.34,5.34,0,0,0,2.11,3.43,6.94,6.94,0,0,0,4.23,1.26A7.17,7.17,0,0,0,457,401.7l2.46,2.82a8.34,8.34,0,0,1-3.34,2.38,13.22,13.22,0,0,1-10.23-.47,9.23,9.23,0,0,1-3.79-3.58,10,10,0,0,1-1.34-5.19,10.24,10.24,0,0,1,1.3-5.15,9.18,9.18,0,0,1,3.61-3.57,10.51,10.51,0,0,1,5.21-1.29,10.3,10.3,0,0,1,5.11,1.27,8.93,8.93,0,0,1,3.52,3.56,10.78,10.78,0,0,1,1.27,5.29C460.73,398.09,460.7,398.54,460.65,399.13Zm-13.54-6.51a5.46,5.46,0,0,0-1.86,3.47h11.11a5.38,5.38,0,0,0-1.79-3.45,6,6,0,0,0-7.46,0Z"/><path class="cls-1" d="M478.67,389.73Q481,391.8,481,396v11.47h-4.32v-2.38a5.44,5.44,0,0,1-2.4,2,9.46,9.46,0,0,1-3.76.68,9.21,9.21,0,0,1-3.85-.75,6,6,0,0,1-2.55-2.09,5.29,5.29,0,0,1-.9-3,5.16,5.16,0,0,1,2-4.23q2-1.61,6.18-1.6h5.06v-.29a4,4,0,0,0-1.23-3.15,5.28,5.28,0,0,0-3.65-1.1,10.55,10.55,0,0,0-3.24.51,8.07,8.07,0,0,0-2.7,1.43l-1.79-3.34a11,11,0,0,1,3.7-1.79,16.3,16.3,0,0,1,4.58-.63C474.94,387.65,477.14,388.34,478.67,389.73Zm-4.18,13.85a4.28,4.28,0,0,0,1.89-2.25v-2.27h-4.73c-2.64,0-4,.86-4,2.6a2.34,2.34,0,0,0,1,2,4.54,4.54,0,0,0,2.75.73A5.86,5.86,0,0,0,474.49,403.58Z"/><path class="cls-1" d="M498.16,387.65V392a5.32,5.32,0,0,0-1.07-.11,5.58,5.58,0,0,0-4.18,1.55,6.24,6.24,0,0,0-1.5,4.5v9.49h-4.58V387.87h4.36v2.86Q493.17,387.66,498.16,387.65Z"/><path class="cls-1" d="M505.38,406.43a9.52,9.52,0,0,1-3.78-3.58,10.61,10.61,0,0,1,0-10.36,9.53,9.53,0,0,1,3.76-3.55,11.4,11.4,0,0,1,5.48-1.29,10.47,10.47,0,0,1,5.08,1.18,7.58,7.58,0,0,1,3.28,3.37l-3.52,2.05a5.53,5.53,0,0,0-2.11-2,5.76,5.76,0,0,0-2.76-.68,5.82,5.82,0,0,0-4.26,1.67,6.78,6.78,0,0,0,0,8.91,5.82,5.82,0,0,0,4.28,1.67,5.76,5.76,0,0,0,2.76-.68,5.49,5.49,0,0,0,2.11-2l3.52,2.06a8,8,0,0,1-3.32,3.39,10.37,10.37,0,0,1-5,1.19A11.52,11.52,0,0,1,505.38,406.43Z"/><path class="cls-1" d="M540,389.82q2.24,2.16,2.23,6.41v11.22h-4.58V396.82a5.49,5.49,0,0,0-1.21-3.87,4.48,4.48,0,0,0-3.45-1.3,5.29,5.29,0,0,0-4,1.52,6.07,6.07,0,0,0-1.47,4.38v9.9H523v-27.2h4.58v9.9a7.3,7.3,0,0,1,2.81-1.85,10.22,10.22,0,0,1,3.72-.65A8.19,8.19,0,0,1,540,389.82Z"/><path class="cls-1" d="M560.87,407a12,12,0,0,1-4.38-2.24l1.65-3.7a13.15,13.15,0,0,0,3.86,2,14,14,0,0,0,4.61.79,8,8,0,0,0,4.27-.92,2.78,2.78,0,0,0,1.41-2.42,2.31,2.31,0,0,0-.79-1.81,5.52,5.52,0,0,0-2-1.12c-.8-.27-1.9-.57-3.3-.92a38.87,38.87,0,0,1-4.75-1.39,7.83,7.83,0,0,1-3.11-2.18,5.87,5.87,0,0,1-1.3-4,6.83,6.83,0,0,1,1.15-3.86,7.8,7.8,0,0,1,3.48-2.77,14.08,14.08,0,0,1,5.71-1A18.52,18.52,0,0,1,572,382a12.86,12.86,0,0,1,3.92,1.68l-1.51,3.71a15.07,15.07,0,0,0-3.51-1.51,13.31,13.31,0,0,0-3.56-.51,7.5,7.5,0,0,0-4.2.95,3,3,0,0,0-1.37,2.53,2.27,2.27,0,0,0,.79,1.8,5.75,5.75,0,0,0,2,1.1c.81.27,1.91.57,3.3.92a34.64,34.64,0,0,1,4.7,1.37,8.17,8.17,0,0,1,3.13,2.18,5.75,5.75,0,0,1,1.3,4,6.76,6.76,0,0,1-1.15,3.85,7.84,7.84,0,0,1-3.5,2.75,14.2,14.2,0,0,1-5.72,1A19.64,19.64,0,0,1,560.87,407Z"/><path class="cls-1" d="M593,406.39a5.41,5.41,0,0,1-2,1,8.82,8.82,0,0,1-2.44.33,6.88,6.88,0,0,1-5-1.69,6.46,6.46,0,0,1-1.77-4.91v-9.42h-3.22V388h3.22v-4.47h4.59V388h5.24v3.67h-5.24V401a3.12,3.12,0,0,0,.69,2.18,2.63,2.63,0,0,0,2,.75,4.08,4.08,0,0,0,2.57-.8Z"/><path class="cls-1" d="M615.77,387.87v19.58h-4.36V405a7.26,7.26,0,0,1-2.75,2,8.81,8.81,0,0,1-3.56.72,8.55,8.55,0,0,1-6.18-2.18c-1.5-1.46-2.25-3.61-2.25-6.47V387.87h4.58v10.56a5.68,5.68,0,0,0,1.19,3.94,4.38,4.38,0,0,0,3.39,1.31,5.14,5.14,0,0,0,3.91-1.53,6.12,6.12,0,0,0,1.45-4.38v-9.9Z"/><path class="cls-1" d="M641,380.25v27.2h-4.4v-2.53a7,7,0,0,1-2.81,2.09,9.36,9.36,0,0,1-3.68.7,10.34,10.34,0,0,1-5.08-1.25,9,9,0,0,1-3.54-3.54,11.41,11.41,0,0,1,0-10.5A9,9,0,0,1,625,388.9a10.34,10.34,0,0,1,5.08-1.25,9.27,9.27,0,0,1,3.55.66,7.06,7.06,0,0,1,2.75,2v-10ZM633.59,403a5.45,5.45,0,0,0,2.09-2.14,7.14,7.14,0,0,0,0-6.45,5.48,5.48,0,0,0-2.09-2.15,6.26,6.26,0,0,0-5.94,0,5.41,5.41,0,0,0-2.09,2.15,7.14,7.14,0,0,0,0,6.45,5.38,5.38,0,0,0,2.09,2.14,6.18,6.18,0,0,0,5.94,0Z"/><path class="cls-1" d="M647.19,383.86a2.71,2.71,0,0,1,0-3.92,2.92,2.92,0,0,1,2.09-.79,3,3,0,0,1,2.09.75,2.43,2.43,0,0,1,.84,1.89,2.76,2.76,0,0,1-.82,2,2.86,2.86,0,0,1-2.11.83A2.92,2.92,0,0,1,647.19,383.86Zm-.22,4h4.58v19.58H647Z"/><path class="cls-1" d="M675.9,399.13H660.54a5.33,5.33,0,0,0,2.1,3.43,7,7,0,0,0,4.24,1.26,7.14,7.14,0,0,0,5.31-2.12l2.46,2.82a8.28,8.28,0,0,1-3.34,2.38,12.08,12.08,0,0,1-4.54.81,12.2,12.2,0,0,1-5.69-1.28,9.29,9.29,0,0,1-3.79-3.58,10.13,10.13,0,0,1-1.34-5.19,10.34,10.34,0,0,1,1.3-5.15,9.21,9.21,0,0,1,3.62-3.57,10.47,10.47,0,0,1,5.2-1.29,10.34,10.34,0,0,1,5.12,1.27,8.91,8.91,0,0,1,3.51,3.56,10.67,10.67,0,0,1,1.27,5.29C676,398.09,676,398.54,675.9,399.13Zm-13.55-6.51a5.45,5.45,0,0,0-1.85,3.47h11.11a5.36,5.36,0,0,0-5.54-4.77A5.5,5.5,0,0,0,662.35,392.62Z"/><path class="cls-1" d="M681.76,407.08a11.84,11.84,0,0,1-3.63-1.57l1.76-3.48a11.72,11.72,0,0,0,3.17,1.41,13.37,13.37,0,0,0,3.65.53q4.11,0,4.11-2.16a1.44,1.44,0,0,0-1.05-1.43,17.4,17.4,0,0,0-3.35-.77,27.5,27.5,0,0,1-3.94-.85,5.88,5.88,0,0,1-2.64-1.67,4.62,4.62,0,0,1-1.12-3.31,5.23,5.23,0,0,1,2.33-4.46,10.6,10.6,0,0,1,6.28-1.67,18.54,18.54,0,0,1,4,.46,11.64,11.64,0,0,1,3.3,1.23l-1.76,3.48a10.92,10.92,0,0,0-5.61-1.46,6.22,6.22,0,0,0-3.06.6,1.81,1.81,0,0,0-1,1.6,1.59,1.59,0,0,0,1.12,1.55,17.47,17.47,0,0,0,3.47.87,25.81,25.81,0,0,1,3.84.84,6.08,6.08,0,0,1,2.59,1.61,4.52,4.52,0,0,1,1.08,3.23,5.1,5.1,0,0,1-2.38,4.4,11.24,11.24,0,0,1-6.49,1.65A17.4,17.4,0,0,1,681.76,407.08Z"/><path class="cls-1" d="M724,393.83a7,7,0,0,1,2.61,5.74,7.64,7.64,0,0,1-4.55,7.15,12.83,12.83,0,0,1-5.61,1.1,17.94,17.94,0,0,1-5.32-.79,13.08,13.08,0,0,1-4.32-2.18l2-3.7a11,11,0,0,0,3.42,1.85,12.86,12.86,0,0,0,4.13.68,6.69,6.69,0,0,0,4-1.05,3.63,3.63,0,0,0-.11-5.87q-1.56-1-5.34-1h-6.19l1.32-14h15.06v4h-11l-.55,5.94H716C719.62,391.72,722.3,392.43,724,393.83Z"/><path class="cls-1" d="M734.59,406.26a10.52,10.52,0,0,1-3.81-4.55,18.78,18.78,0,0,1,0-14.18,10.52,10.52,0,0,1,3.81-4.55,10.51,10.51,0,0,1,11,0,10.42,10.42,0,0,1,3.83,4.55,18.78,18.78,0,0,1,0,14.18,10.42,10.42,0,0,1-3.83,4.55,10.51,10.51,0,0,1-11,0Zm9.85-4.86q1.59-2.26,1.59-6.78t-1.59-6.78a5.25,5.25,0,0,0-8.66,0q-1.59,2.27-1.59,6.78t1.59,6.78a5.25,5.25,0,0,0,8.66,0Z"/><path class="cls-1" d="M762.75,381.79v25.66H758V385.78h-5.42v-4Z"/><path class="cls-1" d="M784.05,392.58a7.41,7.41,0,0,1,4.29,6.92,7.78,7.78,0,0,1-1.25,4.38,8.17,8.17,0,0,1-3.37,2.91,10.77,10.77,0,0,1-4.77,1q-5.28,0-8.19-3.3t-2.91-9.46a16,16,0,0,1,1.57-7.39,10.92,10.92,0,0,1,4.42-4.65,13.14,13.14,0,0,1,6.58-1.6,15.82,15.82,0,0,1,3.72.42,10.13,10.13,0,0,1,3,1.23l-1.76,3.59a8.77,8.77,0,0,0-4.88-1.24,7.48,7.48,0,0,0-5.79,2.27c-1.4,1.52-2.09,3.7-2.09,6.56v0a7.12,7.12,0,0,1,2.89-2,11,11,0,0,1,4-.68A10.44,10.44,0,0,1,784.05,392.58Zm-1.72,10.31a4.33,4.33,0,0,0,0-6.36,6.4,6.4,0,0,0-7.5.07,4.13,4.13,0,0,0,0,6.25,5.76,5.76,0,0,0,3.91,1.23A5.42,5.42,0,0,0,782.33,402.89Z"/><path class="cls-1" d="M799.34,395.76h18.33v3H799.34Z"/><path class="cls-1" d="M845.46,393.83a7,7,0,0,1,2.6,5.74,8,8,0,0,1-1.13,4.18,7.86,7.86,0,0,1-3.41,3,12.9,12.9,0,0,1-5.61,1.1,17.85,17.85,0,0,1-5.32-.79,13.24,13.24,0,0,1-4.33-2.18l2-3.7a11,11,0,0,0,3.43,1.85,12.8,12.8,0,0,0,4.12.68,6.65,6.65,0,0,0,4-1.05,3.62,3.62,0,0,0-.11-5.87q-1.56-1-5.33-1h-6.2l1.32-14h15.07v4h-11l-.55,5.94h2.46C841.05,391.72,843.72,392.43,845.46,393.83Z"/><path class="cls-1" d="M856,406.26a10.45,10.45,0,0,1-3.81-4.55,18.65,18.65,0,0,1,0-14.18A10.45,10.45,0,0,1,856,383a9.91,9.91,0,0,1,5.5-1.56A10,10,0,0,1,867,383a10.49,10.49,0,0,1,3.83,4.55,18.78,18.78,0,0,1,0,14.18,10.49,10.49,0,0,1-3.83,4.55,10,10,0,0,1-5.52,1.56A9.91,9.91,0,0,1,856,406.26Zm9.84-4.86q1.6-2.26,1.6-6.78t-1.6-6.78a5.24,5.24,0,0,0-8.65,0q-1.59,2.27-1.59,6.78t1.59,6.78a5.24,5.24,0,0,0,8.65,0Z"/><path class="cls-1" d="M880.69,406.26a10.52,10.52,0,0,1-3.81-4.55,18.78,18.78,0,0,1,0-14.18,10.52,10.52,0,0,1,3.81-4.55,10.51,10.51,0,0,1,11,0,10.49,10.49,0,0,1,3.83,4.55,18.78,18.78,0,0,1,0,14.18,10.49,10.49,0,0,1-3.83,4.55,10.51,10.51,0,0,1-11,0Zm9.85-4.86q1.59-2.26,1.59-6.78t-1.59-6.78a5.25,5.25,0,0,0-8.66,0q-1.59,2.27-1.59,6.78t1.59,6.78a5.25,5.25,0,0,0,8.66,0Z"/><path class="cls-1" d="M908.85,381.79v25.66h-4.77V385.78h-5.42v-4Z"/><path class="cls-1" d="M1617.91,407.45l-5.24-7.51q-.33,0-1,0h-5.8v7.48h-4.76V381.79h10.56a14.11,14.11,0,0,1,5.81,1.1,8.4,8.4,0,0,1,3.79,3.15,8.84,8.84,0,0,1,1.32,4.88,8.68,8.68,0,0,1-1.41,5,8.33,8.33,0,0,1-4,3.12l5.9,8.43Zm-1.72-20.31a7.34,7.34,0,0,0-4.73-1.32h-5.58v10.23h5.58a7.29,7.29,0,0,0,4.73-1.34,4.67,4.67,0,0,0,1.61-3.79A4.62,4.62,0,0,0,1616.19,387.14Z"/><path class="cls-1" d="M1645.81,399.13h-15.36a5.37,5.37,0,0,0,2.1,3.43,7,7,0,0,0,4.24,1.26,7.18,7.18,0,0,0,5.32-2.12l2.45,2.82a8.31,8.31,0,0,1-3.33,2.38,13.22,13.22,0,0,1-10.23-.47,9.25,9.25,0,0,1-3.8-3.58,10.13,10.13,0,0,1-1.34-5.19,10.34,10.34,0,0,1,1.3-5.15,9.21,9.21,0,0,1,3.62-3.57,10.47,10.47,0,0,1,5.2-1.29,10.34,10.34,0,0,1,5.12,1.27,9,9,0,0,1,3.52,3.56,10.78,10.78,0,0,1,1.26,5.29C1645.88,398.09,1645.86,398.54,1645.81,399.13Zm-13.55-6.51a5.49,5.49,0,0,0-1.85,3.47h11.11a5.36,5.36,0,0,0-5.54-4.77A5.53,5.53,0,0,0,1632.26,392.62Z"/><path class="cls-1" d="M1651.67,407.08a11.84,11.84,0,0,1-3.63-1.57l1.76-3.48a11.66,11.66,0,0,0,3.18,1.41,13.3,13.3,0,0,0,3.64.53q4.11,0,4.11-2.16a1.44,1.44,0,0,0-1-1.43,17.4,17.4,0,0,0-3.35-.77,27.5,27.5,0,0,1-3.94-.85,5.93,5.93,0,0,1-2.64-1.67,4.62,4.62,0,0,1-1.12-3.31,5.23,5.23,0,0,1,2.33-4.46,10.61,10.61,0,0,1,6.29-1.67,18.45,18.45,0,0,1,4,.46,11.64,11.64,0,0,1,3.3,1.23l-1.76,3.48a10.92,10.92,0,0,0-5.61-1.46,6.28,6.28,0,0,0-3.06.6,1.81,1.81,0,0,0-1.05,1.6,1.59,1.59,0,0,0,1.12,1.55,17.47,17.47,0,0,0,3.47.87,26.27,26.27,0,0,1,3.85.84,6.11,6.11,0,0,1,2.58,1.61,4.52,4.52,0,0,1,1.08,3.23,5.1,5.1,0,0,1-2.38,4.4,11.24,11.24,0,0,1-6.49,1.65A17.4,17.4,0,0,1,1651.67,407.08Z"/><path class="cls-1" d="M1687.49,399.13h-15.36a5.34,5.34,0,0,0,2.11,3.43,7,7,0,0,0,4.24,1.26,7.14,7.14,0,0,0,5.31-2.12l2.46,2.82a8.34,8.34,0,0,1-3.34,2.38,13.22,13.22,0,0,1-10.23-.47,9.23,9.23,0,0,1-3.79-3.58,10.13,10.13,0,0,1-1.34-5.19,10.24,10.24,0,0,1,1.3-5.15,9.18,9.18,0,0,1,3.61-3.57,10.51,10.51,0,0,1,5.21-1.29,10.27,10.27,0,0,1,5.11,1.27,8.87,8.87,0,0,1,3.52,3.56,10.67,10.67,0,0,1,1.27,5.29C1687.57,398.09,1687.54,398.54,1687.49,399.13ZM1674,392.62a5.45,5.45,0,0,0-1.85,3.47h11.1a5.38,5.38,0,0,0-1.79-3.45,6,6,0,0,0-7.46,0Z"/><path class="cls-1" d="M1705.51,389.73q2.29,2.07,2.29,6.25v11.47h-4.32v-2.38a5.33,5.33,0,0,1-2.4,2,9.43,9.43,0,0,1-3.76.68,9.21,9.21,0,0,1-3.85-.75,6,6,0,0,1-2.55-2.09,5.29,5.29,0,0,1-.9-3,5.17,5.17,0,0,1,2-4.23q2-1.61,6.17-1.6h5.06v-.29a4,4,0,0,0-1.23-3.15,5.27,5.27,0,0,0-3.64-1.1,10.61,10.61,0,0,0-3.25.51,7.93,7.93,0,0,0-2.69,1.43l-1.8-3.34a11.09,11.09,0,0,1,3.7-1.79,16.32,16.32,0,0,1,4.59-.63C1701.78,387.65,1704,388.34,1705.51,389.73Zm-4.18,13.85a4.19,4.19,0,0,0,1.89-2.25v-2.27h-4.73c-2.64,0-4,.86-4,2.6a2.34,2.34,0,0,0,1,2,4.54,4.54,0,0,0,2.75.73A5.86,5.86,0,0,0,1701.33,403.58Z"/><path class="cls-1" d="M1725,387.65V392a5.3,5.3,0,0,0-1.06-.11,5.55,5.55,0,0,0-4.18,1.55,6.2,6.2,0,0,0-1.51,4.5v9.49h-4.58V387.87H1718v2.86Q1720,387.66,1725,387.65Z"/><path class="cls-1" d="M1732.22,406.43a9.43,9.43,0,0,1-3.77-3.58,10.54,10.54,0,0,1,0-10.36,9.43,9.43,0,0,1,3.75-3.55,11.4,11.4,0,0,1,5.48-1.29,10.44,10.44,0,0,1,5.08,1.18,7.53,7.53,0,0,1,3.28,3.37l-3.52,2.05a5.58,5.58,0,0,0-2.1-2,6.14,6.14,0,0,0-7,1,6.75,6.75,0,0,0,0,8.91,6.17,6.17,0,0,0,7,1,5.54,5.54,0,0,0,2.1-2l3.52,2.06a8,8,0,0,1-3.31,3.39,10.44,10.44,0,0,1-5,1.19A11.55,11.55,0,0,1,1732.22,406.43Z"/><path class="cls-1" d="M1766.87,389.82q2.24,2.16,2.23,6.41v11.22h-4.58V396.82a5.49,5.49,0,0,0-1.21-3.87,4.46,4.46,0,0,0-3.44-1.3,5.31,5.31,0,0,0-4,1.52,6.07,6.07,0,0,0-1.47,4.38v9.9h-4.58v-27.2h4.58v9.9a7.3,7.3,0,0,1,2.81-1.85,10.22,10.22,0,0,1,3.72-.65A8.19,8.19,0,0,1,1766.87,389.82Z"/><path class="cls-1" d="M1787.71,407a12,12,0,0,1-4.38-2.24L1785,401a13.09,13.09,0,0,0,3.87,2,13.91,13.91,0,0,0,4.6.79,8,8,0,0,0,4.27-.92,2.78,2.78,0,0,0,1.41-2.42,2.31,2.31,0,0,0-.79-1.81,5.44,5.44,0,0,0-2-1.12c-.8-.27-1.9-.57-3.3-.92a38.64,38.64,0,0,1-4.74-1.39,7.79,7.79,0,0,1-3.12-2.18,5.87,5.87,0,0,1-1.3-4,6.83,6.83,0,0,1,1.15-3.86,7.77,7.77,0,0,1,3.49-2.77,14,14,0,0,1,5.7-1,18.52,18.52,0,0,1,4.62.59,12.86,12.86,0,0,1,3.92,1.68l-1.5,3.71a15.32,15.32,0,0,0-3.52-1.51,13.31,13.31,0,0,0-3.56-.51,7.5,7.5,0,0,0-4.2.95,3,3,0,0,0-1.37,2.53,2.27,2.27,0,0,0,.79,1.8,5.71,5.71,0,0,0,2,1.1c.8.27,1.9.57,3.29.92a34.64,34.64,0,0,1,4.7,1.37,8.17,8.17,0,0,1,3.13,2.18,5.75,5.75,0,0,1,1.3,4,6.76,6.76,0,0,1-1.15,3.85,7.84,7.84,0,0,1-3.5,2.75,14.16,14.16,0,0,1-5.72,1A19.69,19.69,0,0,1,1787.71,407Z"/><path class="cls-1" d="M1819.88,406.39a5.41,5.41,0,0,1-2,1,8.82,8.82,0,0,1-2.44.33,6.88,6.88,0,0,1-5-1.69,6.45,6.45,0,0,1-1.76-4.91v-9.42h-3.23V388h3.23v-4.47h4.58V388h5.24v3.67h-5.24V401a3.07,3.07,0,0,0,.7,2.18,2.6,2.6,0,0,0,2,.75,4.08,4.08,0,0,0,2.57-.8Z"/><path class="cls-1" d="M1842.61,387.87v19.58h-4.36V405a7.19,7.19,0,0,1-2.75,2,8.81,8.81,0,0,1-3.56.72,8.51,8.51,0,0,1-6.17-2.18c-1.51-1.46-2.26-3.61-2.26-6.47V387.87h4.58v10.56a5.63,5.63,0,0,0,1.2,3.94,4.35,4.35,0,0,0,3.39,1.31,5.11,5.11,0,0,0,3.9-1.53,6.08,6.08,0,0,0,1.45-4.38v-9.9Z"/><path class="cls-1" d="M1867.8,380.25v27.2h-4.4v-2.53a7,7,0,0,1-2.81,2.09,9.36,9.36,0,0,1-3.68.7,10.36,10.36,0,0,1-5.08-1.25,9,9,0,0,1-3.54-3.54,11.41,11.41,0,0,1,0-10.5,9,9,0,0,1,3.54-3.52,10.36,10.36,0,0,1,5.08-1.25,9.33,9.33,0,0,1,3.56.66,7.21,7.21,0,0,1,2.75,2v-10ZM1860.43,403a5.38,5.38,0,0,0,2.09-2.14,7.14,7.14,0,0,0,0-6.45,5.41,5.41,0,0,0-2.09-2.15,6.26,6.26,0,0,0-5.94,0,5.41,5.41,0,0,0-2.09,2.15,7.14,7.14,0,0,0,0,6.45,5.38,5.38,0,0,0,2.09,2.14,6.18,6.18,0,0,0,5.94,0Z"/><path class="cls-1" d="M1874,383.86a2.71,2.71,0,0,1,0-3.92,2.92,2.92,0,0,1,2.09-.79,3,3,0,0,1,2.09.75,2.43,2.43,0,0,1,.85,1.89,2.77,2.77,0,0,1-.83,2,2.86,2.86,0,0,1-2.11.83A2.92,2.92,0,0,1,1874,383.86Zm-.22,4h4.59v19.58h-4.59Z"/><path class="cls-1" d="M1902.74,399.13h-15.36a5.34,5.34,0,0,0,2.11,3.43,6.89,6.89,0,0,0,4.23,1.26,7.18,7.18,0,0,0,5.32-2.12l2.45,2.82a8.31,8.31,0,0,1-3.33,2.38,13.22,13.22,0,0,1-10.23-.47,9.25,9.25,0,0,1-3.8-3.58,10.13,10.13,0,0,1-1.34-5.19,10.25,10.25,0,0,1,1.31-5.15,9.12,9.12,0,0,1,3.61-3.57,10.47,10.47,0,0,1,5.2-1.29,10.34,10.34,0,0,1,5.12,1.27,9,9,0,0,1,3.52,3.56,10.78,10.78,0,0,1,1.26,5.29C1902.81,398.09,1902.79,398.54,1902.74,399.13Zm-13.55-6.51a5.49,5.49,0,0,0-1.85,3.47h11.11a5.36,5.36,0,0,0-5.54-4.77A5.53,5.53,0,0,0,1889.19,392.62Z"/><path class="cls-1" d="M1908.6,407.08a11.66,11.66,0,0,1-3.62-1.57l1.76-3.48a11.45,11.45,0,0,0,3.17,1.41,13.3,13.3,0,0,0,3.64.53q4.11,0,4.11-2.16a1.44,1.44,0,0,0-1-1.43,17.74,17.74,0,0,0-3.36-.77,27.5,27.5,0,0,1-3.94-.85,5.93,5.93,0,0,1-2.64-1.67,4.62,4.62,0,0,1-1.12-3.31,5.23,5.23,0,0,1,2.33-4.46,10.61,10.61,0,0,1,6.29-1.67,18.45,18.45,0,0,1,4,.46,11.64,11.64,0,0,1,3.3,1.23l-1.76,3.48a10.92,10.92,0,0,0-5.61-1.46,6.28,6.28,0,0,0-3.06.6,1.81,1.81,0,0,0-1,1.6,1.59,1.59,0,0,0,1.12,1.55,17.47,17.47,0,0,0,3.47.87,26.27,26.27,0,0,1,3.85.84,6.11,6.11,0,0,1,2.58,1.61,4.52,4.52,0,0,1,1.08,3.23,5.1,5.1,0,0,1-2.38,4.4,11.24,11.24,0,0,1-6.49,1.65A17.4,17.4,0,0,1,1908.6,407.08Z"/><path class="cls-1" d="M1950.88,393.83a7,7,0,0,1,2.6,5.74,7.64,7.64,0,0,1-4.55,7.15,12.83,12.83,0,0,1-5.61,1.1A17.83,17.83,0,0,1,1938,407a13.14,13.14,0,0,1-4.33-2.18l2-3.7a10.92,10.92,0,0,0,3.43,1.85,12.76,12.76,0,0,0,4.12.68,6.67,6.67,0,0,0,4-1.05,3.62,3.62,0,0,0-.11-5.87q-1.56-1-5.34-1h-6.19l1.32-14H1952v4h-11l-.55,5.94h2.46C1946.46,391.72,1949.14,392.43,1950.88,393.83Z"/><path class="cls-1" d="M1961.43,406.26a10.52,10.52,0,0,1-3.81-4.55,18.78,18.78,0,0,1,0-14.18,10.52,10.52,0,0,1,3.81-4.55,10.51,10.51,0,0,1,11,0,10.42,10.42,0,0,1,3.83,4.55,18.65,18.65,0,0,1,0,14.18,10.42,10.42,0,0,1-3.83,4.55,10.51,10.51,0,0,1-11,0Zm9.85-4.86q1.59-2.26,1.59-6.78t-1.59-6.78a5.24,5.24,0,0,0-8.65,0q-1.61,2.27-1.6,6.78t1.6,6.78a5.24,5.24,0,0,0,8.65,0Z"/><path class="cls-1" d="M2000.65,396.43a6.26,6.26,0,0,1,1.08,3.65,6.7,6.7,0,0,1-1.31,4.11,8.07,8.07,0,0,1-3.68,2.69,15,15,0,0,1-5.54.94,14.75,14.75,0,0,1-5.51-.94,8,8,0,0,1-3.65-2.69,6.75,6.75,0,0,1-1.29-4.11,6.33,6.33,0,0,1,1.07-3.65,7.32,7.32,0,0,1,3-2.47,5.9,5.9,0,0,1-3.19-5.39,6.23,6.23,0,0,1,1.19-3.78,7.74,7.74,0,0,1,3.36-2.49,13.06,13.06,0,0,1,5-.88,13.25,13.25,0,0,1,5,.88,7.83,7.83,0,0,1,3.37,2.49,6.12,6.12,0,0,1,1.21,3.78,5.84,5.84,0,0,1-.84,3.15,6.56,6.56,0,0,1-2.42,2.24A7.51,7.51,0,0,1,2000.65,396.43Zm-5.27,6.55a3.74,3.74,0,0,0,0-6.05,7.08,7.08,0,0,0-4.18-1.1,6.9,6.9,0,0,0-4.14,1.1,3.8,3.8,0,0,0,0,6.05,6.9,6.9,0,0,0,4.14,1.1A7.08,7.08,0,0,0,1995.38,403Zm-7.71-16.87a3.14,3.14,0,0,0-1.31,2.68,3.1,3.1,0,0,0,1.31,2.62,5.73,5.73,0,0,0,3.53,1,5.94,5.94,0,0,0,3.6-1,3.3,3.3,0,0,0,0-5.3,6.1,6.1,0,0,0-3.58-.95A5.87,5.87,0,0,0,1987.67,386.11Z"/><path class="cls-1" d="M2020.86,393.83a7,7,0,0,1,2.61,5.74,7.64,7.64,0,0,1-4.55,7.15,12.83,12.83,0,0,1-5.61,1.1A17.83,17.83,0,0,1,2008,407a13,13,0,0,1-4.33-2.18l2-3.7a11,11,0,0,0,3.42,1.85,12.86,12.86,0,0,0,4.13.68,6.69,6.69,0,0,0,4-1.05,3.63,3.63,0,0,0-.11-5.87q-1.56-1-5.34-1h-6.19l1.32-14H2022v4h-11l-.55,5.94h2.45C2016.45,391.72,2019.13,392.43,2020.86,393.83Z"/><path class="cls-1" d="M2034.72,395.76h18.33v3h-18.33Z"/><path class="cls-1" d="M2080.84,393.83a7,7,0,0,1,2.61,5.74,7.64,7.64,0,0,1-4.55,7.15,12.9,12.9,0,0,1-5.61,1.1A17.9,17.9,0,0,1,2068,407a13.08,13.08,0,0,1-4.32-2.18l2-3.7a11.14,11.14,0,0,0,3.43,1.85,12.82,12.82,0,0,0,4.13.68,6.69,6.69,0,0,0,4-1.05,3.62,3.62,0,0,0-.12-5.87q-1.54-1-5.33-1h-6.19l1.31-14h15.07v4h-11l-.55,5.94h2.45C2076.43,391.72,2079.11,392.43,2080.84,393.83Z"/><path class="cls-1" d="M2091.4,406.26a10.52,10.52,0,0,1-3.81-4.55,18.78,18.78,0,0,1,0-14.18,10.52,10.52,0,0,1,3.81-4.55,10.51,10.51,0,0,1,11,0,10.49,10.49,0,0,1,3.83,4.55,18.78,18.78,0,0,1,0,14.18,10.49,10.49,0,0,1-3.83,4.55,10.51,10.51,0,0,1-11,0Zm9.85-4.86q1.59-2.26,1.59-6.78t-1.59-6.78a5.25,5.25,0,0,0-8.66,0q-1.59,2.27-1.59,6.78t1.59,6.78a5.25,5.25,0,0,0,8.66,0Z"/><path class="cls-1" d="M2130,381.79V385l-10,22.47H2115l9.64-21.63h-10.08v4.36h-4.44v-8.39Z"/><path class="cls-1" d="M2137.45,406.26a10.52,10.52,0,0,1-3.81-4.55,18.65,18.65,0,0,1,0-14.18,10.52,10.52,0,0,1,3.81-4.55,9.93,9.93,0,0,1,5.5-1.56,10,10,0,0,1,5.52,1.56,10.49,10.49,0,0,1,3.83,4.55,18.78,18.78,0,0,1,0,14.18,10.49,10.49,0,0,1-3.83,4.55,10,10,0,0,1-5.52,1.56A9.93,9.93,0,0,1,2137.45,406.26Zm9.84-4.86q1.61-2.26,1.6-6.78t-1.6-6.78a5.24,5.24,0,0,0-8.65,0q-1.59,2.27-1.59,6.78t1.59,6.78a5.24,5.24,0,0,0,8.65,0Z"/><path class="cls-1" d="M1188,1900.46h-17.11l-3.37,7.92H1161l15.4-34.22h6.26l15.44,34.22h-6.64Zm-2.1-5-6.45-15-6.4,15Z"/><path class="cls-1" d="M1227.18,1872.1v36.28h-5.87V1905a9.4,9.4,0,0,1-3.74,2.79,12.6,12.6,0,0,1-4.91.93,13.85,13.85,0,0,1-6.77-1.66,12,12,0,0,1-4.72-4.72,14.15,14.15,0,0,1-1.71-7,14,14,0,0,1,1.71-7,12,12,0,0,1,4.72-4.69,13.75,13.75,0,0,1,6.77-1.66,12.31,12.31,0,0,1,4.74.88,9.57,9.57,0,0,1,3.67,2.64v-13.4Zm-9.83,30.39a7.24,7.24,0,0,0,2.79-2.86,9.51,9.51,0,0,0,0-8.61,7.18,7.18,0,0,0-2.79-2.86,8.34,8.34,0,0,0-7.92,0,7.22,7.22,0,0,0-2.78,2.86,9.51,9.51,0,0,0,0,8.61,7.29,7.29,0,0,0,2.78,2.86,8.34,8.34,0,0,0,7.92,0Z"/><path class="cls-1" d="M1276,1884.84c1.93,1.91,2.89,4.76,2.89,8.58v15h-6.11V1894.2a7.66,7.66,0,0,0-1.52-5.16,5.48,5.48,0,0,0-4.35-1.73,6.36,6.36,0,0,0-4.94,2,8.3,8.3,0,0,0-1.85,5.79v13.25H1254V1894.2a7.66,7.66,0,0,0-1.52-5.16,5.48,5.48,0,0,0-4.35-1.73,6.4,6.4,0,0,0-5,2,8.36,8.36,0,0,0-1.83,5.82v13.25h-6.11v-26.11H1241v3.33a9.45,9.45,0,0,1,3.67-2.69,12.43,12.43,0,0,1,4.89-.93,11.83,11.83,0,0,1,5.2,1.1,8.44,8.44,0,0,1,3.6,3.25,10.78,10.78,0,0,1,4.15-3.2,13.45,13.45,0,0,1,5.62-1.15A10.6,10.6,0,0,1,1276,1884.84Z"/><path class="cls-1" d="M1287,1876.92a3.61,3.61,0,0,1,0-5.23,3.93,3.93,0,0,1,2.79-1,4,4,0,0,1,2.79,1,3.23,3.23,0,0,1,1.12,2.52,3.7,3.7,0,0,1-1.1,2.71,3.81,3.81,0,0,1-2.81,1.1A3.93,3.93,0,0,1,1287,1876.92Zm-.29,5.35h6.11v26.11h-6.11Z"/><path class="cls-1" d="M1323.53,1884.86c2,1.93,3,4.78,3,8.56v15h-6.11V1894.2a7.37,7.37,0,0,0-1.61-5.16,6,6,0,0,0-4.6-1.73,7,7,0,0,0-5.33,2,8.1,8.1,0,0,0-1.95,5.84v13.2h-6.11v-26.11h5.81v3.38a9.56,9.56,0,0,1,3.82-2.74,13.7,13.7,0,0,1,5.18-.93A10.92,10.92,0,0,1,1323.53,1884.86Z"/><path class="cls-1" d="M1334.58,1876.92a3.59,3.59,0,0,1,0-5.23,3.91,3.91,0,0,1,2.78-1,4,4,0,0,1,2.79,1,3.23,3.23,0,0,1,1.12,2.52,3.66,3.66,0,0,1-1.1,2.71,3.81,3.81,0,0,1-2.81,1.1A3.91,3.91,0,0,1,1334.58,1876.92Zm-.3,5.35h6.11v26.11h-6.11Z"/><path class="cls-1" d="M1350.27,1907.89a15.89,15.89,0,0,1-4.84-2.1l2.34-4.65A15.25,15.25,0,0,0,1352,1903a17.34,17.34,0,0,0,4.87.71c3.64,0,5.47-1,5.47-2.88a1.93,1.93,0,0,0-1.39-1.91,23.56,23.56,0,0,0-4.48-1,37.13,37.13,0,0,1-5.25-1.13,8,8,0,0,1-3.52-2.22,6.25,6.25,0,0,1-1.49-4.43,7,7,0,0,1,3.1-5.94q3.11-2.22,8.39-2.22a24,24,0,0,1,5.37.61,14.9,14.9,0,0,1,4.4,1.64l-2.34,4.64a14.52,14.52,0,0,0-7.48-1.95,8.36,8.36,0,0,0-4.08.8,2.42,2.42,0,0,0-1.4,2.13,2.13,2.13,0,0,0,1.49,2.08,24.6,24.6,0,0,0,4.62,1.15,35.52,35.52,0,0,1,5.14,1.12,8,8,0,0,1,3.44,2.15,6,6,0,0,1,1.44,4.3,6.8,6.8,0,0,1-3.17,5.87c-2.12,1.46-5,2.2-8.66,2.2A23.52,23.52,0,0,1,1350.27,1907.89Z"/><path class="cls-1" d="M1389.28,1907a7.43,7.43,0,0,1-2.62,1.32,11.92,11.92,0,0,1-3.25.44,9.23,9.23,0,0,1-6.65-2.25c-1.56-1.5-2.35-3.68-2.35-6.55v-12.56h-4.3v-4.89h4.3v-6h6.11v6h7v4.89h-7v12.41a4.14,4.14,0,0,0,.93,2.91,3.49,3.49,0,0,0,2.69,1,5.39,5.39,0,0,0,3.42-1.07Z"/><path class="cls-1" d="M1409.41,1882v5.82a7.53,7.53,0,0,0-1.41-.15,7.38,7.38,0,0,0-5.58,2.08,8.3,8.3,0,0,0-2,6v12.66h-6.11v-26.11h5.82v3.81Q1402.77,1882,1409.41,1882Z"/><path class="cls-1" d="M1433.25,1884.74q3,2.76,3,8.34v15.3h-5.77v-3.18a7.06,7.06,0,0,1-3.2,2.61,13.94,13.94,0,0,1-10.14-.09,7.94,7.94,0,0,1-3.4-2.79,7.05,7.05,0,0,1-1.2-4,6.9,6.9,0,0,1,2.62-5.65c1.74-1.42,4.49-2.13,8.23-2.13h6.75v-.39a5.36,5.36,0,0,0-1.64-4.2,7.06,7.06,0,0,0-4.86-1.47,14,14,0,0,0-4.33.69,10.67,10.67,0,0,0-3.59,1.9l-2.4-4.44a14.68,14.68,0,0,1,4.94-2.4,22.16,22.16,0,0,1,6.11-.83Q1430.2,1882,1433.25,1884.74Zm-5.58,18.48a5.71,5.71,0,0,0,2.52-3v-3h-6.31q-5.27,0-5.27,3.47a3.13,3.13,0,0,0,1.31,2.64,6.1,6.1,0,0,0,3.67,1A7.89,7.89,0,0,0,1427.67,1903.22Z"/><path class="cls-1" d="M1459.81,1907a7.29,7.29,0,0,1-2.61,1.32,11.92,11.92,0,0,1-3.25.44,9.22,9.22,0,0,1-6.65-2.25c-1.56-1.5-2.35-3.68-2.35-6.55v-12.56h-4.3v-4.89h4.3v-6h6.11v6h7v4.89h-7v12.41a4.14,4.14,0,0,0,.93,2.91,3.49,3.49,0,0,0,2.69,1,5.39,5.39,0,0,0,3.42-1.07Z"/><path class="cls-1" d="M1465.14,1876.92a3.61,3.61,0,0,1,0-5.23,3.93,3.93,0,0,1,2.79-1,4,4,0,0,1,2.78,1,3.24,3.24,0,0,1,1.13,2.52,3.7,3.7,0,0,1-1.1,2.71,3.81,3.81,0,0,1-2.81,1.1A3.93,3.93,0,0,1,1465.14,1876.92Zm-.29,5.35H1471v26.11h-6.11Z"/><path class="cls-1" d="M1483.57,1907a12.45,12.45,0,0,1-5-4.77,13.46,13.46,0,0,1-1.79-6.92,13.33,13.33,0,0,1,1.79-6.89,12.51,12.51,0,0,1,5-4.74,15.84,15.84,0,0,1,14.32,0,12.51,12.51,0,0,1,5,4.74,13.33,13.33,0,0,1,1.79,6.89,13.46,13.46,0,0,1-1.79,6.92,12.45,12.45,0,0,1-5,4.77,15.84,15.84,0,0,1-14.32,0Zm12.71-5.77a9.05,9.05,0,0,0,0-11.83,7.46,7.46,0,0,0-5.57-2.25,7.38,7.38,0,0,0-5.55,2.25,9.11,9.11,0,0,0,0,11.83,7.38,7.38,0,0,0,5.55,2.25A7.46,7.46,0,0,0,1496.28,1901.24Z"/><path class="cls-1" d="M1533.24,1884.86c2,1.93,3,4.78,3,8.56v15h-6.11V1894.2a7.32,7.32,0,0,0-1.62-5.16,6,6,0,0,0-4.59-1.73,7,7,0,0,0-5.33,2,8.1,8.1,0,0,0-2,5.84v13.2h-6.12v-26.11h5.82v3.38a9.53,9.53,0,0,1,3.81-2.74,13.75,13.75,0,0,1,5.19-.93A10.92,10.92,0,0,1,1533.24,1884.86Z"/><path class="cls-1" d="M1224.15,1965.25a16.82,16.82,0,0,1-6.6-6.3,18.15,18.15,0,0,1,0-18,16.84,16.84,0,0,1,6.6-6.31,20.74,20.74,0,0,1,18.87,0,17,17,0,0,1,6.6,6.28,18.31,18.31,0,0,1,0,18.09,16.9,16.9,0,0,1-6.6,6.28,20.74,20.74,0,0,1-18.87,0Zm15.59-4.84a11,11,0,0,0,4.3-4.3,13,13,0,0,0,0-12.37,11.11,11.11,0,0,0-4.3-4.3,13.09,13.09,0,0,0-12.32,0,11.17,11.17,0,0,0-4.3,4.3,13,13,0,0,0,0,12.37,11.11,11.11,0,0,0,4.3,4.3,13.09,13.09,0,0,0,12.32,0Z"/><path class="cls-1" d="M1264.92,1939.56v1.57h7.18V1946h-7v21H1259v-21h-4.3v-4.89h4.3v-1.66a8.91,8.91,0,0,1,2.45-6.63,11.2,11.2,0,0,1,12.41-1l-1.71,4.6a5.82,5.82,0,0,0-3.37-1.08C1266.2,1935.36,1264.92,1936.76,1264.92,1939.56Z"/><path class="cls-1" d="M1283,1939.56v1.57h7.19V1946h-7v21H1277v-21h-4.3v-4.89h4.3v-1.66a8.91,8.91,0,0,1,2.44-6.63,11.21,11.21,0,0,1,12.42-1l-1.71,4.6a5.82,5.82,0,0,0-3.37-1.08Q1283,1935.36,1283,1939.56Zm15.5-4a3.61,3.61,0,0,1,0-5.23,3.93,3.93,0,0,1,2.79-1,4,4,0,0,1,2.78,1,3.24,3.24,0,0,1,1.13,2.52,3.7,3.7,0,0,1-1.1,2.71,3.83,3.83,0,0,1-2.81,1.1A3.93,3.93,0,0,1,1298.45,1935.58Zm-.29,5.35h6.11V1967h-6.11Z"/><path class="cls-1" d="M1317,1965.67a12.59,12.59,0,0,1-5-4.77,13.38,13.38,0,0,1-1.81-6.92,13.25,13.25,0,0,1,1.81-6.89,12.71,12.71,0,0,1,5-4.74,15.29,15.29,0,0,1,7.31-1.71,14.12,14.12,0,0,1,6.77,1.56,10.24,10.24,0,0,1,4.38,4.5l-4.7,2.74a7.35,7.35,0,0,0-2.81-2.71,7.59,7.59,0,0,0-3.69-.91,7.74,7.74,0,0,0-5.67,2.22,9,9,0,0,0,0,11.88,7.68,7.68,0,0,0,5.69,2.23,7.59,7.59,0,0,0,3.69-.91,7.35,7.35,0,0,0,2.81-2.71l4.7,2.74a10.61,10.61,0,0,1-4.43,4.52,13.79,13.79,0,0,1-6.72,1.59A15.31,15.31,0,0,1,1317,1965.67Z"/><path class="cls-1" d="M1364.74,1955.94h-20.49a7.09,7.09,0,0,0,2.82,4.57,9.21,9.21,0,0,0,5.64,1.69,9.52,9.52,0,0,0,7.09-2.84l3.27,3.77a10.93,10.93,0,0,1-4.44,3.17,17.61,17.61,0,0,1-13.64-.63,12.27,12.27,0,0,1-5.06-4.77,14.33,14.33,0,0,1,0-13.78,12.32,12.32,0,0,1,4.81-4.77,14.09,14.09,0,0,1,7-1.71,13.6,13.6,0,0,1,6.81,1.69,11.91,11.91,0,0,1,4.7,4.74,14.4,14.4,0,0,1,1.68,7.06C1364.83,1954.55,1364.8,1955.16,1364.74,1955.94Zm-18.07-8.68a7.36,7.36,0,0,0-2.47,4.62H1359a7.15,7.15,0,0,0-7.38-6.35A7.43,7.43,0,0,0,1346.67,1947.26Z"/><path class="cls-1" d="M1403.74,1948.88a9.29,9.29,0,0,1,3.47,7.65,10.15,10.15,0,0,1-6.06,9.53,17.05,17.05,0,0,1-7.48,1.46,24,24,0,0,1-7.08-1,17.46,17.46,0,0,1-5.77-2.9l2.69-4.94a14.59,14.59,0,0,0,4.57,2.47,17,17,0,0,0,5.5.9,8.89,8.89,0,0,0,5.3-1.39,4.47,4.47,0,0,0,1.93-3.84,4.42,4.42,0,0,0-2.08-4q-2.07-1.35-7.11-1.35h-8.26l1.76-18.62h20.09v5.33H1390.5l-.74,7.91H1393Q1400.27,1946.06,1403.74,1948.88Z"/><path class="cls-1" d="M1417.82,1965.45a14.1,14.1,0,0,1-5.08-6.06,25,25,0,0,1,0-18.92,14,14,0,0,1,5.08-6.06,14,14,0,0,1,14.69,0,13.91,13.91,0,0,1,5.11,6.06,25,25,0,0,1,0,18.92,14,14,0,0,1-5.11,6.06,14.07,14.07,0,0,1-14.69,0ZM1431,1959q2.13-3,2.13-9t-2.13-9a7,7,0,0,0-11.54,0c-1.42,2-2.12,5-2.12,9s.7,7,2.12,9a7,7,0,0,0,11.54,0Z"/><path class="cls-1" d="M1465.09,1950.17a9.24,9.24,0,0,1,2.49,6.6,10.1,10.1,0,0,1-1.51,5.43,10.38,10.38,0,0,1-4.57,3.88,17.41,17.41,0,0,1-7.46,1.44,23.81,23.81,0,0,1-7.06-1,18.18,18.18,0,0,1-5.79-2.9l2.74-4.94a13.89,13.89,0,0,0,4.52,2.47,17,17,0,0,0,5.5.9,8.89,8.89,0,0,0,5.3-1.39,4.71,4.71,0,0,0,.1-7.53c-1.22-.9-3.09-1.34-5.6-1.34h-3.13v-4.36l7.78-9.23h-15.55v-5.33h23.32v4.25l-8.31,9.87A11.56,11.56,0,0,1,1465.09,1950.17Z"/><path class="cls-1" d="M1483.57,1932.82V1967h-6.35v-28.89H1470v-5.33Z"/><path class="cls-1" d="M1849.16,1292.66a11.84,11.84,0,0,1-4.38-2.24l1.65-3.7a13.1,13.1,0,0,0,3.87,2,14.16,14.16,0,0,0,4.6.78,8,8,0,0,0,4.27-.91,2.78,2.78,0,0,0,1.41-2.42,2.34,2.34,0,0,0-.79-1.82,5.58,5.58,0,0,0-2-1.12c-.8-.26-1.9-.57-3.3-.91a38.44,38.44,0,0,1-4.74-1.4,7.79,7.79,0,0,1-3.12-2.18,5.85,5.85,0,0,1-1.3-4,6.84,6.84,0,0,1,1.15-3.87,7.84,7.84,0,0,1,3.49-2.77,14.17,14.17,0,0,1,5.7-1,18.51,18.51,0,0,1,4.62.58,12.87,12.87,0,0,1,3.92,1.69l-1.5,3.7a14.86,14.86,0,0,0-3.52-1.5,13.31,13.31,0,0,0-3.56-.51,7.41,7.41,0,0,0-4.2,1,3,3,0,0,0-1.37,2.53,2.29,2.29,0,0,0,.79,1.8,5.75,5.75,0,0,0,2,1.1c.81.26,1.91.57,3.3.91a34.49,34.49,0,0,1,4.7,1.38,8,8,0,0,1,3.13,2.18,5.75,5.75,0,0,1,1.3,4,6.76,6.76,0,0,1-1.15,3.85,7.91,7.91,0,0,1-3.5,2.75,14.34,14.34,0,0,1-5.72,1A19.64,19.64,0,0,1,1849.16,1292.66Z"/><path class="cls-1" d="M1881.33,1292.07a5.41,5.41,0,0,1-2,1,8.82,8.82,0,0,1-2.44.33,6.92,6.92,0,0,1-5-1.68,6.48,6.48,0,0,1-1.77-4.92v-9.42H1867v-3.66h3.22v-4.48h4.59v4.48H1880v3.66h-5.24v9.31a3.14,3.14,0,0,0,.69,2.19,2.63,2.63,0,0,0,2,.75,4,4,0,0,0,2.57-.81Z"/><path class="cls-1" d="M1904.06,1273.56v19.58h-4.36v-2.5a7.31,7.31,0,0,1-2.75,2,8.81,8.81,0,0,1-3.56.71,8.51,8.51,0,0,1-6.18-2.18q-2.25-2.18-2.25-6.47v-11.18h4.58v10.56a5.65,5.65,0,0,0,1.2,3.94,4.34,4.34,0,0,0,3.39,1.3,5.16,5.16,0,0,0,3.9-1.52,6.09,6.09,0,0,0,1.45-4.38v-9.9Z"/><path class="cls-1" d="M1929.25,1265.93v27.21h-4.4v-2.53a7.11,7.11,0,0,1-2.81,2.09,9.53,9.53,0,0,1-3.68.69,10.36,10.36,0,0,1-5.08-1.24,9,9,0,0,1-3.54-3.54,10.64,10.64,0,0,1-1.28-5.26,10.51,10.51,0,0,1,1.28-5.24,9,9,0,0,1,3.54-3.52,10.26,10.26,0,0,1,5.08-1.25,9.33,9.33,0,0,1,3.56.66,7.21,7.21,0,0,1,2.75,2v-10Zm-7.37,22.79a5.41,5.41,0,0,0,2.09-2.15,6.55,6.55,0,0,0,.77-3.22,6.62,6.62,0,0,0-.77-3.23,5.38,5.38,0,0,0-2.09-2.14,6.26,6.26,0,0,0-5.94,0,5.38,5.38,0,0,0-2.09,2.14,6.62,6.62,0,0,0-.77,3.23,6.55,6.55,0,0,0,.77,3.22,5.41,5.41,0,0,0,2.09,2.15,6.26,6.26,0,0,0,5.94,0Z"/><path class="cls-1" d="M1935.48,1269.54a2.56,2.56,0,0,1-.84-2,2.59,2.59,0,0,1,.84-2,3,3,0,0,1,2.09-.79,3,3,0,0,1,2.09.75,2.45,2.45,0,0,1,.84,1.89,2.77,2.77,0,0,1-.82,2,2.85,2.85,0,0,1-2.11.82A2.92,2.92,0,0,1,1935.48,1269.54Zm-.22,4h4.58v19.58h-4.58Z"/><path class="cls-1" d="M1964.19,1284.81h-15.36a5.28,5.28,0,0,0,2.1,3.43,6.89,6.89,0,0,0,4.24,1.27,7.15,7.15,0,0,0,5.32-2.13l2.45,2.82a8.3,8.3,0,0,1-3.34,2.39,12.25,12.25,0,0,1-4.54.8,12,12,0,0,1-5.68-1.28,9.3,9.3,0,0,1-3.8-3.57,10.13,10.13,0,0,1-1.34-5.19,10.29,10.29,0,0,1,1.3-5.15,9.3,9.3,0,0,1,3.62-3.58,10.57,10.57,0,0,1,5.2-1.28,10.33,10.33,0,0,1,5.12,1.26,9.06,9.06,0,0,1,3.52,3.56,10.82,10.82,0,0,1,1.26,5.3C1964.26,1283.78,1964.24,1284.23,1964.19,1284.81Zm-13.55-6.5a5.47,5.47,0,0,0-1.85,3.46h11.11a5.36,5.36,0,0,0-5.54-4.76A5.53,5.53,0,0,0,1950.64,1278.31Z"/><path class="cls-1" d="M1970.05,1292.77a11.6,11.6,0,0,1-3.63-1.58l1.76-3.48a11.14,11.14,0,0,0,3.17,1.41,13,13,0,0,0,3.65.53q4.11,0,4.11-2.16a1.45,1.45,0,0,0-1-1.43,18.2,18.2,0,0,0-3.35-.77,26.34,26.34,0,0,1-3.94-.84,6.05,6.05,0,0,1-2.64-1.67,4.63,4.63,0,0,1-1.12-3.32,5.21,5.21,0,0,1,2.33-4.45,10.61,10.61,0,0,1,6.29-1.67,17.93,17.93,0,0,1,4,.46,11.06,11.06,0,0,1,3.3,1.23l-1.76,3.48a10.83,10.83,0,0,0-5.61-1.47,6.13,6.13,0,0,0-3.06.61,1.79,1.79,0,0,0-1,1.59,1.61,1.61,0,0,0,1.12,1.56,17.6,17.6,0,0,0,3.47.86,28.62,28.62,0,0,1,3.84.84,6,6,0,0,1,2.59,1.62,4.49,4.49,0,0,1,1.08,3.22,5.09,5.09,0,0,1-2.38,4.4,11.24,11.24,0,0,1-6.49,1.65A17.39,17.39,0,0,1,1970.05,1292.77Z"/><path class="cls-1" d="M2012.33,1279.52a7,7,0,0,1,2.6,5.73,7.64,7.64,0,0,1-4.55,7.15,12.69,12.69,0,0,1-5.61,1.1,18.15,18.15,0,0,1-5.31-.78,13.15,13.15,0,0,1-4.33-2.19l2-3.7a10.72,10.72,0,0,0,3.43,1.85,12.76,12.76,0,0,0,4.12.68,6.74,6.74,0,0,0,4-1,3.38,3.38,0,0,0,1.45-2.88,3.33,3.33,0,0,0-1.56-3q-1.56-1-5.34-1H1997l1.32-14h15.06v4h-11l-.55,5.94h2.46Q2009.72,1277.41,2012.33,1279.52Z"/><path class="cls-1" d="M2022.88,1292a10.58,10.58,0,0,1-3.81-4.55,18.8,18.8,0,0,1,0-14.19,10.58,10.58,0,0,1,3.81-4.55,10.57,10.57,0,0,1,11,0,10.48,10.48,0,0,1,3.83,4.55,18.68,18.68,0,0,1,0,14.19,10.48,10.48,0,0,1-3.83,4.55,10.57,10.57,0,0,1-11,0Zm9.85-4.86q1.59-2.28,1.59-6.79t-1.59-6.78a5.05,5.05,0,0,0-4.35-2.27,5,5,0,0,0-4.3,2.27q-1.61,2.28-1.6,6.78t1.6,6.79a5,5,0,0,0,4.3,2.27A5.05,5.05,0,0,0,2032.73,1287.09Z"/><path class="cls-1" d="M2065.23,1287.31h-4.55v5.83h-4.62v-5.83H2042V1284l12.64-16.54h5.1l-11.92,15.8h8.4v-5.16h4.47v5.16h4.55Z"/><path class="cls-1" d="M2083.91,1270.41q2.91,3.3,2.91,9.45a16,16,0,0,1-1.57,7.39,11,11,0,0,1-4.42,4.66,13.27,13.27,0,0,1-6.58,1.59,15.82,15.82,0,0,1-3.72-.42,10.13,10.13,0,0,1-3-1.23l1.76-3.59a8.77,8.77,0,0,0,4.88,1.25,7.45,7.45,0,0,0,5.79-2.28q2.09-2.26,2.09-6.56v0a7.09,7.09,0,0,1-2.9,2,10.75,10.75,0,0,1-4,.68,10.29,10.29,0,0,1-4.54-1,7.4,7.4,0,0,1-3.15-2.77,7.57,7.57,0,0,1-1.14-4.14,7.7,7.7,0,0,1,1.25-4.38,8.26,8.26,0,0,1,3.37-2.92,10.86,10.86,0,0,1,4.76-1C2079.23,1267.11,2082,1268.21,2083.91,1270.41Zm-4.07,7.92a4,4,0,0,0,1.45-3.16,4,4,0,0,0-1.41-3.1,5.83,5.83,0,0,0-3.91-1.22,5.36,5.36,0,0,0-3.63,1.19,4.33,4.33,0,0,0,0,6.36,5.64,5.64,0,0,0,3.74,1.17A5.57,5.57,0,0,0,2079.84,1278.33Z"/><path class="cls-1" d="M2098.55,1281.44h18.34v3h-18.34Z"/><path class="cls-1" d="M2144.68,1279.52a7,7,0,0,1,2.6,5.73,7.64,7.64,0,0,1-4.55,7.15,12.69,12.69,0,0,1-5.61,1.1,18.15,18.15,0,0,1-5.31-.78,13.15,13.15,0,0,1-4.33-2.19l2-3.7a10.77,10.77,0,0,0,3.42,1.85,12.86,12.86,0,0,0,4.13.68,6.74,6.74,0,0,0,4-1,3.38,3.38,0,0,0,1.45-2.88,3.33,3.33,0,0,0-1.56-3q-1.56-1-5.34-1h-6.19l1.32-14h15.07v4h-11l-.55,5.94h2.46Q2142.07,1277.41,2144.68,1279.52Z"/><path class="cls-1" d="M2155.23,1292a10.58,10.58,0,0,1-3.81-4.55,18.8,18.8,0,0,1,0-14.19,10.58,10.58,0,0,1,3.81-4.55,10.57,10.57,0,0,1,11,0,10.48,10.48,0,0,1,3.83,4.55,18.68,18.68,0,0,1,0,14.19,10.48,10.48,0,0,1-3.83,4.55,10.57,10.57,0,0,1-11,0Zm9.85-4.86q1.59-2.28,1.59-6.79t-1.59-6.78a5.05,5.05,0,0,0-4.35-2.27,5,5,0,0,0-4.3,2.27q-1.6,2.28-1.6,6.78t1.6,6.79a5,5,0,0,0,4.3,2.27A5.05,5.05,0,0,0,2165.08,1287.09Z"/><path class="cls-1" d="M2190.76,1279.52a7,7,0,0,1,2.6,5.73,7.61,7.61,0,0,1-4.54,7.15,12.75,12.75,0,0,1-5.61,1.1,18.17,18.17,0,0,1-5.32-.78,13.1,13.1,0,0,1-4.32-2.19l2-3.7a10.94,10.94,0,0,0,3.43,1.85,12.8,12.8,0,0,0,4.12.68,6.72,6.72,0,0,0,4-1,3.62,3.62,0,0,0-.11-5.87q-1.56-1-5.33-1h-6.2l1.32-14h15.07v4h-11l-.56,5.94h2.46C2186.35,1277.41,2189,1278.11,2190.76,1279.52Z"/><path class="cls-1" d="M2215.86,1282.12a6.24,6.24,0,0,1,1.08,3.65,6.75,6.75,0,0,1-1.3,4.1,8.1,8.1,0,0,1-3.69,2.7,15.17,15.17,0,0,1-5.54.93,15,15,0,0,1-5.51-.93,7.92,7.92,0,0,1-3.65-2.7,6.74,6.74,0,0,1-1.28-4.1,6.3,6.3,0,0,1,1.06-3.65,7.24,7.24,0,0,1,3-2.47,6.25,6.25,0,0,1-2.36-2.22,6.07,6.07,0,0,1-.83-3.17,6.21,6.21,0,0,1,1.19-3.78,7.58,7.58,0,0,1,3.36-2.49,13.06,13.06,0,0,1,5-.88,13.21,13.21,0,0,1,5,.88,7.67,7.67,0,0,1,3.37,2.49,6.1,6.1,0,0,1,1.21,3.78,5.89,5.89,0,0,1-.84,3.15,6.65,6.65,0,0,1-2.42,2.24A7.43,7.43,0,0,1,2215.86,1282.12Zm-5.27,6.54a3.74,3.74,0,0,0,0-6.05,7.08,7.08,0,0,0-4.18-1.1,6.92,6.92,0,0,0-4.14,1.1,3.8,3.8,0,0,0,0,6.05,6.85,6.85,0,0,0,4.14,1.1A7,7,0,0,0,2210.59,1288.66Zm-7.71-16.86a3.13,3.13,0,0,0-1.3,2.68,3.1,3.1,0,0,0,1.3,2.62,5.8,5.8,0,0,0,3.53,1,6,6,0,0,0,3.6-1,3.3,3.3,0,0,0,0-5.3,6,6,0,0,0-3.58-1A5.8,5.8,0,0,0,2202.88,1271.8Z"/><polyline class="cls-2" points="1022.17 2045.5 1669.48 2045.5 1669.48 1931.98 1802.25 1931.98 1802.25 1319.43 2255.29 1319.43 2255.29 1239.8"/><path class="cls-1" d="M446.85,510.24v10.41h16.53V526H446.85v13.1H440.5V504.91h25v5.33Z"/><path class="cls-1" d="M474.91,537.76a12.49,12.49,0,0,1-5-4.76,13.48,13.48,0,0,1-1.78-6.92,13.32,13.32,0,0,1,1.78-6.89,12.51,12.51,0,0,1,5-4.74,15.78,15.78,0,0,1,14.33,0,12.57,12.57,0,0,1,5,4.74,13.32,13.32,0,0,1,1.78,6.89A13.48,13.48,0,0,1,494.2,533a12.55,12.55,0,0,1-5,4.76,15.87,15.87,0,0,1-14.33,0ZM487.62,532a9.05,9.05,0,0,0,0-11.83,8,8,0,0,0-11.12,0,9.15,9.15,0,0,0,0,11.83,8,8,0,0,0,11.12,0Z"/><path class="cls-1" d="M501.85,502.86H508v36.27h-6.11Z"/><path class="cls-1" d="M516.27,507.67a3.43,3.43,0,0,1-1.13-2.61,3.47,3.47,0,0,1,1.13-2.62,3.93,3.93,0,0,1,2.78-1.05,4,4,0,0,1,2.79,1,3.2,3.2,0,0,1,1.12,2.51,3.68,3.68,0,0,1-1.1,2.72,3.81,3.81,0,0,1-2.81,1.1A3.89,3.89,0,0,1,516.27,507.67ZM516,513h6.11v26.1H516Z"/><path class="cls-1" d="M534.7,537.76a12.52,12.52,0,0,1-5-4.76,13.48,13.48,0,0,1-1.78-6.92,13.32,13.32,0,0,1,1.78-6.89,12.54,12.54,0,0,1,5-4.74,14.66,14.66,0,0,1,7.13-1.72,14.84,14.84,0,0,1,7.19,1.72,12.51,12.51,0,0,1,5,4.74,13.32,13.32,0,0,1,1.78,6.89A13.48,13.48,0,0,1,554,533a12.49,12.49,0,0,1-5,4.76,15,15,0,0,1-7.19,1.71A14.77,14.77,0,0,1,534.7,537.76ZM547.41,532a9.08,9.08,0,0,0,0-11.83,7.51,7.51,0,0,0-5.58-2.24,7.41,7.41,0,0,0-5.55,2.24,9.15,9.15,0,0,0,0,11.83,7.38,7.38,0,0,0,5.55,2.25A7.48,7.48,0,0,0,547.41,532Z"/><path class="cls-1" d="M563.49,538.64a15.41,15.41,0,0,1-4.84-2.1L561,531.9a15.25,15.25,0,0,0,4.23,1.88,17.71,17.71,0,0,0,4.87.71q5.48,0,5.47-2.89a1.92,1.92,0,0,0-1.39-1.9,24.26,24.26,0,0,0-4.47-1,37.17,37.17,0,0,1-5.26-1.12,8.12,8.12,0,0,1-3.52-2.23,6.22,6.22,0,0,1-1.49-4.42,6.94,6.94,0,0,1,3.1-5.94,14.17,14.17,0,0,1,8.39-2.23,24,24,0,0,1,5.37.62,14.91,14.91,0,0,1,4.4,1.63l-2.34,4.65a14.43,14.43,0,0,0-7.48-2,8.26,8.26,0,0,0-4.08.81,2.41,2.41,0,0,0-1.4,2.12,2.13,2.13,0,0,0,1.49,2.08,23.83,23.83,0,0,0,4.62,1.15,35.37,35.37,0,0,1,5.14,1.13,8,8,0,0,1,3.44,2.15,6,6,0,0,1,1.45,4.3,6.79,6.79,0,0,1-3.18,5.86c-2.12,1.47-5,2.2-8.65,2.2A23.13,23.13,0,0,1,563.49,538.64Z"/><path class="cls-1" d="M626.55,533.8v5.33H600.88V504.91h25v5.33H607.24v8.9h16.52v5.23H607.24v9.43Z"/><path class="cls-1" d="M642.53,523.54H667v4H642.53Z"/><path class="cls-1" d="M691.41,510.24v10.41h16.53V526H691.41v13.1h-6.35V504.91h25v5.33Z"/><path class="cls-1" d="M156.43,1043.63a12.57,12.57,0,0,1-4.91-4.71,13.75,13.75,0,0,1,0-13.57,12.69,12.69,0,0,1,4.93-4.71,14.41,14.41,0,0,1,7-1.7,14.57,14.57,0,0,1,5.76,1.1,11.58,11.58,0,0,1,4.39,3.19l-3.08,2.89a9,9,0,0,0-6.85-3,9.6,9.6,0,0,0-4.73,1.15,8.32,8.32,0,0,0-3.26,3.21,9.77,9.77,0,0,0,0,9.31A8.32,8.32,0,0,0,159,1040a9.6,9.6,0,0,0,4.73,1.15,8.91,8.91,0,0,0,6.85-3l3.08,2.93a11.57,11.57,0,0,1-4.41,3.19,14.7,14.7,0,0,1-5.78,1.1A14.41,14.41,0,0,1,156.43,1043.63Z"/><path class="cls-1" d="M180.5,1043.94a9.4,9.4,0,0,1-3.72-3.57,10.13,10.13,0,0,1-1.34-5.19,10,10,0,0,1,1.34-5.17,9.38,9.38,0,0,1,3.72-3.56,11.9,11.9,0,0,1,10.74,0A9.38,9.38,0,0,1,195,1030a9.91,9.91,0,0,1,1.34,5.17,10,10,0,0,1-1.34,5.19,9.4,9.4,0,0,1-3.72,3.57,11.9,11.9,0,0,1-10.74,0Zm9.53-4.33a6.79,6.79,0,0,0,0-8.87,6,6,0,0,0-8.34,0,6.85,6.85,0,0,0,0,8.87,6,6,0,0,0,8.34,0Z"/><path class="cls-1" d="M217.75,1027.33q2.24,2.16,2.24,6.42V1045H215.4v-10.64a5.45,5.45,0,0,0-1.21-3.86,4.44,4.44,0,0,0-3.44-1.3,5.28,5.28,0,0,0-4,1.52,6,6,0,0,0-1.47,4.38v9.9H200.7v-19.58h4.36v2.53a7.07,7.07,0,0,1,2.86-2.05,10.21,10.21,0,0,1,3.89-.7A8.19,8.19,0,0,1,217.75,1027.33Z"/><path class="cls-1" d="M227.21,1044.6a11.39,11.39,0,0,1-3.63-1.58l1.76-3.48a11,11,0,0,0,3.17,1.41,13,13,0,0,0,3.65.53q4.09,0,4.1-2.16a1.45,1.45,0,0,0-1-1.43,18.56,18.56,0,0,0-3.36-.77,26.62,26.62,0,0,1-3.94-.84,6.17,6.17,0,0,1-2.64-1.67,4.68,4.68,0,0,1-1.12-3.32,5.21,5.21,0,0,1,2.33-4.45,10.61,10.61,0,0,1,6.29-1.67,17.86,17.86,0,0,1,4,.46,10.85,10.85,0,0,1,3.3,1.23l-1.76,3.48a10.83,10.83,0,0,0-5.61-1.47,6.15,6.15,0,0,0-3.06.61,1.8,1.8,0,0,0-1,1.59,1.6,1.6,0,0,0,1.12,1.56,17.46,17.46,0,0,0,3.46.86,28.81,28.81,0,0,1,3.85.84,6.12,6.12,0,0,1,2.59,1.62,4.49,4.49,0,0,1,1.08,3.22,5.1,5.1,0,0,1-2.39,4.4,11.24,11.24,0,0,1-6.49,1.65A17.26,17.26,0,0,1,227.21,1044.6Z"/><path class="cls-1" d="M263,1036.64H247.66a5.33,5.33,0,0,0,2.11,3.43,6.89,6.89,0,0,0,4.24,1.27,7.11,7.11,0,0,0,5.31-2.13l2.46,2.82a8.3,8.3,0,0,1-3.34,2.39,12.28,12.28,0,0,1-4.54.8,12,12,0,0,1-5.68-1.28,9.3,9.3,0,0,1-3.8-3.57,10.13,10.13,0,0,1-1.34-5.19,10.29,10.29,0,0,1,1.3-5.15,9.3,9.3,0,0,1,3.62-3.58,10.57,10.57,0,0,1,5.2-1.28,10.33,10.33,0,0,1,5.12,1.26,9,9,0,0,1,3.51,3.56,10.71,10.71,0,0,1,1.27,5.3C263.1,1035.61,263.08,1036.06,263,1036.64Zm-13.55-6.5a5.47,5.47,0,0,0-1.85,3.46h11.11a5.36,5.36,0,0,0-5.54-4.76A5.52,5.52,0,0,0,249.48,1030.14Z"/><path class="cls-1" d="M278.83,1025.17v4.36a6.16,6.16,0,0,0-1.06-.11,5.52,5.52,0,0,0-4.18,1.56,6.19,6.19,0,0,0-1.51,4.49v9.5H267.5v-19.58h4.36v2.86Q273.84,1025.18,278.83,1025.17Z"/><path class="cls-1" d="M301.78,1025.39l-8.4,19.58h-4.73l-8.39-19.58H285l6.09,14.52,6.27-14.52Z"/><path class="cls-1" d="M318.11,1027.24c1.53,1.38,2.29,3.47,2.29,6.25V1045h-4.32v-2.39a5.46,5.46,0,0,1-2.4,2,9.47,9.47,0,0,1-3.76.67,9.21,9.21,0,0,1-3.85-.75,6,6,0,0,1-2.55-2.09,5.29,5.29,0,0,1-.9-3,5.22,5.22,0,0,1,2-4.24q2-1.59,6.18-1.59h5.06v-.3a4,4,0,0,0-1.23-3.15,5.33,5.33,0,0,0-3.65-1.1,10.27,10.27,0,0,0-3.24.52,8.06,8.06,0,0,0-2.7,1.42l-1.79-3.33a11.3,11.3,0,0,1,3.7-1.8,16.69,16.69,0,0,1,4.59-.62Q315.82,1025.17,318.11,1027.24Zm-4.18,13.86a4.29,4.29,0,0,0,1.89-2.26v-2.27h-4.73q-4,0-4,2.6a2.31,2.31,0,0,0,1,2,4.54,4.54,0,0,0,2.75.74A5.86,5.86,0,0,0,313.93,1041.1Z"/><path class="cls-1" d="M338,1043.9a5.41,5.41,0,0,1-2,1,8.88,8.88,0,0,1-2.44.33,7,7,0,0,1-5-1.68,6.52,6.52,0,0,1-1.76-4.92v-9.42h-3.22v-3.66h3.22v-4.48h4.59v4.48h5.24v3.66h-5.24v9.31a3.14,3.14,0,0,0,.69,2.19,2.63,2.63,0,0,0,2,.75,4,4,0,0,0,2.56-.81Z"/><path class="cls-1" d="M342,1021.37a2.56,2.56,0,0,1-.84-2,2.59,2.59,0,0,1,.84-2,3.21,3.21,0,0,1,4.18,0,2.4,2.4,0,0,1,.85,1.88,2.78,2.78,0,0,1-.83,2,2.85,2.85,0,0,1-2.11.82A2.94,2.94,0,0,1,342,1021.37Zm-.22,4h4.59V1045h-4.59Z"/><path class="cls-1" d="M355.86,1043.94a9.49,9.49,0,0,1-3.73-3.57,10.13,10.13,0,0,1-1.33-5.19,10,10,0,0,1,1.33-5.17,9.47,9.47,0,0,1,3.73-3.56,11.13,11.13,0,0,1,5.35-1.28,11.26,11.26,0,0,1,5.39,1.28,9.38,9.38,0,0,1,3.72,3.56,10,10,0,0,1,1.34,5.17,10.13,10.13,0,0,1-1.34,5.19,9.4,9.4,0,0,1-3.72,3.57,11.15,11.15,0,0,1-5.39,1.28A11,11,0,0,1,355.86,1043.94Zm9.53-4.33a6.79,6.79,0,0,0,0-8.87,5.62,5.62,0,0,0-4.18-1.68,5.53,5.53,0,0,0-4.16,1.68,6.82,6.82,0,0,0,0,8.87,5.5,5.5,0,0,0,4.16,1.69A5.59,5.59,0,0,0,365.39,1039.61Z"/><path class="cls-1" d="M393.1,1027.33q2.23,2.16,2.24,6.42V1045h-4.58v-10.64a5.49,5.49,0,0,0-1.21-3.86,4.48,4.48,0,0,0-3.45-1.3,5.24,5.24,0,0,0-4,1.52,6,6,0,0,0-1.47,4.38v9.9h-4.58v-19.58h4.36v2.53a7.07,7.07,0,0,1,2.86-2.05,10.16,10.16,0,0,1,3.88-.7A8.19,8.19,0,0,1,393.1,1027.33Z"/><path class="cls-1" d="M195.68,1063.3h4.76v21.63h13.42v4H195.68Z"/><path class="cls-1" d="M231.48,1071.24q2.29,2.07,2.29,6.25V1089h-4.33v-2.38a5.33,5.33,0,0,1-2.4,2,9.41,9.41,0,0,1-3.75.68,9.21,9.21,0,0,1-3.85-.75,5.91,5.91,0,0,1-2.55-2.09,5.29,5.29,0,0,1-.9-3,5.16,5.16,0,0,1,2-4.23q2-1.61,6.18-1.6h5.06v-.29a4,4,0,0,0-1.23-3.15,5.29,5.29,0,0,0-3.65-1.1,10.55,10.55,0,0,0-3.24.51,8,8,0,0,0-2.7,1.43l-1.79-3.34a11,11,0,0,1,3.7-1.79,16.3,16.3,0,0,1,4.58-.63C227.75,1069.16,230,1069.86,231.48,1071.24Zm-4.18,13.85a4.28,4.28,0,0,0,1.89-2.25v-2.27h-4.73c-2.64,0-4,.86-4,2.6a2.34,2.34,0,0,0,1,2,4.54,4.54,0,0,0,2.75.73A5.86,5.86,0,0,0,227.3,1085.09Z"/><path class="cls-1" d="M255.6,1070.41a8.94,8.94,0,0,1,3.54,3.52,11.41,11.41,0,0,1,0,10.5,8.87,8.87,0,0,1-3.54,3.54,10.37,10.37,0,0,1-5.11,1.25,9.37,9.37,0,0,1-3.69-.7,7.05,7.05,0,0,1-2.8-2.09V1089h-4.36v-27.2h4.58v10a7.59,7.59,0,0,1,2.77-2,9.05,9.05,0,0,1,3.5-.66A10.37,10.37,0,0,1,255.6,1070.41Zm-1.46,13.2a6.85,6.85,0,0,0,0-8.87,5.53,5.53,0,0,0-4.16-1.69,5.94,5.94,0,0,0-3,.75,5.54,5.54,0,0,0-2.09,2.15,7.22,7.22,0,0,0,0,6.45,5.52,5.52,0,0,0,2.09,2.14,5.85,5.85,0,0,0,3,.76A5.57,5.57,0,0,0,254.14,1083.61Z"/><path class="cls-1" d="M289.57,1075.34a7,7,0,0,1,2.6,5.74,8,8,0,0,1-1.13,4.18,7.86,7.86,0,0,1-3.41,3,12.9,12.9,0,0,1-5.61,1.1,17.85,17.85,0,0,1-5.32-.79,13,13,0,0,1-4.33-2.18l2-3.7a10.83,10.83,0,0,0,3.43,1.85,12.8,12.8,0,0,0,4.12.68,6.65,6.65,0,0,0,4-1,3.62,3.62,0,0,0-.11-5.87c-1-.67-2.81-1-5.33-1h-6.2l1.32-14h15.07v4h-11l-.55,5.94h2.46C285.16,1073.23,287.83,1073.94,289.57,1075.34Z"/><path class="cls-1" d="M300.13,1087.77a10.38,10.38,0,0,1-3.81-4.55,18.65,18.65,0,0,1,0-14.18,10.38,10.38,0,0,1,3.81-4.55,9.93,9.93,0,0,1,5.5-1.56,10,10,0,0,1,5.52,1.56A10.49,10.49,0,0,1,315,1069a18.78,18.78,0,0,1,0,14.18,10.49,10.49,0,0,1-3.83,4.55,10,10,0,0,1-5.52,1.56A9.93,9.93,0,0,1,300.13,1087.77Zm9.84-4.86q1.61-2.27,1.6-6.78t-1.6-6.78a5.24,5.24,0,0,0-8.65,0q-1.59,2.26-1.59,6.78t1.59,6.78a5.24,5.24,0,0,0,8.65,0Z"/><path class="cls-1" d="M328.29,1063.3V1089h-4.77v-21.67h-5.43v-4Z"/><path class="cls-1" d="M352.74,1063.3v3.19l-10,22.47h-5.1l9.64-21.63H337.23v4.36h-4.44v-8.39Z"/><path class="cls-1" d="M987.39,1076.94a11.84,11.84,0,0,1-4.38-2.24l1.65-3.7a13.17,13.17,0,0,0,3.86,2,14.26,14.26,0,0,0,4.61.78,8,8,0,0,0,4.27-.91,2.78,2.78,0,0,0,1.41-2.42,2.34,2.34,0,0,0-.79-1.82,5.67,5.67,0,0,0-2-1.12c-.8-.26-1.9-.57-3.3-.91a40.75,40.75,0,0,1-4.75-1.39,7.88,7.88,0,0,1-3.11-2.19,5.85,5.85,0,0,1-1.3-4,6.84,6.84,0,0,1,1.15-3.87,7.87,7.87,0,0,1,3.48-2.77,14.26,14.26,0,0,1,5.71-1,18.38,18.38,0,0,1,4.61.58,12.82,12.82,0,0,1,3.93,1.69l-1.51,3.7a14.52,14.52,0,0,0-3.52-1.5,13.18,13.18,0,0,0-3.55-.51,7.41,7.41,0,0,0-4.2,1,3,3,0,0,0-1.37,2.53,2.29,2.29,0,0,0,.79,1.8,5.75,5.75,0,0,0,2,1.1c.81.26,1.91.57,3.3.91a34.49,34.49,0,0,1,4.7,1.38,8,8,0,0,1,3.13,2.18,5.75,5.75,0,0,1,1.3,4,6.76,6.76,0,0,1-1.15,3.85,7.88,7.88,0,0,1-3.51,2.75,14.29,14.29,0,0,1-5.71,1A19.64,19.64,0,0,1,987.39,1076.94Z"/><path class="cls-1" d="M1019.56,1076.35a5.41,5.41,0,0,1-2,1,8.88,8.88,0,0,1-2.44.33,7,7,0,0,1-5-1.68,6.52,6.52,0,0,1-1.76-4.92v-9.42h-3.22V1058h3.22v-4.48H1013V1058h5.24v3.66H1013V1071a3.13,3.13,0,0,0,.69,2.19,2.63,2.63,0,0,0,2,.75,4,4,0,0,0,2.57-.81Z"/><path class="cls-1" d="M1037.43,1059.69c1.53,1.38,2.29,3.47,2.29,6.25v11.48h-4.32V1075a5.46,5.46,0,0,1-2.4,2,9.47,9.47,0,0,1-3.76.67,9.21,9.21,0,0,1-3.85-.75,6,6,0,0,1-2.55-2.09,5.29,5.29,0,0,1-.9-3,5.22,5.22,0,0,1,2-4.24q2-1.59,6.18-1.59h5.06v-.29a4,4,0,0,0-1.23-3.16,5.33,5.33,0,0,0-3.65-1.1,10.27,10.27,0,0,0-3.24.52,7.76,7.76,0,0,0-2.69,1.43l-1.8-3.34a11.3,11.3,0,0,1,3.7-1.8,16.67,16.67,0,0,1,4.58-.62C1033.7,1057.62,1035.9,1058.31,1037.43,1059.69Zm-4.18,13.86a4.34,4.34,0,0,0,1.89-2.26V1069h-4.73q-4,0-4,2.6a2.31,2.31,0,0,0,1,2,4.54,4.54,0,0,0,2.75.74A5.86,5.86,0,0,0,1033.25,1073.55Z"/><path class="cls-1" d="M1050.65,1056.81V1058H1056v3.66h-5.24v15.77h-4.59v-15.77H1043V1058h3.22v-1.25a6.66,6.66,0,0,1,1.84-5,8.43,8.43,0,0,1,9.31-.75l-1.28,3.45a4.4,4.4,0,0,0-2.54-.81Q1050.65,1053.66,1050.65,1056.81Z"/><path class="cls-1" d="M1064.18,1056.81V1058h5.39v3.66h-5.25v15.77h-4.58v-15.77h-3.23V1058h3.23v-1.25a6.69,6.69,0,0,1,1.83-5,8.44,8.44,0,0,1,9.32-.75l-1.29,3.45a4.35,4.35,0,0,0-2.53-.81Q1064.18,1053.66,1064.18,1056.81Z"/><path class="cls-1" d="M967,1120.07a12.46,12.46,0,0,1-5-4.73,13.59,13.59,0,0,1,0-13.52,12.46,12.46,0,0,1,5-4.73,15.49,15.49,0,0,1,14.15,0,12.61,12.61,0,0,1,5,4.71,13.74,13.74,0,0,1,0,13.56,12.61,12.61,0,0,1-5,4.71,15.49,15.49,0,0,1-14.15,0Zm11.69-3.63a8.33,8.33,0,0,0,3.23-3.22,9.79,9.79,0,0,0,0-9.28,8.33,8.33,0,0,0-3.23-3.22,9.78,9.78,0,0,0-9.24,0,8.31,8.31,0,0,0-3.22,3.22,9.71,9.71,0,0,0,0,9.28,8.31,8.31,0,0,0,3.22,3.22,9.78,9.78,0,0,0,9.24,0Z"/><path class="cls-1" d="M997.54,1100.81V1102h5.39v3.67h-5.24v15.76h-4.58v-15.76h-3.23V1102h3.23v-1.25a6.67,6.67,0,0,1,1.83-5,8.38,8.38,0,0,1,9.31-.75l-1.28,3.44a4.37,4.37,0,0,0-2.53-.81C998.51,1097.65,997.54,1098.71,997.54,1100.81Z"/><path class="cls-1" d="M1011.07,1100.81V1102h5.39v3.67h-5.24v15.76h-4.58v-15.76h-3.23V1102h3.23v-1.25a6.67,6.67,0,0,1,1.83-5,8.38,8.38,0,0,1,9.31-.75l-1.28,3.44a4.37,4.37,0,0,0-2.53-.81C1012,1097.65,1011.07,1098.71,1011.07,1100.81Zm11.62-3a2.71,2.71,0,0,1,0-3.92,2.94,2.94,0,0,1,2.09-.79,3,3,0,0,1,2.09.75,2.43,2.43,0,0,1,.85,1.89,2.77,2.77,0,0,1-.83,2,2.86,2.86,0,0,1-2.11.83A2.94,2.94,0,0,1,1022.69,1097.82Zm-.22,4h4.59v19.58h-4.59Z"/><path class="cls-1" d="M1036.59,1120.39a9.52,9.52,0,0,1-3.78-3.58,10.61,10.61,0,0,1,0-10.36,9.53,9.53,0,0,1,3.76-3.55,11.4,11.4,0,0,1,5.48-1.29,10.61,10.61,0,0,1,5.08,1.18,7.58,7.58,0,0,1,3.28,3.37l-3.52,2a5.53,5.53,0,0,0-2.11-2,6.14,6.14,0,0,0-7,1,6.78,6.78,0,0,0,0,8.91,6.17,6.17,0,0,0,7,1,5.49,5.49,0,0,0,2.11-2l3.52,2.06a8,8,0,0,1-3.32,3.39,10.37,10.37,0,0,1-5,1.19A11.52,11.52,0,0,1,1036.59,1120.39Z"/><path class="cls-1" d="M1072.41,1113.09h-15.36a5.37,5.37,0,0,0,2.1,3.43,7,7,0,0,0,4.24,1.26,7.14,7.14,0,0,0,5.31-2.12l2.46,2.82a8.31,8.31,0,0,1-3.33,2.38,13.22,13.22,0,0,1-10.23-.47,9.25,9.25,0,0,1-3.8-3.58,10.13,10.13,0,0,1-1.34-5.19,10.34,10.34,0,0,1,1.3-5.15,9.21,9.21,0,0,1,3.62-3.57,10.47,10.47,0,0,1,5.2-1.29,10.34,10.34,0,0,1,5.12,1.27,9,9,0,0,1,3.52,3.56,10.78,10.78,0,0,1,1.26,5.29C1072.48,1112.05,1072.46,1112.5,1072.41,1113.09Zm-13.55-6.51a5.52,5.52,0,0,0-1.85,3.47h11.11a5.36,5.36,0,0,0-5.54-4.77A5.52,5.52,0,0,0,1058.86,1106.58Z"/><path class="cls-1" d="M1078.27,1121.05a11.84,11.84,0,0,1-3.63-1.58l1.76-3.48a11.66,11.66,0,0,0,3.18,1.41,13.3,13.3,0,0,0,3.64.53q4.11,0,4.11-2.16a1.44,1.44,0,0,0-1-1.43,17.4,17.4,0,0,0-3.35-.77,27.5,27.5,0,0,1-3.94-.85,5.88,5.88,0,0,1-2.64-1.67,4.62,4.62,0,0,1-1.12-3.31,5.24,5.24,0,0,1,2.33-4.46,10.61,10.61,0,0,1,6.29-1.67,18.52,18.52,0,0,1,4,.46,11.64,11.64,0,0,1,3.3,1.23l-1.76,3.48a10.92,10.92,0,0,0-5.61-1.46,6.25,6.25,0,0,0-3.06.6,1.82,1.82,0,0,0-1,1.6,1.61,1.61,0,0,0,1.12,1.56,18.35,18.35,0,0,0,3.47.86,26.27,26.27,0,0,1,3.85.84,6.11,6.11,0,0,1,2.58,1.61,4.52,4.52,0,0,1,1.08,3.23,5.1,5.1,0,0,1-2.38,4.4,11.24,11.24,0,0,1-6.49,1.65A17.8,17.8,0,0,1,1078.27,1121.05Z"/><path class="cls-1" d="M997.45,1151.79a7,7,0,0,1,2.6,5.73,7.61,7.61,0,0,1-4.54,7.15,12.75,12.75,0,0,1-5.61,1.1,18.22,18.22,0,0,1-5.32-.78,13.1,13.1,0,0,1-4.32-2.19l2-3.7a10.94,10.94,0,0,0,3.43,1.85,12.55,12.55,0,0,0,4.13.68,6.71,6.71,0,0,0,4-1,3.62,3.62,0,0,0-.11-5.87q-1.55-1-5.33-1h-6.2l1.32-14h15.07v4h-11l-.55,5.94h2.45Q994.85,1149.68,997.45,1151.79Z"/><path class="cls-1" d="M1008,1164.22a10.58,10.58,0,0,1-3.81-4.55,18.68,18.68,0,0,1,0-14.19,10.49,10.49,0,0,1,3.81-4.54,9.93,9.93,0,0,1,5.5-1.56,10,10,0,0,1,5.52,1.56,10.46,10.46,0,0,1,3.83,4.54,18.8,18.8,0,0,1,0,14.19,10.55,10.55,0,0,1-3.83,4.55,10.12,10.12,0,0,1-5.52,1.55A10,10,0,0,1,1008,1164.22Zm9.84-4.86q1.6-2.28,1.6-6.78t-1.6-6.79a5.26,5.26,0,0,0-8.65,0q-1.59,2.28-1.59,6.79t1.59,6.78a5.26,5.26,0,0,0,8.65,0Z"/><path class="cls-1" d="M1045.88,1161.37v4H1027v-3.19l10.19-9.68a11.32,11.32,0,0,0,2.33-2.88,5.52,5.52,0,0,0,.6-2.44,3.3,3.3,0,0,0-1.21-2.75,5.7,5.7,0,0,0-3.56-1,7.16,7.16,0,0,0-6,2.68l-3.33-2.57a9.84,9.84,0,0,1,4-3.13,14,14,0,0,1,5.7-1.12,10.43,10.43,0,0,1,6.67,2,6.51,6.51,0,0,1,2.49,5.39,8.89,8.89,0,0,1-.88,3.92,15.32,15.32,0,0,1-3.37,4.18l-6.86,6.52Z"/><path class="cls-1" d="M1053.73,1164.22a10.6,10.6,0,0,1-3.82-4.55,18.8,18.8,0,0,1,0-14.19,10.51,10.51,0,0,1,3.82-4.54,9.91,9.91,0,0,1,5.5-1.56,10,10,0,0,1,5.52,1.56,10.46,10.46,0,0,1,3.83,4.54,18.8,18.8,0,0,1,0,14.19,10.55,10.55,0,0,1-3.83,4.55,10.12,10.12,0,0,1-5.52,1.55A10,10,0,0,1,1053.73,1164.22Zm9.84-4.86q1.61-2.28,1.6-6.78t-1.6-6.79a5.26,5.26,0,0,0-8.65,0q-1.59,2.28-1.59,6.79t1.59,6.78a5.26,5.26,0,0,0,8.65,0Z"/><line class="cls-2" x1="357.75" y1="787.2" x2="649.09" y2="787.2"/><line class="cls-2" x1="449.75" y1="787.2" x2="449.75" y2="1171.31"/><line class="cls-2" x1="449.75" y1="1221.98" x2="449.75" y2="1319.43"/><path class="cls-1" d="M480.63,655.85h6v13.64a19.18,19.18,0,0,1-6.15,3.23,23.65,23.65,0,0,1-7.24,1.12,19.54,19.54,0,0,1-9.43-2.27,16.84,16.84,0,0,1-6.6-6.28,18.24,18.24,0,0,1,0-18.09,16.83,16.83,0,0,1,6.62-6.28,19.71,19.71,0,0,1,9.51-2.27,20.86,20.86,0,0,1,7.82,1.41,15.26,15.26,0,0,1,5.91,4.16l-4,3.91a12.87,12.87,0,0,0-9.44-3.91,13.48,13.48,0,0,0-6.43,1.51,11.13,11.13,0,0,0-4.4,4.26,12.2,12.2,0,0,0-1.58,6.25,12,12,0,0,0,1.58,6.16,11.46,11.46,0,0,0,4.4,4.31,12.94,12.94,0,0,0,6.38,1.56,13.8,13.8,0,0,0,7-1.76Z"/><path class="cls-1" d="M499,672a12.51,12.51,0,0,1-5-4.77,13.46,13.46,0,0,1-1.79-6.92,13.33,13.33,0,0,1,1.79-6.89,12.51,12.51,0,0,1,5-4.74,15.84,15.84,0,0,1,14.32,0,12.54,12.54,0,0,1,5,4.74,13.32,13.32,0,0,1,1.78,6.89,13.46,13.46,0,0,1-1.78,6.92,12.54,12.54,0,0,1-5,4.77A15.84,15.84,0,0,1,499,672Zm12.71-5.77a9.05,9.05,0,0,0,0-11.83,7.46,7.46,0,0,0-5.57-2.25,7.38,7.38,0,0,0-5.55,2.25,9.11,9.11,0,0,0,0,11.83,7.38,7.38,0,0,0,5.55,2.25A7.46,7.46,0,0,0,511.72,666.22Z"/><path class="cls-1" d="M549.65,647.25l-11.19,26.1h-6.31L521,647.25h6.35l8.12,19.36,8.36-19.36Z"/><path class="cls-1" d="M559,637.86a3.92,3.92,0,0,1,1.12,2.89,6.47,6.47,0,0,1-.22,1.71,25.65,25.65,0,0,1-.85,2.49l-2.54,6.94h-4l1.95-7.52a3.25,3.25,0,0,1-1.68-1.35,4.08,4.08,0,0,1-.61-2.27,3.92,3.92,0,0,1,1.12-2.89,4.15,4.15,0,0,1,5.67,0Z"/><path class="cls-1" d="M582.06,671.94a7.46,7.46,0,0,1-2.61,1.32,11.92,11.92,0,0,1-3.25.44,9.22,9.22,0,0,1-6.65-2.25q-2.35-2.25-2.35-6.55V652.33h-4.3v-4.88h4.3v-6h6.11v6h7v4.88h-7v12.42a4.14,4.14,0,0,0,.93,2.91,3.49,3.49,0,0,0,2.69,1,5.39,5.39,0,0,0,3.42-1.07Z"/><path class="cls-1" d="M601.17,639.14h6.36v34.21h-6.36Z"/><path class="cls-1" d="M638.91,649.84c2,1.92,3,4.78,3,8.56v15h-6.11V659.18a7.32,7.32,0,0,0-1.61-5.16,6,6,0,0,0-4.59-1.73,7.05,7.05,0,0,0-5.33,2,8.08,8.08,0,0,0-2,5.85v13.19h-6.11v-26.1H622v3.37a9.5,9.5,0,0,1,3.81-2.73A13.7,13.7,0,0,1,631,647,10.92,10.92,0,0,1,638.91,649.84Z"/><path class="cls-1" d="M656.41,645.88v1.57h7.19v4.88h-7v21H650.5v-21h-4.3v-4.88h4.3v-1.67a8.89,8.89,0,0,1,2.44-6.62,11.21,11.21,0,0,1,12.42-1l-1.71,4.59a5.91,5.91,0,0,0-3.38-1.07Q656.42,641.68,656.41,645.88Z"/><path class="cls-1" d="M671.91,672a12.51,12.51,0,0,1-5-4.77,13.46,13.46,0,0,1-1.79-6.92,13.33,13.33,0,0,1,1.79-6.89,12.51,12.51,0,0,1,5-4.74,15.84,15.84,0,0,1,14.32,0,12.51,12.51,0,0,1,5,4.74A13.33,13.33,0,0,1,693,660.3a13.46,13.46,0,0,1-1.79,6.92,12.51,12.51,0,0,1-5,4.77,15.84,15.84,0,0,1-14.32,0Zm12.71-5.77a9.05,9.05,0,0,0,0-11.83,7.48,7.48,0,0,0-5.57-2.25,7.38,7.38,0,0,0-5.55,2.25,9.11,9.11,0,0,0,0,11.83,7.38,7.38,0,0,0,5.55,2.25A7.48,7.48,0,0,0,684.62,666.22Z"/><polyline class="cls-2" points="1496.22 845.26 1496.22 979.25 1338.03 979.25"/><line class="cls-2" x1="1271.72" y1="1659.41" x2="1498.29" y2="1659.41"/><polyline class="cls-2" points="1181.21 1248.43 1181.21 1270.71 1181.21 1428.42"/><polyline class="cls-2" points="1023.03 1671.41 1023.03 1368.42 1023.03 1270.7 1181.21 1270.7"/><line class="cls-2" x1="1181.21" y1="1366.92" x2="1023.03" y2="1366.92"/><line class="cls-2" x1="1181.21" y1="1458.42" x2="1181.21" y2="1503.42"/><polyline class="cls-2" points="1181.21 1531.92 1181.21 1576.91 1023.03 1576.91"/><line class="cls-2" x1="1181.21" y1="1599.41" x2="1181.21" y2="1635.41"/><line class="cls-2" x1="1239.68" y1="1659.41" x2="1025.09" y2="1659.41"/><line class="cls-2" x1="1025.09" y1="1480.92" x2="1181.21" y2="1480.92"/><line class="cls-2" x1="1493.94" y1="1366.92" x2="1335.75" y2="1366.92"/><line class="cls-2" x1="1496.22" y1="1480.92" x2="1338.03" y2="1480.92"/><polyline class="cls-2" points="1496.22 1774.65 1614.75 1774.65 1614.75 1565.66 1702.75 1565.66 1702.75 1340.11 1802.25 1340.11"/><polyline class="cls-2" points="1181.21 1659.41 1181.21 1774.65 1023.09 1774.65 1023.09 1698.98"/><path class="cls-1" d="M1377.18,895.29l-8.29,19h-3.47l-8.31-19h3.83l6.32,14.66,6.39-14.66Z"/><path class="cls-1" d="M1391.35,908.13H1380a3.91,3.91,0,0,0,1.57,2.54,5.06,5.06,0,0,0,3.13.94,5.28,5.28,0,0,0,3.94-1.58l1.82,2.09a6.17,6.17,0,0,1-2.47,1.77,9.79,9.79,0,0,1-7.58-.35,6.91,6.91,0,0,1-2.81-2.65,7.47,7.47,0,0,1-1-3.84,7.61,7.61,0,0,1,1-3.82,7,7,0,0,1,2.68-2.65,7.86,7.86,0,0,1,3.86-1,7.52,7.52,0,0,1,3.78.94,6.54,6.54,0,0,1,2.61,2.63,7.93,7.93,0,0,1,.94,3.93C1391.41,907.36,1391.39,907.7,1391.35,908.13Zm-10-4.82a4,4,0,0,0-1.37,2.57h8.23a4,4,0,0,0-4.1-3.53A4.11,4.11,0,0,0,1381.32,903.31Z"/><path class="cls-1" d="M1407.29,901.23A6.32,6.32,0,0,1,1409,906v8.31h-3.39v-7.88a4,4,0,0,0-.9-2.86,3.29,3.29,0,0,0-2.55-1,3.92,3.92,0,0,0-3,1.13,4.46,4.46,0,0,0-1.09,3.24v7.34h-3.39V899.79h3.23v1.88a5.2,5.2,0,0,1,2.12-1.52,7.5,7.5,0,0,1,2.88-.52A6.08,6.08,0,0,1,1407.29,901.23Z"/><path class="cls-1" d="M1427.61,894.15V914.3h-3.26v-1.88a5.23,5.23,0,0,1-2.08,1.55,7.06,7.06,0,0,1-2.73.52,7.6,7.6,0,0,1-3.76-.93,6.6,6.6,0,0,1-2.62-2.62,8.44,8.44,0,0,1,0-7.78,6.71,6.71,0,0,1,2.62-2.61,7.7,7.7,0,0,1,3.76-.92,6.86,6.86,0,0,1,2.64.49,5.39,5.39,0,0,1,2,1.47v-7.44ZM1422.15,911a4.06,4.06,0,0,0,1.55-1.58,4.88,4.88,0,0,0,.57-2.39,4.83,4.83,0,0,0-.57-2.39,4,4,0,0,0-1.55-1.59,4.6,4.6,0,0,0-4.4,0,4,4,0,0,0-1.55,1.59,4.83,4.83,0,0,0-.57,2.39,4.88,4.88,0,0,0,.57,2.39,4.06,4.06,0,0,0,1.55,1.58,4.6,4.6,0,0,0,4.4,0Z"/><path class="cls-1" d="M1432.22,896.82a1.92,1.92,0,0,1-.62-1.45,1.94,1.94,0,0,1,.62-1.46,2.39,2.39,0,0,1,3.1,0,1.79,1.79,0,0,1,.63,1.4,2,2,0,0,1-.62,1.5,2.08,2.08,0,0,1-1.56.61A2.19,2.19,0,0,1,1432.22,896.82Zm-.16,3h3.4V914.3h-3.4Z"/><path class="cls-1" d="M1452.54,901.23a6.36,6.36,0,0,1,1.65,4.76v8.31h-3.39v-7.88a4,4,0,0,0-.9-2.86,3.28,3.28,0,0,0-2.55-1,3.92,3.92,0,0,0-3,1.13,4.5,4.5,0,0,0-1.09,3.24v7.34h-3.39V899.79h3.23v1.88a5.27,5.27,0,0,1,2.12-1.52,7.5,7.5,0,0,1,2.88-.52A6.1,6.1,0,0,1,1452.54,901.23Z"/><path class="cls-1" d="M1473,899.79V912.1q0,7.65-7.82,7.65a14.7,14.7,0,0,1-4-.52,8.53,8.53,0,0,1-3.09-1.54l1.52-2.55a7.35,7.35,0,0,0,2.4,1.26,9.35,9.35,0,0,0,3,.48,4.87,4.87,0,0,0,3.5-1.09,4.4,4.4,0,0,0,1.12-3.31v-.76a5.71,5.71,0,0,1-2.12,1.44,7.58,7.58,0,0,1-2.74.48,7.85,7.85,0,0,1-3.74-.88,6.61,6.61,0,0,1-2.63-2.48,6.92,6.92,0,0,1-1-3.67,6.82,6.82,0,0,1,1-3.65,6.56,6.56,0,0,1,2.63-2.46,8,8,0,0,1,3.74-.87,7.51,7.51,0,0,1,2.86.52,5.3,5.3,0,0,1,2.16,1.57v-1.93Zm-4.57,9.82a3.93,3.93,0,0,0,1.23-3,3.86,3.86,0,0,0-1.23-3,5,5,0,0,0-6.36,0,3.86,3.86,0,0,0-1.24,3,3.94,3.94,0,0,0,1.24,3,4.94,4.94,0,0,0,6.36,0Z"/><path class="cls-1" d="M1395.86,936.8a5.15,5.15,0,0,1,1.93,4.25,5.64,5.64,0,0,1-3.37,5.29,9.39,9.39,0,0,1-4.15.82,13.33,13.33,0,0,1-3.94-.59,9.67,9.67,0,0,1-3.21-1.61l1.5-2.75a8,8,0,0,0,2.54,1.38,9.51,9.51,0,0,0,3,.5,4.94,4.94,0,0,0,3-.78,2.68,2.68,0,0,0-.08-4.34,7.64,7.64,0,0,0-3.95-.75h-4.59l1-10.34h11.17v3h-8.18l-.41,4.4h1.82C1392.59,935.23,1394.58,935.76,1395.86,936.8Z"/><path class="cls-1" d="M1403.68,946a7.85,7.85,0,0,1-2.82-3.36,13.92,13.92,0,0,1,0-10.51,7.82,7.82,0,0,1,2.82-3.37,7.76,7.76,0,0,1,8.16,0,7.72,7.72,0,0,1,2.84,3.37,13.92,13.92,0,0,1,0,10.51,7.75,7.75,0,0,1-2.84,3.36,7.76,7.76,0,0,1-8.16,0Zm7.29-3.6a11.18,11.18,0,0,0,0-10,3.87,3.87,0,0,0-6.4,0,11.18,11.18,0,0,0,0,10,3.87,3.87,0,0,0,6.4,0Z"/><path class="cls-1" d="M1430.11,935.87a5.48,5.48,0,0,1,3.17,5.12,5.73,5.73,0,0,1-.92,3.25,6.12,6.12,0,0,1-2.5,2.16,8.12,8.12,0,0,1-3.53.76,7.67,7.67,0,0,1-6.07-2.45q-2.16-2.44-2.16-7a11.86,11.86,0,0,1,1.17-5.48,8.14,8.14,0,0,1,3.27-3.45,9.9,9.9,0,0,1,4.88-1.18,11.52,11.52,0,0,1,2.75.32,7.21,7.21,0,0,1,2.24.91l-1.3,2.66a6.43,6.43,0,0,0-3.61-.93,5.54,5.54,0,0,0-4.29,1.69,6.93,6.93,0,0,0-1.55,4.86v0a5.16,5.16,0,0,1,2.15-1.48,7.93,7.93,0,0,1,2.93-.51A7.68,7.68,0,0,1,1430.11,935.87Zm-1.28,7.63a3.21,3.21,0,0,0,0-4.71,4.16,4.16,0,0,0-2.77-.87,4.08,4.08,0,0,0-2.78.93,3,3,0,0,0,0,4.63,4.3,4.3,0,0,0,2.89.91A4,4,0,0,0,1428.83,943.5Z"/><path class="cls-1" d="M1448.9,943.9v3h-14v-2.37l7.55-7.17a8.17,8.17,0,0,0,1.72-2.13,4.06,4.06,0,0,0,.45-1.8,2.44,2.44,0,0,0-.9-2,4.19,4.19,0,0,0-2.63-.71,5.34,5.34,0,0,0-4.46,2l-2.47-1.9a7.45,7.45,0,0,1,3-2.32,10.47,10.47,0,0,1,4.23-.83,7.71,7.71,0,0,1,4.94,1.47,4.83,4.83,0,0,1,1.85,4,6.6,6.6,0,0,1-.66,2.91,11.16,11.16,0,0,1-2.49,3.09l-5.08,4.84Z"/><polyline class="cls-2" points="1368.21 254.59 1368.21 321.98 1434.03 321.98 1434.03 297.98 1409.95 297.98"/><polyline class="cls-2" points="1145.03 254.59 1145.03 321.98 1079.21 321.98 1079.21 297.98 1103.29 297.98"/><path class="cls-1" d="M1387.28,1430.67v3H1373v-19h13.88v3h-10.34v4.94h9.18v2.91h-9.18v5.24Z"/><path class="cls-1" d="M1390.89,1413.48h3.4v20.15h-3.4Z"/><path class="cls-1" d="M1412.32,1427.47h-11.38a3.94,3.94,0,0,0,1.56,2.53,5.11,5.11,0,0,0,3.14.94,5.29,5.29,0,0,0,3.94-1.57l1.82,2.09a6.05,6.05,0,0,1-2.47,1.76,9.79,9.79,0,0,1-7.58-.35,6.85,6.85,0,0,1-2.81-2.65,7.47,7.47,0,0,1-1-3.84,7.66,7.66,0,0,1,1-3.82,6.8,6.8,0,0,1,2.68-2.64,8.23,8.23,0,0,1,7.64,0,6.76,6.76,0,0,1,2.61,2.64,8,8,0,0,1,.94,3.92C1412.38,1426.7,1412.36,1427,1412.32,1427.47Zm-10-4.82a4.08,4.08,0,0,0-1.38,2.56h8.23a3.93,3.93,0,0,0-1.33-2.55,4.39,4.39,0,0,0-5.52,0Z"/><path class="cls-1" d="M1428.94,1419.13l-6.22,14.5h-3.5l-6.22-14.5h3.53l4.51,10.75,4.64-10.75Z"/><path class="cls-1" d="M1438.88,1414.62h8.31a11.93,11.93,0,0,1,5.41,1.18,8.77,8.77,0,0,1,3.66,3.34,10.14,10.14,0,0,1,0,10,8.77,8.77,0,0,1-3.66,3.34,11.93,11.93,0,0,1-5.41,1.18h-8.31Zm8.15,16a8,8,0,0,0,3.68-.8,5.67,5.67,0,0,0,2.44-2.28,7.29,7.29,0,0,0,0-6.87,5.67,5.67,0,0,0-2.44-2.28,8.14,8.14,0,0,0-3.68-.8h-4.62v13Z"/><path class="cls-1" d="M1074.13,1430.67v3h-14.26v-19h13.88v3h-10.34v4.94h9.17v2.91h-9.17v5.24Z"/><path class="cls-1" d="M1077.74,1413.48h3.4v20.15h-3.4Z"/><path class="cls-1" d="M1099.17,1427.47h-11.38a3.94,3.94,0,0,0,1.56,2.53,5.11,5.11,0,0,0,3.14.94,5.29,5.29,0,0,0,3.94-1.57l1.82,2.09a6.05,6.05,0,0,1-2.47,1.76,9.79,9.79,0,0,1-7.58-.35,6.85,6.85,0,0,1-2.81-2.65,7.47,7.47,0,0,1-1-3.84,7.66,7.66,0,0,1,1-3.82,6.8,6.8,0,0,1,2.68-2.64,8.23,8.23,0,0,1,7.64,0,6.76,6.76,0,0,1,2.61,2.64,8,8,0,0,1,.94,3.92C1099.23,1426.7,1099.21,1427,1099.17,1427.47Zm-10-4.82a4,4,0,0,0-1.38,2.56H1096a3.93,3.93,0,0,0-1.33-2.55,4.39,4.39,0,0,0-5.52,0Z"/><path class="cls-1" d="M1115.79,1419.13l-6.22,14.5h-3.5l-6.22-14.5h3.53l4.51,10.75,4.64-10.75Z"/><path class="cls-1" d="M1129.33,1432.64a9.33,9.33,0,0,1-3.64-3.49,10.19,10.19,0,0,1,0-10.05,9.45,9.45,0,0,1,3.66-3.49,10.7,10.7,0,0,1,5.2-1.26,10.93,10.93,0,0,1,4.26.81,8.69,8.69,0,0,1,3.26,2.37l-2.28,2.14a6.68,6.68,0,0,0-5.08-2.23,7.12,7.12,0,0,0-3.5.86,6.09,6.09,0,0,0-2.42,2.38,7.26,7.26,0,0,0,0,6.89,6.09,6.09,0,0,0,2.42,2.38,7.12,7.12,0,0,0,3.5.86,6.64,6.64,0,0,0,5.08-2.26l2.28,2.17a8.73,8.73,0,0,1-3.27,2.37,11,11,0,0,1-4.28.81A10.73,10.73,0,0,1,1129.33,1432.64Z"/><path class="cls-1" d="M1075.63,1709.69a9.33,9.33,0,0,1-3.64-3.49,9.78,9.78,0,0,1-1.31-5,9.56,9.56,0,0,1,1.33-5,9.29,9.29,0,0,1,3.65-3.49,10.73,10.73,0,0,1,5.2-1.26,10.85,10.85,0,0,1,4.26.81,8.59,8.59,0,0,1,3.26,2.36l-2.28,2.15a6.63,6.63,0,0,0-5.08-2.23,7.12,7.12,0,0,0-3.5.86,6.2,6.2,0,0,0-2.42,2.37,7.28,7.28,0,0,0,0,6.9,6.15,6.15,0,0,0,2.42,2.38,7.11,7.11,0,0,0,3.5.85,6.62,6.62,0,0,0,5.08-2.25l2.28,2.17a8.68,8.68,0,0,1-3.27,2.37,11,11,0,0,1-4.28.81A10.73,10.73,0,0,1,1075.63,1709.69Z"/><path class="cls-1" d="M1093.46,1709.92a7,7,0,0,1-2.75-2.65,7.85,7.85,0,0,1,0-7.67,7,7,0,0,1,2.75-2.64,8.81,8.81,0,0,1,8,0,7,7,0,0,1,2.75,2.64,7.85,7.85,0,0,1,0,7.67,7,7,0,0,1-2.75,2.65,8.81,8.81,0,0,1-8,0Zm7.06-3.21a5,5,0,0,0,0-6.57,4.44,4.44,0,0,0-6.18,0,5.1,5.1,0,0,0,0,6.57,4.44,4.44,0,0,0,6.18,0Z"/><path class="cls-1" d="M1121.05,1697.62a6.28,6.28,0,0,1,1.66,4.75v8.31h-3.39v-7.88a4.05,4.05,0,0,0-.9-2.86,3.29,3.29,0,0,0-2.55-1,3.92,3.92,0,0,0-3,1.13,4.47,4.47,0,0,0-1.09,3.25v7.33h-3.39v-14.5h3.23v1.87a5.2,5.2,0,0,1,2.12-1.52,7.68,7.68,0,0,1,2.87-.52A6,6,0,0,1,1121.05,1697.62Z"/><path class="cls-1" d="M1130.78,1695.42v.86h4V1699h-3.89v11.68h-3.39V1699h-2.39v-2.72h2.39v-.92a4.93,4.93,0,0,1,1.36-3.68,6.24,6.24,0,0,1,6.9-.55l-1,2.55a3.25,3.25,0,0,0-1.88-.6C1131.49,1693.08,1130.78,1693.86,1130.78,1695.42Z"/><path class="cls-1" d="M1081.27,1733.18a5.2,5.2,0,0,1,1.93,4.25,5.83,5.83,0,0,1-.85,3.09,5.75,5.75,0,0,1-2.52,2.2,9.4,9.4,0,0,1-4.16.82,13.27,13.27,0,0,1-3.93-.59,9.48,9.48,0,0,1-3.21-1.61l1.49-2.74a8.23,8.23,0,0,0,2.54,1.37,9.62,9.62,0,0,0,3.06.5,5,5,0,0,0,3-.77,2.51,2.51,0,0,0,1.07-2.14,2.47,2.47,0,0,0-1.16-2.21,7.61,7.61,0,0,0-4-.75h-4.59l1-10.34h11.16v3h-8.17l-.41,4.4h1.82Q1079.34,1731.62,1081.27,1733.18Z"/><path class="cls-1" d="M1089.09,1742.38a7.74,7.74,0,0,1-2.83-3.36,13.92,13.92,0,0,1,0-10.51,7.77,7.77,0,0,1,2.83-3.37,7.33,7.33,0,0,1,4.07-1.15,7.42,7.42,0,0,1,4.09,1.15,7.79,7.79,0,0,1,2.84,3.37,13.92,13.92,0,0,1,0,10.51,7.76,7.76,0,0,1-2.84,3.36,7.43,7.43,0,0,1-4.09,1.16A7.34,7.34,0,0,1,1089.09,1742.38Zm7.29-3.59a11.29,11.29,0,0,0,0-10,3.88,3.88,0,0,0-6.41,0,11.29,11.29,0,0,0,0,10,3.9,3.9,0,0,0,6.41,0Z"/><path class="cls-1" d="M1115.35,1733.9a5.15,5.15,0,0,1,1.39,3.66,5.64,5.64,0,0,1-.85,3,5.81,5.81,0,0,1-2.54,2.16,9.7,9.7,0,0,1-4.14.8,13.15,13.15,0,0,1-3.92-.59,9.83,9.83,0,0,1-3.22-1.61l1.52-2.74a7.85,7.85,0,0,0,2.51,1.37,9.62,9.62,0,0,0,3.06.5,5,5,0,0,0,2.95-.77,2.48,2.48,0,0,0,1.07-2.11,2.43,2.43,0,0,0-1-2.08,5.34,5.34,0,0,0-3.11-.74h-1.74v-2.42l4.32-5.13H1103v-3h13v2.36l-4.62,5.49A6.34,6.34,0,0,1,1115.35,1733.9Z"/><path class="cls-1" d="M1122.9,1742.38a7.66,7.66,0,0,1-2.82-3.36,13.8,13.8,0,0,1,0-10.51,7.68,7.68,0,0,1,2.82-3.37A7.33,7.33,0,0,1,1127,1724a7.42,7.42,0,0,1,4.09,1.15,7.79,7.79,0,0,1,2.84,3.37,13.92,13.92,0,0,1,0,10.51,7.76,7.76,0,0,1-2.84,3.36,7.43,7.43,0,0,1-4.09,1.16A7.34,7.34,0,0,1,1122.9,1742.38Zm7.29-3.59a11.29,11.29,0,0,0,0-10,3.88,3.88,0,0,0-6.41,0,11.29,11.29,0,0,0,0,10,3.9,3.9,0,0,0,6.41,0Z"/><path class="cls-1" d="M1390.14,1709.69a9.33,9.33,0,0,1-3.64-3.49,9.68,9.68,0,0,1-1.31-5,9.56,9.56,0,0,1,1.33-5,9.29,9.29,0,0,1,3.65-3.49,10.73,10.73,0,0,1,5.2-1.26,10.85,10.85,0,0,1,4.26.81,8.67,8.67,0,0,1,3.26,2.36l-2.28,2.15a6.63,6.63,0,0,0-5.08-2.23,7.12,7.12,0,0,0-3.5.86,6.2,6.2,0,0,0-2.42,2.37,7.28,7.28,0,0,0,0,6.9A6.15,6.15,0,0,0,1392,1707a7.11,7.11,0,0,0,3.5.85,6.62,6.62,0,0,0,5.08-2.25l2.28,2.17a8.84,8.84,0,0,1-3.27,2.37,11,11,0,0,1-4.28.81A10.73,10.73,0,0,1,1390.14,1709.69Z"/><path class="cls-1" d="M1408,1709.92a7,7,0,0,1-2.76-2.65,7.92,7.92,0,0,1,0-7.67A7.08,7.08,0,0,1,1408,1697a8.81,8.81,0,0,1,8,0,7.06,7.06,0,0,1,2.75,2.64,7.85,7.85,0,0,1,0,7.67,7,7,0,0,1-2.75,2.65,8.81,8.81,0,0,1-8,0Zm7.06-3.21a5,5,0,0,0,0-6.57,4.44,4.44,0,0,0-6.18,0,5.1,5.1,0,0,0,0,6.57,4.44,4.44,0,0,0,6.18,0Z"/><path class="cls-1" d="M1435.56,1697.62a6.28,6.28,0,0,1,1.66,4.75v8.31h-3.39v-7.88a4.05,4.05,0,0,0-.9-2.86,3.29,3.29,0,0,0-2.55-1,3.92,3.92,0,0,0-3,1.13,4.47,4.47,0,0,0-1.09,3.25v7.33h-3.4v-14.5h3.24v1.87a5.2,5.2,0,0,1,2.12-1.52,7.64,7.64,0,0,1,2.87-.52A6,6,0,0,1,1435.56,1697.62Z"/><path class="cls-1" d="M1445.29,1695.42v.86h4V1699h-3.89v11.68H1442V1699h-2.39v-2.72H1442v-.92a4.93,4.93,0,0,1,1.36-3.68,6.22,6.22,0,0,1,6.89-.55l-1,2.55a3.2,3.2,0,0,0-1.87-.6C1446,1693.08,1445.29,1693.86,1445.29,1695.42Z"/><path class="cls-1" d="M1397.08,1733.18a5.17,5.17,0,0,1,1.93,4.25,5.64,5.64,0,0,1-3.37,5.29,9.39,9.39,0,0,1-4.15.82,13.33,13.33,0,0,1-3.94-.59,9.48,9.48,0,0,1-3.21-1.61l1.5-2.74a8,8,0,0,0,2.54,1.37,9.51,9.51,0,0,0,3,.5,5,5,0,0,0,3-.77,2.51,2.51,0,0,0,1.07-2.14,2.47,2.47,0,0,0-1.15-2.21,7.64,7.64,0,0,0-4-.75h-4.59l1-10.34h11.17v3h-8.18l-.41,4.4h1.82Q1395.15,1731.62,1397.08,1733.18Z"/><path class="cls-1" d="M1404.9,1742.38a7.72,7.72,0,0,1-2.82-3.36,13.92,13.92,0,0,1,0-10.51,7.75,7.75,0,0,1,2.82-3.37,7.81,7.81,0,0,1,8.16,0,7.72,7.72,0,0,1,2.84,3.37,13.92,13.92,0,0,1,0,10.51,7.69,7.69,0,0,1-2.84,3.36,7.76,7.76,0,0,1-8.16,0Zm7.29-3.59a11.29,11.29,0,0,0,0-10,3.88,3.88,0,0,0-6.41,0,11.29,11.29,0,0,0,0,10,3.9,3.9,0,0,0,6.41,0Z"/><path class="cls-1" d="M1431.16,1733.9a5.11,5.11,0,0,1,1.39,3.66,5.63,5.63,0,0,1-.84,3,5.87,5.87,0,0,1-2.54,2.16,9.7,9.7,0,0,1-4.14.8,13.22,13.22,0,0,1-3.93-.59,9.83,9.83,0,0,1-3.22-1.61l1.52-2.74a7.8,7.8,0,0,0,2.52,1.37,9.51,9.51,0,0,0,3,.5,5,5,0,0,0,3-.77,2.48,2.48,0,0,0,1.07-2.11,2.43,2.43,0,0,0-1-2.08,5.32,5.32,0,0,0-3.11-.74h-1.74v-2.42l4.32-5.13h-8.63v-3h13v2.36l-4.62,5.49A6.34,6.34,0,0,1,1431.16,1733.9Z"/><path class="cls-1" d="M1448.49,1740.28v3h-14v-2.37l7.55-7.17a8.17,8.17,0,0,0,1.72-2.13,4,4,0,0,0,.45-1.8,2.44,2.44,0,0,0-.9-2,4.19,4.19,0,0,0-2.63-.71,5.34,5.34,0,0,0-4.46,2l-2.47-1.9a7.47,7.47,0,0,1,3-2.33,10.47,10.47,0,0,1,4.23-.82,7.71,7.71,0,0,1,4.94,1.46,4.83,4.83,0,0,1,1.85,4,6.57,6.57,0,0,1-.66,2.91,11.18,11.18,0,0,1-2.49,3.1l-5.08,4.83Z"/><rect class="cls-2" x="1059.18" y="1609.02" width="85.89" height="16.79"/></svg>