<svg id="Layer_1" data-name="Layer 1" xmlns="http://www.w3.org/2000/svg" viewBox="0 0 2520 2160"><defs><style>.cls-1{fill:none;stroke:#fff;stroke-miterlimit:10;stroke-width:6px;}.cls-2{fill:#fff;}</style></defs><title>Main Library Floor Maps</title><path d="M2340.22,297.58a65.59,65.59,0,0,1-46.4-112h0a65.61,65.61,0,1,1,46.4,112Zm0-118a52,52,0,0,0-37,15.34h0a52.39,52.39,0,1,0,37-15.34Zm-41.72,10.66Z"/><polygon points="2340.77 240.45 2366.38 256.15 2338.87 195.17 2313.37 256.14 2340.77 240.45"/><path d="M2354.31,121.94v31.73h-4.85L2332,132.18v21.49h-5.84V121.94H2331l17.49,21.48V121.94Z"/><polyline class="cls-1" points="1022.17 2045.5 1802.25 2045.5 1802.25 1319.43 2420.31 1319.43 2420.31 361.59 1496.22 361.59 1496.22 254.59 1023.2 254.59 1024.24 361.59 100.15 361.59 100.15 1319.43 718.21 1319.43 718.21 2045.5 1498.29 2045.5 1498.29 1814.23 1498.29 1790.65"/><line class="cls-1" x1="1234.53" y1="254.59" x2="1234.53" y2="368.72"/><line class="cls-1" x1="1285.53" y1="254.59" x2="1285.53" y2="368.72"/><line class="cls-1" x1="1234.53" y1="350.46" x2="1285.53" y2="350.46"/><line class="cls-1" x1="1496.22" y1="361.59" x2="1338.03" y2="361.59"/><polyline class="cls-1" points="1498.29 1814.23 1404.02 1814.23 1234.54 1814.23"/><polyline class="cls-1" points="1197.51 1814.23 1131.94 1814.23 1023.03 1814.23"/><line class="cls-1" x1="1181.21" y1="1786.15" x2="1181.21" y2="2045.5"/><line class="cls-1" x1="1023.03" y1="1786.15" x2="1023.03" y2="2045.5"/><polyline class="cls-1" points="1023.03 1745.88 1023.03 1315.17 1181.21 1315.17"/><polyline class="cls-1" points="1181.21 956.69 1181.21 1727.65 1023.03 1727.65"/><line class="cls-1" x1="1023.03" y1="1411.16" x2="1181.21" y2="1411.16"/><line class="cls-1" x1="1023.03" y1="1543.7" x2="1181.21" y2="1543.7"/><line class="cls-1" x1="1023.03" y1="1628.65" x2="1181.21" y2="1628.65"/><polyline class="cls-1" points="1181.21 1000.53 1023.03 1000.53 1023.03 884.69 1181.21 884.69"/><line class="cls-1" x1="1181.21" y1="856.19" x2="1181.21" y2="929.69"/><polyline class="cls-1" points="1181.21 814.19 1181.21 797.28 1181.21 391.22"/><line class="cls-1" x1="1023.03" y1="787.2" x2="1181.21" y2="787.2"/><polyline class="cls-1" points="1181.21 575.71 1023.03 575.71 1023.03 461.71 1023.03 361.59 1181.21 361.59"/><line class="cls-1" x1="1181.21" y1="461.71" x2="1023.03" y2="461.71"/><polyline class="cls-1" points="1496.22 1745.88 1496.22 1315.17 1338.03 1315.17"/><line class="cls-1" x1="1496.22" y1="1411.16" x2="1338.03" y2="1411.16"/><line class="cls-1" x1="1496.22" y1="1543.7" x2="1338.03" y2="1543.7"/><line class="cls-1" x1="1496.22" y1="1628.65" x2="1338.03" y2="1628.65"/><polyline class="cls-1" points="1496.22 1727.65 1338.03 1727.65 1338.03 956.69 1338.03 929.69 1338.03 856.19 1434.03 856.19"/><line class="cls-1" x1="1338.03" y1="713.26" x2="1338.03" y2="391.22"/><line class="cls-1" x1="1338.03" y1="790.28" x2="1338.03" y2="747.26"/><line class="cls-1" x1="1496.22" y1="787.2" x2="1338.03" y2="787.2"/><polyline class="cls-1" points="1338.03 461.71 1496.22 461.71 1496.22 361.59 1338.03 361.59"/><polyline class="cls-1" points="1465.52 856.19 1496.22 856.19 1496.22 1315.17"/><polyline class="cls-1" points="1338.03 671.92 1496.22 671.92 1496.22 814.19"/><polyline class="cls-1" points="2240.75 871.59 2240.75 892.94 2421.75 892.94"/><polyline class="cls-1" points="2240.75 814.92 2240.75 793.57 2421.75 793.57"/><line class="cls-1" x1="2240.75" y1="831.92" x2="2240.75" y2="854.59"/><polyline class="cls-1" points="280.15 871.59 280.15 892.94 99.15 892.94"/><polyline class="cls-1" points="280.15 814.92 280.15 793.57 99.15 793.57"/><line class="cls-1" x1="280.15" y1="831.92" x2="280.15" y2="854.59"/><polyline class="cls-1" points="1802.25 1319.43 1802.25 1239.8 2421.75 1239.8"/><polyline class="cls-1" points="717.75 1319.43 717.75 1239.8 98.25 1239.8"/><line class="cls-1" x1="2383.75" y1="843.26" x2="2287.75" y2="843.26"/><line class="cls-1" x1="237.65" y1="843.26" x2="141.65" y2="843.26"/><rect class="cls-1" x="1331.03" y="296.59" width="119.72" height="19.06"/><rect class="cls-1" x="1068.79" y="296.59" width="119.72" height="19.06"/><line class="cls-1" x1="2421.75" y1="428.35" x2="1496.22" y2="428.35"/><line class="cls-1" x1="1025.68" y1="428.35" x2="100.15" y2="428.35"/><path class="cls-2" d="M748.55,856.45a11.23,11.23,0,0,1,5.06,4.2,12.85,12.85,0,0,1,0,13,11.22,11.22,0,0,1-5.06,4.23,18.9,18.9,0,0,1-7.75,1.46h-7.72v9.88h-6.36V855H740.8A18.9,18.9,0,0,1,748.55,856.45Zm-1.73,15.74a7,7,0,0,0,0-10.07c-1.44-1.18-3.54-1.76-6.31-1.76h-7.43V874h7.43Q744.67,874,746.82,872.19Z"/><path class="cls-2" d="M765.17,888.56a15.91,15.91,0,0,1-5.84-3l2.2-4.94a17.24,17.24,0,0,0,5.16,2.72,18.72,18.72,0,0,0,6.13,1,10.68,10.68,0,0,0,5.7-1.22A3.72,3.72,0,0,0,780.4,880a3.13,3.13,0,0,0-1-2.42,7.32,7.32,0,0,0-2.67-1.49c-1.07-.36-2.54-.77-4.4-1.22A52,52,0,0,1,766,873a10.39,10.39,0,0,1-4.15-2.91,7.81,7.81,0,0,1-1.74-5.35,9.2,9.2,0,0,1,1.54-5.16,10.42,10.42,0,0,1,4.65-3.69,18.84,18.84,0,0,1,7.6-1.37,24.65,24.65,0,0,1,6.16.78,17.22,17.22,0,0,1,5.23,2.25l-2,4.94a19.49,19.49,0,0,0-4.69-2,17.42,17.42,0,0,0-4.74-.69,10,10,0,0,0-5.6,1.27,3.93,3.93,0,0,0-1.83,3.38,3.05,3.05,0,0,0,1,2.39,7.63,7.63,0,0,0,2.66,1.47c1.08.36,2.55.76,4.4,1.22a47.39,47.39,0,0,1,6.26,1.83,10.82,10.82,0,0,1,4.18,2.91,7.64,7.64,0,0,1,1.74,5.28,9.05,9.05,0,0,1-1.54,5.13,10.46,10.46,0,0,1-4.67,3.67,19.06,19.06,0,0,1-7.63,1.37A26.09,26.09,0,0,1,765.17,888.56Z"/><path class="cls-2" d="M825.81,872.33a9.24,9.24,0,0,1,2.49,6.6,10.1,10.1,0,0,1-1.51,5.43,10.45,10.45,0,0,1-4.57,3.89,17.41,17.41,0,0,1-7.46,1.44,23.76,23.76,0,0,1-7.06-1.05,17.88,17.88,0,0,1-5.79-2.91l2.73-4.94a13.86,13.86,0,0,0,4.53,2.47,17,17,0,0,0,5.5.9,8.91,8.91,0,0,0,5.3-1.39,4.71,4.71,0,0,0,.1-7.53,9.55,9.55,0,0,0-5.6-1.34h-3.13v-4.35l7.77-9.24H803.57V855h23.32v4.25l-8.31,9.88A11.5,11.5,0,0,1,825.81,872.33Z"/><path class="cls-2" d="M853.38,871a9.32,9.32,0,0,1,3.47,7.65,10.15,10.15,0,0,1-6.06,9.53,17,17,0,0,1-7.48,1.47,24.05,24.05,0,0,1-7.09-1.05,17.48,17.48,0,0,1-5.77-2.91l2.69-4.94a14.5,14.5,0,0,0,4.57,2.47,17.09,17.09,0,0,0,5.5.9,8.93,8.93,0,0,0,5.31-1.39,4.5,4.5,0,0,0,1.93-3.84,4.45,4.45,0,0,0-2.08-4c-1.39-.9-3.76-1.34-7.11-1.34H833L834.75,855h20.1v5.33H840.13l-.73,7.92h3.27Q849.92,868.23,853.38,871Z"/><path class="cls-2" d="M872.35,855V889.2H866V860.31h-7.23V855Z"/><path class="cls-2" d="M900.55,871a9.29,9.29,0,0,1,3.47,7.65,10.15,10.15,0,0,1-6.06,9.53,17,17,0,0,1-7.48,1.47,24.05,24.05,0,0,1-7.09-1.05,17.32,17.32,0,0,1-5.76-2.91l2.68-4.94a14.61,14.61,0,0,0,4.57,2.47,17.09,17.09,0,0,0,5.5.9,8.93,8.93,0,0,0,5.31-1.39,4.82,4.82,0,0,0-.15-7.82c-1.38-.9-3.75-1.34-7.11-1.34h-8.26L881.93,855H902v5.33H887.3l-.73,7.92h3.28Q897.08,868.23,900.55,871Z"/><polygon class="cls-2" points="830 967.69 813.82 983.86 797.65 967.69 797.65 957.03 809.95 969.33 809.95 922.16 817.79 922.16 817.79 969.24 830.02 957.01 830 967.69"/><path class="cls-2" d="M822.51,1021.45a11.23,11.23,0,0,1,5.06,4.2,12.85,12.85,0,0,1,0,13,11.22,11.22,0,0,1-5.06,4.23,18.9,18.9,0,0,1-7.75,1.46H807v9.88h-6.36V1020h14.08A18.9,18.9,0,0,1,822.51,1021.45Zm-1.73,15.74a7,7,0,0,0,0-10.07c-1.44-1.18-3.54-1.76-6.31-1.76H807V1039h7.43Q818.63,1039,820.78,1037.19Z"/><path class="cls-2" d="M1683.37,883.87v5.33H1657.7V855h25v5.33h-18.62v8.9h16.52v5.23h-16.52v9.43Z"/><polygon class="cls-2" points="1685.65 967.69 1669.47 983.86 1653.3 967.69 1653.3 957.03 1665.6 969.33 1665.6 922.16 1673.44 922.16 1673.44 969.24 1685.67 957 1685.65 967.69"/><path class="cls-2" d="M1684.69,1020v34.22h-5.23L1660.59,1031v23.17h-6.31V1020h5.23l18.87,23.17V1020Z"/><circle class="cls-2" cx="1463.4" cy="413.45" r="8.64"/><path class="cls-2" d="M1418.22,394.14l30.9,6.53a3.2,3.2,0,0,1,2,4.91l-3.93,6.08a3.2,3.2,0,0,0,0,3.49l3.93,6.08a3.24,3.24,0,0,1-2,4.91l-30.9,6.53a3.25,3.25,0,0,1-3.82-2.39,3.27,3.27,0,0,0-3.57-2.43l-7.42,1a3.27,3.27,0,0,1-3.65-2.76l-.32-2.19a3.21,3.21,0,0,0-3-2.76l-23.77-1.42a4.75,4.75,0,0,1-4.46-4.78V411.7a4.78,4.78,0,0,1,4.46-4.78l23.77-1.42a3.21,3.21,0,0,0,3-2.76l.32-2.19a3.29,3.29,0,0,1,3.65-2.76l7.42,1a3.25,3.25,0,0,0,3.57-2.44A3.29,3.29,0,0,1,1418.22,394.14Z"/><path class="cls-2" d="M1068.73,400l-.53,2.34a4.71,4.71,0,0,0,1.29,4.39l3.3,3.3a4.71,4.71,0,0,1,0,6.69l-3.3,3.3a4.86,4.86,0,0,0-1.29,4.39l.53,2.34a4.75,4.75,0,0,0,5,3.71l28.72-2.38a4.74,4.74,0,0,0,4-3h0a4.77,4.77,0,0,1,4.15-3.06l37.23-2.26a4.73,4.73,0,0,0,4.43-4.71V411.8a4.7,4.7,0,0,0-4.43-4.71l-37.23-2.26a4.77,4.77,0,0,1-4.15-3.06,4.67,4.67,0,0,0-4-3l-28.72-2.38A4.58,4.58,0,0,0,1068.73,400Z"/><circle class="cls-2" cx="1057.81" cy="413.33" r="8.58"/><circle class="cls-2" cx="1462.8" cy="1480.66" r="8.64"/><path class="cls-2" d="M1417.62,1461.36l30.9,6.53a3.2,3.2,0,0,1,2,4.91l-3.93,6.08a3.2,3.2,0,0,0,0,3.49l3.93,6.08a3.24,3.24,0,0,1-2,4.91l-30.9,6.53a3.26,3.26,0,0,1-3.82-2.39,3.27,3.27,0,0,0-3.56-2.44l-7.43,1a3.27,3.27,0,0,1-3.65-2.76l-.32-2.19a3.2,3.2,0,0,0-3-2.76l-23.77-1.42a4.75,4.75,0,0,1-4.46-4.78v-3.25a4.8,4.8,0,0,1,4.46-4.79l23.77-1.41a3.21,3.21,0,0,0,3-2.76l.32-2.19a3.28,3.28,0,0,1,3.65-2.76l7.43,1a3.23,3.23,0,0,0,3.56-2.43A3.28,3.28,0,0,1,1417.62,1461.36Z"/><path class="cls-2" d="M1068.13,1467.22l-.53,2.33a4.7,4.7,0,0,0,1.29,4.39l3.3,3.31a4.71,4.71,0,0,1,0,6.69l-3.3,3.3a4.86,4.86,0,0,0-1.29,4.39l.53,2.34a4.75,4.75,0,0,0,5,3.7l28.72-2.37a4.75,4.75,0,0,0,4-3h0a4.79,4.79,0,0,1,4.15-3.06l37.23-2.25a4.73,4.73,0,0,0,4.43-4.72V1479a4.69,4.69,0,0,0-4.43-4.71l-37.23-2.26a4.77,4.77,0,0,1-4.15-3.06,4.67,4.67,0,0,0-4-3l-28.72-2.38A4.58,4.58,0,0,0,1068.13,1467.22Z"/><circle class="cls-2" cx="1057.21" cy="1480.55" r="8.58"/><rect class="cls-1" x="1058.41" y="1671.04" width="87.42" height="11.94"/><path class="cls-2" d="M1390.67,738.34v3h-14.25v-19h13.87v3H1380v4.94h9.17v2.9H1380v5.25Z"/><path class="cls-2" d="M1394.28,721.15h3.4V741.3h-3.4Z"/><path class="cls-2" d="M1415.71,735.13h-11.38a3.94,3.94,0,0,0,1.56,2.54,5.18,5.18,0,0,0,3.14.94A5.3,5.3,0,0,0,1413,737l1.82,2.09a6.17,6.17,0,0,1-2.47,1.77,9.79,9.79,0,0,1-7.58-.35,6.91,6.91,0,0,1-2.81-2.65,7.48,7.48,0,0,1-1-3.85,7.59,7.59,0,0,1,1-3.81,6.9,6.9,0,0,1,2.68-2.65,7.82,7.82,0,0,1,3.85-1,7.56,7.56,0,0,1,3.79.94,6.6,6.6,0,0,1,2.61,2.63,8,8,0,0,1,.93,3.93C1415.76,734.36,1415.75,734.7,1415.71,735.13Zm-10-4.82a4.06,4.06,0,0,0-1.38,2.57h8.23a3.95,3.95,0,0,0-4.1-3.53A4.1,4.1,0,0,0,1405.68,730.31Z"/><path class="cls-2" d="M1432.33,726.79l-6.22,14.51h-3.5l-6.22-14.51h3.53l4.51,10.76,4.64-10.76Z"/><path class="cls-2" d="M1458.24,733.14a4.81,4.81,0,0,1,.92,3,4.38,4.38,0,0,1-1.9,3.81,9.52,9.52,0,0,1-5.54,1.35h-9.45v-19h8.91a8.77,8.77,0,0,1,5.19,1.31,4.24,4.24,0,0,1,1.81,3.63,4.73,4.73,0,0,1-.65,2.5,4.46,4.46,0,0,1-1.79,1.68A5,5,0,0,1,1458.24,733.14Zm-12.44-8.08v5.24h5a5,5,0,0,0,2.84-.67,2.19,2.19,0,0,0,1-1.94,2.23,2.23,0,0,0-1-2,5.12,5.12,0,0,0-2.84-.66Zm9.8,10.72c0-1.83-1.36-2.74-4.1-2.74h-5.7v5.49h5.7C1454.24,738.53,1455.6,737.61,1455.6,735.78Z"/><path class="cls-2" d="M1077.13,1594v3h-14.25v-19h13.87v3h-10.34v4.94h9.18v2.91h-9.18V1594Z"/><path class="cls-2" d="M1080.75,1576.76h3.39v20.15h-3.39Z"/><path class="cls-2" d="M1102.17,1590.75h-11.38a3.94,3.94,0,0,0,1.56,2.53,5.11,5.11,0,0,0,3.14.94,5.29,5.29,0,0,0,3.94-1.57l1.82,2.09a6.05,6.05,0,0,1-2.47,1.76,9.79,9.79,0,0,1-7.58-.35,6.85,6.85,0,0,1-2.81-2.65,7.47,7.47,0,0,1-1-3.84,7.66,7.66,0,0,1,1-3.82,6.8,6.8,0,0,1,2.68-2.64,7.71,7.71,0,0,1,3.85-1,7.63,7.63,0,0,1,3.79.93,6.63,6.63,0,0,1,2.61,2.64,8,8,0,0,1,.94,3.92C1102.23,1590,1102.21,1590.31,1102.17,1590.75Zm-10-4.83a4.07,4.07,0,0,0-1.37,2.57H1099a4,4,0,0,0-1.34-2.55,4,4,0,0,0-2.77-1A4.1,4.1,0,0,0,1092.14,1585.92Z"/><path class="cls-2" d="M1118.79,1582.41l-6.22,14.5h-3.5l-6.22-14.5h3.53l4.51,10.75,4.64-10.75Z"/><path class="cls-2" d="M1132.33,1595.92a9.33,9.33,0,0,1-3.64-3.49,10.19,10.19,0,0,1,0-10,9.45,9.45,0,0,1,3.66-3.49,10.73,10.73,0,0,1,5.2-1.26,10.89,10.89,0,0,1,4.26.81,8.69,8.69,0,0,1,3.26,2.37l-2.28,2.14a6.68,6.68,0,0,0-5.08-2.23,7.12,7.12,0,0,0-3.5.86,6.15,6.15,0,0,0-2.42,2.38,7.26,7.26,0,0,0,0,6.89,6.15,6.15,0,0,0,2.42,2.38,7.12,7.12,0,0,0,3.5.86,6.64,6.64,0,0,0,5.08-2.26l2.28,2.17a8.73,8.73,0,0,1-3.27,2.37,11,11,0,0,1-4.28.81A10.73,10.73,0,0,1,1132.33,1595.92Z"/><path class="cls-2" d="M1387.79,1594v3h-14.26v-19h13.88v3h-10.35v4.94h9.18v2.91h-9.18V1594Z"/><path class="cls-2" d="M1391.4,1576.76h3.39v20.15h-3.39Z"/><path class="cls-2" d="M1412.83,1590.75h-11.38a4,4,0,0,0,1.56,2.54,5.15,5.15,0,0,0,3.14.93,5.3,5.3,0,0,0,3.94-1.57l1.81,2.09a6,6,0,0,1-2.47,1.76,9.76,9.76,0,0,1-7.57-.35,6.87,6.87,0,0,1-2.82-2.65,7.47,7.47,0,0,1-1-3.84,7.56,7.56,0,0,1,1-3.82,6.78,6.78,0,0,1,2.67-2.64,8.25,8.25,0,0,1,7.65,0,6.67,6.67,0,0,1,2.6,2.64,7.92,7.92,0,0,1,.94,3.92C1412.88,1590,1412.86,1590.31,1412.83,1590.75Zm-10-4.82a4,4,0,0,0-1.37,2.56h8.23a4.22,4.22,0,0,0-6.86-2.56Z"/><path class="cls-2" d="M1429.45,1582.41l-6.22,14.5h-3.5l-6.22-14.5H1417l4.5,10.75,4.65-10.75Z"/><path class="cls-2" d="M1439.39,1577.9h8.31a11.88,11.88,0,0,1,5.4,1.18,8.74,8.74,0,0,1,3.67,3.34,10.21,10.21,0,0,1,0,10,8.74,8.74,0,0,1-3.67,3.34,11.88,11.88,0,0,1-5.4,1.18h-8.31Zm8.14,16a8,8,0,0,0,3.68-.8,5.69,5.69,0,0,0,2.45-2.28,7.37,7.37,0,0,0,0-6.87,5.69,5.69,0,0,0-2.45-2.28,8.08,8.08,0,0,0-3.68-.8h-4.61v13Z"/><path class="cls-2" d="M1390.16,1208.32a8.68,8.68,0,0,1,5.4-1.66,7.91,7.91,0,0,1,6.87,3.42q2.41,3.42,2.42,10v17h-34.22v-16q0-6.06,2.37-9.33a7.61,7.61,0,0,1,6.53-3.28,8.63,8.63,0,0,1,4.5,1.17,8.13,8.13,0,0,1,3,3.23A9,9,0,0,1,1390.16,1208.32Zm-14.54,22.39h9.43v-9a9.13,9.13,0,0,0-1.2-5.11,3.93,3.93,0,0,0-3.49-1.79,4,4,0,0,0-3.54,1.79,9.13,9.13,0,0,0-1.2,5.11Zm19.3-17.65q-4.93,0-4.93,7.39v10.26h9.87v-10.26Q1399.86,1213.07,1394.92,1213.06Z"/><path class="cls-2" d="M1403.48,1195.86a12.45,12.45,0,0,1-4.77,5,14.19,14.19,0,0,1-13.8,0,12.47,12.47,0,0,1-4.75-5,15.84,15.84,0,0,1,0-14.32,12.47,12.47,0,0,1,4.75-5,14.19,14.19,0,0,1,13.8,0,12.45,12.45,0,0,1,4.77,5,15.84,15.84,0,0,1,0,14.32Zm-5.77-12.71a9.05,9.05,0,0,0-11.83,0,7.48,7.48,0,0,0-2.25,5.57,7.38,7.38,0,0,0,2.25,5.55,9.11,9.11,0,0,0,11.83,0,7.38,7.38,0,0,0,2.25-5.55A7.48,7.48,0,0,0,1397.71,1183.15Z"/><path class="cls-2" d="M1403.48,1164.33a12.38,12.38,0,0,1-4.77,5,14.19,14.19,0,0,1-13.8,0,12.4,12.4,0,0,1-4.75-5,15.84,15.84,0,0,1,0-14.32,12.47,12.47,0,0,1,4.75-5,14.26,14.26,0,0,1,13.8,0,12.45,12.45,0,0,1,4.77,5,15.84,15.84,0,0,1,0,14.32Zm-5.77-12.71a9.05,9.05,0,0,0-11.83,0,7.48,7.48,0,0,0-2.25,5.58,7.38,7.38,0,0,0,2.25,5.54,9.11,9.11,0,0,0,11.83,0,7.38,7.38,0,0,0,2.25-5.54A7.48,7.48,0,0,0,1397.71,1151.62Z"/><path class="cls-2" d="M1393.65,1126.74l4.31,4.55h6.89v6.11h-36.27v-6.11h21.9l-11.73-12.66v-7.33l11,10.9,15.15-11.93v7.43Z"/><path class="cls-2" d="M1404.36,1105.29a15.52,15.52,0,0,1-2.1,4.84l-4.65-2.35a15,15,0,0,0,1.89-4.23,17.57,17.57,0,0,0,.7-4.86q0-5.48-2.88-5.48a1.94,1.94,0,0,0-1.91,1.4,24.43,24.43,0,0,0-1,4.47,35.77,35.77,0,0,1-1.13,5.25,8,8,0,0,1-2.22,3.52,6.18,6.18,0,0,1-4.42,1.49,6.94,6.94,0,0,1-5.94-3.1q-2.23-3.1-2.23-8.38a24.66,24.66,0,0,1,.61-5.38,15.3,15.3,0,0,1,1.64-4.4l4.64,2.35a14.49,14.49,0,0,0-1.95,7.48,8.26,8.26,0,0,0,.81,4.08,2.38,2.38,0,0,0,2.12,1.39,2.13,2.13,0,0,0,2.08-1.49,23.44,23.44,0,0,0,1.15-4.62,36.74,36.74,0,0,1,1.12-5.13,8.08,8.08,0,0,1,2.15-3.45,6,6,0,0,1,4.31-1.44,6.8,6.8,0,0,1,5.86,3.18q2.21,3.18,2.2,8.65A23.54,23.54,0,0,1,1404.36,1105.29Z"/><path class="cls-2" d="M1403.43,1066.28a7.11,7.11,0,0,1,1.32,2.62,11.87,11.87,0,0,1,.44,3.25,9.21,9.21,0,0,1-2.25,6.64q-2.25,2.36-6.55,2.35h-12.56v4.3h-4.89v-4.3h-6V1075h6v-7h4.89v7h12.42a4.09,4.09,0,0,0,2.9-.93,3.48,3.48,0,0,0,1-2.69,5.34,5.34,0,0,0-1.08-3.42Z"/><path class="cls-2" d="M1381.21,1042.45c1.85-2,4.62-3,8.34-3h15.3v5.76h-3.18a7.17,7.17,0,0,1,2.62,3.21,12.53,12.53,0,0,1,.9,5,12.26,12.26,0,0,1-1,5.13,7.94,7.94,0,0,1-2.79,3.4,7,7,0,0,1-4,1.19,6.92,6.92,0,0,1-5.65-2.61q-2.12-2.61-2.12-8.24v-6.74h-.39a5.36,5.36,0,0,0-4.21,1.63,7.16,7.16,0,0,0-1.46,4.87,13.88,13.88,0,0,0,.68,4.32,10.64,10.64,0,0,0,1.91,3.6l-4.45,2.39a15,15,0,0,1-2.4-4.94,22.05,22.05,0,0,1-.83-6.11Q1378.45,1045.51,1381.21,1042.45Zm18.48,5.57a5.69,5.69,0,0,0-3-2.51h-3v6.3q0,5.28,3.48,5.28a3.11,3.11,0,0,0,2.63-1.32,6,6,0,0,0,1-3.66A7.91,7.91,0,0,0,1399.69,1048Z"/><path class="cls-2" d="M1403.48,1026.64a12.5,12.5,0,0,1-4.77,5,14.06,14.06,0,0,1-13.8,0,12.53,12.53,0,0,1-4.75-5,15.25,15.25,0,0,1-1.71-7.3,14,14,0,0,1,1.57-6.77,10.16,10.16,0,0,1,4.49-4.38l2.74,4.69a7.5,7.5,0,0,0-2.71,2.81,8.19,8.19,0,0,0,1.32,9.37,9,9,0,0,0,11.88,0,8.27,8.27,0,0,0,1.32-9.39,7.53,7.53,0,0,0-2.72-2.81l2.74-4.69a10.56,10.56,0,0,1,4.52,4.43,13.74,13.74,0,0,1,1.59,6.72A15.31,15.31,0,0,1,1403.48,1026.64Z"/><path class="cls-2" d="M1393.65,992.52l4.31,4.55h6.89v6.11h-36.27v-6.11h21.9l-11.73-12.66v-7.33l11,10.9,15.15-11.93v7.43Z"/><path class="cls-2" d="M1404.36,971.06a15.41,15.41,0,0,1-2.1,4.84l-4.65-2.34a15.26,15.26,0,0,0,1.89-4.23,17.69,17.69,0,0,0,.7-4.87c0-3.64-1-5.47-2.88-5.47a1.93,1.93,0,0,0-1.91,1.39,24.38,24.38,0,0,0-1,4.48,35.77,35.77,0,0,1-1.13,5.25,8,8,0,0,1-2.22,3.52,6.22,6.22,0,0,1-4.42,1.49,6.94,6.94,0,0,1-5.94-3.1q-2.23-3.1-2.23-8.39a24.57,24.57,0,0,1,.61-5.37,15.3,15.3,0,0,1,1.64-4.4l4.64,2.34a14.52,14.52,0,0,0-1.95,7.48,8.21,8.21,0,0,0,.81,4.08,2.39,2.39,0,0,0,2.12,1.4,2.13,2.13,0,0,0,2.08-1.49,23.83,23.83,0,0,0,1.15-4.62,36.41,36.41,0,0,1,1.12-5.13,8.08,8.08,0,0,1,2.15-3.45,6,6,0,0,1,4.31-1.44,6.82,6.82,0,0,1,5.86,3.17q2.21,3.18,2.2,8.66A23.52,23.52,0,0,1,1404.36,971.06Z"/><path class="cls-2" d="M1461.72,1233.45a16.91,16.91,0,0,1-6.31,6.6,18.2,18.2,0,0,1-18,0,16.91,16.91,0,0,1-6.31-6.6,20.74,20.74,0,0,1,0-18.87,17,17,0,0,1,6.28-6.6,18.31,18.31,0,0,1,18.09,0,17,17,0,0,1,6.28,6.6,20.74,20.74,0,0,1,0,18.87Zm-4.84-15.59a11.2,11.2,0,0,0-4.3-4.31,13,13,0,0,0-12.37,0,11.2,11.2,0,0,0-4.3,4.31,13.07,13.07,0,0,0,0,12.31,11.11,11.11,0,0,0,4.3,4.3,13,13,0,0,0,12.37,0,11.11,11.11,0,0,0,4.3-4.3,13.07,13.07,0,0,0,0-12.31Z"/><path class="cls-2" d="M1436,1192.68h1.57v-7.18h4.89v7h21v6.11h-21v4.3h-4.89v-4.3h-1.66a8.9,8.9,0,0,1-6.63-2.45,11.2,11.2,0,0,1-1-12.41l4.59,1.71a5.88,5.88,0,0,0-1.07,3.37C1431.83,1191.4,1433.23,1192.68,1436,1192.68Z"/><path class="cls-2" d="M1432.05,1159.15a3.61,3.61,0,0,1-5.23,0,3.93,3.93,0,0,1-1-2.79,4,4,0,0,1,1-2.78,3.24,3.24,0,0,1,2.52-1.13,3.7,3.7,0,0,1,2.71,1.1,3.83,3.83,0,0,1,1.1,2.81A3.93,3.93,0,0,1,1432.05,1159.15Zm4,15.5h1.57v-7.19h4.89v7h21v6.11h-21v4.3h-4.89v-4.3h-1.66a8.89,8.89,0,0,1-6.63-2.44,11.21,11.21,0,0,1-1-12.42l4.59,1.71a5.91,5.91,0,0,0-1.07,3.37Q1431.83,1174.65,1436,1174.65Zm1.37-15.21v-6.11h26.1v6.11Z"/><path class="cls-2" d="M1462.13,1140.63a12.41,12.41,0,0,1-4.76,5,13.28,13.28,0,0,1-6.92,1.81,13.15,13.15,0,0,1-6.89-1.81,12.58,12.58,0,0,1-4.74-5,15.26,15.26,0,0,1-1.71-7.31,14.12,14.12,0,0,1,1.56-6.77,10.16,10.16,0,0,1,4.5-4.37l2.74,4.69a7.53,7.53,0,0,0-2.72,2.81,8.22,8.22,0,0,0,1.32,9.36,9,9,0,0,0,11.88,0,8.22,8.22,0,0,0,1.32-9.39,7.5,7.5,0,0,0-2.71-2.81l2.74-4.69a10.59,10.59,0,0,1,4.52,4.42,13.79,13.79,0,0,1,1.59,6.72A15.21,15.21,0,0,1,1462.13,1140.63Z"/><path class="cls-2" d="M1452.41,1092.87v20.48a7.11,7.11,0,0,0,4.57-2.81,9.26,9.26,0,0,0,1.68-5.65,9.49,9.49,0,0,0-2.83-7.08l3.76-3.28a11.06,11.06,0,0,1,3.18,4.45,17.55,17.55,0,0,1-.64,13.64,12.25,12.25,0,0,1-4.76,5.06,13.46,13.46,0,0,1-6.92,1.78,13.68,13.68,0,0,1-6.86-1.73,12.35,12.35,0,0,1-4.77-4.82,14.05,14.05,0,0,1-1.71-6.94,13.76,13.76,0,0,1,1.68-6.82,12,12,0,0,1,4.75-4.69,14.29,14.29,0,0,1,7.06-1.69C1451,1092.77,1451.63,1092.81,1452.41,1092.87Zm-8.68,18.06a7.31,7.31,0,0,0,4.62,2.47v-14.81A7.13,7.13,0,0,0,1442,1106,7.38,7.38,0,0,0,1443.73,1110.93Z"/><path class="cls-2" d="M1455.73,1044.77v6.06h7.77V1057h-7.77v18.77h-4.4l-22-16.86v-6.79l21.06,15.88V1056.8h-6.89v-6h6.89v-6.06Z"/><path class="cls-2" d="M1461.92,1035.14a14,14,0,0,1-6.07,5.09,25,25,0,0,1-18.91,0,13.93,13.93,0,0,1-6.06-5.09,14,14,0,0,1,0-14.68,13.91,13.91,0,0,1,6.06-5.11,25,25,0,0,1,18.91,0,14,14,0,0,1,6.07,5.11,14,14,0,0,1,0,14.68Zm-6.48-13.12c-2-1.42-5-2.13-9-2.13s-7,.71-9.05,2.13a7,7,0,0,0,0,11.54q3,2.12,9.05,2.12c4,0,7-.71,9-2.12a7,7,0,0,0,0-11.54Z"/><path class="cls-2" d="M1443.68,987.58a9.84,9.84,0,0,1,9.22-5.71,10.35,10.35,0,0,1,5.84,1.66,11,11,0,0,1,3.88,4.49,14.37,14.37,0,0,1,1.37,6.36q0,7-4.4,10.92t-12.61,3.89a21.32,21.32,0,0,1-9.85-2.1,14.62,14.62,0,0,1-6.21-5.89,17.72,17.72,0,0,1-2.12-8.78,21.29,21.29,0,0,1,.56-5,13.61,13.61,0,0,1,1.64-4l4.79,2.35a11.64,11.64,0,0,0-1.66,6.5,10,10,0,0,0,3,7.72c2,1.86,4.93,2.79,8.75,2.79h0a9.5,9.5,0,0,1-2.67-3.87,14.6,14.6,0,0,1-.9-5.27A13.89,13.89,0,0,1,1443.68,987.58Zm13.74,2.3a5.76,5.76,0,0,0-8.48,0,8.53,8.53,0,0,0,.1,10,5.51,5.51,0,0,0,8.33,0,7.69,7.69,0,0,0,1.64-5.21A7.18,7.18,0,0,0,1457.42,989.88Z"/><path class="cls-2" d="M1448.82,952.22a8.3,8.3,0,0,1,4.86-1.44,9,9,0,0,1,5.47,1.73,10.84,10.84,0,0,1,3.6,4.92,22.49,22.49,0,0,1,0,14.73,10.64,10.64,0,0,1-3.6,4.87,9,9,0,0,1-5.47,1.71,8.36,8.36,0,0,1-4.86-1.42,9.6,9.6,0,0,1-3.3-4.06,8.22,8.22,0,0,1-3,3.16,8.08,8.08,0,0,1-4.23,1.1,8.22,8.22,0,0,1-5-1.59,10.08,10.08,0,0,1-3.33-4.48,17.53,17.53,0,0,1-1.17-6.64,17.74,17.74,0,0,1,1.17-6.7,10.32,10.32,0,0,1,3.33-4.5,8.17,8.17,0,0,1,5-1.61,7.84,7.84,0,0,1,4.2,1.12,8.74,8.74,0,0,1,3,3.23A9.76,9.76,0,0,1,1448.82,952.22Zm-13.76,17.3a4.45,4.45,0,0,0,7.06,0,7.72,7.72,0,0,0,1.29-4.71,7.94,7.94,0,0,0-1.29-4.79,4.4,4.4,0,0,0-7.06,0,8,8,0,0,0-1.28,4.77A7.79,7.79,0,0,0,1435.06,969.52Zm22.48-10.29a4.73,4.73,0,0,0-4.06-2.05,4.67,4.67,0,0,0-4,2.05,9.42,9.42,0,0,0-1.47,5.58,9.18,9.18,0,0,0,1.47,5.52,4.67,4.67,0,0,0,4,2,4.74,4.74,0,0,0,4.06-2,9.18,9.18,0,0,0,1.47-5.52A9.42,9.42,0,0,0,1457.54,959.23Z"/><path class="cls-2" d="M215.36,412.45l-7-10c-.3,0-.74.05-1.32.05h-7.73v10H193V378.23h14.08a18.88,18.88,0,0,1,7.74,1.47,11.29,11.29,0,0,1,5.06,4.2,11.74,11.74,0,0,1,1.76,6.51,11.52,11.52,0,0,1-1.88,6.64,11.13,11.13,0,0,1-5.4,4.16l7.87,11.24Zm-2.3-27.08q-2.16-1.75-6.31-1.76h-7.43v13.64h7.43q4.16,0,6.31-1.79a7,7,0,0,0,0-10.09Z"/><path class="cls-2" d="M252.56,401.36H232.07a7.15,7.15,0,0,0,2.81,4.57,9.26,9.26,0,0,0,5.65,1.68,9.52,9.52,0,0,0,7.09-2.83l3.27,3.76a11,11,0,0,1-4.44,3.18,17.67,17.67,0,0,1-13.64-.64,12.31,12.31,0,0,1-5.06-4.76A13.49,13.49,0,0,1,226,399.4a13.65,13.65,0,0,1,1.74-6.87,12.36,12.36,0,0,1,4.81-4.76,14.1,14.1,0,0,1,7-1.72,13.7,13.7,0,0,1,6.81,1.69,12,12,0,0,1,4.7,4.74,14.44,14.44,0,0,1,1.68,7.07C252.65,400,252.62,400.57,252.56,401.36Zm-18.07-8.68A7.36,7.36,0,0,0,232,397.3h14.82a7.22,7.22,0,0,0-2.4-4.6,7.31,7.31,0,0,0-5-1.76A7.39,7.39,0,0,0,234.49,392.68Z"/><path class="cls-2" d="M260.38,412a15.41,15.41,0,0,1-4.84-2.1l2.34-4.64a15.25,15.25,0,0,0,4.23,1.88,17.71,17.71,0,0,0,4.87.71q5.47,0,5.47-2.89a1.92,1.92,0,0,0-1.39-1.9,24.26,24.26,0,0,0-4.47-1,35.81,35.81,0,0,1-5.26-1.12,8.12,8.12,0,0,1-3.52-2.23,6.22,6.22,0,0,1-1.49-4.42,6.94,6.94,0,0,1,3.1-5.94,14.17,14.17,0,0,1,8.39-2.23,24,24,0,0,1,5.37.62,15.09,15.09,0,0,1,4.41,1.63L275.24,393a14.43,14.43,0,0,0-7.48-2,8.26,8.26,0,0,0-4.08.81,2.41,2.41,0,0,0-1.4,2.12,2.12,2.12,0,0,0,1.49,2.08,23.83,23.83,0,0,0,4.62,1.15,35.37,35.37,0,0,1,5.14,1.13,8,8,0,0,1,3.44,2.15,6,6,0,0,1,1.45,4.3,6.79,6.79,0,0,1-3.18,5.86q-3.18,2.21-8.65,2.2A23.13,23.13,0,0,1,260.38,412Z"/><path class="cls-2" d="M308.14,401.36H287.65a7.15,7.15,0,0,0,2.81,4.57,9.26,9.26,0,0,0,5.65,1.68,9.52,9.52,0,0,0,7.09-2.83l3.27,3.76a11,11,0,0,1-4.44,3.18,17.67,17.67,0,0,1-13.64-.64,12.31,12.31,0,0,1-5.06-4.76,13.49,13.49,0,0,1-1.79-6.92,13.65,13.65,0,0,1,1.74-6.87,12.36,12.36,0,0,1,4.81-4.76,14.1,14.1,0,0,1,7-1.72,13.7,13.7,0,0,1,6.81,1.69,12,12,0,0,1,4.7,4.74,14.44,14.44,0,0,1,1.68,7.07C308.23,400,308.2,400.57,308.14,401.36Zm-18.07-8.68a7.36,7.36,0,0,0-2.47,4.62h14.82a7.22,7.22,0,0,0-2.4-4.6,7.31,7.31,0,0,0-5-1.76A7.39,7.39,0,0,0,290.07,392.68Z"/><path class="cls-2" d="M332.16,388.82q3.06,2.76,3.06,8.33v15.3h-5.77v-3.18a7.06,7.06,0,0,1-3.2,2.62,12.6,12.6,0,0,1-5,.9,12.28,12.28,0,0,1-5.14-1,7.89,7.89,0,0,1-3.39-2.78,7.08,7.08,0,0,1-1.2-4,6.9,6.9,0,0,1,2.61-5.64c1.75-1.42,4.49-2.13,8.24-2.13h6.75v-.39a5.33,5.33,0,0,0-1.64-4.2,7.06,7.06,0,0,0-4.86-1.47,14.24,14.24,0,0,0-4.33.68,10.77,10.77,0,0,0-3.59,1.91l-2.4-4.45a14.86,14.86,0,0,1,4.94-2.39,21.74,21.74,0,0,1,6.11-.84C327.18,386.05,330.13,387,332.16,388.82Zm-5.57,18.47a5.72,5.72,0,0,0,2.52-3v-3H322.8c-3.52,0-5.28,1.15-5.28,3.47a3.11,3.11,0,0,0,1.32,2.64,6.06,6.06,0,0,0,3.67,1A7.81,7.81,0,0,0,326.59,407.29Z"/><path class="cls-2" d="M358.14,386.05v5.82a8.26,8.26,0,0,0-7,1.93,8.32,8.32,0,0,0-2,6v12.66H343v-26.1h5.82v3.81Q351.5,386.05,358.14,386.05Z"/><path class="cls-2" d="M367.77,411.08a12.55,12.55,0,0,1-5-4.76,13.31,13.31,0,0,1-1.81-6.92,13.15,13.15,0,0,1,1.81-6.89,12.58,12.58,0,0,1,5-4.74,15.26,15.26,0,0,1,7.31-1.72,14.13,14.13,0,0,1,6.77,1.57,10.06,10.06,0,0,1,4.37,4.5l-4.69,2.73a7.5,7.5,0,0,0-2.81-2.71,8.22,8.22,0,0,0-9.36,1.32,9,9,0,0,0,0,11.88,8.27,8.27,0,0,0,9.39,1.32,7.5,7.5,0,0,0,2.81-2.71l4.69,2.73a10.56,10.56,0,0,1-4.42,4.53,13.9,13.9,0,0,1-6.72,1.58A15.32,15.32,0,0,1,367.77,411.08Z"/><path class="cls-2" d="M414,388.94q3,2.88,3,8.55v15h-6.11V398.28a7.35,7.35,0,0,0-1.61-5.16,6,6,0,0,0-4.6-1.74,7.08,7.08,0,0,0-5.33,2,8.1,8.1,0,0,0-1.95,5.84v13.2h-6.11V376.18h6.11v13.2a9.83,9.83,0,0,1,3.74-2.47,13.69,13.69,0,0,1,5-.86A10.93,10.93,0,0,1,414,388.94Z"/><path class="cls-2" d="M441.76,411.82a15.92,15.92,0,0,1-5.84-3l2.2-4.93a17.29,17.29,0,0,0,5.15,2.71,18.83,18.83,0,0,0,6.14,1.05,10.62,10.62,0,0,0,5.69-1.22,3.7,3.7,0,0,0,1.89-3.23,3.1,3.1,0,0,0-1.06-2.42,7.42,7.42,0,0,0-2.66-1.49c-1.07-.36-2.54-.76-4.4-1.22a50.91,50.91,0,0,1-6.33-1.86,10.39,10.39,0,0,1-4.15-2.91,7.81,7.81,0,0,1-1.74-5.35,9.12,9.12,0,0,1,1.54-5.16,10.53,10.53,0,0,1,4.64-3.69,18.9,18.9,0,0,1,7.61-1.37,24.58,24.58,0,0,1,6.15.79,17.16,17.16,0,0,1,5.24,2.24l-2,4.94a19.9,19.9,0,0,0-4.69-2,17.42,17.42,0,0,0-4.74-.69,10,10,0,0,0-5.6,1.27,3.94,3.94,0,0,0-1.83,3.38,3,3,0,0,0,1.05,2.39,7.63,7.63,0,0,0,2.66,1.47c1.08.36,2.54.77,4.4,1.22a47.85,47.85,0,0,1,6.26,1.83,10.82,10.82,0,0,1,4.18,2.91,7.72,7.72,0,0,1,1.73,5.28,9,9,0,0,1-1.54,5.14,10.4,10.4,0,0,1-4.67,3.66,19,19,0,0,1-7.62,1.37A26.08,26.08,0,0,1,441.76,411.82Z"/><path class="cls-2" d="M484.65,411a7,7,0,0,1-2.61,1.32,11.55,11.55,0,0,1-3.25.44,9.26,9.26,0,0,1-6.65-2.24c-1.56-1.5-2.35-3.69-2.35-6.56V391.43h-4.3v-4.89h4.3v-6h6.11v6h7v4.89h-7v12.42a4.14,4.14,0,0,0,.93,2.91,3.49,3.49,0,0,0,2.69,1,5.34,5.34,0,0,0,3.42-1.08Z"/><path class="cls-2" d="M515,386.35v26.1h-5.82v-3.32a9.66,9.66,0,0,1-3.66,2.71,11.74,11.74,0,0,1-4.74,1q-5.24,0-8.24-2.9c-2-1.94-3-4.82-3-8.63V386.35h6.11v14.08a7.56,7.56,0,0,0,1.59,5.25,5.82,5.82,0,0,0,4.52,1.74,6.86,6.86,0,0,0,5.21-2,8.13,8.13,0,0,0,1.93-5.84v-13.2Z"/><path class="cls-2" d="M548.54,376.18v36.27h-5.86v-3.37a9.47,9.47,0,0,1-3.74,2.79,12.78,12.78,0,0,1-4.91.92,13.78,13.78,0,0,1-6.78-1.66,12,12,0,0,1-4.71-4.72,15.18,15.18,0,0,1,0-14,11.94,11.94,0,0,1,4.71-4.69,13.79,13.79,0,0,1,6.78-1.67,12.58,12.58,0,0,1,4.74.88,9.61,9.61,0,0,1,3.66,2.64V376.18Zm-9.82,30.38a7.22,7.22,0,0,0,2.78-2.86,9.49,9.49,0,0,0,0-8.6,7.22,7.22,0,0,0-2.78-2.86,8.34,8.34,0,0,0-7.92,0A7.31,7.31,0,0,0,528,395.1a9.57,9.57,0,0,0,0,8.6,7.31,7.31,0,0,0,2.79,2.86,8.34,8.34,0,0,0,7.92,0Z"/><path class="cls-2" d="M556.85,381a3.62,3.62,0,0,1,0-5.24,3.93,3.93,0,0,1,2.79-1.05,4,4,0,0,1,2.79,1,3.2,3.2,0,0,1,1.12,2.51,3.72,3.72,0,0,1-1.1,2.72,3.81,3.81,0,0,1-2.81,1.1A3.93,3.93,0,0,1,556.85,381Zm-.29,5.35h6.11v26.1h-6.11Z"/><path class="cls-2" d="M595.13,401.36H574.65a7.07,7.07,0,0,0,2.81,4.57,9.23,9.23,0,0,0,5.64,1.68,9.5,9.5,0,0,0,7.09-2.83l3.28,3.76a11.15,11.15,0,0,1-4.45,3.18,17.67,17.67,0,0,1-13.64-.64,12.37,12.37,0,0,1-5.06-4.76,13.48,13.48,0,0,1-1.78-6.92,13.64,13.64,0,0,1,1.73-6.87,12.32,12.32,0,0,1,4.82-4.76,14,14,0,0,1,6.94-1.72,13.77,13.77,0,0,1,6.82,1.69,12,12,0,0,1,4.69,4.74,14.33,14.33,0,0,1,1.69,7.07C595.23,400,595.19,400.57,595.13,401.36Zm-18.06-8.68a7.27,7.27,0,0,0-2.47,4.62h14.81a7.14,7.14,0,0,0-7.38-6.36A7.34,7.34,0,0,0,577.07,392.68Z"/><path class="cls-2" d="M603,412a15.52,15.52,0,0,1-4.84-2.1l2.35-4.64a15,15,0,0,0,4.23,1.88,17.59,17.59,0,0,0,4.86.71q5.48,0,5.47-2.89a1.92,1.92,0,0,0-1.39-1.9,24.26,24.26,0,0,0-4.47-1,36.4,36.4,0,0,1-5.26-1.12,8.18,8.18,0,0,1-3.52-2.23,6.22,6.22,0,0,1-1.49-4.42,7,7,0,0,1,3.11-5.94,14.14,14.14,0,0,1,8.38-2.23,24.08,24.08,0,0,1,5.38.62,15,15,0,0,1,4.4,1.63L617.81,393a14.43,14.43,0,0,0-7.48-2,8.26,8.26,0,0,0-4.08.81,2.39,2.39,0,0,0-1.39,2.12,2.11,2.11,0,0,0,1.49,2.08,23.44,23.44,0,0,0,4.62,1.15,35.5,35.5,0,0,1,5.13,1.13,8,8,0,0,1,3.45,2.15,6,6,0,0,1,1.44,4.3,6.79,6.79,0,0,1-3.18,5.86q-3.18,2.21-8.65,2.2A23.13,23.13,0,0,1,603,412Z"/><path class="cls-2" d="M668.41,404.68h-6.07v7.77h-6.16v-7.77H637.41v-4.4l16.87-22h6.79L645.18,399.3h11.2v-6.89h6v6.89h6.07Z"/><path class="cls-2" d="M678,410.86A14,14,0,0,1,673,404.8a25,25,0,0,1,0-18.92,14.1,14.1,0,0,1,5.08-6.06,14,14,0,0,1,14.69,0,14,14,0,0,1,5.11,6.06,25,25,0,0,1,0,18.92,13.91,13.91,0,0,1-5.11,6.06,14,14,0,0,1-14.69,0Zm13.13-6.47q2.13-3,2.13-9.05t-2.13-9a7,7,0,0,0-11.54,0q-2.11,3-2.12,9t2.12,9.05a7,7,0,0,0,11.54,0Z"/><path class="cls-2" d="M728.53,407.07v5.38H703.31V408.2l13.59-12.91a14.89,14.89,0,0,0,3.1-3.83,7.32,7.32,0,0,0,.81-3.25,4.39,4.39,0,0,0-1.62-3.67,7.51,7.51,0,0,0-4.74-1.27,9.54,9.54,0,0,0-8,3.57L702,383.42a13,13,0,0,1,5.4-4.18,18.61,18.61,0,0,1,7.6-1.5c3.72,0,6.68.88,8.9,2.64a8.71,8.71,0,0,1,3.32,7.19A12,12,0,0,1,726,392.8a20.22,20.22,0,0,1-4.5,5.57l-9.14,8.7Z"/><path class="cls-2" d="M757,407.07v5.38H731.76V408.2l13.59-12.91a14.89,14.89,0,0,0,3.1-3.83,7.32,7.32,0,0,0,.81-3.25,4.39,4.39,0,0,0-1.62-3.67,7.51,7.51,0,0,0-4.74-1.27,9.55,9.55,0,0,0-8,3.57l-4.45-3.42a13,13,0,0,1,5.4-4.18,18.61,18.61,0,0,1,7.6-1.5c3.72,0,6.68.88,8.9,2.64a8.71,8.71,0,0,1,3.32,7.19,12,12,0,0,1-1.17,5.23,20.22,20.22,0,0,1-4.5,5.57l-9.14,8.7Z"/><path class="cls-2" d="M772,396.86h24.44v4H772Z"/><path class="cls-2" d="M842.57,404.68h-6.06v7.77h-6.16v-7.77H811.58v-4.4l16.87-22h6.79L819.35,399.3h11.2v-6.89h6v6.89h6.06Z"/><path class="cls-2" d="M852.2,410.86a14,14,0,0,1-5.08-6.06,25,25,0,0,1,0-18.92,14.1,14.1,0,0,1,5.08-6.06,14,14,0,0,1,14.69,0,14,14,0,0,1,5.11,6.06,25,25,0,0,1,0,18.92,13.91,13.91,0,0,1-5.11,6.06,14,14,0,0,1-14.69,0Zm13.13-6.47c1.42-2,2.12-5,2.12-9.05s-.7-7-2.12-9a7,7,0,0,0-11.54,0c-1.42,2-2.12,5-2.12,9s.7,7,2.12,9.05a7,7,0,0,0,11.54,0Z"/><path class="cls-2" d="M885.1,410.86A13.92,13.92,0,0,1,880,404.8a25,25,0,0,1,0-18.92,14,14,0,0,1,5.08-6.06,14,14,0,0,1,14.69,0,14,14,0,0,1,5.11,6.06,25,25,0,0,1,0,18.92,13.91,13.91,0,0,1-5.11,6.06,14,14,0,0,1-14.69,0Zm13.13-6.47q2.12-3,2.12-9.05t-2.12-9a7,7,0,0,0-11.54,0q-2.13,3-2.13,9t2.13,9.05a7,7,0,0,0,11.54,0Z"/><path class="cls-2" d="M932.47,394.29a9.35,9.35,0,0,1,3.47,7.65,10.52,10.52,0,0,1-1.52,5.57,10.36,10.36,0,0,1-4.54,4,17.08,17.08,0,0,1-7.48,1.47,24,24,0,0,1-7.09-1.05,17.48,17.48,0,0,1-5.77-2.91l2.69-4.94a14.19,14.19,0,0,0,4.57,2.47,16.83,16.83,0,0,0,5.5.91,8.87,8.87,0,0,0,5.3-1.4,4.81,4.81,0,0,0-.14-7.82q-2.09-1.33-7.11-1.34h-8.27l1.76-18.63h20.09v5.33H919.22l-.73,7.92h3.27C926.59,391.48,930.15,392.42,932.47,394.29Z"/><path class="cls-2" d="M1611.6,412.45l-7-10c-.3,0-.74.05-1.32.05h-7.73v10h-6.35V378.23h14.08a18.93,18.93,0,0,1,7.75,1.47,11.26,11.26,0,0,1,5,4.2,11.74,11.74,0,0,1,1.76,6.51,11.52,11.52,0,0,1-1.88,6.64,11.13,11.13,0,0,1-5.4,4.16l7.87,11.24Zm-2.3-27.08c-1.43-1.17-3.54-1.76-6.31-1.76h-7.43v13.64H1603c2.77,0,4.88-.6,6.31-1.79a7,7,0,0,0,0-10.09Z"/><path class="cls-2" d="M1648.8,401.36h-20.48a7.07,7.07,0,0,0,2.81,4.57,9.21,9.21,0,0,0,5.64,1.68,9.52,9.52,0,0,0,7.09-2.83l3.28,3.76a11.15,11.15,0,0,1-4.45,3.18,17.67,17.67,0,0,1-13.64-.64,12.31,12.31,0,0,1-5.06-4.76,13.49,13.49,0,0,1-1.79-6.92,13.65,13.65,0,0,1,1.74-6.87,12.36,12.36,0,0,1,4.81-4.76,14.1,14.1,0,0,1,7-1.72,13.77,13.77,0,0,1,6.82,1.69,12,12,0,0,1,4.69,4.74,14.44,14.44,0,0,1,1.69,7.07C1648.9,400,1648.86,400.57,1648.8,401.36Zm-18.06-8.68a7.27,7.27,0,0,0-2.47,4.62h14.81a7.14,7.14,0,0,0-7.38-6.36A7.34,7.34,0,0,0,1630.74,392.68Z"/><path class="cls-2" d="M1656.62,412a15.41,15.41,0,0,1-4.84-2.1l2.35-4.64a15,15,0,0,0,4.22,1.88,17.71,17.71,0,0,0,4.87.71q5.47,0,5.47-2.89a1.92,1.92,0,0,0-1.39-1.9,24.26,24.26,0,0,0-4.47-1,36.1,36.1,0,0,1-5.26-1.12,8.18,8.18,0,0,1-3.52-2.23,6.22,6.22,0,0,1-1.49-4.42,6.93,6.93,0,0,1,3.11-5.94,14.12,14.12,0,0,1,8.38-2.23,24.14,24.14,0,0,1,5.38.62,15.13,15.13,0,0,1,4.4,1.63l-2.35,4.65a14.43,14.43,0,0,0-7.48-2,8.26,8.26,0,0,0-4.08.81,2.41,2.41,0,0,0-1.4,2.12A2.12,2.12,0,0,0,1660,396a23.44,23.44,0,0,0,4.62,1.15,35.5,35.5,0,0,1,5.13,1.13,8,8,0,0,1,3.44,2.15,6,6,0,0,1,1.45,4.3,6.79,6.79,0,0,1-3.18,5.86q-3.18,2.21-8.65,2.2A23.13,23.13,0,0,1,1656.62,412Z"/><path class="cls-2" d="M1704.38,401.36H1683.9a7.07,7.07,0,0,0,2.81,4.57,9.21,9.21,0,0,0,5.64,1.68,9.52,9.52,0,0,0,7.09-2.83l3.28,3.76a11.15,11.15,0,0,1-4.45,3.18,17.67,17.67,0,0,1-13.64-.64,12.31,12.31,0,0,1-5.06-4.76,13.49,13.49,0,0,1-1.79-6.92,13.65,13.65,0,0,1,1.74-6.87,12.32,12.32,0,0,1,4.82-4.76,14,14,0,0,1,6.94-1.72,13.77,13.77,0,0,1,6.82,1.69,12,12,0,0,1,4.69,4.74,14.44,14.44,0,0,1,1.69,7.07C1704.48,400,1704.44,400.57,1704.38,401.36Zm-18.06-8.68a7.27,7.27,0,0,0-2.47,4.62h14.81a7.14,7.14,0,0,0-7.38-6.36A7.34,7.34,0,0,0,1686.32,392.68Z"/><path class="cls-2" d="M1728.4,388.82q3.06,2.76,3.06,8.33v15.3h-5.77v-3.18a7.06,7.06,0,0,1-3.2,2.62,12.6,12.6,0,0,1-5,.9,12.28,12.28,0,0,1-5.14-1A8,8,0,0,1,1709,409a7.08,7.08,0,0,1-1.2-4,6.88,6.88,0,0,1,2.62-5.64q2.61-2.13,8.23-2.13h6.75v-.39a5.33,5.33,0,0,0-1.64-4.2,7.06,7.06,0,0,0-4.86-1.47,14.24,14.24,0,0,0-4.33.68,10.77,10.77,0,0,0-3.59,1.91l-2.4-4.45a14.86,14.86,0,0,1,4.94-2.39,21.74,21.74,0,0,1,6.11-.84C1723.42,386.05,1726.37,387,1728.4,388.82Zm-5.57,18.47a5.72,5.72,0,0,0,2.52-3v-3H1719c-3.52,0-5.28,1.15-5.28,3.47a3.11,3.11,0,0,0,1.32,2.64,6.06,6.06,0,0,0,3.67,1A7.81,7.81,0,0,0,1722.83,407.29Z"/><path class="cls-2" d="M1754.38,386.05v5.82a8.26,8.26,0,0,0-7,1.93,8.32,8.32,0,0,0-2,6v12.66h-6.11v-26.1h5.82v3.81Q1747.74,386.05,1754.38,386.05Z"/><path class="cls-2" d="M1764,411.08a12.61,12.61,0,0,1-5-4.76,13.31,13.31,0,0,1-1.81-6.92,13.15,13.15,0,0,1,1.81-6.89,12.71,12.71,0,0,1,5-4.74,15.29,15.29,0,0,1,7.31-1.72,14.13,14.13,0,0,1,6.77,1.57,10.06,10.06,0,0,1,4.37,4.5l-4.69,2.73a7.43,7.43,0,0,0-2.81-2.71,8.22,8.22,0,0,0-9.36,1.32,9,9,0,0,0,0,11.88,8.25,8.25,0,0,0,9.38,1.32,7.43,7.43,0,0,0,2.81-2.71l4.69,2.73a10.56,10.56,0,0,1-4.42,4.53,13.9,13.9,0,0,1-6.72,1.58A15.35,15.35,0,0,1,1764,411.08Z"/><path class="cls-2" d="M1810.21,388.94q3,2.88,3,8.55v15h-6.11V398.28a7.35,7.35,0,0,0-1.61-5.16,6,6,0,0,0-4.6-1.74,7.05,7.05,0,0,0-5.32,2,8.06,8.06,0,0,0-2,5.84v13.2h-6.11V376.18h6.11v13.2a9.91,9.91,0,0,1,3.74-2.47,13.73,13.73,0,0,1,5-.86A10.93,10.93,0,0,1,1810.21,388.94Z"/><path class="cls-2" d="M1838,411.82a15.92,15.92,0,0,1-5.84-3l2.2-4.93a17.29,17.29,0,0,0,5.15,2.71,18.83,18.83,0,0,0,6.14,1.05,10.62,10.62,0,0,0,5.69-1.22,3.7,3.7,0,0,0,1.89-3.23,3.13,3.13,0,0,0-1-2.42,7.55,7.55,0,0,0-2.67-1.49c-1.07-.36-2.54-.76-4.4-1.22a51.43,51.43,0,0,1-6.33-1.86,10.39,10.39,0,0,1-4.15-2.91,7.81,7.81,0,0,1-1.74-5.35,9.2,9.2,0,0,1,1.54-5.16,10.5,10.5,0,0,1,4.65-3.69,18.81,18.81,0,0,1,7.6-1.37,24.66,24.66,0,0,1,6.16.79,17.21,17.21,0,0,1,5.23,2.24l-2,4.94a19.9,19.9,0,0,0-4.69-2,17.42,17.42,0,0,0-4.74-.69,10,10,0,0,0-5.6,1.27,3.94,3.94,0,0,0-1.83,3.38,3,3,0,0,0,1,2.39,7.63,7.63,0,0,0,2.66,1.47c1.08.36,2.54.77,4.4,1.22a47.85,47.85,0,0,1,6.26,1.83,10.82,10.82,0,0,1,4.18,2.91,7.67,7.67,0,0,1,1.73,5.28,9,9,0,0,1-1.54,5.14,10.43,10.43,0,0,1-4.66,3.66,19.06,19.06,0,0,1-7.63,1.37A26.08,26.08,0,0,1,1838,411.82Z"/><path class="cls-2" d="M1880.9,411a7.11,7.11,0,0,1-2.62,1.32,11.55,11.55,0,0,1-3.25.44,9.26,9.26,0,0,1-6.65-2.24c-1.56-1.5-2.35-3.69-2.35-6.56V391.43h-4.3v-4.89h4.3v-6h6.11v6h7v4.89h-7v12.42a4.14,4.14,0,0,0,.93,2.91,3.49,3.49,0,0,0,2.69,1,5.34,5.34,0,0,0,3.42-1.08Z"/><path class="cls-2" d="M1911.2,386.35v26.1h-5.81v-3.32a9.7,9.7,0,0,1-3.67,2.71,11.74,11.74,0,0,1-4.74,1,11.39,11.39,0,0,1-8.24-2.9c-2-1.94-3-4.82-3-8.63V386.35h6.11v14.08a7.56,7.56,0,0,0,1.59,5.25,5.83,5.83,0,0,0,4.53,1.74,6.85,6.85,0,0,0,5.2-2,8.13,8.13,0,0,0,1.93-5.84v-13.2Z"/><path class="cls-2" d="M1944.79,376.18v36.27h-5.87v-3.37a9.47,9.47,0,0,1-3.74,2.79,12.78,12.78,0,0,1-4.91.92,13.72,13.72,0,0,1-6.77-1.66,11.91,11.91,0,0,1-4.72-4.72,15.18,15.18,0,0,1,0-14,11.9,11.9,0,0,1,4.72-4.69,13.72,13.72,0,0,1,6.77-1.67,12.58,12.58,0,0,1,4.74.88,9.54,9.54,0,0,1,3.66,2.64V376.18ZM1935,406.56a7.31,7.31,0,0,0,2.79-2.86,9.57,9.57,0,0,0,0-8.6,7.31,7.31,0,0,0-2.79-2.86,8.34,8.34,0,0,0-7.92,0,7.31,7.31,0,0,0-2.79,2.86,9.57,9.57,0,0,0,0,8.6,7.31,7.31,0,0,0,2.79,2.86,8.34,8.34,0,0,0,7.92,0Z"/><path class="cls-2" d="M1953.1,381a3.6,3.6,0,0,1,0-5.24,3.89,3.89,0,0,1,2.78-1.05,4,4,0,0,1,2.79,1,3.2,3.2,0,0,1,1.12,2.51,3.68,3.68,0,0,1-1.1,2.72,3.81,3.81,0,0,1-2.81,1.1A3.89,3.89,0,0,1,1953.1,381Zm-.3,5.35h6.11v26.1h-6.11Z"/><path class="cls-2" d="M1991.37,401.36h-20.48a7.11,7.11,0,0,0,2.81,4.57,9.23,9.23,0,0,0,5.64,1.68,9.5,9.5,0,0,0,7.09-2.83l3.28,3.76a11.08,11.08,0,0,1-4.45,3.18,17.67,17.67,0,0,1-13.64-.64,12.37,12.37,0,0,1-5.06-4.76,13.48,13.48,0,0,1-1.78-6.92,13.75,13.75,0,0,1,1.73-6.87,12.39,12.39,0,0,1,4.82-4.76,14,14,0,0,1,6.94-1.72,13.74,13.74,0,0,1,6.82,1.69,12,12,0,0,1,4.69,4.74,14.33,14.33,0,0,1,1.69,7.07C1991.47,400,1991.44,400.57,1991.37,401.36Zm-18.06-8.68a7.31,7.31,0,0,0-2.47,4.62h14.81a7.13,7.13,0,0,0-7.38-6.36A7.34,7.34,0,0,0,1973.31,392.68Z"/><path class="cls-2" d="M1999.19,412a15.52,15.52,0,0,1-4.84-2.1l2.35-4.64a15,15,0,0,0,4.23,1.88,17.59,17.59,0,0,0,4.86.71q5.48,0,5.48-2.89a1.93,1.93,0,0,0-1.4-1.9,24.26,24.26,0,0,0-4.47-1,35.93,35.93,0,0,1-5.25-1.12,8.06,8.06,0,0,1-3.52-2.23,6.18,6.18,0,0,1-1.5-4.42,7,7,0,0,1,3.11-5.94,14.14,14.14,0,0,1,8.38-2.23,24.08,24.08,0,0,1,5.38.62,15,15,0,0,1,4.4,1.63l-2.35,4.65a14.4,14.4,0,0,0-7.48-2,8.26,8.26,0,0,0-4.08.81,2.39,2.39,0,0,0-1.39,2.12,2.11,2.11,0,0,0,1.49,2.08,23.44,23.44,0,0,0,4.62,1.15,35.5,35.5,0,0,1,5.13,1.13,8,8,0,0,1,3.45,2.15,6,6,0,0,1,1.44,4.3,6.79,6.79,0,0,1-3.18,5.86q-3.18,2.21-8.65,2.2A23.13,23.13,0,0,1,1999.19,412Z"/><path class="cls-2" d="M2064.65,404.68h-6.06v7.77h-6.17v-7.77h-18.77v-4.4l16.87-22h6.79l-15.88,21.07h11.19v-6.89h6v6.89h6.06Z"/><path class="cls-2" d="M2074.28,410.86a13.93,13.93,0,0,1-5.09-6.06,25,25,0,0,1,0-18.92,14,14,0,0,1,5.09-6.06,14,14,0,0,1,14.68,0,14,14,0,0,1,5.11,6.06,25,25,0,0,1,0,18.92,13.84,13.84,0,0,1-5.11,6.06,14,14,0,0,1-14.68,0Zm13.12-6.47q2.13-3,2.13-9.05t-2.13-9a7,7,0,0,0-11.54,0q-2.12,3-2.12,9t2.12,9.05a7,7,0,0,0,11.54,0Z"/><path class="cls-2" d="M2122.69,382.14q3.89,4.41,3.89,12.62a21.32,21.32,0,0,1-2.1,9.85,14.54,14.54,0,0,1-5.89,6.2,17.62,17.62,0,0,1-8.78,2.13,21.29,21.29,0,0,1-5-.56,13.5,13.5,0,0,1-4-1.64l2.35-4.79a11.64,11.64,0,0,0,6.5,1.66,10,10,0,0,0,7.72-3q2.79-3,2.79-8.75v-.05a9.5,9.5,0,0,1-3.87,2.67,14.6,14.6,0,0,1-5.27.9,13.89,13.89,0,0,1-6.07-1.29,9.9,9.9,0,0,1-5.72-9.22,10.36,10.36,0,0,1,1.67-5.84,11,11,0,0,1,4.49-3.89,14.48,14.48,0,0,1,6.36-1.37Q2118.81,377.74,2122.69,382.14Zm-5.42,10.56a5.32,5.32,0,0,0,1.93-4.2,5.25,5.25,0,0,0-1.88-4.13,7.69,7.69,0,0,0-5.21-1.64,7.18,7.18,0,0,0-4.84,1.59,5.76,5.76,0,0,0,0,8.48,7.51,7.51,0,0,0,5,1.56A7.41,7.41,0,0,0,2117.27,392.7Z"/><path class="cls-2" d="M2152.2,395.59a9.24,9.24,0,0,1,2.49,6.6,10.1,10.1,0,0,1-1.52,5.42,10.4,10.4,0,0,1-4.57,3.89,17.37,17.37,0,0,1-7.45,1.44,23.71,23.71,0,0,1-7.06-1.05,18,18,0,0,1-5.8-2.91L2131,404a13.63,13.63,0,0,0,4.52,2.47,16.83,16.83,0,0,0,5.5.91,8.87,8.87,0,0,0,5.3-1.4,4.43,4.43,0,0,0,1.94-3.79,4.37,4.37,0,0,0-1.84-3.73q-1.83-1.35-5.6-1.35h-3.12V392.8l7.77-9.24H2130v-5.33h23.32v4.26l-8.31,9.87A11.56,11.56,0,0,1,2152.2,395.59Z"/><path class="cls-2" d="M2170.18,396.86h24.45v4h-24.45Z"/><path class="cls-2" d="M2240.77,404.68h-6.06v7.77h-6.16v-7.77h-18.77v-4.4l16.86-22h6.8l-15.89,21.07h11.2v-6.89h6v6.89h6.06Z"/><path class="cls-2" d="M2250.4,410.86a13.92,13.92,0,0,1-5.08-6.06,25,25,0,0,1,0-18.92,14,14,0,0,1,5.08-6.06,14,14,0,0,1,14.69,0,14,14,0,0,1,5.11,6.06,25.11,25.11,0,0,1,0,18.92,13.91,13.91,0,0,1-5.11,6.06,14,14,0,0,1-14.69,0Zm13.12-6.47q2.13-3,2.13-9.05t-2.13-9a7,7,0,0,0-11.53,0q-2.13,3-2.13,9t2.13,9.05a7,7,0,0,0,11.53,0Z"/><path class="cls-2" d="M2301.92,378.23v4.26l-13.29,30h-6.8l12.86-28.84h-13.44v5.82h-5.92v-11.2Z"/><path class="cls-2" d="M2326.46,392.63a10,10,0,0,1,4.21,3.69,10.12,10.12,0,0,1,1.51,5.52,10.36,10.36,0,0,1-1.66,5.85,11,11,0,0,1-4.5,3.88,14.46,14.46,0,0,1-6.35,1.37q-7.05,0-10.93-4.4t-3.88-12.61a21.29,21.29,0,0,1,2.1-9.85,14.56,14.56,0,0,1,5.89-6.21,17.58,17.58,0,0,1,8.77-2.13,20.84,20.84,0,0,1,5,.57,13.61,13.61,0,0,1,4,1.63l-2.35,4.79a11.72,11.72,0,0,0-6.5-1.66,10,10,0,0,0-7.72,3q-2.79,3-2.79,8.75v0a9.52,9.52,0,0,1,3.86-2.66,14.69,14.69,0,0,1,5.28-.91A13.82,13.82,0,0,1,2326.46,392.63Zm-2.29,13.74a5.8,5.8,0,0,0,0-8.49,7.53,7.53,0,0,0-5-1.56,7.41,7.41,0,0,0-5,1.66,5.31,5.31,0,0,0-1.93,4.21,5.22,5.22,0,0,0,1.88,4.13,7.67,7.67,0,0,0,5.21,1.63A7.2,7.2,0,0,0,2324.17,406.37Z"/><path class="cls-2" d="M1387.26,1688.16h-6.06v7.77H1375v-7.77h-18.77v-4.4l16.86-22h6.8L1364,1682.78h11.2v-6.89h6v6.89h6.06Z"/><path class="cls-2" d="M1396.89,1694.34a13.92,13.92,0,0,1-5.08-6.06,25,25,0,0,1,0-18.92,14,14,0,0,1,5.08-6.06,14,14,0,0,1,14.69,0,14,14,0,0,1,5.11,6.06,25,25,0,0,1,0,18.92,13.91,13.91,0,0,1-5.11,6.06,14,14,0,0,1-14.69,0Zm13.13-6.48q2.12-3,2.12-9t-2.12-9a7,7,0,0,0-11.54,0q-2.13,3-2.13,9t2.13,9a7,7,0,0,0,11.54,0Z"/><path class="cls-2" d="M1453.35,1688.16h-6.06v7.77h-6.16v-7.77h-18.77v-4.4l16.86-22h6.8l-15.89,21.07h11.2v-6.89h6v6.89h6.06Z"/><path class="cls-2" d="M1466.65,1661.71v34.22h-6.36V1667h-7.23v-5.33Z"/><path class="cls-2" d="M1073.13,1945.6h-6.06v7.77h-6.16v-7.77h-18.77v-4.4l16.87-22h6.79l-15.88,21.06h11.19v-6.89h6v6.89h6.06Z"/><path class="cls-2" d="M1082.76,1951.79a14.07,14.07,0,0,1-5.08-6.07,25,25,0,0,1,0-18.91,14.07,14.07,0,0,1,5.08-6.07,14.07,14.07,0,0,1,14.69,0,14,14,0,0,1,5.11,6.07,25,25,0,0,1,0,18.91,14,14,0,0,1-5.11,6.07,14.07,14.07,0,0,1-14.69,0Zm13.13-6.48c1.42-2,2.13-5,2.13-9s-.71-7-2.13-9a7,7,0,0,0-11.54,0c-1.42,2-2.12,5-2.12,9s.7,7,2.12,9a7,7,0,0,0,11.54,0Z"/><path class="cls-2" d="M1130,1936.51a9.21,9.21,0,0,1,2.5,6.6,10.11,10.11,0,0,1-1.52,5.43,10.38,10.38,0,0,1-4.57,3.88,17.4,17.4,0,0,1-7.45,1.44,23.82,23.82,0,0,1-7.07-1,18.09,18.09,0,0,1-5.79-2.91l2.74-4.93a13.89,13.89,0,0,0,4.52,2.47,17.09,17.09,0,0,0,5.5.9,8.89,8.89,0,0,0,5.3-1.39,4.43,4.43,0,0,0,1.93-3.79,4.37,4.37,0,0,0-1.83-3.74q-1.83-1.35-5.6-1.35h-3.13v-4.35l7.78-9.24h-15.55v-5.32h23.32v4.25l-8.31,9.87A11.51,11.51,0,0,1,1130,1936.51Z"/><path class="cls-2" d="M1162,1919.16v4.25l-13.29,30h-6.8l12.86-28.84h-13.44v5.82h-5.92v-11.19Z"/><path class="cls-2" d="M1254.75,1875.65v25.66H1250v-11h-13.28v11H1232v-25.66h4.76v10.59H1250v-10.59Z"/><path class="cls-2" d="M1280.16,1881.73v19.58h-4.36v-2.49a7.26,7.26,0,0,1-2.75,2,8.81,8.81,0,0,1-3.56.72,8.54,8.54,0,0,1-6.18-2.18q-2.25-2.19-2.25-6.47v-11.19h4.58v10.56a5.68,5.68,0,0,0,1.19,3.94,4.37,4.37,0,0,0,3.39,1.3,5.13,5.13,0,0,0,3.91-1.52,6.12,6.12,0,0,0,1.45-4.38v-9.9Z"/><path class="cls-2" d="M1316.75,1883.66q2.16,2.14,2.16,6.43v11.22h-4.58v-10.63a5.73,5.73,0,0,0-1.14-3.87,4.08,4.08,0,0,0-3.26-1.3,4.79,4.79,0,0,0-3.7,1.52,6.2,6.2,0,0,0-1.4,4.35v9.93h-4.58v-10.63a5.73,5.73,0,0,0-1.14-3.87,4.07,4.07,0,0,0-3.26-1.3,4.81,4.81,0,0,0-3.72,1.5,6.24,6.24,0,0,0-1.38,4.37v9.93h-4.58v-19.58h4.36v2.5a7.14,7.14,0,0,1,2.75-2,9.45,9.45,0,0,1,3.67-.7,8.88,8.88,0,0,1,3.91.83,6.34,6.34,0,0,1,2.69,2.44,8.25,8.25,0,0,1,3.12-2.41,10.16,10.16,0,0,1,4.21-.86A8,8,0,0,1,1316.75,1883.66Z"/><path class="cls-2" d="M1338.87,1883.58q2.3,2.09,2.3,6.25v11.48h-4.33v-2.38a5.33,5.33,0,0,1-2.4,2,9.43,9.43,0,0,1-3.76.68,9.21,9.21,0,0,1-3.85-.75,6,6,0,0,1-2.55-2.09,5.32,5.32,0,0,1-.9-3,5.17,5.17,0,0,1,2-4.23q2-1.6,6.17-1.6h5.06v-.29a4,4,0,0,0-1.23-3.15,5.25,5.25,0,0,0-3.64-1.1,10.66,10.66,0,0,0-3.25.51,7.93,7.93,0,0,0-2.69,1.43l-1.8-3.34a11.09,11.09,0,0,1,3.7-1.79,16.37,16.37,0,0,1,4.59-.63C1335.14,1881.51,1337.35,1882.2,1338.87,1883.58Zm-4.18,13.86a4.19,4.19,0,0,0,1.89-2.25v-2.27h-4.73c-2.64,0-4,.86-4,2.6a2.34,2.34,0,0,0,1,2,4.54,4.54,0,0,0,2.75.73A5.86,5.86,0,0,0,1334.69,1897.44Z"/><path class="cls-2" d="M1364.08,1883.68q2.24,2.16,2.24,6.41v11.22h-4.59v-10.63a5.49,5.49,0,0,0-1.21-3.87,4.44,4.44,0,0,0-3.44-1.3,5.31,5.31,0,0,0-4,1.52,6.06,6.06,0,0,0-1.47,4.38v9.9H1347v-19.58h4.36v2.53a7.17,7.17,0,0,1,2.86-2,10.41,10.41,0,0,1,3.89-.7A8.15,8.15,0,0,1,1364.08,1883.68Z"/><path class="cls-2" d="M1372.36,1877.72a2.59,2.59,0,0,1-.84-2,2.56,2.56,0,0,1,.84-2,2.94,2.94,0,0,1,2.09-.79,3,3,0,0,1,2.09.75,2.4,2.4,0,0,1,.85,1.89,2.77,2.77,0,0,1-.83,2,2.86,2.86,0,0,1-2.11.83A3,3,0,0,1,1372.36,1877.72Zm-.21,4h4.58v19.58h-4.58Z"/><path class="cls-2" d="M1394.51,1900.25a5.41,5.41,0,0,1-2,1,8.88,8.88,0,0,1-2.44.33,6.92,6.92,0,0,1-5-1.69,6.49,6.49,0,0,1-1.76-4.91v-9.42h-3.22v-3.67h3.22v-4.47H1388v4.47h5.24v3.67H1388v9.31a3.12,3.12,0,0,0,.69,2.18,2.63,2.63,0,0,0,2,.75,4,4,0,0,0,2.57-.81Z"/><path class="cls-2" d="M1398.5,1877.72a2.59,2.59,0,0,1-.84-2,2.56,2.56,0,0,1,.84-2,2.94,2.94,0,0,1,2.09-.79,3,3,0,0,1,2.09.75,2.4,2.4,0,0,1,.85,1.89,2.77,2.77,0,0,1-.83,2,2.86,2.86,0,0,1-2.11.83A3,3,0,0,1,1398.5,1877.72Zm-.21,4h4.58v19.58h-4.58Z"/><path class="cls-2" d="M1427.21,1893h-15.36a5.34,5.34,0,0,0,2.11,3.43,6.91,6.91,0,0,0,4.23,1.26,7.14,7.14,0,0,0,5.32-2.13l2.45,2.83a8.24,8.24,0,0,1-3.33,2.38,13.16,13.16,0,0,1-10.23-.48,9.23,9.23,0,0,1-3.8-3.57,10.13,10.13,0,0,1-1.33-5.19,10.24,10.24,0,0,1,1.3-5.15,9.18,9.18,0,0,1,3.61-3.57,10.48,10.48,0,0,1,5.21-1.29,10.2,10.2,0,0,1,5.11,1.27,9,9,0,0,1,3.52,3.55,10.84,10.84,0,0,1,1.26,5.3C1427.28,1892,1427.26,1892.4,1427.21,1893Zm-13.54-6.51a5.46,5.46,0,0,0-1.86,3.47h11.11a5.38,5.38,0,0,0-1.79-3.45,6,6,0,0,0-7.46,0Z"/><path class="cls-2" d="M1433.08,1900.94a11.63,11.63,0,0,1-3.63-1.57l1.76-3.49a11.3,11.3,0,0,0,3.17,1.42,13.32,13.32,0,0,0,3.65.53q4.1,0,4.1-2.17a1.45,1.45,0,0,0-1-1.43,19.47,19.47,0,0,0-3.36-.77,26.62,26.62,0,0,1-3.94-.84,6.07,6.07,0,0,1-2.64-1.67,4.67,4.67,0,0,1-1.12-3.31,5.23,5.23,0,0,1,2.33-4.46,10.61,10.61,0,0,1,6.29-1.67,18.45,18.45,0,0,1,4,.46,11.41,11.41,0,0,1,3.3,1.23l-1.76,3.48a10.92,10.92,0,0,0-5.61-1.46,6.28,6.28,0,0,0-3.06.6,1.81,1.81,0,0,0-1,1.6,1.58,1.58,0,0,0,1.12,1.55,16.78,16.78,0,0,0,3.46.86,27.16,27.16,0,0,1,3.85.85,6,6,0,0,1,2.58,1.61,4.46,4.46,0,0,1,1.09,3.23,5.11,5.11,0,0,1-2.39,4.4,11.24,11.24,0,0,1-6.49,1.65A17.27,17.27,0,0,1,1433.08,1900.94Z"/><path class="cls-2" d="M1296.42,1919.64h4.76v25.67h-4.76Z"/><path class="cls-2" d="M1311.12,1944.28a9.36,9.36,0,0,1-3.72-3.58,10.66,10.66,0,0,1,0-10.35,9.38,9.38,0,0,1,3.72-3.56,11.9,11.9,0,0,1,10.74,0,9.38,9.38,0,0,1,3.72,3.56,10.66,10.66,0,0,1,0,10.35,9.36,9.36,0,0,1-3.72,3.58,11.9,11.9,0,0,1-10.74,0Zm9.53-4.33a6.79,6.79,0,0,0,0-8.87,6,6,0,0,0-8.34,0,6.85,6.85,0,0,0,0,8.87,6,6,0,0,0,8.34,0Z"/><path class="cls-2" d="M1361.31,1925.73l-7.22,19.58h-4.4l-5.06-13.5-5.13,13.5h-4.4l-7.19-19.58h4.33l5.17,14.44,5.39-14.44h3.85l5.27,14.52,5.32-14.52Z"/><path class="cls-2" d="M1377.94,1927.58c1.52,1.38,2.29,3.46,2.29,6.25v11.48h-4.33v-2.39a5.27,5.27,0,0,1-2.4,2,10.49,10.49,0,0,1-7.61-.07,6,6,0,0,1-2.55-2.09,5.35,5.35,0,0,1-.89-3,5.18,5.18,0,0,1,2-4.24q2-1.59,6.18-1.59h5.06v-.3a4,4,0,0,0-1.23-3.15,5.34,5.34,0,0,0-3.65-1.1,10.66,10.66,0,0,0-3.25.51,8.1,8.1,0,0,0-2.69,1.43l-1.8-3.33a11.25,11.25,0,0,1,3.71-1.8,16.67,16.67,0,0,1,4.58-.62Q1375.64,1925.51,1377.94,1927.58Zm-4.18,13.86a4.34,4.34,0,0,0,1.89-2.26v-2.27h-4.73q-4,0-4,2.6a2.34,2.34,0,0,0,1,2,4.52,4.52,0,0,0,2.75.74A6,6,0,0,0,1373.76,1941.44Z"/><path class="cls-2" d="M1315.76,1983.47h-4.55v5.83h-4.62v-5.83h-14.08v-3.3l12.65-16.53h5.1l-11.92,15.8h8.4v-5.17h4.47v5.17h4.55Z"/><path class="cls-2" d="M1323,1988.11a10.52,10.52,0,0,1-3.81-4.55,18.68,18.68,0,0,1,0-14.19,10.55,10.55,0,0,1,3.81-4.54,9.93,9.93,0,0,1,5.5-1.56,10,10,0,0,1,5.52,1.56,10.52,10.52,0,0,1,3.83,4.54,18.8,18.8,0,0,1,0,14.19,10.49,10.49,0,0,1-3.83,4.55,10,10,0,0,1-5.52,1.56A9.93,9.93,0,0,1,1323,1988.11Zm9.84-4.86q1.61-2.26,1.6-6.78t-1.6-6.78a5.24,5.24,0,0,0-8.65,0q-1.59,2.26-1.59,6.78t1.59,6.78a5.26,5.26,0,0,0,8.65,0Z"/><path class="cls-2" d="M1358.43,1976.65a6.91,6.91,0,0,1,1.87,4.95,7.63,7.63,0,0,1-1.13,4.07,7.84,7.84,0,0,1-3.43,2.92,13.05,13.05,0,0,1-5.59,1.08,18,18,0,0,1-5.3-.79,13.65,13.65,0,0,1-4.35-2.18l2.06-3.71a10.42,10.42,0,0,0,3.39,1.86,12.79,12.79,0,0,0,4.12.67,6.65,6.65,0,0,0,4-1,3.54,3.54,0,0,0,.08-5.65,7.15,7.15,0,0,0-4.2-1h-2.35v-3.27l5.83-6.93h-11.66v-4h17.49v3.19l-6.23,7.4A8.65,8.65,0,0,1,1358.43,1976.65Z"/><path class="cls-2" d="M1380.26,1966.57q2.92,3.3,2.92,9.46a16,16,0,0,1-1.58,7.39,10.86,10.86,0,0,1-4.42,4.65,13.12,13.12,0,0,1-6.58,1.6,15.82,15.82,0,0,1-3.72-.42,10,10,0,0,1-3-1.23l1.76-3.6a8.65,8.65,0,0,0,4.87,1.25,7.52,7.52,0,0,0,5.8-2.27c1.39-1.52,2.09-3.7,2.09-6.56v0a7.26,7.26,0,0,1-2.9,2,11,11,0,0,1-4,.68,10.37,10.37,0,0,1-4.55-1,7.49,7.49,0,0,1-3.15-2.76,7.58,7.58,0,0,1-1.14-4.15,7.78,7.78,0,0,1,1.25-4.38,8.23,8.23,0,0,1,3.37-2.91,10.77,10.77,0,0,1,4.77-1Q1377.35,1963.27,1380.26,1966.57Zm-4.06,7.92a4,4,0,0,0,1.44-3.15,3.93,3.93,0,0,0-1.41-3.1,5.74,5.74,0,0,0-3.9-1.23,5.42,5.42,0,0,0-3.63,1.19,4.31,4.31,0,0,0,0,6.36,6.4,6.4,0,0,0,7.5-.07Z"/><path class="cls-2" d="M1873.64,1294.5a15.91,15.91,0,0,1-5.84-3l2.2-4.94a17.23,17.23,0,0,0,5.16,2.71,18.48,18.48,0,0,0,6.13,1.06,10.58,10.58,0,0,0,5.7-1.23,3.7,3.7,0,0,0,1.88-3.22,3.11,3.11,0,0,0-1-2.42,7.4,7.4,0,0,0-2.67-1.49c-1.07-.36-2.54-.77-4.4-1.22a50.91,50.91,0,0,1-6.33-1.86,10.39,10.39,0,0,1-4.15-2.91,7.83,7.83,0,0,1-1.74-5.35,9.12,9.12,0,0,1,1.54-5.16,10.45,10.45,0,0,1,4.64-3.69,18.9,18.9,0,0,1,7.61-1.37,24.71,24.71,0,0,1,6.16.78,17,17,0,0,1,5.23,2.25l-2,4.94a19.93,19.93,0,0,0-4.69-2,17.79,17.79,0,0,0-4.74-.68,9.89,9.89,0,0,0-5.6,1.27,3.92,3.92,0,0,0-1.83,3.37,3.06,3.06,0,0,0,1.05,2.4,7.46,7.46,0,0,0,2.66,1.46c1.08.36,2.54.77,4.4,1.23a44.93,44.93,0,0,1,6.26,1.83,10.82,10.82,0,0,1,4.18,2.91,7.69,7.69,0,0,1,1.73,5.28,9,9,0,0,1-1.54,5.13,10.51,10.51,0,0,1-4.66,3.67,19.06,19.06,0,0,1-7.63,1.37A26.09,26.09,0,0,1,1873.64,1294.5Z"/><path class="cls-2" d="M1916.53,1293.72a7,7,0,0,1-2.61,1.32,11.92,11.92,0,0,1-3.25.44,9.23,9.23,0,0,1-6.65-2.25c-1.56-1.5-2.35-3.68-2.35-6.55v-12.56h-4.3v-4.89h4.3v-6h6.11v6h7v4.89h-7v12.41a4.14,4.14,0,0,0,.93,2.91,3.49,3.49,0,0,0,2.69,1,5.34,5.34,0,0,0,3.42-1.07Z"/><path class="cls-2" d="M1946.84,1269v26.11H1941v-3.33a9.61,9.61,0,0,1-3.66,2.72,11.91,11.91,0,0,1-4.74,1q-5.23,0-8.24-2.91c-2-1.94-3-4.81-3-8.63V1269h6.11v14.08a7.57,7.57,0,0,0,1.59,5.26,5.85,5.85,0,0,0,4.52,1.73,6.82,6.82,0,0,0,5.21-2,8.13,8.13,0,0,0,1.93-5.84V1269Z"/><path class="cls-2" d="M1980.42,1258.87v36.27h-5.86v-3.38a9.47,9.47,0,0,1-3.74,2.79,12.6,12.6,0,0,1-4.91.93,13.72,13.72,0,0,1-6.77-1.66,11.91,11.91,0,0,1-4.72-4.72,15.2,15.2,0,0,1,0-14,12,12,0,0,1,4.72-4.69,13.72,13.72,0,0,1,6.77-1.66,12.38,12.38,0,0,1,4.74.88,9.61,9.61,0,0,1,3.66,2.64v-13.39Zm-9.82,30.38a7.31,7.31,0,0,0,2.79-2.86,9.59,9.59,0,0,0,0-8.61,7.31,7.31,0,0,0-2.79-2.86,8.34,8.34,0,0,0-7.92,0,7.31,7.31,0,0,0-2.79,2.86,9.59,9.59,0,0,0,0,8.61,7.31,7.31,0,0,0,2.79,2.86,8.34,8.34,0,0,0,7.92,0Z"/><path class="cls-2" d="M1988.74,1263.68a3.59,3.59,0,0,1,0-5.23,3.91,3.91,0,0,1,2.78-1,4,4,0,0,1,2.79,1,3.23,3.23,0,0,1,1.12,2.52,3.66,3.66,0,0,1-1.1,2.71,3.81,3.81,0,0,1-2.81,1.1A3.91,3.91,0,0,1,1988.74,1263.68Zm-.3,5.35h6.11v26.11h-6.11Z"/><path class="cls-2" d="M2027,1284h-20.48a7.08,7.08,0,0,0,2.81,4.57,9.24,9.24,0,0,0,5.65,1.69,9.5,9.5,0,0,0,7.08-2.84l3.28,3.77a11,11,0,0,1-4.45,3.17,17.61,17.61,0,0,1-13.64-.63,12.33,12.33,0,0,1-5.06-4.77,13.43,13.43,0,0,1-1.78-6.92,13.68,13.68,0,0,1,1.73-6.86,12.35,12.35,0,0,1,4.82-4.77,14.05,14.05,0,0,1,6.94-1.71,13.66,13.66,0,0,1,6.82,1.69,11.88,11.88,0,0,1,4.69,4.74,14.32,14.32,0,0,1,1.69,7.06C2027.11,1282.66,2027.08,1283.26,2027,1284Zm-18.06-8.68a7.27,7.27,0,0,0-2.47,4.62h14.81a7.13,7.13,0,0,0-7.38-6.35A7.38,7.38,0,0,0,2009,1275.36Z"/><path class="cls-2" d="M2034.83,1294.65a16,16,0,0,1-4.84-2.1l2.35-4.65a15,15,0,0,0,4.23,1.88,17.22,17.22,0,0,0,4.86.71q5.47,0,5.48-2.88a1.94,1.94,0,0,0-1.4-1.91,23.61,23.61,0,0,0-4.47-1,36.24,36.24,0,0,1-5.26-1.13,8.07,8.07,0,0,1-3.52-2.22,6.25,6.25,0,0,1-1.49-4.43,7,7,0,0,1,3.11-5.94q3.11-2.22,8.38-2.22a24.06,24.06,0,0,1,5.38.61,15,15,0,0,1,4.4,1.64l-2.35,4.64a14.49,14.49,0,0,0-7.48-2,8.39,8.39,0,0,0-4.08.8,2.41,2.41,0,0,0-1.39,2.13,2.12,2.12,0,0,0,1.49,2.08,23.44,23.44,0,0,0,4.62,1.15A35.65,35.65,0,0,1,2048,1281a8,8,0,0,1,3.45,2.15,6,6,0,0,1,1.44,4.3,6.81,6.81,0,0,1-3.18,5.87q-3.18,2.21-8.65,2.2A23.54,23.54,0,0,1,2034.83,1294.65Z"/><path class="cls-2" d="M2100.29,1287.36h-6.07v7.78h-6.16v-7.78h-18.77V1283l16.87-22H2093L2077.07,1282h11.19v-6.9h6v6.9h6.07Z"/><path class="cls-2" d="M2109.92,1293.55a14,14,0,0,1-5.09-6.06,25,25,0,0,1,0-18.92,13.93,13.93,0,0,1,5.09-6.06,14,14,0,0,1,14.68,0,13.91,13.91,0,0,1,5.11,6.06,25,25,0,0,1,0,18.92,14,14,0,0,1-5.11,6.06,14,14,0,0,1-14.68,0Zm13.12-6.48q2.13-3,2.13-9t-2.13-9a7,7,0,0,0-11.54,0q-2.11,3-2.12,9t2.12,9a7,7,0,0,0,11.54,0Z"/><path class="cls-2" d="M2157.28,1277a9.29,9.29,0,0,1,3.47,7.65,10.15,10.15,0,0,1-6.06,9.53,17,17,0,0,1-7.48,1.47,24.11,24.11,0,0,1-7.09-1.06,17.5,17.5,0,0,1-5.76-2.9l2.68-4.94a14.76,14.76,0,0,0,4.58,2.47,17,17,0,0,0,5.49.9,8.93,8.93,0,0,0,5.31-1.39,4.47,4.47,0,0,0,1.93-3.84,4.42,4.42,0,0,0-2.08-4q-2.07-1.35-7.11-1.35h-8.26l1.76-18.62h20.09v5.33H2144l-.74,7.92h3.28Q2153.81,1274.17,2157.28,1277Z"/><path class="cls-2" d="M2186,1278.27a9.24,9.24,0,0,1,2.49,6.6,10.1,10.1,0,0,1-1.51,5.43,10.46,10.46,0,0,1-4.58,3.88,17.36,17.36,0,0,1-7.45,1.45,23.76,23.76,0,0,1-7.06-1.06,18.23,18.23,0,0,1-5.8-2.9l2.74-4.94a14.1,14.1,0,0,0,4.52,2.47,17.09,17.09,0,0,0,5.5.9,8.93,8.93,0,0,0,5.31-1.39,4.44,4.44,0,0,0,1.93-3.79,4.36,4.36,0,0,0-1.84-3.74c-1.22-.9-3.08-1.34-5.59-1.34h-3.13v-4.35l7.77-9.24h-15.54v-5.33h23.31v4.25l-8.31,9.88A11.53,11.53,0,0,1,2186,1278.27Z"/><path class="cls-2" d="M2204,1279.54h24.44v4H2204Z"/><path class="cls-2" d="M2274.55,1287.36h-6.06v7.78h-6.16v-7.78h-18.77V1283l16.86-22h6.8L2251.33,1282h11.2v-6.9h6v6.9h6.06Z"/><path class="cls-2" d="M2284.18,1293.55a14.1,14.1,0,0,1-5.08-6.06,25,25,0,0,1,0-18.92,14,14,0,0,1,5.08-6.06,14,14,0,0,1,14.69,0,13.91,13.91,0,0,1,5.11,6.06,25,25,0,0,1,0,18.92,14,14,0,0,1-5.11,6.06,14,14,0,0,1-14.69,0Zm13.13-6.48c1.42-2,2.12-5,2.12-9s-.7-7-2.12-9a7,7,0,0,0-11.54,0q-2.13,3-2.13,9t2.13,9a7,7,0,0,0,11.54,0Z"/><path class="cls-2" d="M2331.75,1275.31a9.87,9.87,0,0,1,5.71,9.22,10.33,10.33,0,0,1-1.66,5.84,11.11,11.11,0,0,1-4.49,3.89,14.48,14.48,0,0,1-6.36,1.37q-7,0-10.93-4.4t-3.88-12.62a21.35,21.35,0,0,1,2.1-9.85,14.54,14.54,0,0,1,5.89-6.2,17.62,17.62,0,0,1,8.78-2.13,21.29,21.29,0,0,1,5,.56,13.5,13.5,0,0,1,4,1.64l-2.35,4.79a11.64,11.64,0,0,0-6.5-1.66,10,10,0,0,0-7.72,3q-2.79,3-2.79,8.75v0a9.54,9.54,0,0,1,3.86-2.67,14.69,14.69,0,0,1,5.28-.9A13.89,13.89,0,0,1,2331.75,1275.31Zm-2.3,13.74a5.76,5.76,0,0,0,0-8.48,7.51,7.51,0,0,0-5-1.56,7.41,7.41,0,0,0-5,1.66,5.51,5.51,0,0,0,0,8.33,7.69,7.69,0,0,0,5.21,1.64A7.18,7.18,0,0,0,2329.45,1289.05Z"/><path class="cls-2" d="M2371.29,1287.36h-6.06v7.78h-6.16v-7.78H2340.3V1283l16.87-22H2364L2348.07,1282h11.2v-6.9h6v6.9h6.06Z"/><path class="cls-2" d="M161.3,1294.5a15.91,15.91,0,0,1-5.84-3l2.19-4.94a17.35,17.35,0,0,0,5.16,2.71,18.54,18.54,0,0,0,6.14,1.06,10.52,10.52,0,0,0,5.69-1.23,3.68,3.68,0,0,0,1.88-3.22,3.11,3.11,0,0,0-1.05-2.42,7.35,7.35,0,0,0-2.66-1.49c-1.08-.36-2.54-.77-4.4-1.22a50.91,50.91,0,0,1-6.33-1.86,10.49,10.49,0,0,1-4.16-2.91,7.88,7.88,0,0,1-1.73-5.35,9.12,9.12,0,0,1,1.54-5.16,10.34,10.34,0,0,1,4.64-3.69,18.84,18.84,0,0,1,7.6-1.37,24.59,24.59,0,0,1,6.16.78,16.87,16.87,0,0,1,5.23,2.25l-2,4.94a20.11,20.11,0,0,0-4.69-2,17.81,17.81,0,0,0-4.75-.68,9.85,9.85,0,0,0-5.59,1.27,3.93,3.93,0,0,0-1.84,3.37,3.06,3.06,0,0,0,1,2.4,7.51,7.51,0,0,0,2.67,1.46c1.07.36,2.54.77,4.4,1.23a44.93,44.93,0,0,1,6.26,1.83,10.72,10.72,0,0,1,4.17,2.91,7.64,7.64,0,0,1,1.74,5.28,9,9,0,0,1-1.54,5.13,10.54,10.54,0,0,1-4.67,3.67,19,19,0,0,1-7.62,1.37A26.09,26.09,0,0,1,161.3,1294.5Z"/><path class="cls-2" d="M204.19,1293.72a7.14,7.14,0,0,1-2.61,1.32,11.92,11.92,0,0,1-3.25.44,9.22,9.22,0,0,1-6.65-2.25q-2.35-2.25-2.35-6.55v-12.56H185v-4.89h4.3v-6h6.11v6h7v4.89h-7v12.41a4.14,4.14,0,0,0,.93,2.91,3.49,3.49,0,0,0,2.69,1,5.34,5.34,0,0,0,3.42-1.07Z"/><path class="cls-2" d="M234.5,1269v26.11h-5.82v-3.33a9.76,9.76,0,0,1-3.66,2.72,11.92,11.92,0,0,1-4.75,1c-3.48,0-6.23-1-8.23-2.91s-3-4.81-3-8.63V1269h6.11v14.08a7.57,7.57,0,0,0,1.59,5.26,5.85,5.85,0,0,0,4.52,1.73,6.84,6.84,0,0,0,5.21-2,8.13,8.13,0,0,0,1.93-5.84V1269Z"/><path class="cls-2" d="M268.08,1258.87v36.27h-5.86v-3.38a9.47,9.47,0,0,1-3.74,2.79,12.65,12.65,0,0,1-4.92.93,13.75,13.75,0,0,1-6.77-1.66,12,12,0,0,1-4.71-4.72,15.2,15.2,0,0,1,0-14,12,12,0,0,1,4.71-4.69,13.75,13.75,0,0,1,6.77-1.66,12.4,12.4,0,0,1,4.75.88,9.61,9.61,0,0,1,3.66,2.64v-13.39Zm-9.82,30.38a7.22,7.22,0,0,0,2.78-2.86,9.51,9.51,0,0,0,0-8.61,7.22,7.22,0,0,0-2.78-2.86,8.34,8.34,0,0,0-7.92,0,7.25,7.25,0,0,0-2.79,2.86,9.51,9.51,0,0,0,0,8.61,7.25,7.25,0,0,0,2.79,2.86,8.34,8.34,0,0,0,7.92,0Z"/><path class="cls-2" d="M276.39,1263.68a3.61,3.61,0,0,1,0-5.23,3.93,3.93,0,0,1,2.79-1,4,4,0,0,1,2.78,1,3.24,3.24,0,0,1,1.13,2.52,3.7,3.7,0,0,1-1.1,2.71,3.81,3.81,0,0,1-2.81,1.1A3.93,3.93,0,0,1,276.39,1263.68Zm-.29,5.35h6.11v26.11H276.1Z"/><path class="cls-2" d="M314.67,1284H294.19a7,7,0,0,0,2.81,4.57,9.21,9.21,0,0,0,5.64,1.69,9.52,9.52,0,0,0,7.09-2.84l3.27,3.77a10.93,10.93,0,0,1-4.44,3.17,17.61,17.61,0,0,1-13.64-.63,12.27,12.27,0,0,1-5.06-4.77,13.44,13.44,0,0,1-1.79-6.92,13.59,13.59,0,0,1,1.74-6.86,12.28,12.28,0,0,1,4.82-4.77,14,14,0,0,1,6.94-1.71,13.66,13.66,0,0,1,6.82,1.69,12,12,0,0,1,4.69,4.74,14.42,14.42,0,0,1,1.68,7.06C314.76,1282.66,314.73,1283.26,314.67,1284Zm-18.07-8.68a7.3,7.3,0,0,0-2.46,4.62H309a7.15,7.15,0,0,0-7.38-6.35A7.43,7.43,0,0,0,296.6,1275.36Z"/><path class="cls-2" d="M322.49,1294.65a15.89,15.89,0,0,1-4.84-2.1l2.35-4.65a15,15,0,0,0,4.22,1.88,17.34,17.34,0,0,0,4.87.71q5.48,0,5.47-2.88a1.93,1.93,0,0,0-1.39-1.91,23.61,23.61,0,0,0-4.47-1,35.94,35.94,0,0,1-5.26-1.13,8.07,8.07,0,0,1-3.52-2.22,6.25,6.25,0,0,1-1.49-4.43,7,7,0,0,1,3.11-5.94c2.06-1.48,4.86-2.22,8.38-2.22a24.13,24.13,0,0,1,5.38.61,15.12,15.12,0,0,1,4.4,1.64l-2.35,4.64a14.52,14.52,0,0,0-7.48-2,8.39,8.39,0,0,0-4.08.8,2.42,2.42,0,0,0-1.4,2.13,2.13,2.13,0,0,0,1.5,2.08,23.5,23.5,0,0,0,4.61,1.15,35.52,35.52,0,0,1,5.14,1.12,8,8,0,0,1,3.44,2.15,6,6,0,0,1,1.45,4.3,6.81,6.81,0,0,1-3.18,5.87q-3.18,2.21-8.65,2.2A23.54,23.54,0,0,1,322.49,1294.65Z"/><path class="cls-2" d="M387.94,1287.36h-6.06v7.78h-6.16v-7.78H357V1283l16.87-22h6.79L364.72,1282h11.2v-6.9h6v6.9h6.06Z"/><path class="cls-2" d="M397.57,1293.55a14.1,14.1,0,0,1-5.08-6.06,25,25,0,0,1,0-18.92,14,14,0,0,1,5.08-6.06,14,14,0,0,1,14.69,0,13.91,13.91,0,0,1,5.11,6.06,25,25,0,0,1,0,18.92,14,14,0,0,1-5.11,6.06,14,14,0,0,1-14.69,0Zm13.13-6.48c1.42-2,2.12-5,2.12-9s-.7-7-2.12-9a7,7,0,0,0-11.54,0q-2.13,3-2.13,9t2.13,9a7,7,0,0,0,11.54,0Z"/><path class="cls-2" d="M448.07,1289.76v5.38H422.84v-4.26l13.59-12.9a14.94,14.94,0,0,0,3.11-3.84,7.26,7.26,0,0,0,.81-3.25,4.39,4.39,0,0,0-1.62-3.67A7.57,7.57,0,0,0,434,1266a9.57,9.57,0,0,0-8,3.57l-4.44-3.42a13.17,13.17,0,0,1,5.4-4.18,18.74,18.74,0,0,1,7.6-1.49c3.71,0,6.68.88,8.89,2.64a8.67,8.67,0,0,1,3.33,7.18,12,12,0,0,1-1.17,5.24,20.76,20.76,0,0,1-4.5,5.57l-9.14,8.7Z"/><path class="cls-2" d="M473.15,1277a9.32,9.32,0,0,1,3.47,7.65,10.18,10.18,0,0,1-6.07,9.53,17,17,0,0,1-7.47,1.47,24,24,0,0,1-7.09-1.06,17.56,17.56,0,0,1-5.77-2.9l2.69-4.94a14.59,14.59,0,0,0,4.57,2.47,17,17,0,0,0,5.5.9,8.89,8.89,0,0,0,5.3-1.39,4.47,4.47,0,0,0,1.93-3.84,4.42,4.42,0,0,0-2.08-4q-2.07-1.35-7.11-1.35h-8.26l1.76-18.62h20.09v5.33H459.9l-.74,7.92h3.28Q469.67,1274.17,473.15,1277Z"/><path class="cls-2" d="M491.62,1279.54h24.44v4H491.62Z"/><path class="cls-2" d="M562.21,1287.36h-6.06v7.78H550v-7.78H531.22V1283l16.86-22h6.8L539,1282h11.19v-6.9h6v6.9h6.06Z"/><path class="cls-2" d="M571.84,1293.55a14.12,14.12,0,0,1-5.09-6.06,25.11,25.11,0,0,1,0-18.92,14,14,0,0,1,5.09-6.06,13.19,13.19,0,0,1,7.33-2.08,13.34,13.34,0,0,1,7.36,2.08,13.91,13.91,0,0,1,5.11,6.06,25.11,25.11,0,0,1,0,18.92,14,14,0,0,1-5.11,6.06,13.42,13.42,0,0,1-7.36,2.08A13.27,13.27,0,0,1,571.84,1293.55Zm13.12-6.48q2.13-3,2.13-9t-2.13-9a7,7,0,0,0-11.53,0q-2.13,3-2.13,9t2.13,9a7,7,0,0,0,11.53,0Z"/><path class="cls-2" d="M619.11,1278.27a9.24,9.24,0,0,1,2.49,6.6,10.1,10.1,0,0,1-1.51,5.43,10.43,10.43,0,0,1-4.57,3.88,17.41,17.41,0,0,1-7.46,1.45,23.76,23.76,0,0,1-7.06-1.06,18.07,18.07,0,0,1-5.79-2.9l2.73-4.94a14.1,14.1,0,0,0,4.52,2.47,17.09,17.09,0,0,0,5.5.9,8.93,8.93,0,0,0,5.31-1.39,4.44,4.44,0,0,0,1.93-3.79,4.38,4.38,0,0,0-1.83-3.74c-1.23-.9-3.09-1.34-5.6-1.34h-3.13v-4.35l7.77-9.24H596.87v-5.33h23.31v4.25l-8.3,9.88A11.5,11.5,0,0,1,619.11,1278.27Z"/><path class="cls-2" d="M647.36,1275.31a9.86,9.86,0,0,1,5.72,9.22,10.33,10.33,0,0,1-1.66,5.84,11.07,11.07,0,0,1-4.5,3.89,14.43,14.43,0,0,1-6.35,1.37q-7,0-10.93-4.4t-3.88-12.62a21.35,21.35,0,0,1,2.1-9.85,14.48,14.48,0,0,1,5.89-6.2,17.58,17.58,0,0,1,8.77-2.13,21.38,21.38,0,0,1,5,.56,13.61,13.61,0,0,1,4,1.64l-2.35,4.79a11.64,11.64,0,0,0-6.5-1.66,10,10,0,0,0-7.72,3q-2.79,3-2.79,8.75v0a9.54,9.54,0,0,1,3.86-2.67,14.69,14.69,0,0,1,5.28-.9A13.82,13.82,0,0,1,647.36,1275.31Zm-2.29,13.74a5.78,5.78,0,0,0,0-8.48,7.51,7.51,0,0,0-5-1.56,7.41,7.41,0,0,0-5,1.66,5.3,5.3,0,0,0-1.93,4.2A5.22,5.22,0,0,0,635,1289a7.67,7.67,0,0,0,5.21,1.64A7.2,7.2,0,0,0,645.07,1289.05Z"/></svg>