<svg aria-label="The University of Iowa University Libraries Digital Scholarship and&#10; Publishing Studio" role="img" viewBox="40 32.800000000000004 164.39999999999998 35.199999999999996" xmlns="http://www.w3.org/2000/svg" version="1.1" style="max-height: 500px" width="164.39999999999998" height="35.199999999999996"><path d="M54.9,43.73H53.17V56.19H54.9v4.54H45.39V56.19h1.73V43.73H45.39V39.27H54.9Z" fill="#FFCD00"/><path d="M67.68,60.73H60.79c-2.5,0-4.14-1.64-4.14-4.33V43.59a4,4,0,0,1,3.66-4.31,3.85,3.85,0,0,1,.48,0h6.89c2.5,0,4.13,1.67,4.13,4.32V56.37a4,4,0,0,1-3.62,4.35A4.34,4.34,0,0,1,67.68,60.73Zm-2-4.51V43.73h-3V56.19Z" fill="#FFCD00"/><path d="M74.52,43.74H73V39.28h9v4.46H80.3l1.55,10.31,3.21-14.79h4.57l3.43,14.79,1.25-10.31H92.74V39.28h8.89v4.46h-1.48l-2.69,17H90.21L87.4,48.08,84.52,60.74h-7Z" fill="#FFCD00"/><path d="M100.06,56.19h1.63l3.25-16.92h9.72l3.21,16.92h1.52v4.54h-7.26l-.68-5.22h-3.61l-.65,5.22h-7.13Zm11-4.63-1.39-8.65-1.42,8.65Z" fill="#FFCD00"/><path d="M135.650125,39.1220625C135.650125,39.1220625,135.650125,42.86815625,135.650125,42.86815625C135.650125,43.49055078125,135.45546484375,43.98273828125,135.066140625,44.34471875C134.67681640625,44.70669921875,134.14491796875,44.8876875,133.4704375,44.8876875C132.806375,44.8876875,132.27903125,44.71190625,131.88840625,44.36034375C131.49778125,44.00878125,131.2985625,43.52570703125,131.29075,42.911125C131.29075,42.911125,131.29075,39.1220625,131.29075,39.1220625C131.29075,39.1220625,132.462625,39.1220625,132.462625,39.1220625C132.462625,39.1220625,132.462625,42.87596875,132.462625,42.87596875C132.462625,43.24836328125,132.55181640625,43.51984765625,132.730203125,43.690421875C132.90858984375,43.86099609375,133.15533203125,43.94628125,133.4704375,43.94628125C134.12929296875,43.94628125,134.46392578125,43.59992578125,134.47434375,42.90721875C134.47434375,42.90721875,134.47434375,39.1220625,134.47434375,39.1220625C134.47434375,39.1220625,135.650125,39.1220625,135.650125,39.1220625Z M137.57590625,40.583C137.57590625,40.583,137.6110625,41.07128125,137.6110625,41.07128125C137.91314453125,40.69367578125,138.31809375,40.504875,138.82590625,40.504875C139.27382421875,40.504875,139.60715625,40.63638671875,139.82590625,40.89940625C140.04465625,41.16242578125,140.15663671875,41.55565625,140.16184375,42.07909375C140.16184375,42.07909375,140.16184375,44.8095625,140.16184375,44.8095625C140.16184375,44.8095625,139.0329375,44.8095625,139.0329375,44.8095625C139.0329375,44.8095625,139.0329375,42.1064375,139.0329375,42.1064375C139.0329375,41.86685546875,138.98085546875,41.69302734375,138.8766875,41.584953125C138.77251953125,41.47687890625,138.59934375,41.42284375,138.35715625,41.42284375C138.03944921875,41.42284375,137.80116796875,41.55826171875,137.6423125,41.82909375C137.6423125,41.82909375,137.6423125,44.8095625,137.6423125,44.8095625C137.6423125,44.8095625,136.51340625,44.8095625,136.51340625,44.8095625C136.51340625,44.8095625,136.51340625,40.583,136.51340625,40.583C136.51340625,40.583,137.57590625,40.583,137.57590625,40.583Z M142.20871875,44.8095625C142.20871875,44.8095625,141.07590625,44.8095625,141.07590625,44.8095625C141.07590625,44.8095625,141.07590625,40.583,141.07590625,40.583C141.07590625,40.583,142.20871875,40.583,142.20871875,40.583C142.20871875,40.583,142.20871875,44.8095625,142.20871875,44.8095625Z M141.0095,39.48925C141.0095,39.31998046875,141.066140625,39.18065625,141.179421875,39.07128125C141.292703125,38.96190625,141.447,38.90721875,141.6423125,38.90721875C141.83501953125,38.90721875,141.98866796875,38.96190625,142.10325,39.07128125C142.21783203125,39.18065625,142.275125,39.31998046875,142.275125,39.48925C142.275125,39.661125,142.21718359375,39.80175,142.101296875,39.911125C141.98541015625,40.0205,141.83241796875,40.0751875,141.6423125,40.0751875C141.45220703125,40.0751875,141.29921484375,40.0205,141.183328125,39.911125C141.06744140625,39.80175,141.0095,39.661125,141.0095,39.48925Z M144.7204375,43.43065625C144.7204375,43.43065625,145.50559375,40.583,145.50559375,40.583C145.50559375,40.583,146.68528125,40.583,146.68528125,40.583C146.68528125,40.583,145.2595,44.8095625,145.2595,44.8095625C145.2595,44.8095625,144.181375,44.8095625,144.181375,44.8095625C144.181375,44.8095625,142.75559375,40.583,142.75559375,40.583C142.75559375,40.583,143.93528125,40.583,143.93528125,40.583C143.93528125,40.583,144.7204375,43.43065625,144.7204375,43.43065625Z M148.931375,44.8876875C148.31158203125,44.8876875,147.80702734375,44.69758203125,147.417703125,44.317375C147.02837890625,43.93716796875,146.83371875,43.43065625,146.83371875,42.79784375C146.83371875,42.79784375,146.83371875,42.68846875,146.83371875,42.68846875C146.83371875,42.26398828125,146.91575,41.88443359375,147.0798125,41.549796875C147.243875,41.21516015625,147.476296875,40.95734765625,147.777078125,40.776359375C148.077859375,40.59537109375,148.42095703125,40.504875,148.806375,40.504875C149.3845,40.504875,149.839578125,40.68716796875,150.171609375,41.05175C150.503640625,41.41633203125,150.66965625,41.93326171875,150.66965625,42.60253125C150.66965625,42.60253125,150.66965625,43.06346875,150.66965625,43.06346875C150.66965625,43.06346875,147.97825,43.06346875,147.97825,43.06346875C148.01470703125,43.33951171875,148.124734375,43.56086328125,148.308328125,43.72753125C148.491921875,43.89419921875,148.72434375,43.97753125,149.00559375,43.97753125C149.44048828125,43.97753125,149.78033203125,43.81998046875,150.025125,43.504875C150.025125,43.504875,150.5798125,44.12596875,150.5798125,44.12596875C150.41054296875,44.36555078125,150.181375,44.55240234375,149.8923125,44.686515625C149.60325,44.82062890625,149.2829375,44.8876875,148.931375,44.8876875Z M148.80246875,41.4189375C148.57851171875,41.4189375,148.39687109375,41.49445703125,148.257546875,41.6455C148.11822265625,41.79654296875,148.02903125,42.0126875,147.98996875,42.2939375C147.98996875,42.2939375,149.56028125,42.2939375,149.56028125,42.2939375C149.56028125,42.2939375,149.56028125,42.20409375,149.56028125,42.20409375C149.55507421875,41.95409375,149.48736328125,41.760734375,149.35715625,41.624015625C149.22694921875,41.487296875,149.04205078125,41.4189375,148.80246875,41.4189375Z M153.68528125,41.64159375C153.53163671875,41.62076171875,153.39621875,41.61034375,153.27903125,41.61034375C152.85194921875,41.61034375,152.572,41.754875,152.4391875,42.0439375C152.4391875,42.0439375,152.4391875,44.8095625,152.4391875,44.8095625C152.4391875,44.8095625,151.31028125,44.8095625,151.31028125,44.8095625C151.31028125,44.8095625,151.31028125,40.583,151.31028125,40.583C151.31028125,40.583,152.3766875,40.583,152.3766875,40.583C152.3766875,40.583,152.4079375,41.08690625,152.4079375,41.08690625C152.6345,40.69888671875,152.94830078125,40.504875,153.34934375,40.504875C153.47434375,40.504875,153.59153125,40.52180078125,153.70090625,40.55565625C153.70090625,40.55565625,153.68528125,41.64159375,153.68528125,41.64159375Z M156.54075,43.64159375C156.54075,43.50357421875,156.472390625,43.39484765625,156.335671875,43.315421875C156.198953125,43.23599609375,155.97955078125,43.16503125,155.67746875,43.10253125C154.67226171875,42.89159375,154.16965625,42.46451171875,154.16965625,41.82128125C154.16965625,41.44628125,154.32525390625,41.13312890625,154.636453125,40.881828125C154.94765234375,40.63052734375,155.35455078125,40.504875,155.85715625,40.504875C156.39361328125,40.504875,156.82265234375,40.63117578125,157.144265625,40.88378125C157.46587890625,41.13638671875,157.6266875,41.46451171875,157.6266875,41.86815625C157.6266875,41.86815625,156.49778125,41.86815625,156.49778125,41.86815625C156.49778125,41.70669921875,156.44569921875,41.573234375,156.34153125,41.467765625C156.23736328125,41.362296875,156.07460546875,41.3095625,155.85325,41.3095625C155.66314453125,41.3095625,155.51601171875,41.35253125,155.41184375,41.43846875C155.30767578125,41.52440625,155.25559375,41.63378125,155.25559375,41.76659375C155.25559375,41.89159375,155.31483984375,41.99250390625,155.433328125,42.069328125C155.55181640625,42.14615234375,155.7516875,42.21255859375,156.0329375,42.268546875C156.3141875,42.32453515625,156.55116796875,42.3876875,156.743875,42.458C157.34023046875,42.67675,157.63840625,43.05565625,157.63840625,43.59471875C157.63840625,43.98013671875,157.47304296875,44.291984375,157.1423125,44.530265625C156.81158203125,44.768546875,156.3845,44.8876875,155.8610625,44.8876875C155.50689453125,44.8876875,155.19244140625,44.82453515625,154.917703125,44.698234375C154.64296484375,44.57193359375,154.42746875,44.39875390625,154.27121875,44.178703125C154.11496875,43.95865234375,154.03684375,43.72101953125,154.03684375,43.4658125C154.03684375,43.4658125,155.10715625,43.4658125,155.10715625,43.4658125C155.11757421875,43.66633203125,155.19179296875,43.81998046875,155.3298125,43.92675C155.46783203125,44.03351953125,155.65273046875,44.08690625,155.8845,44.08690625C156.10064453125,44.08690625,156.26405859375,44.045890625,156.374734375,43.963859375C156.48541015625,43.881828125,156.54075,43.77440625,156.54075,43.64159375Z M159.4391875,44.8095625C159.4391875,44.8095625,158.306375,44.8095625,158.306375,44.8095625C158.306375,44.8095625,158.306375,40.583,158.306375,40.583C158.306375,40.583,159.4391875,40.583,159.4391875,40.583C159.4391875,40.583,159.4391875,44.8095625,159.4391875,44.8095625Z M158.23996875,39.48925C158.23996875,39.31998046875,158.296609375,39.18065625,158.409890625,39.07128125C158.523171875,38.96190625,158.67746875,38.90721875,158.87278125,38.90721875C159.06548828125,38.90721875,159.21913671875,38.96190625,159.33371875,39.07128125C159.44830078125,39.18065625,159.50559375,39.31998046875,159.50559375,39.48925C159.50559375,39.661125,159.44765234375,39.80175,159.331765625,39.911125C159.21587890625,40.0205,159.06288671875,40.0751875,158.87278125,40.0751875C158.68267578125,40.0751875,158.52968359375,40.0205,158.413796875,39.911125C158.29791015625,39.80175,158.23996875,39.661125,158.23996875,39.48925Z M161.7204375,39.5439375C161.7204375,39.5439375,161.7204375,40.583,161.7204375,40.583C161.7204375,40.583,162.44309375,40.583,162.44309375,40.583C162.44309375,40.583,162.44309375,41.411125,162.44309375,41.411125C162.44309375,41.411125,161.7204375,41.411125,161.7204375,41.411125C161.7204375,41.411125,161.7204375,43.5205,161.7204375,43.5205C161.7204375,43.67675,161.75038671875,43.78873046875,161.81028125,43.8564375C161.87017578125,43.92414453125,161.98476171875,43.958,162.15403125,43.958C162.27903125,43.958,162.38970703125,43.94888671875,162.4860625,43.93065625C162.4860625,43.93065625,162.4860625,44.786125,162.4860625,44.786125C162.26470703125,44.85383203125,162.03684375,44.8876875,161.80246875,44.8876875C161.01080078125,44.8876875,160.60715625,44.48794921875,160.59153125,43.68846875C160.59153125,43.68846875,160.59153125,41.411125,160.59153125,41.411125C160.59153125,41.411125,159.97434375,41.411125,159.97434375,41.411125C159.97434375,41.411125,159.97434375,40.583,159.97434375,40.583C159.97434375,40.583,160.59153125,40.583,160.59153125,40.583C160.59153125,40.583,160.59153125,39.5439375,160.59153125,39.5439375C160.59153125,39.5439375,161.7204375,39.5439375,161.7204375,39.5439375Z M164.8845,43.21190625C164.8845,43.21190625,165.66575,40.583,165.66575,40.583C165.66575,40.583,166.8766875,40.583,166.8766875,40.583C166.8766875,40.583,165.17746875,45.4658125,165.17746875,45.4658125C165.17746875,45.4658125,165.08371875,45.68846875,165.08371875,45.68846875C164.83111328125,46.24055078125,164.41444921875,46.51659375,163.83371875,46.51659375C163.66965625,46.51659375,163.50298828125,46.49185546875,163.33371875,46.442375C163.33371875,46.442375,163.33371875,45.58690625,163.33371875,45.58690625C163.33371875,45.58690625,163.50559375,45.5908125,163.50559375,45.5908125C163.71913671875,45.5908125,163.878640625,45.55826171875,163.984109375,45.49315625C164.089578125,45.42805078125,164.17226171875,45.31998046875,164.23215625,45.1689375C164.23215625,45.1689375,164.36496875,44.82128125,164.36496875,44.82128125C164.36496875,44.82128125,162.8845,40.583,162.8845,40.583C162.8845,40.583,164.09934375,40.583,164.09934375,40.583C164.09934375,40.583,164.8845,43.21190625,164.8845,43.21190625Z M166.6423125,44.8095625Z M170.7048125,43.86815625C170.7048125,43.86815625,173.19309375,43.86815625,173.19309375,43.86815625C173.19309375,43.86815625,173.19309375,44.8095625,173.19309375,44.8095625C173.19309375,44.8095625,169.5329375,44.8095625,169.5329375,44.8095625C169.5329375,44.8095625,169.5329375,39.1220625,169.5329375,39.1220625C169.5329375,39.1220625,170.7048125,39.1220625,170.7048125,39.1220625C170.7048125,39.1220625,170.7048125,43.86815625,170.7048125,43.86815625Z M174.98215625,44.8095625C174.98215625,44.8095625,173.84934375,44.8095625,173.84934375,44.8095625C173.84934375,44.8095625,173.84934375,40.583,173.84934375,40.583C173.84934375,40.583,174.98215625,40.583,174.98215625,40.583C174.98215625,40.583,174.98215625,44.8095625,174.98215625,44.8095625Z M173.7829375,39.48925C173.7829375,39.31998046875,173.839578125,39.18065625,173.952859375,39.07128125C174.066140625,38.96190625,174.2204375,38.90721875,174.41575,38.90721875C174.60845703125,38.90721875,174.76210546875,38.96190625,174.8766875,39.07128125C174.99126953125,39.18065625,175.0485625,39.31998046875,175.0485625,39.48925C175.0485625,39.661125,174.99062109375,39.80175,174.874734375,39.911125C174.75884765625,40.0205,174.60585546875,40.0751875,174.41575,40.0751875C174.22564453125,40.0751875,174.07265234375,40.0205,173.956765625,39.911125C173.84087890625,39.80175,173.7829375,39.661125,173.7829375,39.48925Z M179.7204375,42.73534375C179.7204375,43.41242578125,179.57590625,43.940421875,179.28684375,44.319328125C178.99778125,44.698234375,178.59413671875,44.8876875,178.07590625,44.8876875C177.61757421875,44.8876875,177.2516875,44.71190625,176.97825,44.36034375C176.97825,44.36034375,176.92746875,44.8095625,176.92746875,44.8095625C176.92746875,44.8095625,175.91184375,44.8095625,175.91184375,44.8095625C175.91184375,44.8095625,175.91184375,38.8095625,175.91184375,38.8095625C175.91184375,38.8095625,177.04075,38.8095625,177.04075,38.8095625C177.04075,38.8095625,177.04075,40.96190625,177.04075,40.96190625C177.30116796875,40.65721875,177.64361328125,40.504875,178.06809375,40.504875C178.58371875,40.504875,178.988015625,40.694328125,179.280984375,41.073234375C179.573953125,41.452140625,179.7204375,41.98534375,179.7204375,42.67284375C179.7204375,42.67284375,179.7204375,42.73534375,179.7204375,42.73534375Z M178.59153125,42.6533125C178.59153125,42.22623046875,178.52382421875,41.91437890625,178.38840625,41.717765625C178.25298828125,41.52115234375,178.05116796875,41.42284375,177.7829375,41.42284375C177.4235625,41.42284375,177.17616796875,41.56998046875,177.04075,41.86425C177.04075,41.86425,177.04075,43.53221875,177.04075,43.53221875C177.17876953125,43.82909375,177.42876953125,43.97753125,177.79075,43.97753125C178.15533203125,43.97753125,178.39491796875,43.79784375,178.5095,43.43846875C178.5641875,43.26659375,178.59153125,43.004875,178.59153125,42.6533125Z M182.79075,41.64159375C182.63710546875,41.62076171875,182.5016875,41.61034375,182.3845,41.61034375C181.95741796875,41.61034375,181.67746875,41.754875,181.54465625,42.0439375C181.54465625,42.0439375,181.54465625,44.8095625,181.54465625,44.8095625C181.54465625,44.8095625,180.41575,44.8095625,180.41575,44.8095625C180.41575,44.8095625,180.41575,40.583,180.41575,40.583C180.41575,40.583,181.48215625,40.583,181.48215625,40.583C181.48215625,40.583,181.51340625,41.08690625,181.51340625,41.08690625C181.73996875,40.69888671875,182.05376953125,40.504875,182.4548125,40.504875C182.5798125,40.504875,182.697,40.52180078125,182.806375,40.55565625C182.806375,40.55565625,182.79075,41.64159375,182.79075,41.64159375Z M185.806375,44.8095625C185.75429296875,44.708,185.71653125,44.58169921875,185.69309375,44.43065625C185.41965625,44.73534375,185.0641875,44.8876875,184.6266875,44.8876875C184.212625,44.8876875,183.86952734375,44.76789453125,183.597390625,44.5283125C183.32525390625,44.28873046875,183.1891875,43.98664453125,183.1891875,43.6220625C183.1891875,43.17414453125,183.355203125,42.83039453125,183.687234375,42.5908125C184.019265625,42.35123046875,184.49908203125,42.23013671875,185.1266875,42.22753125C185.1266875,42.22753125,185.64621875,42.22753125,185.64621875,42.22753125C185.64621875,42.22753125,185.64621875,41.98534375,185.64621875,41.98534375C185.64621875,41.79003125,185.59608984375,41.63378125,185.495828125,41.51659375C185.39556640625,41.39940625,185.23736328125,41.3408125,185.02121875,41.3408125C184.83111328125,41.3408125,184.68202734375,41.38638671875,184.573953125,41.47753125C184.46587890625,41.56867578125,184.41184375,41.69367578125,184.41184375,41.85253125C184.41184375,41.85253125,183.2829375,41.85253125,183.2829375,41.85253125C183.2829375,41.60773828125,183.35845703125,41.38117578125,183.5095,41.17284375C183.66054296875,40.96451171875,183.87408203125,40.80109765625,184.150125,40.682609375C184.42616796875,40.56412109375,184.7360625,40.504875,185.0798125,40.504875C185.60064453125,40.504875,186.01405859375,40.635734375,186.320046875,40.897453125C186.62603515625,41.159171875,186.77903125,41.52701171875,186.77903125,42.00096875C186.77903125,42.00096875,186.77903125,43.833,186.77903125,43.833C186.78163671875,44.23404296875,186.837625,44.53742578125,186.947,44.74315625C186.947,44.74315625,186.947,44.8095625,186.947,44.8095625C186.947,44.8095625,185.806375,44.8095625,185.806375,44.8095625Z M184.87278125,44.02440625C185.03944921875,44.02440625,185.19309375,43.987296875,185.33371875,43.913078125C185.47434375,43.838859375,185.57851171875,43.73925,185.64621875,43.61425C185.64621875,43.61425,185.64621875,42.8876875,185.64621875,42.8876875C185.64621875,42.8876875,185.22434375,42.8876875,185.22434375,42.8876875C184.65923828125,42.8876875,184.35845703125,43.083,184.322,43.473625C184.322,43.473625,184.31809375,43.54003125,184.31809375,43.54003125C184.31809375,43.68065625,184.36757421875,43.79654296875,184.46653125,43.8876875C184.56548828125,43.97883203125,184.70090625,44.02440625,184.87278125,44.02440625Z M190.02903125,41.64159375C189.87538671875,41.62076171875,189.73996875,41.61034375,189.62278125,41.61034375C189.19569921875,41.61034375,188.91575,41.754875,188.7829375,42.0439375C188.7829375,42.0439375,188.7829375,44.8095625,188.7829375,44.8095625C188.7829375,44.8095625,187.65403125,44.8095625,187.65403125,44.8095625C187.65403125,44.8095625,187.65403125,40.583,187.65403125,40.583C187.65403125,40.583,188.7204375,40.583,188.7204375,40.583C188.7204375,40.583,188.7516875,41.08690625,188.7516875,41.08690625C188.97825,40.69888671875,189.29205078125,40.504875,189.69309375,40.504875C189.81809375,40.504875,189.93528125,40.52180078125,190.04465625,40.55565625C190.04465625,40.55565625,190.02903125,41.64159375,190.02903125,41.64159375Z M191.90403125,44.8095625C191.90403125,44.8095625,190.77121875,44.8095625,190.77121875,44.8095625C190.77121875,44.8095625,190.77121875,40.583,190.77121875,40.583C190.77121875,40.583,191.90403125,40.583,191.90403125,40.583C191.90403125,40.583,191.90403125,44.8095625,191.90403125,44.8095625Z M190.7048125,39.48925C190.7048125,39.31998046875,190.761453125,39.18065625,190.874734375,39.07128125C190.988015625,38.96190625,191.1423125,38.90721875,191.337625,38.90721875C191.53033203125,38.90721875,191.68398046875,38.96190625,191.7985625,39.07128125C191.91314453125,39.18065625,191.9704375,39.31998046875,191.9704375,39.48925C191.9704375,39.661125,191.91249609375,39.80175,191.796609375,39.911125C191.68072265625,40.0205,191.52773046875,40.0751875,191.337625,40.0751875C191.14751953125,40.0751875,190.99452734375,40.0205,190.878640625,39.911125C190.76275390625,39.80175,190.7048125,39.661125,190.7048125,39.48925Z M194.77903125,44.8876875C194.15923828125,44.8876875,193.65468359375,44.69758203125,193.265359375,44.317375C192.87603515625,43.93716796875,192.681375,43.43065625,192.681375,42.79784375C192.681375,42.79784375,192.681375,42.68846875,192.681375,42.68846875C192.681375,42.26398828125,192.76340625,41.88443359375,192.92746875,41.549796875C193.09153125,41.21516015625,193.323953125,40.95734765625,193.624734375,40.776359375C193.925515625,40.59537109375,194.26861328125,40.504875,194.65403125,40.504875C195.23215625,40.504875,195.687234375,40.68716796875,196.019265625,41.05175C196.351296875,41.41633203125,196.5173125,41.93326171875,196.5173125,42.60253125C196.5173125,42.60253125,196.5173125,43.06346875,196.5173125,43.06346875C196.5173125,43.06346875,193.82590625,43.06346875,193.82590625,43.06346875C193.86236328125,43.33951171875,193.972390625,43.56086328125,194.155984375,43.72753125C194.339578125,43.89419921875,194.572,43.97753125,194.85325,43.97753125C195.28814453125,43.97753125,195.62798828125,43.81998046875,195.87278125,43.504875C195.87278125,43.504875,196.42746875,44.12596875,196.42746875,44.12596875C196.25819921875,44.36555078125,196.02903125,44.55240234375,195.73996875,44.686515625C195.45090625,44.82062890625,195.13059375,44.8876875,194.77903125,44.8876875Z M194.650125,41.4189375C194.42616796875,41.4189375,194.24452734375,41.49445703125,194.105203125,41.6455C193.96587890625,41.79654296875,193.8766875,42.0126875,193.837625,42.2939375C193.837625,42.2939375,195.4079375,42.2939375,195.4079375,42.2939375C195.4079375,42.2939375,195.4079375,42.20409375,195.4079375,42.20409375C195.40273046875,41.95409375,195.33501953125,41.760734375,195.2048125,41.624015625C195.07460546875,41.487296875,194.88970703125,41.4189375,194.650125,41.4189375Z M199.447,43.64159375C199.447,43.50357421875,199.378640625,43.39484765625,199.241921875,43.315421875C199.105203125,43.23599609375,198.88580078125,43.16503125,198.58371875,43.10253125C197.57851171875,42.89159375,197.07590625,42.46451171875,197.07590625,41.82128125C197.07590625,41.44628125,197.23150390625,41.13312890625,197.542703125,40.881828125C197.85390234375,40.63052734375,198.26080078125,40.504875,198.76340625,40.504875C199.29986328125,40.504875,199.72890234375,40.63117578125,200.050515625,40.88378125C200.37212890625,41.13638671875,200.5329375,41.46451171875,200.5329375,41.86815625C200.5329375,41.86815625,199.40403125,41.86815625,199.40403125,41.86815625C199.40403125,41.70669921875,199.35194921875,41.573234375,199.24778125,41.467765625C199.14361328125,41.362296875,198.98085546875,41.3095625,198.7595,41.3095625C198.56939453125,41.3095625,198.42226171875,41.35253125,198.31809375,41.43846875C198.21392578125,41.52440625,198.16184375,41.63378125,198.16184375,41.76659375C198.16184375,41.89159375,198.22108984375,41.99250390625,198.339578125,42.069328125C198.45806640625,42.14615234375,198.6579375,42.21255859375,198.9391875,42.268546875C199.2204375,42.32453515625,199.45741796875,42.3876875,199.650125,42.458C200.24648046875,42.67675,200.54465625,43.05565625,200.54465625,43.59471875C200.54465625,43.98013671875,200.37929296875,44.291984375,200.0485625,44.530265625C199.71783203125,44.768546875,199.29075,44.8876875,198.7673125,44.8876875C198.41314453125,44.8876875,198.09869140625,44.82453515625,197.823953125,44.698234375C197.54921484375,44.57193359375,197.33371875,44.39875390625,197.17746875,44.178703125C197.02121875,43.95865234375,196.94309375,43.72101953125,196.94309375,43.4658125C196.94309375,43.4658125,198.01340625,43.4658125,198.01340625,43.4658125C198.02382421875,43.66633203125,198.09804296875,43.81998046875,198.2360625,43.92675C198.37408203125,44.03351953125,198.55898046875,44.08690625,198.79075,44.08690625C199.00689453125,44.08690625,199.17030859375,44.045890625,199.280984375,43.963859375C199.39166015625,43.881828125,199.447,43.77440625,199.447,43.64159375Z" fill="#000000"/><path d="M131.1178984375,54.3006875C131.1178984375,54.3006875,131.1178984375,50.0350625,131.1178984375,50.0350625C131.1178984375,50.0350625,132.322,50.0350625,132.322,50.0350625C132.69309472656,50.0350625,133.02121972656,50.11709375,133.306375,50.28115625C133.59153027344,50.44521875,133.81174609375,50.678618164062,133.96701953125,50.9813515625C134.12229296875,51.284084960937,134.20090527344,51.6317421875,134.202859375,52.0243203125C134.202859375,52.0243203125,134.202859375,52.29678125,134.202859375,52.29678125C134.202859375,52.699124023437,134.12522265625,53.051665039062,133.96994921875,53.3543984375C133.81467578125,53.657131835937,133.59299511719,53.889555664062,133.30491015625,54.0516640625C133.01682519531,54.213772460937,132.68137597656,54.296782226562,132.2985625,54.3006875C132.2985625,54.3006875,131.1178984375,54.3006875,131.1178984375,54.3006875Z M131.6803984375,50.497953125C131.6803984375,50.497953125,131.6803984375,53.8407265625,131.6803984375,53.8407265625C131.6803984375,53.8407265625,132.2721953125,53.8407265625,132.2721953125,53.8407265625C132.7057890625,53.8407265625,133.04319238281,53.7059609375,133.28440234375,53.4364296875C133.52561230469,53.1668984375,133.64621875,52.783109375,133.64621875,52.2850625C133.64621875,52.2850625,133.64621875,52.0360390625,133.64621875,52.0360390625C133.64621875,51.551665039062,133.53245019531,51.175200195312,133.30491015625,50.90664453125C133.07737011719,50.638088867187,132.75461816406,50.501858398437,132.3366484375,50.497953125C132.3366484375,50.497953125,131.6803984375,50.497953125,131.6803984375,50.497953125Z M135.556375,54.3006875C135.556375,54.3006875,135.0143828125,54.3006875,135.0143828125,54.3006875C135.0143828125,54.3006875,135.0143828125,51.130765625,135.0143828125,51.130765625C135.0143828125,51.130765625,135.556375,51.130765625,135.556375,51.130765625C135.556375,51.130765625,135.556375,54.3006875,135.556375,54.3006875Z M134.9704375,50.2899453125C134.9704375,50.2020546875,134.99729394531,50.127836914062,135.05100390625,50.0672890625C135.10471386719,50.006741210937,135.1843046875,49.97646875,135.2897734375,49.97646875C135.3952421875,49.97646875,135.47531933594,50.006741210937,135.5300078125,50.0672890625C135.58469628906,50.127836914062,135.6120390625,50.2020546875,135.6120390625,50.2899453125C135.6120390625,50.3778359375,135.58469628906,50.451078125,135.5300078125,50.509671875C135.47531933594,50.568265625,135.3952421875,50.5975625,135.2897734375,50.5975625C135.1843046875,50.5975625,135.10471386719,50.568265625,135.05100390625,50.509671875C134.99729394531,50.451078125,134.9704375,50.3778359375,134.9704375,50.2899453125Z M136.29465625,52.689359375C136.29465625,52.195217773437,136.4089140625,51.802153320312,136.6374296875,51.51016015625C136.8659453125,51.218166992187,137.16867871094,51.072171875,137.5456328125,51.072171875C137.9323515625,51.072171875,138.234109375,51.208891601562,138.45090625,51.482328125C138.45090625,51.482328125,138.4772734375,51.130765625,138.4772734375,51.130765625C138.4772734375,51.130765625,138.972390625,51.130765625,138.972390625,51.130765625C138.972390625,51.130765625,138.972390625,54.224515625,138.972390625,54.224515625C138.972390625,54.634671875,138.85080859375,54.957913085937,138.60764453125,55.1942421875C138.36448046875,55.430571289062,138.0378203125,55.548734375,137.6276640625,55.548734375C137.3991484375,55.548734375,137.17551660156,55.499905273437,136.956765625,55.40225C136.73801464844,55.304594726562,136.57102246094,55.1708046875,136.4557890625,55.0008828125C136.4557890625,55.0008828125,136.7370390625,54.6756875,136.7370390625,54.6756875C136.96945996094,54.962796875,137.25363964844,55.1063515625,137.589578125,55.1063515625C137.85325,55.1063515625,138.05881738281,55.032133789062,138.20627734375,54.8836953125C138.35373730469,54.735256835937,138.42746875,54.5262734375,138.42746875,54.2567421875C138.42746875,54.2567421875,138.42746875,53.98428125,138.42746875,53.98428125C138.210671875,54.234280273437,137.9147734375,54.35928125,137.5397734375,54.35928125C137.16867871094,54.35928125,136.86838574219,54.2098671875,136.63889453125,53.9110390625C136.40940332031,53.6122109375,136.29465625,53.204984375,136.29465625,52.689359375Z M136.839578125,52.7508828125C136.839578125,53.1083046875,136.9128203125,53.389065429687,137.0593046875,53.59316796875C137.2057890625,53.797270507812,137.4108671875,53.8993203125,137.6745390625,53.8993203125C138.01633691406,53.8993203125,138.26731152344,53.744046875,138.42746875,53.4335C138.42746875,53.4335,138.42746875,51.986234375,138.42746875,51.986234375C138.26145214844,51.683500976562,138.01242871094,51.5321328125,137.6803984375,51.5321328125C137.4167265625,51.5321328125,137.21067285156,51.634671875,137.062234375,51.83975C136.91379589844,52.044828125,136.839578125,52.348540039062,136.839578125,52.7508828125Z M140.378640625,54.3006875C140.378640625,54.3006875,139.8366484375,54.3006875,139.8366484375,54.3006875C139.8366484375,54.3006875,139.8366484375,51.130765625,139.8366484375,51.130765625C139.8366484375,51.130765625,140.378640625,51.130765625,140.378640625,51.130765625C140.378640625,51.130765625,140.378640625,54.3006875,140.378640625,54.3006875Z M139.792703125,50.2899453125C139.792703125,50.2020546875,139.81955957031,50.127836914062,139.87326953125,50.0672890625C139.92697949219,50.006741210937,140.0065703125,49.97646875,140.1120390625,49.97646875C140.2175078125,49.97646875,140.29758496094,50.006741210937,140.3522734375,50.0672890625C140.40696191406,50.127836914062,140.4343046875,50.2020546875,140.4343046875,50.2899453125C140.4343046875,50.3778359375,140.40696191406,50.451078125,140.3522734375,50.509671875C140.29758496094,50.568265625,140.2175078125,50.5975625,140.1120390625,50.5975625C140.0065703125,50.5975625,139.92697949219,50.568265625,139.87326953125,50.509671875C139.81955957031,50.451078125,139.792703125,50.3778359375,139.792703125,50.2899453125Z M141.9811796875,50.3631875C141.9811796875,50.3631875,141.9811796875,51.130765625,141.9811796875,51.130765625C141.9811796875,51.130765625,142.5729765625,51.130765625,142.5729765625,51.130765625C142.5729765625,51.130765625,142.5729765625,51.5497109375,142.5729765625,51.5497109375C142.5729765625,51.5497109375,141.9811796875,51.5497109375,141.9811796875,51.5497109375C141.9811796875,51.5497109375,141.9811796875,53.51553125,141.9811796875,53.51553125C141.9811796875,53.642483398437,142.007546875,53.737698242187,142.06028125,53.80117578125C142.113015625,53.864653320312,142.20286035156,53.896390625,142.3298125,53.896390625C142.39231152344,53.896390625,142.47825097656,53.884671875,142.587625,53.861234375C142.587625,53.861234375,142.587625,54.3006875,142.587625,54.3006875C142.44504589844,54.339749023437,142.306375,54.35928125,142.171609375,54.35928125C141.92942089844,54.35928125,141.7468046875,54.2860390625,141.6237578125,54.1395546875C141.5007109375,53.9930703125,141.4391875,53.7850625,141.4391875,53.51553125C141.4391875,53.51553125,141.4391875,51.5497109375,141.4391875,51.5497109375C141.4391875,51.5497109375,140.8620390625,51.5497109375,140.8620390625,51.5497109375C140.8620390625,51.5497109375,140.8620390625,51.130765625,140.8620390625,51.130765625C140.8620390625,51.130765625,141.4391875,51.130765625,141.4391875,51.130765625C141.4391875,51.130765625,141.4391875,50.3631875,141.4391875,50.3631875C141.4391875,50.3631875,141.9811796875,50.3631875,141.9811796875,50.3631875Z M145.1628203125,54.3006875C145.13156933594,54.238188476562,145.10618066406,54.126860351562,145.0866484375,53.966703125C144.8346953125,54.228420898437,144.53391308594,54.35928125,144.1843046875,54.35928125C143.87180371094,54.35928125,143.61545605469,54.270901367187,143.41526171875,54.09414453125C143.21506738281,53.917387695312,143.11496875,53.693266601562,143.11496875,53.42178125C143.11496875,53.091702148437,143.24045605469,52.835354492187,143.49143359375,52.65273828125C143.74241113281,52.470122070312,144.09543847656,52.3788125,144.550515625,52.3788125C144.550515625,52.3788125,145.077859375,52.3788125,145.077859375,52.3788125C145.077859375,52.3788125,145.077859375,52.1297890625,145.077859375,52.1297890625C145.077859375,51.940334960937,145.02121972656,51.789456054687,144.9079375,51.67715234375C144.79465527344,51.564848632812,144.62766308594,51.5086953125,144.4069609375,51.5086953125C144.2136015625,51.5086953125,144.05149316406,51.557524414062,143.9206328125,51.6551796875C143.78977246094,51.752834960937,143.72434375,51.871000976562,143.72434375,52.009671875C143.72434375,52.009671875,143.179421875,52.009671875,143.179421875,52.009671875C143.179421875,51.85146875,143.23557519531,51.698635742187,143.34787890625,51.55117578125C143.46018261719,51.403715820312,143.61252636719,51.287014648437,143.80491015625,51.201078125C143.99729394531,51.115141601562,144.20871777344,51.072171875,144.4391875,51.072171875C144.80442285156,51.072171875,145.09055371094,51.163481445312,145.2975859375,51.34609765625C145.50461816406,51.528713867187,145.61203808594,51.780180664062,145.6198515625,52.1004921875C145.6198515625,52.1004921875,145.6198515625,53.5594765625,145.6198515625,53.5594765625C145.6198515625,53.850491210937,145.65696191406,54.081936523437,145.7311796875,54.2538125C145.7311796875,54.2538125,145.7311796875,54.3006875,145.7311796875,54.3006875C145.7311796875,54.3006875,145.1628203125,54.3006875,145.1628203125,54.3006875Z M144.26340625,53.8876015625C144.433328125,53.8876015625,144.5944609375,53.84365625,144.7468046875,53.755765625C144.8991484375,53.667875,145.00950097656,53.5536171875,145.077859375,53.4129921875C145.077859375,53.4129921875,145.077859375,52.7626015625,145.077859375,52.7626015625C145.077859375,52.7626015625,144.6530546875,52.7626015625,144.6530546875,52.7626015625C143.98899121094,52.7626015625,143.6569609375,52.956936523437,143.6569609375,53.345609375C143.6569609375,53.51553125,143.71360058594,53.648342773437,143.8268828125,53.744046875C143.94016503906,53.839750976562,144.08567089844,53.8876015625,144.26340625,53.8876015625Z M147.058328125,54.3006875C147.058328125,54.3006875,146.5163359375,54.3006875,146.5163359375,54.3006875C146.5163359375,54.3006875,146.5163359375,49.8006875,146.5163359375,49.8006875C146.5163359375,49.8006875,147.058328125,49.8006875,147.058328125,49.8006875C147.058328125,49.8006875,147.058328125,54.3006875,147.058328125,54.3006875Z M147.339578125,54.3006875Z M150.7526640625,52.3993203125C150.27024121094,52.260649414062,149.91916796875,52.09023828125,149.69944140625,51.88808984375C149.47971484375,51.68594140625,149.3698515625,51.436428710937,149.3698515625,51.1395546875C149.3698515625,50.803616210937,149.50412792969,50.52578515625,149.77268359375,50.30605859375C150.04123925781,50.08633203125,150.39035839844,49.97646875,150.820046875,49.97646875C151.113015625,49.97646875,151.37424707031,50.033108398437,151.60373828125,50.146390625C151.83322949219,50.259672851562,152.01096484375,50.415921875,152.13694140625,50.615140625C152.26291796875,50.814359375,152.32590625,51.032131835937,152.32590625,51.2684609375C152.32590625,51.2684609375,151.7604765625,51.2684609375,151.7604765625,51.2684609375C151.7604765625,51.0106484375,151.6784453125,50.808010742187,151.5143828125,50.66055078125C151.3503203125,50.513090820312,151.118875,50.439359375,150.820046875,50.439359375C150.54270214844,50.439359375,150.32639453125,50.500393554687,150.17112109375,50.62246484375C150.01584765625,50.744536132812,149.9382109375,50.91396875,149.9382109375,51.130765625C149.9382109375,51.304592773437,150.01194238281,51.45156640625,150.15940234375,51.57168359375C150.30686230469,51.69180078125,150.55783984375,51.8016640625,150.91233203125,51.9012734375C151.26682421875,52.0008828125,151.54416894531,52.11074609375,151.74436328125,52.23086328125C151.94455761719,52.35098046875,152.09299609375,52.491116210937,152.18967578125,52.6512734375C152.28635546875,52.811430664062,152.3346953125,52.99990625,152.3346953125,53.216703125C152.3346953125,53.56240625,152.1999296875,53.83926171875,151.9303984375,54.04726953125C151.6608671875,54.25527734375,151.300515625,54.35928125,150.84934375,54.35928125C150.556375,54.35928125,150.28293847656,54.303127929687,150.02903125,54.19082421875C149.77512402344,54.078520507812,149.57932421875,53.924711914062,149.44162890625,53.7293984375C149.30393359375,53.534084960937,149.2350859375,53.312407226562,149.2350859375,53.064359375C149.2350859375,53.064359375,149.800515625,53.064359375,149.800515625,53.064359375C149.800515625,53.322171875,149.89573046875,53.52578515625,150.08616015625,53.67519921875C150.27658984375,53.82461328125,150.53098339844,53.8993203125,150.84934375,53.8993203125C151.14621777344,53.8993203125,151.3737578125,53.838772460937,151.5319609375,53.7176796875C151.6901640625,53.596586914062,151.769265625,53.431545898437,151.769265625,53.2225625C151.769265625,53.013579101562,151.6960234375,52.85195703125,151.5495390625,52.73769921875C151.4030546875,52.62344140625,151.13742871094,52.5106484375,150.7526640625,52.3993203125Z M154.241921875,53.9168984375C154.43528125,53.9168984375,154.60422753906,53.8583046875,154.7487578125,53.7411171875C154.89328808594,53.6239296875,154.97336816406,53.4774453125,154.9889921875,53.3016640625C154.9889921875,53.3016640625,155.5016875,53.3016640625,155.5016875,53.3016640625C155.49192285156,53.4833046875,155.42942089844,53.65615625,155.3141875,53.82021875C155.19895410156,53.98428125,155.04514550781,54.115141601562,154.85276171875,54.212796875C154.66037792969,54.310452148437,154.45676464844,54.35928125,154.241921875,54.35928125C153.81028222656,54.35928125,153.46701953125,54.215237304687,153.21213671875,53.92715234375C152.95725390625,53.639067382812,152.8298125,53.245024414062,152.8298125,52.7450234375C152.8298125,52.7450234375,152.8298125,52.654203125,152.8298125,52.654203125C152.8298125,52.345610351562,152.88645214844,52.0711953125,152.999734375,51.8309609375C153.11301660156,51.5907265625,153.27561425781,51.404202148437,153.48752734375,51.271390625C153.69944042969,51.138579101562,153.94992871094,51.072171875,154.2389921875,51.072171875C154.59445996094,51.072171875,154.88987207031,51.178616210937,155.12522265625,51.3915078125C155.36057324219,51.604399414062,155.48606347656,51.880765625,155.5016875,52.220609375C155.5016875,52.220609375,154.9889921875,52.220609375,154.9889921875,52.220609375C154.97336816406,52.01553125,154.89573144531,51.84707421875,154.75608203125,51.71523828125C154.61643261719,51.58340234375,154.4440703125,51.517484375,154.2389921875,51.517484375C153.9636015625,51.517484375,153.75022363281,51.616604492187,153.59885546875,51.81484765625C153.44748730469,52.013090820312,153.3718046875,52.2997109375,153.3718046875,52.6747109375C153.3718046875,52.6747109375,153.3718046875,52.77725,153.3718046875,52.77725C153.3718046875,53.142485351562,153.44700097656,53.423735351562,153.597390625,53.621C153.74778027344,53.818264648437,153.96262597656,53.9168984375,154.241921875,53.9168984375Z M156.6530546875,51.5145546875C156.8932890625,51.219631835937,157.20579003906,51.072171875,157.5905546875,51.072171875C158.26047753906,51.072171875,158.5983671875,51.4501015625,158.6042265625,52.2059609375C158.6042265625,52.2059609375,158.6042265625,54.3006875,158.6042265625,54.3006875C158.6042265625,54.3006875,158.062234375,54.3006875,158.062234375,54.3006875C158.062234375,54.3006875,158.062234375,52.20303125,158.062234375,52.20303125C158.06028027344,51.974515625,158.00803515625,51.805569335937,157.90549609375,51.6961953125C157.80295703125,51.586821289062,157.6432890625,51.5321328125,157.4264921875,51.5321328125C157.2507109375,51.5321328125,157.09641308594,51.5790078125,156.9636015625,51.6727578125C156.83079003906,51.7665078125,156.72727246094,51.8895546875,156.6530546875,52.0418984375C156.6530546875,52.0418984375,156.6530546875,54.3006875,156.6530546875,54.3006875C156.6530546875,54.3006875,156.1110625,54.3006875,156.1110625,54.3006875C156.1110625,54.3006875,156.1110625,49.8006875,156.1110625,49.8006875C156.1110625,49.8006875,156.6530546875,49.8006875,156.6530546875,49.8006875C156.6530546875,49.8006875,156.6530546875,51.5145546875,156.6530546875,51.5145546875Z M159.2721953125,52.6864296875C159.2721953125,52.3758828125,159.33322949219,52.096586914062,159.45530078125,51.8485390625C159.57737207031,51.600491210937,159.74729394531,51.4090859375,159.96506640625,51.2743203125C160.18283886719,51.1395546875,160.43137597656,51.072171875,160.710671875,51.072171875C161.14231152344,51.072171875,161.49143359375,51.2215859375,161.75803515625,51.5204140625C162.02463671875,51.8192421875,162.1579375,52.216704101562,162.1579375,52.712796875C162.1579375,52.712796875,162.1579375,52.7508828125,162.1579375,52.7508828125C162.1579375,53.059475585937,162.09885449219,53.336331054687,161.98069140625,53.58144921875C161.86252832031,53.826567382812,161.69358203125,54.017483398437,161.47385546875,54.154203125C161.25412890625,54.290922851562,161.00168652344,54.35928125,160.71653125,54.35928125C160.28684277344,54.35928125,159.93869921875,54.2098671875,159.67209765625,53.9110390625C159.40549609375,53.6122109375,159.2721953125,53.216703125,159.2721953125,52.724515625C159.2721953125,52.724515625,159.2721953125,52.6864296875,159.2721953125,52.6864296875Z M159.8171171875,52.7508828125C159.8171171875,53.1024453125,159.89865917969,53.384670898437,160.06174609375,53.5975625C160.22483300781,53.810454101562,160.44309472656,53.9168984375,160.71653125,53.9168984375C160.991921875,53.9168984375,161.21067285156,53.808989257812,161.37278125,53.59316796875C161.53488964844,53.377346679687,161.6159453125,53.075102539062,161.6159453125,52.6864296875C161.6159453125,52.338772460937,161.53342480469,52.057036132812,161.36838671875,51.84121484375C161.20334863281,51.625393554687,160.98410839844,51.517484375,160.710671875,51.517484375C160.44309472656,51.517484375,160.2272734375,51.623928710937,160.0632109375,51.8368203125C159.8991484375,52.049711914062,159.8171171875,52.354399414062,159.8171171875,52.7508828125Z M163.4264921875,54.3006875C163.4264921875,54.3006875,162.8845,54.3006875,162.8845,54.3006875C162.8845,54.3006875,162.8845,49.8006875,162.8845,49.8006875C162.8845,49.8006875,163.4264921875,49.8006875,163.4264921875,49.8006875C163.4264921875,49.8006875,163.4264921875,54.3006875,163.4264921875,54.3006875Z M166.2507109375,54.3006875C166.21945996094,54.238188476562,166.19407128906,54.126860351562,166.1745390625,53.966703125C165.9225859375,54.228420898437,165.62180371094,54.35928125,165.2721953125,54.35928125C164.95969433594,54.35928125,164.70334667969,54.270901367187,164.50315234375,54.09414453125C164.30295800781,53.917387695312,164.202859375,53.693266601562,164.202859375,53.42178125C164.202859375,53.091702148437,164.32834667969,52.835354492187,164.57932421875,52.65273828125C164.83030175781,52.470122070312,165.18332910156,52.3788125,165.63840625,52.3788125C165.63840625,52.3788125,166.16575,52.3788125,166.16575,52.3788125C166.16575,52.3788125,166.16575,52.1297890625,166.16575,52.1297890625C166.16575,51.940334960937,166.10911035156,51.789456054687,165.995828125,51.67715234375C165.88254589844,51.564848632812,165.71555371094,51.5086953125,165.4948515625,51.5086953125C165.3014921875,51.5086953125,165.13938378906,51.557524414062,165.0085234375,51.6551796875C164.87766308594,51.752834960937,164.812234375,51.871000976562,164.812234375,52.009671875C164.812234375,52.009671875,164.2673125,52.009671875,164.2673125,52.009671875C164.2673125,51.85146875,164.32346582031,51.698635742187,164.43576953125,51.55117578125C164.54807324219,51.403715820312,164.70041699219,51.287014648437,164.89280078125,51.201078125C165.08518457031,51.115141601562,165.29660839844,51.072171875,165.527078125,51.072171875C165.89231347656,51.072171875,166.17844433594,51.163481445312,166.3854765625,51.34609765625C166.59250878906,51.528713867187,166.69992871094,51.780180664062,166.7077421875,52.1004921875C166.7077421875,52.1004921875,166.7077421875,53.5594765625,166.7077421875,53.5594765625C166.7077421875,53.850491210937,166.74485253906,54.081936523437,166.8190703125,54.2538125C166.8190703125,54.2538125,166.8190703125,54.3006875,166.8190703125,54.3006875C166.8190703125,54.3006875,166.2507109375,54.3006875,166.2507109375,54.3006875Z M165.351296875,53.8876015625C165.52121875,53.8876015625,165.6823515625,53.84365625,165.8346953125,53.755765625C165.9870390625,53.667875,166.09739160156,53.5536171875,166.16575,53.4129921875C166.16575,53.4129921875,166.16575,52.7626015625,166.16575,52.7626015625C166.16575,52.7626015625,165.7409453125,52.7626015625,165.7409453125,52.7626015625C165.07688183594,52.7626015625,164.7448515625,52.956936523437,164.7448515625,53.345609375C164.7448515625,53.51553125,164.80149121094,53.648342773437,164.9147734375,53.744046875C165.02805566406,53.839750976562,165.17356152344,53.8876015625,165.351296875,53.8876015625Z M168.972390625,51.61709375C168.890359375,51.603420898437,168.80149316406,51.5965859375,168.7057890625,51.5965859375C168.35032128906,51.5965859375,168.10910839844,51.747954101562,167.98215625,52.0506875C167.98215625,52.0506875,167.98215625,54.3006875,167.98215625,54.3006875C167.98215625,54.3006875,167.4401640625,54.3006875,167.4401640625,54.3006875C167.4401640625,54.3006875,167.4401640625,51.130765625,167.4401640625,51.130765625C167.4401640625,51.130765625,167.9675078125,51.130765625,167.9675078125,51.130765625C167.9675078125,51.130765625,167.976296875,51.4969765625,167.976296875,51.4969765625C168.15403222656,51.213772460937,168.40598535156,51.072171875,168.73215625,51.072171875C168.837625,51.072171875,168.91770214844,51.085844726562,168.972390625,51.1131875C168.972390625,51.1131875,168.972390625,51.61709375,168.972390625,51.61709375Z M171.316140625,53.4598671875C171.316140625,53.3133828125,171.26096582031,53.199614257812,171.15061328125,53.11855859375C171.04026074219,53.037502929687,170.84787988281,52.9676796875,170.57346484375,52.9090859375C170.29904980469,52.8504921875,170.08127734375,52.7801796875,169.92014453125,52.6981484375C169.75901171875,52.6161171875,169.63987011719,52.518461914062,169.56272265625,52.4051796875C169.48557519531,52.291897460937,169.447,52.157131835937,169.447,52.0008828125C169.447,51.741116210937,169.55686328125,51.521389648437,169.77658984375,51.341703125C169.99631640625,51.162016601562,170.27707714844,51.072171875,170.618875,51.072171875C170.97825097656,51.072171875,171.26975488281,51.164946289062,171.49338671875,51.3504921875C171.71701855469,51.536038085937,171.8288359375,51.773342773437,171.8288359375,52.06240625C171.8288359375,52.06240625,171.2839140625,52.06240625,171.2839140625,52.06240625C171.2839140625,51.913967773437,171.22092578125,51.786040039062,171.09494921875,51.6786171875C170.96897265625,51.571194335937,170.81028027344,51.517484375,170.618875,51.517484375C170.42161035156,51.517484375,170.2673125,51.560454101562,170.155984375,51.646390625C170.04465625,51.732327148437,169.9889921875,51.844633789062,169.9889921875,51.9833046875C169.9889921875,52.114165039062,170.04075097656,52.212795898437,170.144265625,52.279203125C170.24778027344,52.345610351562,170.43479394531,52.409084960937,170.70530078125,52.4696328125C170.97580761719,52.530180664062,171.19504785156,52.602444335937,171.363015625,52.6864296875C171.53098339844,52.770415039062,171.65549511719,52.871489257812,171.73655078125,52.98965234375C171.81760644531,53.107815429687,171.8581328125,53.251859375,171.8581328125,53.42178125C171.8581328125,53.704985351562,171.74485058594,53.932036132812,171.5182890625,54.10293359375C171.29172753906,54.273831054687,170.99778027344,54.35928125,170.636453125,54.35928125C170.38254589844,54.35928125,170.15793847656,54.314360351562,169.962625,54.224515625C169.76731152344,54.134670898437,169.61448144531,54.00918359375,169.50412890625,53.84805078125C169.39377636719,53.68691796875,169.3386015625,53.5126015625,169.3386015625,53.3251015625C169.3386015625,53.3251015625,169.88059375,53.3251015625,169.88059375,53.3251015625C169.89035839844,53.5067421875,169.96311425781,53.650786132812,170.09885546875,53.75723046875C170.23459667969,53.863674804687,170.413796875,53.9168984375,170.636453125,53.9168984375C170.84153125,53.9168984375,171.00608300781,53.875393554687,171.13010546875,53.79238671875C171.25412792969,53.709379882812,171.316140625,53.598538085937,171.316140625,53.4598671875Z M173.1061796875,51.5145546875C173.3464140625,51.219631835937,173.65891503906,51.072171875,174.0436796875,51.072171875C174.71360253906,51.072171875,175.0514921875,51.4501015625,175.0573515625,52.2059609375C175.0573515625,52.2059609375,175.0573515625,54.3006875,175.0573515625,54.3006875C175.0573515625,54.3006875,174.515359375,54.3006875,174.515359375,54.3006875C174.515359375,54.3006875,174.515359375,52.20303125,174.515359375,52.20303125C174.51340527344,51.974515625,174.46116015625,51.805569335937,174.35862109375,51.6961953125C174.25608203125,51.586821289062,174.0964140625,51.5321328125,173.8796171875,51.5321328125C173.7038359375,51.5321328125,173.54953808594,51.5790078125,173.4167265625,51.6727578125C173.28391503906,51.7665078125,173.18039746094,51.8895546875,173.1061796875,52.0418984375C173.1061796875,52.0418984375,173.1061796875,54.3006875,173.1061796875,54.3006875C173.1061796875,54.3006875,172.5641875,54.3006875,172.5641875,54.3006875C172.5641875,54.3006875,172.5641875,49.8006875,172.5641875,49.8006875C172.5641875,49.8006875,173.1061796875,49.8006875,173.1061796875,49.8006875C173.1061796875,49.8006875,173.1061796875,51.5145546875,173.1061796875,51.5145546875Z M176.4577421875,54.3006875C176.4577421875,54.3006875,175.91575,54.3006875,175.91575,54.3006875C175.91575,54.3006875,175.91575,51.130765625,175.91575,51.130765625C175.91575,51.130765625,176.4577421875,51.130765625,176.4577421875,51.130765625C176.4577421875,51.130765625,176.4577421875,54.3006875,176.4577421875,54.3006875Z M175.8718046875,50.2899453125C175.8718046875,50.2020546875,175.89866113281,50.127836914062,175.95237109375,50.0672890625C176.00608105469,50.006741210937,176.085671875,49.97646875,176.191140625,49.97646875C176.296609375,49.97646875,176.37668652344,50.006741210937,176.431375,50.0672890625C176.48606347656,50.127836914062,176.51340625,50.2020546875,176.51340625,50.2899453125C176.51340625,50.3778359375,176.48606347656,50.451078125,176.431375,50.509671875C176.37668652344,50.568265625,176.296609375,50.5975625,176.191140625,50.5975625C176.085671875,50.5975625,176.00608105469,50.568265625,175.95237109375,50.509671875C175.89866113281,50.451078125,175.8718046875,50.3778359375,175.8718046875,50.2899453125Z M180.0026640625,52.7508828125C180.0026640625,53.233305664062,179.89231152344,53.621975585937,179.671609375,53.9168984375C179.45090722656,54.211821289062,179.15207910156,54.35928125,178.775125,54.35928125C178.39036035156,54.35928125,178.08762402344,54.237209960937,177.866921875,53.9930703125C177.866921875,53.9930703125,177.866921875,55.5194375,177.866921875,55.5194375C177.866921875,55.5194375,177.3249296875,55.5194375,177.3249296875,55.5194375C177.3249296875,55.5194375,177.3249296875,51.130765625,177.3249296875,51.130765625C177.3249296875,51.130765625,177.820046875,51.130765625,177.820046875,51.130765625C177.820046875,51.130765625,177.8464140625,51.482328125,177.8464140625,51.482328125C178.06711621094,51.208891601562,178.3737578125,51.072171875,178.7663359375,51.072171875C179.1471953125,51.072171875,179.44846386719,51.2157265625,179.67014453125,51.5028359375C179.89182519531,51.7899453125,180.0026640625,52.189358398437,180.0026640625,52.701078125C180.0026640625,52.701078125,180.0026640625,52.7508828125,180.0026640625,52.7508828125Z M179.460671875,52.689359375C179.460671875,52.3319375,179.3845,52.049711914062,179.23215625,51.8426796875C179.0798125,51.635647460937,178.87082910156,51.5321328125,178.605203125,51.5321328125C178.277078125,51.5321328125,178.030984375,51.677641601562,177.866921875,51.96865625C177.866921875,51.96865625,177.866921875,53.4833046875,177.866921875,53.4833046875C178.02903027344,53.772368164062,178.277078125,53.9168984375,178.6110625,53.9168984375C178.87082910156,53.9168984375,179.07737207031,53.813870117187,179.23069140625,53.60781640625C179.38401074219,53.401762695312,179.460671875,53.095610351562,179.460671875,52.689359375Z M180.105203125,54.3006875Z M184.1335234375,54.3006875C184.10227246094,54.238188476562,184.07688378906,54.126860351562,184.0573515625,53.966703125C183.8053984375,54.228420898437,183.50461621094,54.35928125,183.1550078125,54.35928125C182.84250683594,54.35928125,182.58615917969,54.270901367187,182.38596484375,54.09414453125C182.18577050781,53.917387695312,182.085671875,53.693266601562,182.085671875,53.42178125C182.085671875,53.091702148437,182.21115917969,52.835354492187,182.46213671875,52.65273828125C182.71311425781,52.470122070312,183.06614160156,52.3788125,183.52121875,52.3788125C183.52121875,52.3788125,184.0485625,52.3788125,184.0485625,52.3788125C184.0485625,52.3788125,184.0485625,52.1297890625,184.0485625,52.1297890625C184.0485625,51.940334960937,183.99192285156,51.789456054687,183.878640625,51.67715234375C183.76535839844,51.564848632812,183.59836621094,51.5086953125,183.3776640625,51.5086953125C183.1843046875,51.5086953125,183.02219628906,51.557524414062,182.8913359375,51.6551796875C182.76047558594,51.752834960937,182.695046875,51.871000976562,182.695046875,52.009671875C182.695046875,52.009671875,182.150125,52.009671875,182.150125,52.009671875C182.150125,51.85146875,182.20627832031,51.698635742187,182.31858203125,51.55117578125C182.43088574219,51.403715820312,182.58322949219,51.287014648437,182.77561328125,51.201078125C182.96799707031,51.115141601562,183.17942089844,51.072171875,183.409890625,51.072171875C183.77512597656,51.072171875,184.06125683594,51.163481445312,184.2682890625,51.34609765625C184.47532128906,51.528713867187,184.58274121094,51.780180664062,184.5905546875,52.1004921875C184.5905546875,52.1004921875,184.5905546875,53.5594765625,184.5905546875,53.5594765625C184.5905546875,53.850491210937,184.62766503906,54.081936523437,184.7018828125,54.2538125C184.7018828125,54.2538125,184.7018828125,54.3006875,184.7018828125,54.3006875C184.7018828125,54.3006875,184.1335234375,54.3006875,184.1335234375,54.3006875Z M183.234109375,53.8876015625C183.40403125,53.8876015625,183.5651640625,53.84365625,183.7175078125,53.755765625C183.8698515625,53.667875,183.98020410156,53.5536171875,184.0485625,53.4129921875C184.0485625,53.4129921875,184.0485625,52.7626015625,184.0485625,52.7626015625C184.0485625,52.7626015625,183.6237578125,52.7626015625,183.6237578125,52.7626015625C182.95969433594,52.7626015625,182.6276640625,52.956936523437,182.6276640625,53.345609375C182.6276640625,53.51553125,182.68430371094,53.648342773437,182.7975859375,53.744046875C182.91086816406,53.839750976562,183.05637402344,53.8876015625,183.234109375,53.8876015625Z M186.070046875,51.130765625C186.070046875,51.130765625,186.087625,51.529203125,186.087625,51.529203125C186.32981347656,51.224515625,186.64621972656,51.072171875,187.03684375,51.072171875C187.70676660156,51.072171875,188.04465625,51.4501015625,188.050515625,52.2059609375C188.050515625,52.2059609375,188.050515625,54.3006875,188.050515625,54.3006875C188.050515625,54.3006875,187.5085234375,54.3006875,187.5085234375,54.3006875C187.5085234375,54.3006875,187.5085234375,52.20303125,187.5085234375,52.20303125C187.50656933594,51.974515625,187.45432421875,51.805569335937,187.35178515625,51.6961953125C187.24924609375,51.586821289062,187.089578125,51.5321328125,186.87278125,51.5321328125C186.697,51.5321328125,186.54270214844,51.5790078125,186.409890625,51.6727578125C186.27707910156,51.7665078125,186.17356152344,51.8895546875,186.09934375,52.0418984375C186.09934375,52.0418984375,186.09934375,54.3006875,186.09934375,54.3006875C186.09934375,54.3006875,185.5573515625,54.3006875,185.5573515625,54.3006875C185.5573515625,54.3006875,185.5573515625,51.130765625,185.5573515625,51.130765625C185.5573515625,51.130765625,186.070046875,51.130765625,186.070046875,51.130765625Z M188.7360625,52.689359375C188.7360625,52.20303125,188.85129589844,51.81191796875,189.081765625,51.51601953125C189.31223535156,51.22012109375,189.61399316406,51.072171875,189.9870390625,51.072171875C190.35813378906,51.072171875,190.652078125,51.199124023437,190.868875,51.45303125C190.868875,51.45303125,190.868875,49.8006875,190.868875,49.8006875C190.868875,49.8006875,191.4108671875,49.8006875,191.4108671875,49.8006875C191.4108671875,49.8006875,191.4108671875,54.3006875,191.4108671875,54.3006875C191.4108671875,54.3006875,190.9128203125,54.3006875,190.9128203125,54.3006875C190.9128203125,54.3006875,190.886453125,53.96084375,190.886453125,53.96084375C190.66965625,54.226469726562,190.3678984375,54.35928125,189.9811796875,54.35928125C189.61399316406,54.35928125,189.31467578125,54.208891601562,189.08323046875,53.908109375C188.85178515625,53.607327148437,188.7360625,53.214749023437,188.7360625,52.730375C188.7360625,52.730375,188.7360625,52.689359375,188.7360625,52.689359375Z M189.2780546875,52.7508828125C189.2780546875,53.110258789062,189.35227246094,53.391508789062,189.5007109375,53.5946328125C189.64914941406,53.797756835937,189.85422753906,53.8993203125,190.1159453125,53.8993203125C190.45969433594,53.8993203125,190.710671875,53.745022460937,190.868875,53.4364296875C190.868875,53.4364296875,190.868875,51.980375,190.868875,51.980375C190.70676660156,51.681546875,190.45774316406,51.5321328125,190.1218046875,51.5321328125C189.85617871094,51.5321328125,189.64914941406,51.634671875,189.5007109375,51.83975C189.35227246094,52.044828125,189.2780546875,52.348540039062,189.2780546875,52.7508828125Z" fill="#000000"/><path d="M131.6803984375,60.115953125C131.6803984375,60.115953125,131.6803984375,61.785875,131.6803984375,61.785875C131.6803984375,61.785875,131.1178984375,61.785875,131.1178984375,61.785875C131.1178984375,61.785875,131.1178984375,57.52025,131.1178984375,57.52025C131.1178984375,57.52025,132.691140625,57.52025,132.691140625,57.52025C133.15793652344,57.52025,133.52366113281,57.639391601562,133.78830859375,57.877671875C134.05295605469,58.115952148438,134.18528125,58.4313828125,134.18528125,58.8239609375C134.18528125,59.238022460938,134.05588574219,59.556872070312,133.79709765625,59.78050390625C133.53830957031,60.004135742188,133.16770410156,60.115953125,132.68528125,60.115953125C132.68528125,60.115953125,131.6803984375,60.115953125,131.6803984375,60.115953125Z M131.6803984375,59.6559921875C131.6803984375,59.6559921875,132.691140625,59.6559921875,132.691140625,59.6559921875C132.99192285156,59.6559921875,133.22238964844,59.585190429688,133.382546875,59.44358984375C133.54270410156,59.301989257812,133.62278125,59.097397460938,133.62278125,58.8298203125C133.62278125,58.575913085938,133.54270410156,58.3727890625,133.382546875,58.2204453125C133.22238964844,58.0681015625,133.00266308594,57.989,132.7233671875,57.983140625C132.7233671875,57.983140625,131.6803984375,57.983140625,131.6803984375,57.983140625C131.6803984375,57.983140625,131.6803984375,59.6559921875,131.6803984375,59.6559921875Z M136.775125,61.4723984375C136.5641875,61.720446289062,136.25461621094,61.84446875,135.8464140625,61.84446875C135.50852441406,61.84446875,135.25119824219,61.74632421875,135.07444140625,61.55003515625C134.89768457031,61.35374609375,134.80832910156,61.063217773438,134.806375,60.678453125C134.806375,60.678453125,134.806375,58.615953125,134.806375,58.615953125C134.806375,58.615953125,135.3483671875,58.615953125,135.3483671875,58.615953125C135.3483671875,58.615953125,135.3483671875,60.6638046875,135.3483671875,60.6638046875C135.3483671875,61.1442734375,135.54368066406,61.3845078125,135.9343046875,61.3845078125C136.34836621094,61.3845078125,136.62375683594,61.230209960938,136.7604765625,60.9216171875C136.7604765625,60.9216171875,136.7604765625,58.615953125,136.7604765625,58.615953125C136.7604765625,58.615953125,137.30246875,58.615953125,137.30246875,58.615953125C137.30246875,58.615953125,137.30246875,61.785875,137.30246875,61.785875C137.30246875,61.785875,136.78684375,61.785875,136.78684375,61.785875C136.78684375,61.785875,136.775125,61.4723984375,136.775125,61.4723984375Z M140.8093046875,60.2360703125C140.8093046875,60.720444335938,140.6979765625,61.109606445312,140.4753203125,61.40355078125C140.2526640625,61.697495117188,139.9538359375,61.84446875,139.5788359375,61.84446875C139.17844433594,61.84446875,138.86887597656,61.702868164062,138.650125,61.4196640625C138.650125,61.4196640625,138.6237578125,61.785875,138.6237578125,61.785875C138.6237578125,61.785875,138.1257109375,61.785875,138.1257109375,61.785875C138.1257109375,61.785875,138.1257109375,57.285875,138.1257109375,57.285875C138.1257109375,57.285875,138.667703125,57.285875,138.667703125,57.285875C138.667703125,57.285875,138.667703125,58.9645859375,138.667703125,58.9645859375C138.88645410156,58.693100585938,139.18821191406,58.557359375,139.5729765625,58.557359375C139.95774121094,58.557359375,140.25998828125,58.702868164062,140.47971484375,58.9938828125C140.69944140625,59.284897460938,140.8093046875,59.683334960938,140.8093046875,60.1891953125C140.8093046875,60.1891953125,140.8093046875,60.2360703125,140.8093046875,60.2360703125Z M140.2673125,60.174546875C140.2673125,59.80540625,140.19602441406,59.520250976562,140.0534453125,59.319078125C139.91086621094,59.117905273438,139.70578808594,59.0173203125,139.4382109375,59.0173203125C139.0807890625,59.0173203125,138.82395214844,59.183336914062,138.667703125,59.5153671875C138.667703125,59.5153671875,138.667703125,60.8864609375,138.667703125,60.8864609375C138.83371972656,61.218491210938,139.0925078125,61.3845078125,139.4440703125,61.3845078125C139.70383691406,61.3845078125,139.90598535156,61.283922851562,140.050515625,61.08275C140.19504589844,60.881577148438,140.2673125,60.57884375,140.2673125,60.174546875Z M142.0807890625,61.785875C142.0807890625,61.785875,141.538796875,61.785875,141.538796875,61.785875C141.538796875,61.785875,141.538796875,57.285875,141.538796875,57.285875C141.538796875,57.285875,142.0807890625,57.285875,142.0807890625,57.285875C142.0807890625,57.285875,142.0807890625,61.785875,142.0807890625,61.785875Z M143.53684375,61.785875C143.53684375,61.785875,142.9948515625,61.785875,142.9948515625,61.785875C142.9948515625,61.785875,142.9948515625,58.615953125,142.9948515625,58.615953125C142.9948515625,58.615953125,143.53684375,58.615953125,143.53684375,58.615953125C143.53684375,58.615953125,143.53684375,61.785875,143.53684375,61.785875Z M142.95090625,57.7751328125C142.95090625,57.6872421875,142.97776269531,57.613024414062,143.03147265625,57.5524765625C143.08518261719,57.491928710938,143.1647734375,57.46165625,143.2702421875,57.46165625C143.3757109375,57.46165625,143.45578808594,57.491928710938,143.5104765625,57.5524765625C143.56516503906,57.613024414062,143.5925078125,57.6872421875,143.5925078125,57.7751328125C143.5925078125,57.8630234375,143.56516503906,57.936265625,143.5104765625,57.994859375C143.45578808594,58.053453125,143.3757109375,58.08275,143.2702421875,58.08275C143.1647734375,58.08275,143.08518261719,58.053453125,143.03147265625,57.994859375C142.97776269531,57.936265625,142.95090625,57.8630234375,142.95090625,57.7751328125Z M146.249734375,60.9450546875C146.249734375,60.7985703125,146.19455957031,60.684801757812,146.08420703125,60.60374609375C145.97385449219,60.522690429688,145.78147363281,60.4528671875,145.50705859375,60.3942734375C145.23264355469,60.3356796875,145.01487109375,60.2653671875,144.85373828125,60.1833359375C144.69260546875,60.1013046875,144.57346386719,60.003649414062,144.49631640625,59.8903671875C144.41916894531,59.777084960938,144.38059375,59.642319335938,144.38059375,59.4860703125C144.38059375,59.226303710938,144.49045703125,59.006577148438,144.71018359375,58.826890625C144.92991015625,58.647204101562,145.21067089844,58.557359375,145.55246875,58.557359375C145.91184472656,58.557359375,146.20334863281,58.650133789062,146.42698046875,58.8356796875C146.65061230469,59.021225585938,146.7624296875,59.258530273438,146.7624296875,59.54759375C146.7624296875,59.54759375,146.2175078125,59.54759375,146.2175078125,59.54759375C146.2175078125,59.399155273438,146.15451953125,59.271227539062,146.02854296875,59.1638046875C145.90256640625,59.056381835938,145.74387402344,59.002671875,145.55246875,59.002671875C145.35520410156,59.002671875,145.20090625,59.045641601562,145.089578125,59.131578125C144.97825,59.217514648438,144.9225859375,59.329821289062,144.9225859375,59.4684921875C144.9225859375,59.599352539062,144.97434472656,59.697983398438,145.077859375,59.764390625C145.18137402344,59.830797851562,145.36838769531,59.894272460938,145.63889453125,59.9548203125C145.90940136719,60.015368164062,146.12864160156,60.087631835938,146.296609375,60.1716171875C146.46457714844,60.255602539062,146.58908886719,60.356676757812,146.67014453125,60.47483984375C146.75120019531,60.593002929688,146.7917265625,60.737046875,146.7917265625,60.90696875C146.7917265625,61.190172851562,146.67844433594,61.417223632812,146.4518828125,61.58812109375C146.22532128906,61.759018554688,145.93137402344,61.84446875,145.570046875,61.84446875C145.31613964844,61.84446875,145.09153222656,61.799547851562,144.89621875,61.709703125C144.70090527344,61.619858398438,144.54807519531,61.49437109375,144.43772265625,61.33323828125C144.32737011719,61.17210546875,144.2721953125,60.9977890625,144.2721953125,60.8102890625C144.2721953125,60.8102890625,144.8141875,60.8102890625,144.8141875,60.8102890625C144.82395214844,60.9919296875,144.89670800781,61.135973632812,145.03244921875,61.24241796875C145.16819042969,61.348862304688,145.347390625,61.4020859375,145.570046875,61.4020859375C145.775125,61.4020859375,145.93967675781,61.360581054688,146.06369921875,61.27757421875C146.18772167969,61.194567382812,146.249734375,61.083725585938,146.249734375,60.9450546875Z M148.0397734375,58.9997421875C148.2800078125,58.704819335938,148.59250878906,58.557359375,148.9772734375,58.557359375C149.64719628906,58.557359375,149.9850859375,58.9352890625,149.9909453125,59.6911484375C149.9909453125,59.6911484375,149.9909453125,61.785875,149.9909453125,61.785875C149.9909453125,61.785875,149.448953125,61.785875,149.448953125,61.785875C149.448953125,61.785875,149.448953125,59.68821875,149.448953125,59.68821875C149.44699902344,59.459703125,149.39475390625,59.290756835938,149.29221484375,59.1813828125C149.18967578125,59.072008789062,149.0300078125,59.0173203125,148.8132109375,59.0173203125C148.6374296875,59.0173203125,148.48313183594,59.0641953125,148.3503203125,59.1579453125C148.21750878906,59.2516953125,148.11399121094,59.3747421875,148.0397734375,59.5270859375C148.0397734375,59.5270859375,148.0397734375,61.785875,148.0397734375,61.785875C148.0397734375,61.785875,147.49778125,61.785875,147.49778125,61.785875C147.49778125,61.785875,147.49778125,57.285875,147.49778125,57.285875C147.49778125,57.285875,148.0397734375,57.285875,148.0397734375,57.285875C148.0397734375,57.285875,148.0397734375,58.9997421875,148.0397734375,58.9997421875Z M151.3913359375,61.785875C151.3913359375,61.785875,150.84934375,61.785875,150.84934375,61.785875C150.84934375,61.785875,150.84934375,58.615953125,150.84934375,58.615953125C150.84934375,58.615953125,151.3913359375,58.615953125,151.3913359375,58.615953125C151.3913359375,58.615953125,151.3913359375,61.785875,151.3913359375,61.785875Z M150.8053984375,57.7751328125C150.8053984375,57.6872421875,150.83225488281,57.613024414062,150.88596484375,57.5524765625C150.93967480469,57.491928710938,151.019265625,57.46165625,151.124734375,57.46165625C151.230203125,57.46165625,151.31028027344,57.491928710938,151.36496875,57.5524765625C151.41965722656,57.613024414062,151.447,57.6872421875,151.447,57.7751328125C151.447,57.8630234375,151.41965722656,57.936265625,151.36496875,57.994859375C151.31028027344,58.053453125,151.230203125,58.08275,151.124734375,58.08275C151.019265625,58.08275,150.93967480469,58.053453125,150.88596484375,57.994859375C150.83225488281,57.936265625,150.8053984375,57.8630234375,150.8053984375,57.7751328125Z M152.77121875,58.615953125C152.77121875,58.615953125,152.788796875,59.014390625,152.788796875,59.014390625C153.03098535156,58.709703125,153.34739160156,58.557359375,153.738015625,58.557359375C154.40793847656,58.557359375,154.745828125,58.9352890625,154.7516875,59.6911484375C154.7516875,59.6911484375,154.7516875,61.785875,154.7516875,61.785875C154.7516875,61.785875,154.2096953125,61.785875,154.2096953125,61.785875C154.2096953125,61.785875,154.2096953125,59.68821875,154.2096953125,59.68821875C154.20774121094,59.459703125,154.15549609375,59.290756835938,154.05295703125,59.1813828125C153.95041796875,59.072008789062,153.79075,59.0173203125,153.573953125,59.0173203125C153.398171875,59.0173203125,153.24387402344,59.0641953125,153.1110625,59.1579453125C152.97825097656,59.2516953125,152.87473339844,59.3747421875,152.800515625,59.5270859375C152.800515625,59.5270859375,152.800515625,61.785875,152.800515625,61.785875C152.800515625,61.785875,152.2585234375,61.785875,152.2585234375,61.785875C152.2585234375,61.785875,152.2585234375,58.615953125,152.2585234375,58.615953125C152.2585234375,58.615953125,152.77121875,58.615953125,152.77121875,58.615953125Z M155.3522734375,60.174546875C155.3522734375,59.680405273438,155.46653125,59.287340820312,155.695046875,58.99534765625C155.9235625,58.703354492188,156.22629589844,58.557359375,156.60325,58.557359375C156.98996875,58.557359375,157.2917265625,58.694079101562,157.5085234375,58.967515625C157.5085234375,58.967515625,157.534890625,58.615953125,157.534890625,58.615953125C157.534890625,58.615953125,158.0300078125,58.615953125,158.0300078125,58.615953125C158.0300078125,58.615953125,158.0300078125,61.709703125,158.0300078125,61.709703125C158.0300078125,62.119859375,157.90842578125,62.443100585938,157.66526171875,62.6794296875C157.42209765625,62.915758789062,157.0954375,63.033921875,156.68528125,63.033921875C156.456765625,63.033921875,156.23313378906,62.985092773438,156.0143828125,62.8874375C155.79563183594,62.789782226562,155.62863964844,62.6559921875,155.51340625,62.4860703125C155.51340625,62.4860703125,155.79465625,62.160875,155.79465625,62.160875C156.02707714844,62.447984375,156.31125683594,62.5915390625,156.6471953125,62.5915390625C156.9108671875,62.5915390625,157.11643457031,62.517321289062,157.26389453125,62.3688828125C157.41135449219,62.220444335938,157.4850859375,62.0114609375,157.4850859375,61.7419296875C157.4850859375,61.7419296875,157.4850859375,61.46946875,157.4850859375,61.46946875C157.2682890625,61.719467773438,156.972390625,61.84446875,156.597390625,61.84446875C156.22629589844,61.84446875,155.92600292969,61.6950546875,155.69651171875,61.3962265625C155.46702050781,61.0973984375,155.3522734375,60.690171875,155.3522734375,60.174546875Z M155.8971953125,60.2360703125C155.8971953125,60.5934921875,155.9704375,60.874252929688,156.116921875,61.07835546875C156.26340625,61.282458007812,156.468484375,61.3845078125,156.73215625,61.3845078125C157.07395410156,61.3845078125,157.32492871094,61.229234375,157.4850859375,60.9186875C157.4850859375,60.9186875,157.4850859375,59.471421875,157.4850859375,59.471421875C157.31906933594,59.168688476562,157.07004589844,59.0173203125,156.738015625,59.0173203125C156.47434375,59.0173203125,156.26829003906,59.119859375,156.1198515625,59.3249375C155.97141308594,59.530015625,155.8971953125,59.833727539062,155.8971953125,60.2360703125Z M158.261453125,61.785875Z M161.6745390625,59.8845078125C161.19211621094,59.745836914062,160.84104296875,59.57542578125,160.62131640625,59.37327734375C160.40158984375,59.17112890625,160.2917265625,58.921616210938,160.2917265625,58.6247421875C160.2917265625,58.288803710938,160.42600292969,58.01097265625,160.69455859375,57.79124609375C160.96311425781,57.57151953125,161.31223339844,57.46165625,161.741921875,57.46165625C162.034890625,57.46165625,162.29612207031,57.518295898438,162.52561328125,57.631578125C162.75510449219,57.744860351562,162.93283984375,57.901109375,163.05881640625,58.100328125C163.18479296875,58.299546875,163.24778125,58.517319335938,163.24778125,58.7536484375C163.24778125,58.7536484375,162.6823515625,58.7536484375,162.6823515625,58.7536484375C162.6823515625,58.4958359375,162.6003203125,58.293198242188,162.4362578125,58.14573828125C162.2721953125,57.998278320312,162.04075,57.924546875,161.741921875,57.924546875C161.46457714844,57.924546875,161.24826953125,57.985581054688,161.09299609375,58.10765234375C160.93772265625,58.229723632812,160.8600859375,58.39915625,160.8600859375,58.615953125C160.8600859375,58.789780273438,160.93381738281,58.93675390625,161.08127734375,59.05687109375C161.22873730469,59.17698828125,161.47971484375,59.2868515625,161.83420703125,59.3864609375C162.18869921875,59.4860703125,162.46604394531,59.59593359375,162.66623828125,59.71605078125C162.86643261719,59.83616796875,163.01487109375,59.976303710938,163.11155078125,60.1364609375C163.20823046875,60.296618164062,163.2565703125,60.48509375,163.2565703125,60.701890625C163.2565703125,61.04759375,163.1218046875,61.32444921875,162.8522734375,61.53245703125C162.5827421875,61.74046484375,162.222390625,61.84446875,161.77121875,61.84446875C161.47825,61.84446875,161.20481347656,61.788315429688,160.95090625,61.67601171875C160.69699902344,61.563708007812,160.50119921875,61.409899414062,160.36350390625,61.2145859375C160.22580859375,61.019272460938,160.1569609375,60.797594726562,160.1569609375,60.549546875C160.1569609375,60.549546875,160.722390625,60.549546875,160.722390625,60.549546875C160.722390625,60.807359375,160.81760546875,61.01097265625,161.00803515625,61.16038671875C161.19846484375,61.30980078125,161.45285839844,61.3845078125,161.77121875,61.3845078125C162.06809277344,61.3845078125,162.2956328125,61.323959960938,162.4538359375,61.2028671875C162.6120390625,61.081774414062,162.691140625,60.916733398438,162.691140625,60.70775C162.691140625,60.498766601562,162.6178984375,60.33714453125,162.4714140625,60.22288671875C162.3249296875,60.10862890625,162.05930371094,59.9958359375,161.6745390625,59.8845078125Z M164.6276640625,57.848375C164.6276640625,57.848375,164.6276640625,58.615953125,164.6276640625,58.615953125C164.6276640625,58.615953125,165.2194609375,58.615953125,165.2194609375,58.615953125C165.2194609375,58.615953125,165.2194609375,59.0348984375,165.2194609375,59.0348984375C165.2194609375,59.0348984375,164.6276640625,59.0348984375,164.6276640625,59.0348984375C164.6276640625,59.0348984375,164.6276640625,61.00071875,164.6276640625,61.00071875C164.6276640625,61.127670898438,164.65403125,61.222885742188,164.706765625,61.28636328125C164.7595,61.349840820312,164.84934472656,61.381578125,164.976296875,61.381578125C165.03879589844,61.381578125,165.12473535156,61.369859375,165.234109375,61.346421875C165.234109375,61.346421875,165.234109375,61.785875,165.234109375,61.785875C165.09153027344,61.824936523438,164.952859375,61.84446875,164.81809375,61.84446875C164.57590527344,61.84446875,164.3932890625,61.7712265625,164.2702421875,61.6247421875C164.1471953125,61.4782578125,164.085671875,61.27025,164.085671875,61.00071875C164.085671875,61.00071875,164.085671875,59.0348984375,164.085671875,59.0348984375C164.085671875,59.0348984375,163.5085234375,59.0348984375,163.5085234375,59.0348984375C163.5085234375,59.0348984375,163.5085234375,58.615953125,163.5085234375,58.615953125C163.5085234375,58.615953125,164.085671875,58.615953125,164.085671875,58.615953125C164.085671875,58.615953125,164.085671875,57.848375,164.085671875,57.848375C164.085671875,57.848375,164.6276640625,57.848375,164.6276640625,57.848375Z M167.8093046875,61.4723984375C167.5983671875,61.720446289062,167.28879589844,61.84446875,166.88059375,61.84446875C166.54270410156,61.84446875,166.28537792969,61.74632421875,166.10862109375,61.55003515625C165.93186425781,61.35374609375,165.84250878906,61.063217773438,165.8405546875,60.678453125C165.8405546875,60.678453125,165.8405546875,58.615953125,165.8405546875,58.615953125C165.8405546875,58.615953125,166.382546875,58.615953125,166.382546875,58.615953125C166.382546875,58.615953125,166.382546875,60.6638046875,166.382546875,60.6638046875C166.382546875,61.1442734375,166.57786035156,61.3845078125,166.968484375,61.3845078125C167.38254589844,61.3845078125,167.65793652344,61.230209960938,167.79465625,60.9216171875C167.79465625,60.9216171875,167.79465625,58.615953125,167.79465625,58.615953125C167.79465625,58.615953125,168.3366484375,58.615953125,168.3366484375,58.615953125C168.3366484375,58.615953125,168.3366484375,61.785875,168.3366484375,61.785875C168.3366484375,61.785875,167.8210234375,61.785875,167.8210234375,61.785875C167.8210234375,61.785875,167.8093046875,61.4723984375,167.8093046875,61.4723984375Z M169.0280546875,60.174546875C169.0280546875,59.68821875,169.14328808594,59.29710546875,169.3737578125,59.00120703125C169.60422753906,58.70530859375,169.90598535156,58.557359375,170.27903125,58.557359375C170.65012597656,58.557359375,170.9440703125,58.684311523438,171.1608671875,58.93821875C171.1608671875,58.93821875,171.1608671875,57.285875,171.1608671875,57.285875C171.1608671875,57.285875,171.702859375,57.285875,171.702859375,57.285875C171.702859375,57.285875,171.702859375,61.785875,171.702859375,61.785875C171.702859375,61.785875,171.2048125,61.785875,171.2048125,61.785875C171.2048125,61.785875,171.1784453125,61.44603125,171.1784453125,61.44603125C170.9616484375,61.711657226562,170.659890625,61.84446875,170.273171875,61.84446875C169.90598535156,61.84446875,169.60666796875,61.694079101562,169.37522265625,61.393296875C169.14377734375,61.092514648438,169.0280546875,60.699936523438,169.0280546875,60.2155625C169.0280546875,60.2155625,169.0280546875,60.174546875,169.0280546875,60.174546875Z M169.570046875,60.2360703125C169.570046875,60.595446289062,169.64426464844,60.876696289062,169.792703125,61.0798203125C169.94114160156,61.282944335938,170.14621972656,61.3845078125,170.4079375,61.3845078125C170.75168652344,61.3845078125,171.0026640625,61.230209960938,171.1608671875,60.9216171875C171.1608671875,60.9216171875,171.1608671875,59.4655625,171.1608671875,59.4655625C170.99875878906,59.166734375,170.74973535156,59.0173203125,170.413796875,59.0173203125C170.14817089844,59.0173203125,169.94114160156,59.119859375,169.792703125,59.3249375C169.64426464844,59.530015625,169.570046875,59.833727539062,169.570046875,60.2360703125Z M173.132546875,61.785875C173.132546875,61.785875,172.5905546875,61.785875,172.5905546875,61.785875C172.5905546875,61.785875,172.5905546875,58.615953125,172.5905546875,58.615953125C172.5905546875,58.615953125,173.132546875,58.615953125,173.132546875,58.615953125C173.132546875,58.615953125,173.132546875,61.785875,173.132546875,61.785875Z M172.546609375,57.7751328125C172.546609375,57.6872421875,172.57346582031,57.613024414062,172.62717578125,57.5524765625C172.68088574219,57.491928710938,172.7604765625,57.46165625,172.8659453125,57.46165625C172.9714140625,57.46165625,173.05149121094,57.491928710938,173.1061796875,57.5524765625C173.16086816406,57.613024414062,173.1882109375,57.6872421875,173.1882109375,57.7751328125C173.1882109375,57.8630234375,173.16086816406,57.936265625,173.1061796875,57.994859375C173.05149121094,58.053453125,172.9714140625,58.08275,172.8659453125,58.08275C172.7604765625,58.08275,172.68088574219,58.053453125,172.62717578125,57.994859375C172.57346582031,57.936265625,172.546609375,57.8630234375,172.546609375,57.7751328125Z M173.8561796875,60.1716171875C173.8561796875,59.8610703125,173.91721386719,59.581774414062,174.03928515625,59.3337265625C174.16135644531,59.085678710938,174.33127832031,58.8942734375,174.54905078125,58.7595078125C174.76682324219,58.6247421875,175.01536035156,58.557359375,175.29465625,58.557359375C175.72629589844,58.557359375,176.07541796875,58.7067734375,176.34201953125,59.0056015625C176.60862109375,59.3044296875,176.741921875,59.701891601562,176.741921875,60.197984375C176.741921875,60.197984375,176.741921875,60.2360703125,176.741921875,60.2360703125C176.741921875,60.544663085938,176.68283886719,60.821518554688,176.56467578125,61.06663671875C176.44651269531,61.311754882812,176.27756640625,61.502670898438,176.05783984375,61.639390625C175.83811328125,61.776110351562,175.58567089844,61.84446875,175.300515625,61.84446875C174.87082714844,61.84446875,174.52268359375,61.6950546875,174.25608203125,61.3962265625C173.98948046875,61.0973984375,173.8561796875,60.701890625,173.8561796875,60.209703125C173.8561796875,60.209703125,173.8561796875,60.1716171875,173.8561796875,60.1716171875Z M174.4011015625,60.2360703125C174.4011015625,60.5876328125,174.48264355469,60.869858398438,174.64573046875,61.08275C174.80881738281,61.295641601562,175.02707910156,61.4020859375,175.300515625,61.4020859375C175.57590625,61.4020859375,175.79465722656,61.294176757812,175.956765625,61.07835546875C176.11887402344,60.862534179688,176.1999296875,60.560290039062,176.1999296875,60.1716171875C176.1999296875,59.823959960938,176.11740917969,59.542223632812,175.95237109375,59.32640234375C175.78733300781,59.110581054688,175.56809277344,59.002671875,175.29465625,59.002671875C175.02707910156,59.002671875,174.8112578125,59.109116210938,174.6471953125,59.3220078125C174.4831328125,59.534899414062,174.4011015625,59.839586914062,174.4011015625,60.2360703125Z" fill="#000000"/><rect style="fill:#000000" height="31.390375" width="0.733" y="34.7778125" x="124.625"/></svg>