<?xml version="1.0" encoding="UTF-8"?>
<svg id="Layer_1" data-name="Layer 1" xmlns="http://www.w3.org/2000/svg" version="1.1" viewBox="0 0 400 100">
  <defs>
    <style>
      .cls-1 {
        fill: #000;
      }

      .cls-1, .cls-2 {
        stroke-width: 0px;
      }

      .cls-2 {
        fill: #ffcd00;
      }
    </style>
  </defs>
  <path class="cls-2" d="M63.4,38.7h-3.5v24.9h3.5v9.1h-19v-9.1h3.5v-24.9h-3.5v-8.9h19v8.9Z"/>
  <path class="cls-2" d="M88.9,72.7h-13.8c-5,0-8.3-3.3-8.3-8.7v-25.6c-.4-4.4,2.9-8.3,7.3-8.6.3,0,.6,0,1,0h13.8c5,0,8.3,3.3,8.3,8.6v25.5c.4,4.4-2.8,8.3-7.2,8.7,0,0,0,0,0,0-.3,0-.7,0-1,0ZM84.9,63.7v-25h-6v24.9h6Z"/>
  <path class="cls-2" d="M102.6,38.7h-3v-8.9h18v8.9h-3.4l3.1,20.6,6.4-29.6h9.1l6.9,29.6,2.5-20.6h-3.1v-8.9h17.8v8.9h-3l-5.4,34h-14.5l-5.6-25.3-5.8,25.3h-14l-6-34Z"/>
  <path class="cls-2" d="M153.7,63.6h3.3l6.5-33.8h19.4l6.4,33.8h3v9.1h-14.5l-1.4-10.4h-7.2l-1.3,10.4h-14.3v-9.1ZM175.7,54.3l-2.8-17.3-2.8,17.3h5.6Z"/>
  <path class="cls-1" d="M224.9,29.5v7.5c0,1.2-.4,2.2-1.2,3-.8.7-1.8,1.1-3.2,1.1s-2.4-.4-3.2-1.1-1.2-1.7-1.2-2.9v-7.6h2.3v7.5c0,.7.2,1.3.5,1.6.4.3.9.5,1.5.5,1.3,0,2-.7,2-2.1v-7.6h2.4ZM228.7,32.4v1c.7-.8,1.5-1.1,2.5-1.1s1.6.3,2,.8.7,1.3.7,2.4v5.5h-2.3v-5.4c0-.5-.1-.8-.3-1-.2-.2-.6-.3-1-.3s-1.1.3-1.4.8v6h-2.3v-8.5h2.1ZM238,40.8h-2.3v-8.5h2.3v8.5ZM235.6,30.2c0-.3.1-.6.3-.8s.5-.3.9-.3.7.1.9.3c.2.2.3.5.3.8s-.1.6-.3.8c-.2.2-.5.3-.9.3s-.7-.1-.9-.3c-.2-.2-.3-.5-.3-.8ZM243,38.1l1.6-5.7h2.4l-2.9,8.5h-2.2l-2.9-8.5h2.4l1.6,5.7ZM251.4,41c-1.2,0-2.2-.4-3-1.1-.8-.8-1.2-1.8-1.2-3v-.2c0-.8.2-1.6.5-2.3s.8-1.2,1.4-1.5,1.3-.5,2.1-.5c1.2,0,2.1.4,2.7,1.1s1,1.8,1,3.1v.9h-5.4c0,.6.3,1,.7,1.3s.8.5,1.4.5c.9,0,1.5-.3,2-.9l1.1,1.2c-.3.5-.8.9-1.4,1.1s-1.2.4-1.9.4ZM251.2,34.1c-.4,0-.8.2-1.1.5-.3.3-.5.7-.5,1.3h3.1v-.2c0-.5-.1-.9-.4-1.2-.3-.3-.6-.4-1.1-.4ZM260.9,34.5c-.3,0-.6,0-.8,0-.9,0-1.4.3-1.7.9v5.5h-2.3v-8.5h2.1v1c.5-.8,1.1-1.2,1.9-1.2s.5,0,.7.1v2.2ZM266.6,38.5c0-.3-.1-.5-.4-.7s-.7-.3-1.3-.4c-2-.4-3-1.3-3-2.6s.3-1.4.9-1.9c.6-.5,1.4-.8,2.4-.8s1.9.3,2.6.8c.6.5,1,1.2,1,2h-2.3c0-.3-.1-.6-.3-.8-.2-.2-.5-.3-1-.3s-.7,0-.9.3c-.2.2-.3.4-.3.7s.1.5.4.6c.2.2.6.3,1.2.4s1,.2,1.4.4c1.2.4,1.8,1.2,1.8,2.3s-.3,1.4-1,1.9c-.7.5-1.5.7-2.6.7s-1.3-.1-1.9-.4c-.5-.3-1-.6-1.3-1s-.5-.9-.5-1.4h2.1c0,.4.2.7.4.9.3.2.6.3,1.1.3s.8,0,1-.2c.2-.2.3-.4.3-.6ZM272.4,40.8h-2.3v-8.5h2.3v8.5ZM270,30.2c0-.3.1-.6.3-.8s.5-.3.9-.3.7.1.9.3c.2.2.3.5.3.8s-.1.6-.3.8c-.2.2-.5.3-.9.3s-.7-.1-.9-.3c-.2-.2-.3-.5-.3-.8ZM277,30.3v2.1h1.4v1.7h-1.4v4.2c0,.3,0,.5.2.7.1.1.3.2.7.2s.5,0,.7,0v1.7c-.4.1-.9.2-1.4.2-1.6,0-2.4-.8-2.4-2.4v-4.6h-1.2v-1.7h1.2v-2.1h2.3ZM283.3,37.6l1.6-5.3h2.4l-3.4,9.8-.2.4c-.5,1.1-1.3,1.7-2.5,1.7s-.7,0-1-.1v-1.7h.3c.4,0,.7,0,1-.2s.4-.3.5-.6l.3-.7-3-8.5h2.4l1.6,5.3ZM295,39h5v1.9h-7.3v-11.4h2.3v9.5ZM303.5,40.8h-2.3v-8.5h2.3v8.5ZM301.1,30.2c0-.3.1-.6.3-.8s.5-.3.9-.3.7.1.9.3c.2.2.3.5.3.8s-.1.6-.3.8c-.2.2-.5.3-.9.3s-.7-.1-.9-.3c-.2-.2-.3-.5-.3-.8ZM313,36.7c0,1.4-.3,2.4-.9,3.2s-1.4,1.1-2.4,1.1-1.6-.4-2.2-1.1v.9h-2.1v-12h2.3v4.3c.5-.6,1.2-.9,2.1-.9s1.8.4,2.4,1.1.9,1.8.9,3.2h0ZM310.7,36.5c0-.9-.1-1.5-.4-1.9-.3-.4-.7-.6-1.2-.6s-1.2.3-1.5.9v3.3c.3.6.8.9,1.5.9s1.2-.4,1.4-1.1c.1-.3.2-.9.2-1.6ZM319.1,34.5c-.3,0-.6,0-.8,0-.9,0-1.4.3-1.7.9v5.5h-2.3v-8.5h2.1v1c.5-.8,1.1-1.2,1.9-1.2s.5,0,.7.1v2.2ZM325.2,40.8c-.1-.2-.2-.5-.2-.8-.5.6-1.3.9-2.1.9s-1.5-.2-2.1-.7c-.5-.5-.8-1.1-.8-1.8s.3-1.6,1-2.1,1.6-.7,2.9-.7h1v-.5c0-.4-.1-.7-.3-.9-.2-.2-.5-.4-.9-.4s-.7,0-.9.3c-.2.2-.3.4-.3.8h-2.3c0-.5.2-.9.5-1.4.3-.4.7-.7,1.3-1,.6-.2,1.2-.4,1.9-.4,1,0,1.9.3,2.5.8.6.5.9,1.3.9,2.2v3.7c0,.8.1,1.4.3,1.8h0c0,.1-2.3.1-2.3.1ZM323.3,39.3c.3,0,.6,0,.9-.2s.5-.3.6-.6v-1.5h-.8c-1.1,0-1.7.4-1.8,1.2h0c0,.4,0,.6.3.8.2.2.5.3.8.3ZM333.6,34.5c-.3,0-.6,0-.8,0-.9,0-1.4.3-1.7.9v5.5h-2.3v-8.5h2.1v1c.5-.8,1.1-1.2,1.9-1.2s.5,0,.7.1v2.2ZM337.4,40.8h-2.3v-8.5h2.3v8.5ZM335,30.2c0-.3.1-.6.3-.8s.5-.3.9-.3.7.1.9.3c.2.2.3.5.3.8s-.1.6-.3.8c-.2.2-.5.3-.9.3s-.7-.1-.9-.3c-.2-.2-.3-.5-.3-.8ZM343.1,41c-1.2,0-2.2-.4-3-1.1-.8-.8-1.2-1.8-1.2-3v-.2c0-.8.2-1.6.5-2.3s.8-1.2,1.4-1.5,1.3-.5,2.1-.5c1.2,0,2.1.4,2.7,1.1s1,1.8,1,3.1v.9h-5.4c0,.6.3,1,.7,1.3s.8.5,1.4.5c.9,0,1.5-.3,2-.9l1.1,1.2c-.3.5-.8.9-1.4,1.1s-1.2.4-1.9.4ZM342.9,34.1c-.4,0-.8.2-1.1.5-.3.3-.5.7-.5,1.3h3.1v-.2c0-.5-.1-.9-.4-1.2-.3-.3-.6-.4-1.1-.4ZM352.4,38.5c0-.3-.1-.5-.4-.7s-.7-.3-1.3-.4c-2-.4-3-1.3-3-2.6s.3-1.4.9-1.9c.6-.5,1.4-.8,2.4-.8s1.9.3,2.6.8c.6.5,1,1.2,1,2h-2.3c0-.3-.1-.6-.3-.8-.2-.2-.5-.3-1-.3s-.7,0-.9.3c-.2.2-.3.4-.3.7s.1.5.4.6c.2.2.6.3,1.2.4s1,.2,1.4.4c1.2.4,1.8,1.2,1.8,2.3s-.3,1.4-1,1.9c-.7.5-1.5.7-2.6.7s-1.3-.1-1.9-.4c-.5-.3-1-.6-1.3-1s-.5-.9-.5-1.4h2.1c0,.4.2.7.4.9.3.2.6.3,1.1.3s.8,0,1-.2c.2-.2.3-.4.3-.6Z"/>
  <path class="cls-1" d="M215.8,59.8v-8.5h2.4c.7,0,1.4.2,2,.5s1,.8,1.3,1.4c.3.6.5,1.3.5,2.1v.5c0,.8-.2,1.5-.5,2.1-.3.6-.8,1.1-1.3,1.4-.6.3-1.2.5-2,.5h-2.4ZM216.9,52.2v6.7h1.2c.9,0,1.5-.3,2-.8s.7-1.3.7-2.3v-.5c0-1-.2-1.7-.7-2.3-.5-.5-1.1-.8-1.9-.8h-1.3ZM224.7,59.8h-1.1v-6.3h1.1v6.3ZM223.5,51.8c0-.2,0-.3.2-.4.1-.1.3-.2.5-.2s.4,0,.5.2c.1.1.2.3.2.4s0,.3-.2.4-.3.2-.5.2-.4,0-.5-.2-.2-.3-.2-.4ZM226.1,56.6c0-1,.2-1.8.7-2.4.5-.6,1.1-.9,1.8-.9s1.4.3,1.8.8v-.7h1v6.2c0,.8-.2,1.5-.7,1.9-.5.5-1.1.7-2,.7s-.9,0-1.3-.3c-.4-.2-.8-.5-1-.8l.6-.7c.5.6,1,.9,1.7.9s.9-.1,1.2-.4c.3-.3.4-.7.4-1.3v-.5c-.4.5-1,.8-1.8.8s-1.3-.3-1.8-.9-.7-1.4-.7-2.4ZM227.2,56.7c0,.7.1,1.3.4,1.7.3.4.7.6,1.2.6s1.2-.3,1.5-.9v-2.9c-.3-.6-.8-.9-1.5-.9s-.9.2-1.2.6-.4,1-.4,1.8ZM234.3,59.8h-1.1v-6.3h1.1v6.3ZM233.1,51.8c0-.2,0-.3.2-.4.1-.1.3-.2.5-.2s.4,0,.5.2c.1.1.2.3.2.4s0,.3-.2.4-.3.2-.5.2-.4,0-.5-.2-.2-.3-.2-.4ZM237.5,51.9v1.5h1.2v.8h-1.2v3.9c0,.3,0,.4.2.6.1.1.3.2.5.2s.3,0,.5,0v.9c-.3,0-.6.1-.8.1-.5,0-.8-.1-1.1-.4s-.4-.7-.4-1.2v-3.9h-1.2v-.8h1.2v-1.5h1.1ZM243.9,59.8c0-.1-.1-.3-.2-.7-.5.5-1.1.8-1.8.8s-1.1-.2-1.5-.5c-.4-.4-.6-.8-.6-1.3s.3-1.2.8-1.5c.5-.4,1.2-.5,2.1-.5h1.1v-.5c0-.4-.1-.7-.3-.9-.2-.2-.6-.3-1-.3s-.7,0-1,.3c-.3.2-.4.4-.4.7h-1.1c0-.3.1-.6.3-.9.2-.3.5-.5.9-.7.4-.2.8-.3,1.3-.3.7,0,1.3.2,1.7.5.4.4.6.9.6,1.5v2.9c0,.6,0,1,.2,1.4h0c0,0-1.1,0-1.1,0ZM242.1,59c.3,0,.7,0,1-.3s.5-.4.7-.7v-1.3h-.8c-1.3,0-2,.4-2,1.2s.1.6.3.8c.2.2.5.3.9.3ZM247.7,59.8h-1.1v-9h1.1v9ZM255.1,56c-1-.3-1.7-.6-2.1-1s-.7-.9-.7-1.5.3-1.2.8-1.7,1.2-.7,2.1-.7,1.1.1,1.6.3c.5.2.8.5,1.1.9s.4.8.4,1.3h-1.1c0-.5-.2-.9-.5-1.2-.3-.3-.8-.4-1.4-.4s-1,.1-1.3.4c-.3.2-.5.6-.5,1s.1.6.4.9.8.5,1.5.7,1.3.4,1.7.7.7.5.9.8c.2.3.3.7.3,1.1,0,.7-.3,1.2-.8,1.7s-1.3.6-2.2.6-1.1-.1-1.6-.3c-.5-.2-.9-.5-1.2-.9-.3-.4-.4-.8-.4-1.3h1.1c0,.5.2.9.6,1.2s.9.4,1.5.4,1-.1,1.4-.4c.3-.2.5-.6.5-1s-.1-.7-.4-1-.8-.5-1.6-.7ZM262,59.1c.4,0,.7-.1,1-.4s.4-.5.5-.9h1c0,.4-.1.7-.4,1s-.5.6-.9.8c-.4.2-.8.3-1.2.3-.9,0-1.5-.3-2.1-.9-.5-.6-.8-1.4-.8-2.4v-.2c0-.6.1-1.2.3-1.6s.6-.9,1-1.1c.4-.3.9-.4,1.5-.4s1.3.2,1.8.6c.5.4.7,1,.8,1.7h-1c0-.4-.2-.7-.5-1s-.6-.4-1-.4-1,.2-1.3.6c-.3.4-.5,1-.5,1.7v.2c0,.7.2,1.3.5,1.7.3.4.7.6,1.3.6ZM266.9,54.2c.5-.6,1.1-.9,1.9-.9,1.3,0,2,.8,2,2.3v4.2h-1.1v-4.2c0-.5-.1-.8-.3-1-.2-.2-.5-.3-1-.3s-.7,0-.9.3-.5.4-.6.7v4.5h-1.1v-9h1.1v3.4ZM272.1,56.6c0-.6.1-1.2.4-1.7.2-.5.6-.9,1-1.1s.9-.4,1.5-.4c.9,0,1.6.3,2.1.9s.8,1.4.8,2.4h0c0,.7-.1,1.2-.4,1.7-.2.5-.6.9-1,1.1-.4.3-.9.4-1.5.4-.9,0-1.6-.3-2.1-.9s-.8-1.4-.8-2.4h0ZM273.2,56.7c0,.7.2,1.3.5,1.7.3.4.8.6,1.3.6s1-.2,1.3-.6c.3-.4.5-1,.5-1.8s-.2-1.3-.5-1.7c-.3-.4-.8-.6-1.3-.6s-1,.2-1.3.6c-.3.4-.5,1-.5,1.8ZM280.4,59.8h-1.1v-9h1.1v9ZM286.1,59.8c0-.1-.1-.3-.2-.7-.5.5-1.1.8-1.8.8s-1.1-.2-1.5-.5c-.4-.4-.6-.8-.6-1.3s.3-1.2.8-1.5c.5-.4,1.2-.5,2.1-.5h1.1v-.5c0-.4-.1-.7-.3-.9-.2-.2-.6-.3-1-.3s-.7,0-1,.3c-.3.2-.4.4-.4.7h-1.1c0-.3.1-.6.3-.9.2-.3.5-.5.9-.7.4-.2.8-.3,1.3-.3.7,0,1.3.2,1.7.5.4.4.6.9.6,1.5v2.9c0,.6,0,1,.2,1.4h0c0,0-1.1,0-1.1,0ZM284.3,59c.3,0,.7,0,1-.3s.5-.4.7-.7v-1.3h-.8c-1.3,0-2,.4-2,1.2s.1.6.3.8c.2.2.5.3.9.3ZM291.5,54.5c-.2,0-.3,0-.5,0-.7,0-1.2.3-1.4.9v4.5h-1.1v-6.3h1.1v.7c.4-.6.9-.8,1.5-.8s.4,0,.5,0v1ZM296.2,58.1c0-.3-.1-.5-.3-.7-.2-.2-.6-.3-1.2-.4s-1-.3-1.3-.4-.6-.4-.7-.6c-.2-.2-.2-.5-.2-.8,0-.5.2-1,.7-1.3.4-.4,1-.5,1.7-.5s1.3.2,1.7.6c.4.4.7.8.7,1.4h-1.1c0-.3-.1-.6-.4-.8-.3-.2-.6-.3-1-.3s-.7,0-.9.3c-.2.2-.3.4-.3.7s.1.5.3.6c.2.1.6.3,1.1.4.5.1,1,.3,1.3.4.3.2.6.4.7.6.2.2.2.5.2.9,0,.6-.2,1-.7,1.4-.5.3-1,.5-1.8.5s-1,0-1.3-.3c-.4-.2-.7-.4-.9-.8s-.3-.7-.3-1h1.1c0,.4.2.7.4.9.3.2.6.3,1.1.3s.7,0,1-.2c.2-.2.4-.4.4-.7ZM299.8,54.2c.5-.6,1.1-.9,1.9-.9,1.3,0,2,.8,2,2.3v4.2h-1.1v-4.2c0-.5-.1-.8-.3-1-.2-.2-.5-.3-1-.3s-.7,0-.9.3-.5.4-.6.7v4.5h-1.1v-9h1.1v3.4ZM306.5,59.8h-1.1v-6.3h1.1v6.3ZM305.3,51.8c0-.2,0-.3.2-.4.1-.1.3-.2.5-.2s.4,0,.5.2c.1.1.2.3.2.4s0,.3-.2.4-.3.2-.5.2-.4,0-.5-.2-.2-.3-.2-.4ZM313.6,56.7c0,1-.2,1.7-.7,2.3-.4.6-1,.9-1.8.9s-1.4-.2-1.8-.7v3.1h-1.1v-8.8h1v.7c.5-.5,1.1-.8,1.9-.8s1.4.3,1.8.9.7,1.4.7,2.4h0ZM312.5,56.6c0-.7-.2-1.3-.5-1.7-.3-.4-.7-.6-1.3-.6s-1.1.3-1.5.9v3c.3.6.8.9,1.5.9s.9-.2,1.2-.6c.3-.4.5-1,.5-1.8ZM321.8,59.8c0-.1-.1-.3-.2-.7-.5.5-1.1.8-1.8.8s-1.1-.2-1.5-.5c-.4-.4-.6-.8-.6-1.3s.3-1.2.8-1.5c.5-.4,1.2-.5,2.1-.5h1.1v-.5c0-.4-.1-.7-.3-.9-.2-.2-.6-.3-1-.3s-.7,0-1,.3c-.3.2-.4.4-.4.7h-1.1c0-.3.1-.6.3-.9.2-.3.5-.5.9-.7.4-.2.8-.3,1.3-.3.7,0,1.3.2,1.7.5.4.4.6.9.6,1.5v2.9c0,.6,0,1,.2,1.4h0c0,0-1.1,0-1.1,0ZM320,59c.3,0,.7,0,1-.3s.5-.4.7-.7v-1.3h-.8c-1.3,0-2,.4-2,1.2s.1.6.3.8c.2.2.5.3.9.3ZM325.7,53.5v.8c.5-.6,1.2-.9,1.9-.9,1.3,0,2,.8,2,2.3v4.2h-1.1v-4.2c0-.5-.1-.8-.3-1-.2-.2-.5-.3-1-.3s-.7,0-.9.3-.5.4-.6.7v4.5h-1.1v-6.3h1ZM331,56.6c0-1,.2-1.8.7-2.3s1.1-.9,1.8-.9,1.3.3,1.8.8v-3.3h1.1v9h-1v-.7c-.5.5-1.1.8-1.9.8s-1.3-.3-1.8-.9c-.5-.6-.7-1.4-.7-2.4h0ZM332.1,56.7c0,.7.1,1.3.4,1.7.3.4.7.6,1.2.6s1.2-.3,1.5-.9v-2.9c-.3-.6-.8-.9-1.5-.9s-.9.2-1.2.6-.4,1-.4,1.8Z"/>
  <path class="cls-1" d="M216.9,71.5v3.3h-1.1v-8.5h3.1c.9,0,1.7.2,2.2.7.5.5.8,1.1.8,1.9s-.3,1.5-.8,1.9c-.5.4-1.3.7-2.2.7h-2ZM216.9,70.5h2c.6,0,1.1-.1,1.4-.4.3-.3.5-.7.5-1.2s-.2-.9-.5-1.2-.8-.5-1.3-.5h-2.1v3.3ZM227.1,74.2c-.4.5-1,.7-1.9.7s-1.2-.2-1.5-.6-.5-1-.5-1.7v-4.1h1.1v4.1c0,1,.4,1.4,1.2,1.4s1.4-.3,1.7-.9v-4.6h1.1v6.3h-1v-.6ZM235.2,71.7c0,1-.2,1.7-.7,2.3-.4.6-1,.9-1.8.9s-1.4-.3-1.9-.8v.7h-1v-9h1.1v3.4c.4-.5,1-.8,1.8-.8s1.4.3,1.8.9c.4.6.7,1.4.7,2.4h0ZM234.1,71.6c0-.7-.1-1.3-.4-1.7-.3-.4-.7-.6-1.2-.6s-1.2.3-1.5,1v2.7c.3.7.8,1,1.6,1s.9-.2,1.2-.6c.3-.4.4-1,.4-1.8ZM237.7,74.8h-1.1v-9h1.1v9ZM240.6,74.8h-1.1v-6.3h1.1v6.3ZM239.5,66.8c0-.2,0-.3.2-.4.1-.1.3-.2.5-.2s.4,0,.5.2c.1.1.2.3.2.4s0,.3-.2.4-.3.2-.5.2-.4,0-.5-.2-.2-.3-.2-.4ZM246.1,73.1c0-.3-.1-.5-.3-.7-.2-.2-.6-.3-1.2-.4s-1-.3-1.3-.4-.6-.4-.7-.6c-.2-.2-.2-.5-.2-.8,0-.5.2-1,.7-1.3.4-.4,1-.5,1.7-.5s1.3.2,1.7.6c.4.4.7.8.7,1.4h-1.1c0-.3-.1-.6-.4-.8-.3-.2-.6-.3-1-.3s-.7,0-.9.3c-.2.2-.3.4-.3.7s.1.5.3.6c.2.1.6.3,1.1.4.5.1,1,.3,1.3.4.3.2.6.4.7.6.2.2.2.5.2.9,0,.6-.2,1-.7,1.4-.5.3-1,.5-1.8.5s-1,0-1.3-.3c-.4-.2-.7-.4-.9-.8s-.3-.7-.3-1h1.1c0,.4.2.7.4.9.3.2.6.3,1.1.3s.7,0,1-.2c.2-.2.4-.4.4-.7ZM249.6,69.2c.5-.6,1.1-.9,1.9-.9,1.3,0,2,.8,2,2.3v4.2h-1.1v-4.2c0-.5-.1-.8-.3-1-.2-.2-.5-.3-1-.3s-.7,0-.9.3-.5.4-.6.7v4.5h-1.1v-9h1.1v3.4ZM256.3,74.8h-1.1v-6.3h1.1v6.3ZM255.2,66.8c0-.2,0-.3.2-.4.1-.1.3-.2.5-.2s.4,0,.5.2c.1.1.2.3.2.4s0,.3-.2.4-.3.2-.5.2-.4,0-.5-.2-.2-.3-.2-.4ZM259.1,68.5v.8c.5-.6,1.2-.9,1.9-.9,1.3,0,2,.8,2,2.3v4.2h-1.1v-4.2c0-.5-.1-.8-.3-1-.2-.2-.5-.3-1-.3s-.7,0-.9.3-.5.4-.6.7v4.5h-1.1v-6.3h1ZM264.3,71.6c0-1,.2-1.8.7-2.4.5-.6,1.1-.9,1.8-.9s1.4.3,1.8.8v-.7h1v6.2c0,.8-.2,1.5-.7,1.9-.5.5-1.1.7-2,.7s-.9,0-1.3-.3c-.4-.2-.8-.5-1-.8l.6-.7c.5.6,1,.9,1.7.9s.9-.1,1.2-.4c.3-.3.4-.7.4-1.3v-.5c-.4.5-1,.8-1.8.8s-1.3-.3-1.8-.9-.7-1.4-.7-2.4ZM265.3,71.7c0,.7.1,1.3.4,1.7.3.4.7.6,1.2.6s1.2-.3,1.5-.9v-2.9c-.3-.6-.8-.9-1.5-.9s-.9.2-1.2.6-.4,1-.4,1.8ZM276.9,71c-1-.3-1.7-.6-2.1-1s-.7-.9-.7-1.5.3-1.2.8-1.7,1.2-.7,2.1-.7,1.1.1,1.6.3c.5.2.8.5,1.1.9s.4.8.4,1.3h-1.1c0-.5-.2-.9-.5-1.2-.3-.3-.8-.4-1.4-.4s-1,.1-1.3.4c-.3.2-.5.6-.5,1s.1.6.4.9.8.5,1.5.7,1.3.4,1.7.7.7.5.9.8c.2.3.3.7.3,1.1,0,.7-.3,1.2-.8,1.7s-1.3.6-2.2.6-1.1-.1-1.6-.3c-.5-.2-.9-.5-1.2-.9-.3-.4-.4-.8-.4-1.3h1.1c0,.5.2.9.6,1.2s.9.4,1.5.4,1-.1,1.4-.4c.3-.2.5-.6.5-1s-.1-.7-.4-1-.8-.5-1.6-.7ZM282.8,66.9v1.5h1.2v.8h-1.2v3.9c0,.3,0,.4.2.6.1.1.3.2.5.2s.3,0,.5,0v.9c-.3,0-.6.1-.8.1-.5,0-.8-.1-1.1-.4s-.4-.7-.4-1.2v-3.9h-1.2v-.8h1.2v-1.5h1.1ZM289.2,74.2c-.4.5-1,.7-1.9.7s-1.2-.2-1.5-.6-.5-1-.5-1.7v-4.1h1.1v4.1c0,1,.4,1.4,1.2,1.4s1.4-.3,1.7-.9v-4.6h1.1v6.3h-1v-.6ZM291.6,71.6c0-1,.2-1.8.7-2.3s1.1-.9,1.8-.9,1.3.3,1.8.8v-3.3h1.1v9h-1v-.7c-.5.5-1.1.8-1.9.8s-1.3-.3-1.8-.9c-.5-.6-.7-1.4-.7-2.4h0ZM292.7,71.7c0,.7.1,1.3.4,1.7.3.4.7.6,1.2.6s1.2-.3,1.5-.9v-2.9c-.3-.6-.8-.9-1.5-.9s-.9.2-1.2.6-.4,1-.4,1.8ZM299.8,74.8h-1.1v-6.3h1.1v6.3ZM298.6,66.8c0-.2,0-.3.2-.4.1-.1.3-.2.5-.2s.4,0,.5.2c.1.1.2.3.2.4s0,.3-.2.4-.3.2-.5.2-.4,0-.5-.2-.2-.3-.2-.4ZM301.3,71.6c0-.6.1-1.2.4-1.7.2-.5.6-.9,1-1.1s.9-.4,1.5-.4c.9,0,1.6.3,2.1.9s.8,1.4.8,2.4h0c0,.7-.1,1.2-.4,1.7-.2.5-.6.9-1,1.1-.4.3-.9.4-1.5.4-.9,0-1.6-.3-2.1-.9s-.8-1.4-.8-2.4h0ZM302.4,71.7c0,.7.2,1.3.5,1.7.3.4.8.6,1.3.6s1-.2,1.3-.6c.3-.4.5-1,.5-1.8s-.2-1.3-.5-1.7c-.3-.4-.8-.6-1.3-.6s-1,.2-1.3.6c-.3.4-.5,1-.5,1.8Z"/>
  <rect class="cls-1" x="202.8" y="20.8" width="1.5" height="62.8"/>
</svg>