<svg xmlns="http://www.w3.org/2000/svg" viewBox="0 0 1636 183.28"><defs><style>.cls-1{fill:silver;}</style></defs><title>Icons</title><g id="Layer_2" data-name="Layer 2"><path class="cls-1" d="M879.24,179.37c-.11-.16-11.35-15.39-19.78-20.32-7.33-4.3-23-8.86-45.59-13.5-15.6,5.21-26.75,10.23-34.7,14.71-4.76,2.68-9.63,8.77-12.83,13.31l-3.69,5.66-5.11-3.15c.15-.25,1.61-2.73,3.9-6l19.88-30.48C733.57,131.77,667.6,124,589.83,117.24,469,106.77,330,99.68,186.6,96.49,87,96.41,16.47,94.62,15.34,94.59l.08-6c59.28,0,116.85.68,172.28,1.91,61.33,0,133.59-.57,207.38-2.64C534.68,84,702.18,74.08,794.84,50L777.53,23.42a88,88,0,0,1-8.09-12.07c-.82-1.38-1.64-2.78-2.51-4.18L772,4l10.36,15.89a42.44,42.44,0,0,0,6.49,6.21c7.59,5.86,18.45,11.18,32,16,13.62-4.84,24.51-10.17,32.09-16a38.48,38.48,0,0,0,6.82-6.71l8.15-12.49q.9-1.44,1.92-2.94l5,3.32L873,10.09c-.76,1.21-1.49,2.4-2.2,3.57a90.32,90.32,0,0,1-6.13,9.21L846.93,50c92.22,24.09,258.42,34,396.91,37.86,60.43,1.71,119.82,2.42,172.92,2.59,75-1.19,146.92-1.86,203.82-1.86l.08,6c-1.25,0-87.54,2.24-203.94,1.86-166.53,2.67-347.9,8-412.23,14.53-65,6.62-112.75,14.61-147.86,22.75L884.17,176Zm-54-37.41c18.19,4.12,30.81,8.13,37.26,11.91l.19.11L850.43,135.2C841.11,137.46,832.74,139.72,825.23,142Zm-37.45-1.26-8.14,12.48a198,198,0,0,1,22.66-9.89C797.69,142.43,792.84,141.56,787.78,140.7Zm3.52-5.4q11.9,2.07,22.05,4.13c9.54-3.14,20.66-6.34,33.62-9.54l-26.07-40ZM335.42,95.24c199.36,8.45,358.81,23.75,449.44,39l32.46-49.77-19.05-29.2C768,63.31,728.13,70.25,679,76c-74.12,8.67-169.61,14.68-283.8,17.88C375.12,94.42,355.11,94.88,335.42,95.24ZM824.48,84.42l28.68,44c35.63-8.38,84.29-16.62,150.72-23.39,42.79-4.36,137.18-8.17,244.58-11l-4.79-.13c-113.35-3.2-208.16-9.21-281.81-17.88-48.69-5.72-88.23-12.65-118.37-20.71ZM804.34,53.55,820.9,78.93l16.52-25.34q-8.88-2.54-16.57-5.2Q813.19,51,804.34,53.55Zm25.45-8.47q5.3,1.68,11.05,3.28L848.93,36A136.63,136.63,0,0,1,829.79,45.08ZM792.87,36l8.06,12.36c3.8-1.06,7.47-2.14,11-3.25A136.69,136.69,0,0,1,792.87,36Z"/></g></svg>